<?xml version="1.0" encoding="UTF-8"?>
<!DOCTYPE svg PUBLIC "-//W3C//DTD SVG 1.1//EN" "http://www.w3.org/Graphics/SVG/1.1/DTD/svg11.dtd">
<svg xmlns="http://www.w3.org/2000/svg" version="1.1" width="1040px" height="1040px" style="shape-rendering:geometricPrecision; text-rendering:geometricPrecision; image-rendering:optimizeQuality; fill-rule:evenodd; clip-rule:evenodd" xmlns:xlink="http://www.w3.org/1999/xlink">
<g><path style="opacity:1" fill="#fefefe" d="M -0.5,-0.5 C 346.167,-0.5 692.833,-0.5 1039.5,-0.5C 1039.5,346.167 1039.5,692.833 1039.5,1039.5C 692.833,1039.5 346.167,1039.5 -0.5,1039.5C -0.5,692.833 -0.5,346.167 -0.5,-0.5 Z"/></g>
<g><path style="opacity:1" fill="#272324" d="M 661.5,174.5 C 664.263,174.744 666.429,176.077 668,178.5C 673.653,188.468 679.319,198.468 685,208.5C 685.564,213.936 683.397,215.436 678.5,213C 677,211.5 675.5,210 674,208.5C 670.333,202.5 666.667,196.5 663,190.5C 660.448,185.318 659.948,179.985 661.5,174.5 Z"/></g>
<g><path style="opacity:1" fill="#282425" d="M 747.5,183.5 C 752.6,184.276 753.766,186.943 751,191.5C 743.833,197.333 737.333,203.833 731.5,211C 726.667,212.166 724.833,210.333 726,205.5C 729.617,197.871 734.783,191.371 741.5,186C 743.723,185.434 745.723,184.6 747.5,183.5 Z"/></g>
<g><path style="opacity:1" fill="#282425" d="M 749.5,242.5 C 756.278,242.514 762.945,243.347 769.5,245C 775.417,250.574 774.25,253.408 766,253.5C 760.113,253.04 754.28,252.207 748.5,251C 746.582,249.23 746.082,247.063 747,244.5C 747.995,243.934 748.828,243.267 749.5,242.5 Z"/></g>
<g><path style="opacity:1" fill="#232021" d="M 599.5,364.5 C 600.833,364.5 602.167,364.5 603.5,364.5C 607.078,365.589 610.745,365.755 614.5,365C 620.529,362.321 625.862,358.654 630.5,354C 626.853,355.664 623.187,357.664 619.5,360C 616.568,361.145 613.568,361.978 610.5,362.5C 607.833,362.5 605.167,362.5 602.5,362.5C 601.417,362.461 600.417,362.127 599.5,361.5C 583.511,375.773 564.845,382.606 543.5,382C 535.714,379.212 531.214,373.712 530,365.5C 522.078,376.757 512.245,385.923 500.5,393C 507.704,392.592 514.37,394.258 520.5,398C 523.978,400.706 524.311,403.706 521.5,407C 518.839,407.062 516.505,406.062 514.5,404C 506.998,401.635 499.331,400.968 491.5,402C 484.172,404.221 477.172,407.221 470.5,411C 467.601,411.22 464.767,410.72 462,409.5C 458.143,410.105 454.31,410.772 450.5,411.5C 451.84,436.068 455.006,460.402 460,484.5C 461.262,490.285 462.928,495.952 465,501.5C 467.069,502.264 469.236,502.764 471.5,503C 485.833,503.333 500.167,503.667 514.5,504C 515.925,505.714 515.592,507.047 513.5,508C 479.5,508.667 445.5,508.667 411.5,508C 410.376,507.751 409.376,507.251 408.5,506.5C 409.779,504.854 411.445,503.687 413.5,503C 429.167,502.667 444.833,502.333 460.5,502C 455.015,487.634 451.181,472.801 449,457.5C 445.73,446.524 442.563,435.524 439.5,424.5C 431.482,420.568 424.982,422.235 420,429.5C 421.064,449.582 431.064,463.248 450,470.5C 450.617,471.449 450.451,472.282 449.5,473C 443.145,473.771 437.478,472.105 432.5,468C 421.43,458.856 415.096,447.19 413.5,433C 413.335,430.083 414.002,427.417 415.5,425C 412.833,425 410.167,425 407.5,425C 393.313,417.309 385.979,405.309 385.5,389C 385.354,374.941 391.354,364.608 403.5,358C 405.473,357.505 407.473,357.338 409.5,357.5C 404.67,320.663 418.003,292.497 449.5,273C 478.344,258.701 507.01,259.034 535.5,274C 541.258,277.754 546.425,282.254 551,287.5C 575.665,254.725 607.831,243.225 647.5,253C 660.888,259.918 669.388,270.751 673,285.5C 675.46,295.435 675.96,305.435 674.5,315.5C 684.302,314.648 692.136,318.314 698,326.5C 702.658,335.402 703.658,344.735 701,354.5C 694.778,375.725 683.278,393.559 666.5,408C 658.061,415.036 648.395,418.036 637.5,417C 631.257,414.7 627.757,410.2 627,403.5C 626.427,395.08 627.094,386.747 629,378.5C 632.07,370.39 635.07,362.39 638,354.5C 628.378,367.819 615.545,372.652 599.5,369C 596.894,367.35 596.894,365.85 599.5,364.5 Z"/></g>
<g><path style="opacity:1" fill="#edecec" d="M 621.5,255.5 C 647.266,254.393 662.766,266.726 668,292.5C 668.667,302.167 668.667,311.833 668,321.5C 669.367,300.931 663.201,283.098 649.5,268C 641.522,260.845 632.189,256.678 621.5,255.5 Z"/></g>
<g><path style="opacity:1" fill="#e4e4e4" d="M 442.5,285.5 C 443.239,285.369 443.906,285.536 444.5,286C 426.76,301.048 418.426,320.215 419.5,343.5C 419.566,350.92 420.066,358.253 421,365.5C 418.098,361.718 416.432,357.385 416,352.5C 413.231,331.478 418.565,312.811 432,296.5C 435.704,292.964 439.204,289.298 442.5,285.5 Z"/></g>
<g><path style="opacity:1" fill="#dddddd" d="M 603.5,364.5 C 605.833,363.833 608.167,363.167 610.5,362.5C 613.568,361.978 616.568,361.145 619.5,360C 623.187,357.664 626.853,355.664 630.5,354C 625.862,358.654 620.529,362.321 614.5,365C 610.745,365.755 607.078,365.589 603.5,364.5 Z"/></g>
<g><path style="opacity:1" fill="#9a9898" d="M 602.5,362.5 C 605.167,362.5 607.833,362.5 610.5,362.5C 608.167,363.167 605.833,363.833 603.5,364.5C 602.167,364.5 600.833,364.5 599.5,364.5C 600.5,363.833 601.5,363.167 602.5,362.5 Z"/></g>
<g><path style="opacity:1" fill="#e4e3e3" d="M 537.5,365.5 C 540.162,368.655 543.495,370.822 547.5,372C 555.575,372.517 563.575,372.184 571.5,371C 564.795,373.926 557.795,375.76 550.5,376.5C 542.722,376.712 538.388,373.045 537.5,365.5 Z"/></g>
<g><path style="opacity:1" fill="#282425" d="M 576.5,378.5 C 590.369,376.57 603.036,379.57 614.5,387.5C 617.418,391.249 616.585,393.915 612,395.5C 596.98,384.609 581.48,383.776 565.5,393C 562.143,394.141 560.143,392.975 559.5,389.5C 559.876,387.617 560.876,386.117 562.5,385C 567.137,382.511 571.804,380.344 576.5,378.5 Z"/></g>
<g><path style="opacity:1" fill="#282425" d="M 626.5,422.5 C 627.822,422.33 628.989,422.663 630,423.5C 630.333,425.167 630.667,426.833 631,428.5C 637.57,423.549 644.737,422.382 652.5,425C 657.696,428.026 660.03,432.526 659.5,438.5C 657.556,459.539 646.889,474.373 627.5,483C 625.866,483.494 624.199,483.66 622.5,483.5C 622.393,481.097 623.393,479.264 625.5,478C 643.211,469.301 652.378,455.135 653,435.5C 652.215,433.714 651.049,432.214 649.5,431C 644.007,429.642 639.173,430.809 635,434.5C 628.541,451.998 622.541,469.664 617,487.5C 615.107,492.287 612.94,496.953 610.5,501.5C 636.16,502.666 661.827,502.833 687.5,502C 686.391,496.237 688.725,492.237 694.5,490C 701.234,489.171 707.901,489.504 714.5,491C 717.035,491.928 718.035,493.762 717.5,496.5C 710.598,494.751 703.598,494.251 696.5,495C 692.777,496.259 691.777,498.592 693.5,502C 703.572,502.233 713.572,501.4 723.5,499.5C 728.669,490.739 736.002,487.906 745.5,491C 746.956,492.745 748.289,494.578 749.5,496.5C 756.979,493.487 761.479,495.82 763,503.5C 768.796,498.212 774.63,498.212 780.5,503.5C 787.393,499.956 793.226,501.289 798,507.5C 802.529,513.086 804.195,519.419 803,526.5C 799.006,533.663 794.006,534.33 788,528.5C 784.593,524.372 782.926,519.705 783,514.5C 784.049,513.483 785.216,513.316 786.5,514C 788.956,516.408 790.789,519.241 792,522.5C 793.11,524.037 794.61,524.703 796.5,524.5C 797.422,516.761 794.755,510.594 788.5,506C 786.5,505.333 784.5,505.333 782.5,506C 779.394,520.79 770.727,531.123 756.5,537C 747.167,537.667 737.833,537.667 728.5,537C 724.406,533.732 719.74,531.732 714.5,531C 710.74,526.435 710.573,521.601 714,516.5C 717.811,511.014 722.978,507.681 729.5,506.5C 730.5,506.833 731.5,507.167 732.5,507.5C 732.333,507.833 732.167,508.167 732,508.5C 727.667,512.167 723.333,515.833 719,519.5C 717.589,521.65 716.755,523.984 716.5,526.5C 729.906,522.094 738.572,513.094 742.5,499.5C 742.167,497.167 740.833,495.833 738.5,495.5C 734.486,497.004 731.152,499.504 728.5,503C 724.114,505.096 719.78,507.096 715.5,509C 671.479,509.452 627.479,508.618 583.5,506.5C 584.364,504.803 585.697,503.637 587.5,503C 593.416,502.81 599.249,502.31 605,501.5C 616.513,477.115 623.18,451.449 625,424.5C 625.717,423.956 626.217,423.289 626.5,422.5 Z"/></g>
<g><path style="opacity:1" fill="#282425" d="M 531.5,436.5 C 533.144,436.286 534.644,436.62 536,437.5C 537.353,447.556 536.02,457.223 532,466.5C 526.625,474.29 519.458,476.457 510.5,473C 505.189,469.009 501.355,463.843 499,457.5C 496.861,451.948 495.528,446.282 495,440.5C 497,437.833 499,437.833 501,440.5C 502.204,449.447 505.37,457.613 510.5,465C 517.01,470.275 522.51,469.442 527,462.5C 529.587,453.975 531.087,445.308 531.5,436.5 Z"/></g>
<g><path style="opacity:1" fill="#292526" d="M 580.5,435.5 C 584.24,434.741 585.907,436.241 585.5,440C 585.165,448.668 582.999,456.835 579,464.5C 574.976,469.592 569.809,472.759 563.5,474C 571.507,486.013 575.007,499.18 574,513.5C 569.506,522.908 562.006,526.408 551.5,524C 545.809,521.787 540.809,518.62 536.5,514.5C 538.421,513.359 540.421,513.192 542.5,514C 548.577,518.175 555.243,519.509 562.5,518C 564.624,516.878 566.457,515.378 568,513.5C 568.751,508.428 568.418,503.428 567,498.5C 561,484.5 555,470.5 549,456.5C 548.501,452.514 548.334,448.514 548.5,444.5C 549.822,444.33 550.989,444.663 552,445.5C 553.937,451.976 556.27,458.309 559,464.5C 563.732,468.369 568.065,467.702 572,462.5C 576.758,454.888 579.091,446.555 579,437.5C 579.717,436.956 580.217,436.289 580.5,435.5 Z"/></g>
<g><path style="opacity:1" fill="#282425" d="M 304.5,483.5 C 307.187,483.336 309.854,483.503 312.5,484C 312.998,485.158 313.831,485.991 315,486.5C 319.623,483.493 323.79,483.993 327.5,488C 329.833,488.333 332.167,488.667 334.5,489C 337.514,491.547 340.181,494.38 342.5,497.5C 344.562,496.271 346.729,495.271 349,494.5C 353.724,495.442 357.558,497.776 360.5,501.5C 363.438,500.425 366.438,500.259 369.5,501C 376.772,504.593 384.438,506.426 392.5,506.5C 392.378,502.853 390.712,500.019 387.5,498C 380.324,495.368 372.99,494.868 365.5,496.5C 362.736,495.372 362.069,493.538 363.5,491C 373.083,487.446 382.417,488.113 391.5,493C 398.076,496.974 399.91,502.474 397,509.5C 393.578,511.929 389.744,512.929 385.5,512.5C 379.259,511.702 373.093,510.369 367,508.5C 366.167,508.833 365.333,509.167 364.5,509.5C 367.172,514.884 368.006,520.551 367,526.5C 365.333,530.5 362.333,532.5 358,532.5C 354.487,532.107 351.153,531.107 348,529.5C 343.396,532.136 338.729,534.469 334,536.5C 332.033,536.458 330.199,535.958 328.5,535C 324.812,532.26 321.312,529.427 318,526.5C 307.801,530.976 300.634,528.142 296.5,518C 288.46,520.136 284.794,516.969 285.5,508.5C 278.782,508.302 272.115,507.635 265.5,506.5C 265.5,505.167 265.5,503.833 265.5,502.5C 273.202,502.569 280.869,502.069 288.5,501C 292.31,493.694 297.643,487.86 304.5,483.5 Z"/></g>
<g><path style="opacity:1" fill="#f5f5f5" d="M 305.5,489.5 C 307.288,489.215 308.955,489.548 310.5,490.5C 307.731,494.601 305.398,498.935 303.5,503.5C 299.543,506.122 295.876,509.122 292.5,512.5C 291.398,509.81 291.564,507.143 293,504.5C 296.243,498.65 300.409,493.65 305.5,489.5 Z"/></g>
<g><path style="opacity:1" fill="#f7f7f7" d="M 318.5,490.5 C 321.38,490.033 323.713,490.866 325.5,493C 322.983,498.234 321.316,503.734 320.5,509.5C 317.785,512.057 315.618,515.057 314,518.5C 309.411,524.356 306.911,523.689 306.5,516.5C 307.015,509.788 308.848,503.455 312,497.5C 313.694,494.642 315.861,492.309 318.5,490.5 Z"/></g>
<g><path style="opacity:1" fill="#f5f5f5" d="M 329.5,492.5 C 333.52,495.863 336.02,500.196 337,505.5C 337.916,514.272 337.416,522.939 335.5,531.5C 334.127,531.657 332.793,531.49 331.5,531C 327.81,524.544 326.144,517.544 326.5,510C 326.631,503.986 327.631,498.152 329.5,492.5 Z"/></g>
<g><path style="opacity:1" fill="#f3f3f3" d="M 344.5,498.5 C 350.534,499.354 354.7,502.688 357,508.5C 360.173,513.729 361.006,519.229 359.5,525C 357.583,524.973 355.916,524.139 354.5,522.5C 348.25,515.758 344.917,507.758 344.5,498.5 Z"/></g>
<g><path style="opacity:1" fill="#f6f6f6" d="M 752.5,500.5 C 755.261,499.915 756.927,500.915 757.5,503.5C 754.925,513.149 749.925,521.316 742.5,528C 739.439,530.035 736.105,531.201 732.5,531.5C 732.337,529.143 732.503,526.81 733,524.5C 740.22,519.05 745.22,512.05 748,503.5C 749.652,502.601 751.152,501.601 752.5,500.5 Z"/></g>
<g><path style="opacity:1" fill="#f7f7f7" d="M 768.5,505.5 C 774.674,504.173 776.841,506.506 775,512.5C 769.791,523.648 761.291,529.648 749.5,530.5C 754.358,524.804 758.192,518.47 761,511.5C 763.478,509.361 765.978,507.361 768.5,505.5 Z"/></g>
<g><path style="opacity:1" fill="#282425" d="M 260.5,512.5 C 261.497,512.47 262.164,512.97 262.5,514C 260.738,521.287 258.571,528.453 256,535.5C 213.175,631.483 171.175,727.816 130,824.5C 125.644,830.416 123.977,829.75 125,822.5C 130,809.833 135,797.167 140,784.5C 179.104,693.351 219.271,602.685 260.5,512.5 Z"/></g>
<g><path style="opacity:1" fill="#2e2a2b" d="M 726.5,556.5 C 724.034,555.366 721.367,555.199 718.5,556C 719.252,556.671 719.586,557.504 719.5,558.5C 719.265,559.097 718.765,559.43 718,559.5C 715.327,557.746 712.493,556.412 709.5,555.5C 708.5,555.667 707.5,555.833 706.5,556C 709.433,558.351 709.099,559.351 705.5,559C 700.527,557.247 696.194,554.58 692.5,551C 690.5,550.667 688.5,550.333 686.5,550C 687.815,548.605 687.481,547.605 685.5,547C 681.713,546.84 678.046,546.174 674.5,545C 672.606,543.921 672.273,542.587 673.5,541C 691.486,541.181 709.486,541.515 727.5,542C 734.399,547.065 740.066,553.231 744.5,560.5C 743.277,561.614 741.944,561.781 740.5,561C 738.833,559.333 737.167,557.667 735.5,556C 732.493,555.699 729.493,555.865 726.5,556.5 Z"/></g>
<g><path style="opacity:1" fill="#292526" d="M 670.5,550.5 C 670.44,549.957 670.107,549.624 669.5,549.5C 669.118,553.916 668.118,557.916 666.5,561.5C 665.778,561.082 665.278,560.416 665,559.5C 664.333,554.5 664.333,549.5 665,544.5C 667.21,543.251 669.376,543.418 671.5,545C 679.212,551.714 687.212,558.047 695.5,564C 712.163,564.5 728.83,564.667 745.5,564.5C 745.5,565.833 745.5,567.167 745.5,568.5C 728.518,569.577 711.518,569.744 694.5,569C 686.29,563.067 678.29,556.9 670.5,550.5 Z"/></g>
<g><path style="opacity:1" fill="#2a2627" d="M 331.5,684.5 C 330.244,684.461 329.244,684.961 328.5,686C 335.346,686.821 342.013,686.654 348.5,685.5C 357.423,685.032 366.09,686.198 374.5,689C 375.833,690.333 377.167,691.667 378.5,693C 360.18,692.15 341.847,691.15 323.5,690C 320.157,684.338 321.824,680.672 328.5,679C 335.862,677.461 343.196,675.794 350.5,674C 345.664,672.598 340.664,671.598 335.5,671C 301.504,669.549 267.504,668.216 233.5,667C 225.942,663.555 225.609,659.555 232.5,655C 235.757,653.957 239.09,653.457 242.5,653.5C 243.833,653.5 245.167,653.5 246.5,653.5C 246.827,643.652 246.494,633.986 245.5,624.5C 245.299,618.491 244.966,612.491 244.5,606.5C 247.642,606.799 249.809,608.466 251,611.5C 252.781,625.142 252.948,638.808 251.5,652.5C 255.833,652.5 260.167,652.5 264.5,652.5C 264.139,646.407 264.639,640.407 266,634.5C 269.797,627.902 274.963,626.736 281.5,631C 285.034,637.695 286.367,644.861 285.5,652.5C 290.648,653.074 295.482,652.407 300,650.5C 303.329,635.273 304.162,619.94 302.5,604.5C 303.451,603.081 303.784,601.415 303.5,599.5C 301.5,599.5 299.5,599.5 297.5,599.5C 282.554,597.969 267.554,597.136 252.5,597C 247.486,595.788 246.319,592.955 249,588.5C 257.786,576.712 266.953,565.212 276.5,554C 277.167,553.833 277.833,553.667 278.5,553.5C 281.406,554.897 283.906,556.897 286,559.5C 291.269,566.382 296.769,573.048 302.5,579.5C 303.341,581.379 303.675,583.379 303.5,585.5C 298.615,584.723 294.615,582.39 291.5,578.5C 290.312,579.84 288.812,580.507 287,580.5C 283.974,579.238 280.808,578.238 277.5,577.5C 276.089,575.983 276.256,574.649 278,573.5C 278.915,574.328 279.581,575.328 280,576.5C 282.262,573.903 284.095,574.07 285.5,577C 287.259,577.798 288.926,577.631 290.5,576.5C 287.19,572.022 283.69,567.689 280,563.5C 272.833,572.667 265.667,581.833 258.5,591C 267.833,591.333 277.167,591.667 286.5,592C 292.392,592.117 298.059,593.283 303.5,595.5C 304.487,592.232 304.82,588.898 304.5,585.5C 304.5,582.167 304.5,578.833 304.5,575.5C 306.398,571.496 307.898,571.83 309,576.5C 309.766,602.181 309.6,627.848 308.5,653.5C 339.872,653.997 371.205,653.331 402.5,651.5C 401.834,641.514 401.501,631.514 401.5,621.5C 391.167,621.5 380.833,621.5 370.5,621.5C 370.832,631.19 370.498,640.856 369.5,650.5C 368.914,650.291 368.414,649.957 368,649.5C 365.751,638.279 365.085,626.946 366,615.5C 369,612.167 372,608.833 375,605.5C 375.879,590.131 375.546,574.797 374,559.5C 367.104,565.363 359.937,570.863 352.5,576C 338.185,575.234 323.851,574.234 309.5,573C 307.963,571.89 307.297,570.39 307.5,568.5C 321.178,568.68 334.845,568.846 348.5,569C 351.524,567.487 354.191,565.487 356.5,563C 351.311,561.705 346.811,562.872 343,566.5C 342.5,566.167 342,565.833 341.5,565.5C 342.313,564.186 343.313,563.019 344.5,562C 341.271,561.414 338.271,561.914 335.5,563.5C 335.649,562.448 335.483,561.448 335,560.5C 333.649,560.554 332.482,560.054 331.5,559C 332.615,557.765 332.615,556.598 331.5,555.5C 333.023,553.717 335.023,553.051 337.5,553.5C 338.289,553.217 338.956,552.717 339.5,552C 335.514,551.501 331.514,551.334 327.5,551.5C 324.813,551.664 322.146,551.497 319.5,551C 320.328,550.085 321.328,549.419 322.5,549C 340.862,548.131 359.195,548.464 377.5,550C 379.993,551.325 381.16,553.491 381,556.5C 381.416,571.179 381.416,585.845 381,600.5C 384.728,598.034 388.895,597.034 393.5,597.5C 403.877,597.956 414.21,598.623 424.5,599.5C 425.583,600.365 425.749,601.365 425,602.5C 419.647,607.354 414.147,612.021 408.5,616.5C 407.31,627.837 407.31,639.17 408.5,650.5C 417.379,649.808 417.712,651.308 409.5,655C 399.434,658.289 389.1,659.955 378.5,660C 333.167,659.944 287.834,659.944 242.5,660C 240.122,660.974 240.456,661.641 243.5,662C 271.829,662.867 300.162,663.533 328.5,664C 336.583,664.35 344.583,665.35 352.5,667C 361.146,668.955 362.48,672.955 356.5,679C 348.246,681.264 339.913,683.097 331.5,684.5 Z"/></g>
<g><path style="opacity:1" fill="#d7d6d6" d="M 725.5,551.5 C 728.122,549.992 730.455,550.492 732.5,553C 729.935,553.609 727.601,553.109 725.5,551.5 Z"/></g>
<g><path style="opacity:1" fill="#8a8888" d="M 327.5,551.5 C 331.514,551.334 335.514,551.501 339.5,552C 338.956,552.717 338.289,553.217 337.5,553.5C 334.167,552.833 330.833,552.167 327.5,551.5 Z"/></g>
<g><path style="opacity:1" fill="#e3e2e2" d="M 697.5,551.5 C 701.668,549.908 705.668,550.408 709.5,553C 705.31,553.81 701.31,553.31 697.5,551.5 Z"/></g>
<g><path style="opacity:1" fill="#dbdbdb" d="M 711.5,551.5 C 715.341,549.939 719.008,550.439 722.5,553C 718.598,553.888 714.931,553.388 711.5,551.5 Z"/></g>
<g><path style="opacity:1" fill="#d7d6d6" d="M 351.5,552.5 C 359.044,552.111 359.377,553.111 352.5,555.5C 348.93,555.245 348.597,554.245 351.5,552.5 Z"/></g>
<g><path style="opacity:1" fill="#c9c8c9" d="M 342.5,552.5 C 347.1,552.345 347.433,553.012 343.5,554.5C 341.279,554.561 340.946,553.895 342.5,552.5 Z"/></g>
<g><path style="opacity:1" fill="#f6f6f6" d="M 361.5,553.5 C 363.527,553.338 365.527,553.505 367.5,554C 365.386,555.518 363.053,555.851 360.5,555C 361.056,554.617 361.389,554.117 361.5,553.5 Z"/></g>
<g><path style="opacity:1" fill="#6e6b6c" d="M 670.5,550.5 C 669.517,554.298 669.183,558.298 669.5,562.5C 668.209,562.737 667.209,562.404 666.5,561.5C 668.118,557.916 669.118,553.916 669.5,549.5C 670.107,549.624 670.44,549.957 670.5,550.5 Z"/></g>
<g><path style="opacity:1" fill="#282425" d="M 820.5,555.5 C 821.496,555.414 822.329,555.748 823,556.5C 837.044,590.294 849.71,624.628 861,659.5C 878.201,711.438 895.201,763.438 912,815.5C 913.946,821.156 914.779,826.822 914.5,832.5C 910.119,827.229 906.952,821.229 905,814.5C 878.325,732.14 850.658,650.14 822,568.5C 820.805,564.249 820.305,559.915 820.5,555.5 Z"/></g>
<g><path style="opacity:1" fill="#c0bfbf" d="M 336.5,556.5 C 341.1,556.345 341.433,557.012 337.5,558.5C 335.279,558.561 334.946,557.895 336.5,556.5 Z"/></g>
<g><path style="opacity:1" fill="#8f8d8d" d="M 726.5,556.5 C 723.789,556.185 721.456,556.852 719.5,558.5C 719.586,557.504 719.252,556.671 718.5,556C 721.367,555.199 724.034,555.366 726.5,556.5 Z"/></g>
<g><path style="opacity:1" fill="#a3a2a2" d="M 344.5,557.5 C 346.527,557.338 348.527,557.505 350.5,558C 348.121,560.142 346.121,559.976 344.5,557.5 Z"/></g>
<g><path style="opacity:1" fill="#282425" d="M 461.5,560.5 C 464.909,560.249 468.242,560.583 471.5,561.5C 472.84,562.688 473.507,564.188 473.5,566C 472.096,569.869 470.929,573.703 470,577.5C 484.871,575.219 488.204,580.552 480,593.5C 473.824,600.17 466.324,602.504 457.5,600.5C 461.747,598.418 465.581,595.751 469,592.5C 471.571,590.024 473.071,587.024 473.5,583.5C 469.387,585.386 465.054,586.386 460.5,586.5C 461.388,579.707 463.722,573.373 467.5,567.5C 466.833,567.167 466.167,566.833 465.5,566.5C 463.272,567.219 461.439,568.552 460,570.5C 457.187,577.131 454.687,583.798 452.5,590.5C 448.307,587.14 443.974,583.973 439.5,581C 435.752,578.236 433.419,579.069 432.5,583.5C 435.408,593.575 441.908,600.242 452,603.5C 452.667,615.5 452.667,627.5 452,639.5C 451.71,641.952 451.044,644.285 450,646.5C 448.989,647.337 447.822,647.67 446.5,647.5C 446.667,633.829 446.5,620.163 446,606.5C 434.134,600.728 427.8,591.394 427,578.5C 430.308,574.673 434.474,573.506 439.5,575C 443.51,576.343 447.01,578.509 450,581.5C 451.745,573.343 455.578,566.343 461.5,560.5 Z"/></g>
<g><path style="opacity:1" fill="#2f2b2c" d="M 626.5,563.5 C 643.17,563.333 659.837,563.5 676.5,564C 681.688,568.524 686.188,573.691 690,579.5C 691.128,581.345 691.628,583.345 691.5,585.5C 690.127,585.657 688.793,585.49 687.5,585C 683.823,580.627 680.156,576.293 676.5,572C 673.211,571.118 669.877,570.452 666.5,570C 653.167,569.667 639.833,569.333 626.5,569C 625.248,567.172 625.248,565.339 626.5,563.5 Z"/></g>
<g><path style="opacity:1" fill="#faf9f9" d="M 303.5,585.5 C 303.833,585.5 304.167,585.5 304.5,585.5C 304.82,588.898 304.487,592.232 303.5,595.5C 298.059,593.283 292.392,592.117 286.5,592C 277.167,591.667 267.833,591.333 258.5,591C 265.667,581.833 272.833,572.667 280,563.5C 283.69,567.689 287.19,572.022 290.5,576.5C 288.926,577.631 287.259,577.798 285.5,577C 284.095,574.07 282.262,573.903 280,576.5C 279.581,575.328 278.915,574.328 278,573.5C 276.256,574.649 276.089,575.983 277.5,577.5C 280.808,578.238 283.974,579.238 287,580.5C 288.812,580.507 290.312,579.84 291.5,578.5C 294.615,582.39 298.615,584.723 303.5,585.5 Z"/></g>
<g><path style="opacity:1" fill="#282526" d="M 760.5,564.5 C 763.099,564.549 765.266,565.549 767,567.5C 773.766,577.779 779.932,588.446 785.5,599.5C 796.496,600.381 807.496,601.214 818.5,602C 821.294,607.09 824.46,611.923 828,616.5C 828.667,632.5 828.667,648.5 828,664.5C 827.612,665.428 826.945,666.095 826,666.5C 824.523,665.556 823.523,664.223 823,662.5C 822.833,660.167 822.667,657.833 822.5,655.5C 823.493,644.177 823.66,632.844 823,621.5C 812.219,620.751 801.385,620.084 790.5,619.5C 790.5,635.5 790.5,651.5 790.5,667.5C 807.165,667.99 823.831,668.49 840.5,669C 843.215,669.875 844.548,671.708 844.5,674.5C 800.831,674.031 757.164,673.364 713.5,672.5C 697.5,672.667 681.5,672.833 665.5,673C 659.455,673.508 653.455,674.341 647.5,675.5C 645.133,675.158 642.8,674.658 640.5,674C 642.956,672.289 645.623,670.956 648.5,670C 660.742,667.904 673.076,666.571 685.5,666C 686.416,665.626 687.25,665.126 688,664.5C 689.12,643.851 689.787,623.184 690,602.5C 690.7,600.968 691.866,599.968 693.5,599.5C 695.111,602.22 695.944,605.22 696,608.5C 696.5,627.83 696.667,647.164 696.5,666.5C 711.745,666.824 726.911,666.491 742,665.5C 743.771,634.192 744.771,602.859 745,571.5C 746.156,570.007 746.99,570.174 747.5,572C 748.127,574.135 748.627,576.302 749,578.5C 752.35,573.328 756.183,568.662 760.5,564.5 Z"/></g>
<g><path style="opacity:1" fill="#2a2627" d="M 620.5,571.5 C 622.655,571.372 624.655,571.872 626.5,573C 631.199,578.034 636.199,582.7 641.5,587C 658.167,587.333 674.833,587.667 691.5,588C 692.167,588.667 692.833,589.333 693.5,590C 690.251,592.581 686.585,594.247 682.5,595C 669.196,596.246 655.863,596.746 642.5,596.5C 642.5,621.5 642.5,646.5 642.5,671.5C 639.234,671.567 637.734,669.901 638,666.5C 637.667,642.5 637.333,618.5 637,594.5C 633.368,589.866 629.368,585.533 625,581.5C 624.093,577.816 622.593,574.482 620.5,571.5 Z"/></g>
<g><path style="opacity:1" fill="#282425" d="M 316.5,578.5 C 319.127,579.092 321.794,579.425 324.5,579.5C 324.666,584.511 324.499,589.511 324,594.5C 321.646,594.892 319.146,594.892 316.5,594.5C 316.5,589.167 316.5,583.833 316.5,578.5 Z"/></g>
<g><path style="opacity:1" fill="#2f2c2d" d="M 618.5,577.5 C 619.822,577.33 620.989,577.663 622,578.5C 622.891,600.203 622.391,621.87 620.5,643.5C 619.066,641.78 618.233,639.78 618,637.5C 617.18,617.427 617.346,597.427 618.5,577.5 Z"/></g>
<g><path style="opacity:1" fill="#f9f9f9" d="M 765.5,579.5 C 766.496,579.414 767.329,579.748 768,580.5C 773.132,587.925 777.632,595.759 781.5,604C 771.127,604.804 760.793,604.471 750.5,603C 754.934,594.747 759.934,586.914 765.5,579.5 Z"/></g>
<g><path style="opacity:1" fill="#282425" d="M 333.5,580.5 C 336.119,580.232 338.619,580.565 341,581.5C 341.499,586.489 341.666,591.489 341.5,596.5C 338.833,596.5 336.167,596.5 333.5,596.5C 333.5,591.167 333.5,585.833 333.5,580.5 Z"/></g>
<g><path style="opacity:1" fill="#312e2f" d="M 353.5,579.5 C 355.335,580.122 356.502,581.456 357,583.5C 357.443,605.17 357.276,626.837 356.5,648.5C 355.325,648.719 354.325,648.386 353.5,647.5C 352.787,645.224 352.287,642.891 352,640.5C 351.833,630.5 351.667,620.5 351.5,610.5C 351.524,599.94 352.191,589.606 353.5,579.5 Z"/></g>
<g><path style="opacity:1" fill="#292526" d="M 709.5,581.5 C 710.568,582.434 711.901,582.768 713.5,582.5C 713.5,588.167 713.5,593.833 713.5,599.5C 710.552,599.777 707.719,599.444 705,598.5C 704.333,593.167 704.333,587.833 705,582.5C 706.356,581.62 707.856,581.286 709.5,581.5 Z"/></g>
<g><path style="opacity:1" fill="#848282" d="M 304.5,575.5 C 304.5,578.833 304.5,582.167 304.5,585.5C 304.167,585.5 303.833,585.5 303.5,585.5C 303.675,583.379 303.341,581.379 302.5,579.5C 303.167,578.167 303.833,576.833 304.5,575.5 Z"/></g>
<g><path style="opacity:1" fill="#5a5758" d="M 709.5,581.5 C 711.167,581.5 712.833,581.5 714.5,581.5C 714.823,587.69 714.49,593.69 713.5,599.5C 713.5,593.833 713.5,588.167 713.5,582.5C 711.901,582.768 710.568,582.434 709.5,581.5 Z"/></g>
<g><path style="opacity:1" fill="#282425" d="M 735.5,582.5 C 736.455,588.409 736.789,594.409 736.5,600.5C 728.505,602.505 725.505,599.505 727.5,591.5C 725.439,584.07 728.106,581.07 735.5,582.5 Z"/></g>
<g><path style="opacity:1" fill="#666465" d="M 735.5,582.5 C 736.816,585.087 737.483,588.087 737.5,591.5C 737.498,594.686 737.165,597.686 736.5,600.5C 736.789,594.409 736.455,588.409 735.5,582.5 Z"/></g>
<g><path style="opacity:1" fill="#747172" d="M 297.5,599.5 C 299.5,599.5 301.5,599.5 303.5,599.5C 303.784,601.415 303.451,603.081 302.5,604.5C 302.5,603.167 302.5,601.833 302.5,600.5C 300.585,600.784 298.919,600.451 297.5,599.5 Z"/></g>
<g><path style="opacity:1" fill="#f1f1f1" d="M 384.5,601.5 C 388.226,601.177 391.893,601.511 395.5,602.5C 392.314,606.52 388.647,610.02 384.5,613C 381.167,613.667 377.833,613.667 374.5,613C 379.131,610.208 382.465,606.375 384.5,601.5 Z"/></g>
<g><path style="opacity:1" fill="#282425" d="M 316.5,604.5 C 319.119,604.232 321.619,604.565 324,605.5C 324.499,610.489 324.666,615.489 324.5,620.5C 321.881,620.768 319.381,620.435 317,619.5C 316.501,614.511 316.334,609.511 316.5,604.5 Z"/></g>
<g><path style="opacity:1" fill="#292526" d="M 333.5,604.5 C 336.054,605.388 338.721,605.721 341.5,605.5C 341.666,610.511 341.499,615.511 341,620.5C 338.667,621.833 336.333,621.833 334,620.5C 333.501,615.177 333.334,609.844 333.5,604.5 Z"/></g>
<g><path style="opacity:1" fill="#2e2a2b" d="M 654.5,605.5 C 657.547,604.855 659.713,605.855 661,608.5C 661.667,612.5 661.667,616.5 661,620.5C 659.776,623.473 657.776,624.14 655,622.5C 651.973,616.822 651.806,611.155 654.5,605.5 Z"/></g>
<g><path style="opacity:1" fill="#282526" d="M 678.5,605.5 C 680.911,605.137 682.411,606.137 683,608.5C 683.667,613.167 683.667,617.833 683,622.5C 679.914,624.22 677.581,623.553 676,620.5C 675.333,616.5 675.333,612.5 676,608.5C 676.698,607.309 677.531,606.309 678.5,605.5 Z"/></g>
<g><path style="opacity:1" fill="#2d2a2b" d="M 705.5,606.5 C 708.5,606.5 711.5,606.5 714.5,606.5C 714.5,612.5 714.5,618.5 714.5,624.5C 711.223,624.784 708.057,624.451 705,623.5C 704.26,617.782 704.427,612.115 705.5,606.5 Z"/></g>
<g><path style="opacity:1" fill="#2e2a2b" d="M 429.5,625.5 C 429.15,632.395 428.15,639.062 426.5,645.5C 425.883,645.389 425.383,645.056 425,644.5C 424.333,632.167 424.333,619.833 425,607.5C 427.09,606.209 428.424,606.876 429,609.5C 429.499,614.823 429.666,620.156 429.5,625.5 Z"/></g>
<g><path style="opacity:1" fill="#2d292a" d="M 728.5,607.5 C 731.5,607.5 734.5,607.5 737.5,607.5C 737.5,613.5 737.5,619.5 737.5,625.5C 734.223,625.784 731.057,625.451 728,624.5C 727.215,618.751 727.382,613.084 728.5,607.5 Z"/></g>
<g><path style="opacity:1" fill="#fafafa" d="M 749.5,610.5 C 761.176,611.501 772.843,612.668 784.5,614C 785.825,631.769 785.825,649.602 784.5,667.5C 772.217,666.52 759.884,666.187 747.5,666.5C 748.198,647.835 748.865,629.168 749.5,610.5 Z"/></g>
<g><path style="opacity:1" fill="#221f1f" d="M 758.5,620.5 C 760.5,620.5 762.5,620.5 764.5,620.5C 764.5,624.5 764.5,628.5 764.5,632.5C 762.5,632.5 760.5,632.5 758.5,632.5C 758.5,628.5 758.5,624.5 758.5,620.5 Z"/></g>
<g><path style="opacity:1" fill="#2e2a2b" d="M 773.5,621.5 C 775.833,621.5 778.167,621.5 780.5,621.5C 780.5,625.5 780.5,629.5 780.5,633.5C 778.167,633.5 775.833,633.5 773.5,633.5C 773.5,629.5 773.5,625.5 773.5,621.5 Z"/></g>
<g><path style="opacity:1" fill="#929090" d="M 245.5,624.5 C 246.494,633.986 246.827,643.652 246.5,653.5C 245.167,653.5 243.833,653.5 242.5,653.5C 243.209,652.596 244.209,652.263 245.5,652.5C 245.5,643.167 245.5,633.833 245.5,624.5 Z"/></g>
<g><path style="opacity:1" fill="#252122" d="M 817.5,627.5 C 817.5,629.167 817.5,630.833 817.5,632.5C 811.5,632.5 805.5,632.5 799.5,632.5C 797.744,631.448 797.077,629.781 797.5,627.5C 804.167,627.5 810.833,627.5 817.5,627.5 Z"/></g>
<g><path style="opacity:1" fill="#272324" d="M 316.5,628.5 C 319.206,628.575 321.873,628.908 324.5,629.5C 324.5,634.5 324.5,639.5 324.5,644.5C 321.833,644.5 319.167,644.5 316.5,644.5C 316.5,639.167 316.5,633.833 316.5,628.5 Z"/></g>
<g><path style="opacity:1" fill="#282425" d="M 333.5,630.5 C 336.119,630.232 338.619,630.565 341,631.5C 341.499,636.489 341.666,641.489 341.5,646.5C 338.881,646.768 336.381,646.435 334,645.5C 333.501,640.511 333.334,635.511 333.5,630.5 Z"/></g>
<g><path style="opacity:1" fill="#272324" d="M 374.5,630.5 C 376.833,630.5 379.167,630.5 381.5,630.5C 381.5,633.167 381.5,635.833 381.5,638.5C 379.167,638.5 376.833,638.5 374.5,638.5C 374.5,635.833 374.5,633.167 374.5,630.5 Z"/></g>
<g><path style="opacity:1" fill="#2c2829" d="M 387.5,630.5 C 389.806,630.993 392.139,631.326 394.5,631.5C 394.5,634.167 394.5,636.833 394.5,639.5C 392.167,639.5 389.833,639.5 387.5,639.5C 387.5,636.5 387.5,633.5 387.5,630.5 Z"/></g>
<g><path style="opacity:1" fill="#282425" d="M 705.5,631.5 C 708.167,631.5 710.833,631.5 713.5,631.5C 713.5,637.167 713.5,642.833 713.5,648.5C 711.5,648.5 709.5,648.5 707.5,648.5C 706.25,648.423 705.417,647.756 705,646.5C 704.222,641.416 704.389,636.416 705.5,631.5 Z"/></g>
<g><path style="opacity:1" fill="#6e6c6c" d="M 705.5,631.5 C 708.287,630.523 711.287,630.19 714.5,630.5C 714.5,636.833 714.5,643.167 714.5,649.5C 711.941,649.802 709.607,649.468 707.5,648.5C 709.5,648.5 711.5,648.5 713.5,648.5C 713.5,642.833 713.5,637.167 713.5,631.5C 710.833,631.5 708.167,631.5 705.5,631.5 Z"/></g>
<g><path style="opacity:1" fill="#2a2627" d="M 736.5,632.5 C 736.5,638.167 736.5,643.833 736.5,649.5C 734.167,649.5 731.833,649.5 729.5,649.5C 728.188,647.257 727.522,644.59 727.5,641.5C 725.514,633.041 728.514,630.041 736.5,632.5 Z"/></g>
<g><path style="opacity:1" fill="#8d8b8b" d="M 817.5,627.5 C 818.461,629.265 818.795,631.265 818.5,633.5C 811.978,633.823 805.645,633.49 799.5,632.5C 805.5,632.5 811.5,632.5 817.5,632.5C 817.5,630.833 817.5,629.167 817.5,627.5 Z"/></g>
<g><path style="opacity:1" fill="#979596" d="M 429.5,625.5 C 429.5,632.5 429.5,639.5 429.5,646.5C 428.209,646.737 427.209,646.404 426.5,645.5C 428.15,639.062 429.15,632.395 429.5,625.5 Z"/></g>
<g><path style="opacity:1" fill="#706d6e" d="M 736.5,632.5 C 737.49,638.31 737.823,644.31 737.5,650.5C 734.615,650.806 731.948,650.473 729.5,649.5C 731.833,649.5 734.167,649.5 736.5,649.5C 736.5,643.833 736.5,638.167 736.5,632.5 Z"/></g>
<g><path style="opacity:1" fill="#242021" d="M 798.5,639.5 C 804.842,639.334 811.175,639.5 817.5,640C 818.252,640.671 818.586,641.504 818.5,642.5C 812.118,644.399 805.451,645.066 798.5,644.5C 798.5,642.833 798.5,641.167 798.5,639.5 Z"/></g>
<g><path style="opacity:1" fill="#7b7979" d="M 798.5,639.5 C 798.5,641.167 798.5,642.833 798.5,644.5C 805.451,645.066 812.118,644.399 818.5,642.5C 818.5,643.5 818.5,644.5 818.5,645.5C 811.5,645.5 804.5,645.5 797.5,645.5C 797.205,643.265 797.539,641.265 798.5,639.5 Z"/></g>
<g><path style="opacity:1" fill="#282425" d="M 797.5,650.5 C 803.842,650.334 810.175,650.5 816.5,651C 817.406,652.699 817.739,654.533 817.5,656.5C 810.833,656.5 804.167,656.5 797.5,656.5C 797.5,654.5 797.5,652.5 797.5,650.5 Z"/></g>
<g><path style="opacity:1" fill="#272324" d="M 497.5,793.5 C 500.833,793.5 504.167,793.5 507.5,793.5C 507.813,789.958 507.479,786.625 506.5,783.5C 506.561,757.496 506.895,731.496 507.5,705.5C 496.167,705.759 484.833,706.093 473.5,706.5C 464.763,706.623 456.097,705.957 447.5,704.5C 441.696,698.235 436.363,691.569 431.5,684.5C 432.733,681.536 435.066,680.036 438.5,680C 457.833,679.333 477.167,679.333 496.5,680C 503.067,685.57 508.567,692.07 513,699.5C 513.186,727.031 514.019,754.531 515.5,782C 514.714,785.458 514.38,788.958 514.5,792.5C 521.858,792.582 529.191,792.248 536.5,791.5C 537.353,783.959 540.686,777.792 546.5,773C 550.18,771.973 553.347,772.806 556,775.5C 559.512,779.879 561.345,784.879 561.5,790.5C 566.813,789.902 572.146,789.569 577.5,789.5C 577.873,765.463 577.206,741.463 575.5,717.5C 557.098,717.961 538.765,717.461 520.5,716C 518.083,714.856 517.416,713.19 518.5,711C 532.581,710.877 546.581,709.877 560.5,708C 562.815,705.524 562.482,703.191 559.5,701C 557.833,700 556.167,699 554.5,698C 541.148,697.152 527.815,696.318 514.5,695.5C 514.297,693.61 514.963,692.11 516.5,691C 530.854,690.76 545.188,691.26 559.5,692.5C 558.88,683.399 559.546,674.566 561.5,666C 579.833,665.333 598.167,665.333 616.5,666C 619.346,666.879 620.013,668.546 618.5,671C 614.459,671.173 610.459,671.673 606.5,672.5C 608.341,673.23 610.175,673.897 612,674.5C 612.448,676.409 611.615,677.576 609.5,678C 610.872,679.242 611.872,680.742 612.5,682.5C 617.676,683.015 622.676,684.181 627.5,686C 624.676,688.613 621.342,690.279 617.5,691C 606.219,692.586 594.886,693.42 583.5,693.5C 583.977,725.183 584.977,756.85 586.5,788.5C 596.188,788.457 605.855,787.957 615.5,787C 618.687,786.999 621.52,786.166 624,784.5C 624.978,772.522 625.478,760.522 625.5,748.5C 624.862,731.166 624.695,713.833 625,696.5C 627.277,692.453 628.944,692.786 630,697.5C 632.955,726.854 633.122,756.187 630.5,785.5C 639.945,785.937 649.279,787.104 658.5,789C 661.215,789.875 662.548,791.708 662.5,794.5C 627.447,793.425 592.447,794.592 557.5,798C 510.183,799.754 462.85,800.754 415.5,801C 403.781,801.447 392.114,802.113 380.5,803C 386.506,800.082 392.839,798.582 399.5,798.5C 397.503,786.932 397.003,775.265 398,763.5C 400.932,759.945 404.765,757.778 409.5,757C 411.584,755.499 412.917,753.499 413.5,751C 410.483,747.802 407.483,748.135 404.5,752C 402.299,752.825 400.466,752.325 399,750.5C 398.869,745.306 397.869,740.306 396,735.5C 394.416,734.139 392.582,733.472 390.5,733.5C 392.386,737.613 393.386,741.946 393.5,746.5C 388.498,745.245 383.664,743.578 379,741.5C 377.029,741.281 375.862,742.115 375.5,744C 376.321,746.643 377.654,748.976 379.5,751C 384.398,754.616 389.732,757.45 395.5,759.5C 389.052,762.578 383.052,761.745 377.5,757C 371.698,752.903 369.198,747.403 370,740.5C 372.435,735.776 376.269,734.276 381.5,736C 382.766,736.309 383.933,736.809 385,737.5C 383.836,733.65 383.502,729.65 384,725.5C 389.336,722.506 394.002,723.506 398,728.5C 400.672,733.694 402.838,739.027 404.5,744.5C 407.768,742.359 411.268,741.025 415,740.5C 421.221,740.908 423.554,744.242 422,750.5C 417.823,757.602 411.823,762.602 404,765.5C 403.821,776.077 403.321,786.577 402.5,797C 416.435,795.913 430.435,795.413 444.5,795.5C 443.415,767.845 443.248,740.178 444,712.5C 444.845,709.588 446.512,708.588 449,709.5C 449.333,734.167 449.667,758.833 450,783.5C 450.256,786.557 450.756,789.557 451.5,792.5C 466.819,793.499 482.152,793.833 497.5,793.5 Z"/></g>
<g><path style="opacity:1" fill="#dddddd" d="M 569.5,672.5 C 571.795,671.072 573.795,671.572 575.5,674C 573.16,674.748 571.16,674.248 569.5,672.5 Z"/></g>
<g><path style="opacity:1" fill="#e5e5e5" d="M 578.5,671.5 C 581.346,671.03 583.679,671.863 585.5,674C 583.5,674.667 581.5,674.667 579.5,674C 578.748,673.329 578.414,672.496 578.5,671.5 Z"/></g>
<g><path style="opacity:1" fill="#c4c3c3" d="M 597.5,671.5 C 600.364,671.064 602.697,671.897 604.5,674C 602.5,674.667 600.5,674.667 598.5,674C 597.748,673.329 597.414,672.496 597.5,671.5 Z"/></g>
<g><path style="opacity:1" fill="#c1c0c0" d="M 588.5,671.5 C 590.681,671.284 592.347,672.117 593.5,674C 590.738,675.077 589.072,674.244 588.5,671.5 Z"/></g>
<g><path style="opacity:1" fill="#969494" d="M 603.5,677.5 C 607.221,677.793 607.055,678.459 603,679.5C 602.5,679.333 602,679.167 601.5,679C 602.416,678.722 603.082,678.222 603.5,677.5 Z"/></g>
<g><path style="opacity:1" fill="#777575" d="M 583.5,677.5 C 585.429,677.231 587.095,677.731 588.5,679C 587.667,679.167 586.833,679.333 586,679.5C 584.624,679.316 583.791,678.649 583.5,677.5 Z"/></g>
<g><path style="opacity:1" fill="#f5f5f5" d="M 574.5,693.5 C 574.815,697.371 574.482,701.038 573.5,704.5C 571.485,701.162 568.985,698.162 566,695.5C 562.401,682.325 564.735,680.325 573,689.5C 573.791,690.745 574.291,692.078 574.5,693.5 Z"/></g>
<g><path style="opacity:1" fill="#8e8c8c" d="M 587.5,683.5 C 588.708,682.218 590.042,682.218 591.5,683.5C 590.3,684.292 588.967,684.292 587.5,683.5 Z"/></g>
<g><path style="opacity:1" fill="#aeadad" d="M 606.5,681.5 C 607.995,681.415 608.995,682.081 609.5,683.5C 607.833,684.833 606.167,684.833 604.5,683.5C 605.243,682.818 605.909,682.151 606.5,681.5 Z"/></g>
<g><path style="opacity:1" fill="#828080" d="M 331.5,684.5 C 336.975,685.489 342.642,685.822 348.5,685.5C 342.013,686.654 335.346,686.821 328.5,686C 329.244,684.961 330.244,684.461 331.5,684.5 Z"/></g>
<g><path style="opacity:1" fill="#302c2d" d="M 429.5,691.5 C 432.766,691.433 434.266,693.099 434,696.5C 433.469,728.509 433.636,760.509 434.5,792.5C 432.61,792.703 431.11,792.037 430,790.5C 428.847,787.289 428.18,783.956 428,780.5C 427.247,750.751 427.747,721.084 429.5,691.5 Z"/></g>
<g><path style="opacity:1" fill="#8d8b8b" d="M 574.5,693.5 C 575.647,697.646 575.814,701.98 575,706.5C 574.283,705.956 573.783,705.289 573.5,704.5C 574.482,701.038 574.815,697.371 574.5,693.5 Z"/></g>
<g><path style="opacity:1" fill="#292526" d="M 603.5,702.5 C 606.167,702.5 608.833,702.5 611.5,702.5C 611.5,707.833 611.5,713.167 611.5,718.5C 608.5,718.5 605.5,718.5 602.5,718.5C 602.218,713.073 602.551,707.74 603.5,702.5 Z"/></g>
<g><path style="opacity:1" fill="#2f2b2c" d="M 464.5,716.5 C 466.833,716.5 469.167,716.5 471.5,716.5C 471.365,722.181 471.032,727.848 470.5,733.5C 468.208,733.756 466.041,733.423 464,732.5C 463.324,727.129 463.491,721.796 464.5,716.5 Z"/></g>
<g><path style="opacity:1" fill="#322e2f" d="M 479.5,716.5 C 481.833,716.5 484.167,716.5 486.5,716.5C 486.687,722.212 486.354,727.879 485.5,733.5C 483.167,733.5 480.833,733.5 478.5,733.5C 478.26,727.773 478.593,722.106 479.5,716.5 Z"/></g>
<g><path style="opacity:1" fill="#2d2a2b" d="M 494.5,716.5 C 496.833,716.5 499.167,716.5 501.5,716.5C 500.968,722.152 500.635,727.819 500.5,733.5C 498.167,733.5 495.833,733.5 493.5,733.5C 493.26,727.773 493.593,722.106 494.5,716.5 Z"/></g>
<g><path style="opacity:1" fill="#2a2627" d="M 533.5,729.5 C 537.73,728.563 540.23,730.229 541,734.5C 542.074,739.109 541.24,743.276 538.5,747C 535.472,748.14 533.305,747.306 532,744.5C 531.017,739.28 531.517,734.28 533.5,729.5 Z"/></g>
<g><path style="opacity:1" fill="#2c2829" d="M 603.5,729.5 C 606.167,729.5 608.833,729.5 611.5,729.5C 611.828,734.875 611.495,740.208 610.5,745.5C 607.966,746.788 605.466,746.788 603,745.5C 602.219,740.083 602.385,734.75 603.5,729.5 Z"/></g>
<g><path style="opacity:1" fill="#292526" d="M 559.5,730.5 C 562.808,729.974 564.974,731.307 566,734.5C 566.914,739.196 566.414,743.696 564.5,748C 561.364,749.041 558.864,748.207 557,745.5C 556.333,741.5 556.333,737.5 557,733.5C 558.045,732.627 558.878,731.627 559.5,730.5 Z"/></g>
<g><path style="opacity:1" fill="#312d2e" d="M 469.5,739.5 C 470.812,741.743 471.478,744.41 471.5,747.5C 473.561,754.93 470.894,757.93 463.5,756.5C 463.334,751.489 463.501,746.489 464,741.5C 465.948,740.891 467.782,740.224 469.5,739.5 Z"/></g>
<g><path style="opacity:1" fill="#343031" d="M 479.5,740.5 C 481.833,740.5 484.167,740.5 486.5,740.5C 486.687,746.212 486.354,751.879 485.5,757.5C 483.208,757.756 481.041,757.423 479,756.5C 478.219,751.083 478.385,745.75 479.5,740.5 Z"/></g>
<g><path style="opacity:1" fill="#312d2e" d="M 494.5,740.5 C 496.833,740.5 499.167,740.5 501.5,740.5C 501.553,746.196 501.22,751.862 500.5,757.5C 498.208,757.756 496.041,757.423 494,756.5C 493.267,751.115 493.433,745.782 494.5,740.5 Z"/></g>
<g><path style="opacity:1" fill="#292526" d="M 603.5,756.5 C 606.167,756.5 608.833,756.5 611.5,756.5C 611.5,761.833 611.5,767.167 611.5,772.5C 608.5,772.5 605.5,772.5 602.5,772.5C 602.218,767.073 602.551,761.74 603.5,756.5 Z"/></g>
<g><path style="opacity:1" fill="#272324" d="M 464.5,763.5 C 466.5,763.5 468.5,763.5 470.5,763.5C 470.5,769.167 470.5,774.833 470.5,780.5C 468.167,780.5 465.833,780.5 463.5,780.5C 463.214,774.741 463.548,769.075 464.5,763.5 Z"/></g>
<g><path style="opacity:1" fill="#272324" d="M 479.5,763.5 C 481.5,763.5 483.5,763.5 485.5,763.5C 485.5,769.167 485.5,774.833 485.5,780.5C 483.167,780.5 480.833,780.5 478.5,780.5C 478.214,774.741 478.548,769.075 479.5,763.5 Z"/></g>
<g><path style="opacity:1" fill="#252122" d="M 494.5,764.5 C 496.5,764.5 498.5,764.5 500.5,764.5C 500.5,765.5 500.5,766.5 500.5,767.5C 500.5,771.833 500.5,776.167 500.5,780.5C 498.167,780.5 495.833,780.5 493.5,780.5C 493.179,774.974 493.512,769.64 494.5,764.5 Z"/></g>
<g><path style="opacity:1" fill="#888686" d="M 494.5,764.5 C 496.607,763.532 498.941,763.198 501.5,763.5C 501.768,765.099 501.434,766.432 500.5,767.5C 500.5,766.5 500.5,765.5 500.5,764.5C 498.5,764.5 496.5,764.5 494.5,764.5 Z"/></g>
<g><path style="opacity:1" fill="#a9a7a7" d="M 506.5,783.5 C 507.479,786.625 507.813,789.958 507.5,793.5C 504.167,793.5 500.833,793.5 497.5,793.5C 500.287,792.523 503.287,792.19 506.5,792.5C 506.5,789.5 506.5,786.5 506.5,783.5 Z"/></g>
<g><path style="opacity:1" fill="#292526" d="M 161.5,851.5 C 172.187,851.48 182.854,850.98 193.5,850C 188.177,849.501 182.844,849.334 177.5,849.5C 165.8,849.197 154.134,848.364 142.5,847C 138.931,846.61 135.597,845.61 132.5,844C 205.167,843.667 277.833,843.333 350.5,843C 474.162,840.403 597.828,838.07 721.5,836C 773.833,835.333 826.167,835.333 878.5,836C 884.19,836.469 889.857,837.136 895.5,838C 899.719,838.791 903.386,840.625 906.5,843.5C 838.865,844.185 771.198,844.685 703.5,845C 566.49,847.943 429.49,851.276 292.5,855C 251.167,855.667 209.833,855.667 168.5,855C 163.369,854.535 158.369,853.535 153.5,852C 156.146,851.503 158.813,851.336 161.5,851.5 Z"/></g>
<g><path style="opacity:1" fill="#7c797a" d="M 177.5,849.5 C 182.844,849.334 188.177,849.501 193.5,850C 182.854,850.98 172.187,851.48 161.5,851.5C 166.833,850.833 172.167,850.167 177.5,849.5 Z"/></g>
<g><path style="opacity:1" fill="#2d292a" d="M 152.5,862.5 C 157.167,861.833 161.833,861.167 166.5,860.5C 364.994,856.59 563.494,852.924 762,849.5C 787.51,849.515 813.01,850.015 838.5,851C 847.132,851.242 855.466,852.909 863.5,856C 864.833,856.667 864.833,857.333 863.5,858C 796.183,856.565 728.849,856.231 661.5,857C 518.34,860.228 375.173,863.062 232,865.5C 210.5,865.333 189,865.167 167.5,865C 162.444,864.38 157.444,863.546 152.5,862.5 Z"/></g>
<g><path style="opacity:1" fill="#999898" d="M 166.5,860.5 C 161.833,861.167 157.167,861.833 152.5,862.5C 151.957,862.44 151.624,862.107 151.5,861.5C 156.456,860.506 161.456,860.173 166.5,860.5 Z"/></g>
</svg>
