<?xml version="1.0" encoding="UTF-8"?>
<!DOCTYPE svg PUBLIC "-//W3C//DTD SVG 1.1//EN" "http://www.w3.org/Graphics/SVG/1.1/DTD/svg11.dtd">
<svg xmlns="http://www.w3.org/2000/svg" version="1.1" width="520px" height="520px" style="shape-rendering:geometricPrecision; text-rendering:geometricPrecision; image-rendering:optimizeQuality; fill-rule:evenodd; clip-rule:evenodd" xmlns:xlink="http://www.w3.org/1999/xlink">
<g><path style="opacity:1" fill="#fefefe" d="M -0.5,-0.5 C 172.833,-0.5 346.167,-0.5 519.5,-0.5C 519.5,172.833 519.5,346.167 519.5,519.5C 346.167,519.5 172.833,519.5 -0.5,519.5C -0.5,346.167 -0.5,172.833 -0.5,-0.5 Z"/></g>
<g><path style="opacity:1" fill="#242121" d="M 203.5,53.5 C 213.347,51.3381 219.847,55.0047 223,64.5C 225.068,73.2901 222.901,80.7901 216.5,87C 214.35,88.4114 212.016,89.2447 209.5,89.5C 209.609,99.0965 210.609,108.597 212.5,118C 212.826,123.695 210.826,128.362 206.5,132C 200.939,132.95 195.439,134.116 190,135.5C 184.366,134.58 181.866,131.247 182.5,125.5C 163.664,126.598 150.997,118.431 144.5,101C 141.948,97.5683 139.614,97.735 137.5,101.5C 140.585,110.597 141.752,119.93 141,129.5C 136.852,136.996 130.685,139.163 122.5,136C 117.333,134.833 114.167,131.667 113,126.5C 112.667,123.167 112.333,119.833 112,116.5C 97.2939,111.765 91.9606,101.765 96,86.5C 103.08,61.8698 117.58,56.0365 139.5,69C 142,71.5 144.5,74 147,76.5C 156.702,57.5992 171.036,52.9326 190,62.5C 194.463,59.3586 198.963,56.3586 203.5,53.5 Z"/></g>
<g><path style="opacity:1" fill="#f2f2f2" d="M 142.5,77.5 C 143.5,77.5 144.5,77.5 145.5,77.5C 144.435,83.7999 143.435,90.1332 142.5,96.5C 135.836,90.177 135.836,83.8436 142.5,77.5 Z"/></g>
<g><path style="opacity:1" fill="#f8f7f7" d="M 208.5,106.5 C 206.076,106.192 203.743,106.526 201.5,107.5C 201.624,108.107 201.957,108.44 202.5,108.5C 202.833,108.5 203.167,108.5 203.5,108.5C 204.919,109.451 206.585,109.784 208.5,109.5C 208.263,110.791 208.596,111.791 209.5,112.5C 212.229,126.936 206.563,132.769 192.5,130C 184.579,125.365 178.579,118.865 174.5,110.5C 166.924,109.776 163.758,105.776 165,98.5C 165.414,98.0426 165.914,97.7093 166.5,97.5C 169.024,99.1901 171.024,101.357 172.5,104C 173.635,104.749 174.635,104.583 175.5,103.5C 176.63,95.262 179.963,88.0954 185.5,82C 192.723,79.2083 199.056,80.5416 204.5,86C 200.816,85.7612 198.149,87.2612 196.5,90.5C 196.833,90.8333 197.167,91.1667 197.5,91.5C 202.986,87.1499 205.82,88.4832 206,95.5C 205.71,93.9559 205.044,92.6226 204,91.5C 204.442,99.0766 202.942,99.9099 199.5,94C 198.668,93.3123 198.002,93.479 197.5,94.5C 199.829,99.8248 203.496,103.825 208.5,106.5 Z"/></g>
<g><path style="opacity:1" fill="#363333" d="M 186.5,89.5 C 193.569,89.7433 193.903,90.5766 187.5,92C 186.315,93.353 184.981,94.5197 183.5,95.5C 183.167,95.1667 182.833,94.8333 182.5,94.5C 183.857,92.8144 185.19,91.1477 186.5,89.5 Z"/></g>
<g><path style="opacity:1" fill="#dedede" d="M 205.5,98.5 C 207.476,99.4271 207.809,100.76 206.5,102.5C 204.358,101.563 204.024,100.23 205.5,98.5 Z"/></g>
<g><path style="opacity:1" fill="#3c3939" d="M 193.5,94.5 C 195.369,96.6353 196.036,99.3019 195.5,102.5C 191.297,103.298 188.63,101.631 187.5,97.5C 187.808,96.6919 188.308,96.0253 189,95.5C 192.089,102.459 193.589,102.126 193.5,94.5 Z"/></g>
<g><path style="opacity:1" fill="#767474" d="M 208.5,106.5 C 206.5,107.167 204.5,107.833 202.5,108.5C 201.957,108.44 201.624,108.107 201.5,107.5C 203.743,106.526 206.076,106.192 208.5,106.5 Z"/></g>
<g><path style="opacity:1" fill="#8c8b8b" d="M 203.5,108.5 C 205.5,108.5 207.5,108.5 209.5,108.5C 209.5,109.833 209.5,111.167 209.5,112.5C 208.596,111.791 208.263,110.791 208.5,109.5C 206.585,109.784 204.919,109.451 203.5,108.5 Z"/></g>
<g><path style="opacity:1" fill="#353232" d="M 205.5,114.5 C 207.71,115.455 208.043,116.955 206.5,119C 203.672,119.969 201.338,119.303 199.5,117C 201.488,116.82 203.488,116.986 205.5,117.5C 205.5,116.5 205.5,115.5 205.5,114.5 Z"/></g>
<g><path style="opacity:1" fill="#2b2828" d="M 245.5,138.5 C 244.33,140.65 243.33,142.984 242.5,145.5C 242.846,146.696 243.346,146.696 244,145.5C 244.847,143.807 245.68,142.14 246.5,140.5C 250.008,133.493 254.508,127.16 260,121.5C 267.129,101.365 281.296,91.1988 302.5,91C 300.141,98.7293 295.807,105.063 289.5,110C 280.915,113.862 272.248,117.528 263.5,121C 253.737,131.392 246.571,143.226 242,156.5C 244.052,155.277 246.219,154.277 248.5,153.5C 255.521,145.647 262.354,137.647 269,129.5C 277.289,119.437 287.789,115.77 300.5,118.5C 296.604,127.229 289.937,132.395 280.5,134C 275.983,134.263 271.649,135.263 267.5,137C 261.5,141.667 256.167,147 251.5,153C 261.748,150.92 265.581,155.086 263,165.5C 261.978,166.354 261.145,167.354 260.5,168.5C 270.978,176.458 271.144,184.792 261,193.5C 263.297,189.549 265.13,185.216 266.5,180.5C 266.4,176.632 264.567,173.965 261,172.5C 260.185,176.954 258.685,181.121 256.5,185C 257.398,188.527 258.398,192.027 259.5,195.5C 255.349,199.83 252.182,204.83 250,210.5C 243.096,216.548 237.262,223.215 232.5,230.5C 241.954,229.719 250.954,227.219 259.5,223C 260.444,220.281 260.777,217.448 260.5,214.5C 261.117,214.611 261.617,214.944 262,215.5C 262.667,218.5 262.667,221.5 262,224.5C 253.565,228.59 244.731,231.59 235.5,233.5C 233.128,232.897 230.961,231.897 229,230.5C 224.695,233.738 219.862,235.404 214.5,235.5C 217.648,255.201 220.981,274.868 224.5,294.5C 221.794,294.425 219.127,294.092 216.5,293.5C 221.568,335.975 227.568,378.308 234.5,420.5C 230.19,419.92 225.857,419.586 221.5,419.5C 221.762,420.978 221.429,422.311 220.5,423.5C 216.633,422.865 212.8,422.199 209,421.5C 208.333,432.833 208.333,444.167 209,455.5C 215.37,458.268 221.537,461.435 227.5,465C 228.38,466.356 228.714,467.856 228.5,469.5C 221.713,470.147 215.213,469.147 209,466.5C 199.944,468.269 191.611,466.603 184,461.5C 183.51,462.793 183.343,464.127 183.5,465.5C 181.833,465.5 180.167,465.5 178.5,465.5C 178.5,449.833 178.5,434.167 178.5,418.5C 171.365,418.213 164.365,417.213 157.5,415.5C 159.564,407.998 160.73,400.331 161,392.5C 163.018,356.192 164.184,319.859 164.5,283.5C 156.305,283.701 148.638,281.867 141.5,278C 140.978,277.439 140.645,276.772 140.5,276C 150.043,261.383 156.876,245.55 161,228.5C 167.6,197.801 172.1,166.801 174.5,135.5C 182.786,139.818 191.453,143.151 200.5,145.5C 202.421,149.289 202.921,153.289 202,157.5C 201.699,154.026 200.866,150.692 199.5,147.5C 191.81,145.326 184.31,142.659 177,139.5C 175.379,167.42 171.712,195.086 166,222.5C 162.325,240.373 155.825,257.04 146.5,272.5C 145.957,272.56 145.624,272.893 145.5,273.5C 151.128,274.495 156.794,274.829 162.5,274.5C 182.557,276.639 201.724,281.973 220,290.5C 217.505,271.873 215.005,253.206 212.5,234.5C 199.351,222.169 190.351,207.502 185.5,190.5C 192.501,202.506 200.001,214.173 208,225.5C 210.423,228.432 213.257,230.765 216.5,232.5C 220.91,231.128 224.91,228.961 228.5,226C 235.644,218.524 243.144,211.357 251,204.5C 252.677,201.147 254.843,198.147 257.5,195.5C 256.164,192.49 254.831,189.49 253.5,186.5C 243.024,194.906 232.024,202.573 220.5,209.5C 220.167,209.333 219.833,209.167 219.5,209C 220.381,208.292 221.047,207.458 221.5,206.5C 216.102,195.823 210.602,185.156 205,174.5C 204.333,171.5 204.333,168.5 205,165.5C 212.368,163.13 219.868,161.13 227.5,159.5C 228.408,144.199 231.074,129.199 235.5,114.5C 236.298,116.078 236.798,117.744 237,119.5C 237.918,116.402 238.418,113.235 238.5,110C 237.424,104.096 235.924,98.2631 234,92.5C 233.333,88.8333 233.333,85.1667 234,81.5C 238.452,71.2626 243.452,61.2626 249,51.5C 249.414,51.0426 249.914,50.7093 250.5,50.5C 254.197,54.0406 256.364,58.374 257,63.5C 258.497,71.7791 258.831,80.1125 258,88.5C 255.752,96.4198 250.919,102.253 243.5,106C 242.107,107.171 241.273,108.671 241,110.5C 237.123,125.982 235.623,141.649 236.5,157.5C 241.237,137.362 249.737,119.029 262,102.5C 263.019,101.313 264.186,100.313 265.5,99.5C 265.833,100 266.167,100.5 266.5,101C 256.789,111.916 249.789,124.416 245.5,138.5 Z"/></g>
<g><path style="opacity:1" fill="#dbdbdb" d="M 235.5,120.5 C 236.152,121.449 236.486,122.615 236.5,124C 234.544,135.442 233.21,146.942 232.5,158.5C 231.5,158.5 230.5,158.5 229.5,158.5C 230.338,145.644 232.338,132.978 235.5,120.5 Z"/></g>
<g><path style="opacity:1" fill="#2f2c2c" d="M 227.5,131.5 C 228.497,131.47 229.164,131.97 229.5,133C 225.525,141.426 222.858,150.259 221.5,159.5C 220.66,151.98 218.993,144.646 216.5,137.5C 216.667,137.167 216.833,136.833 217,136.5C 219.487,138.809 221.487,141.476 223,144.5C 224.012,139.962 225.512,135.629 227.5,131.5 Z"/></g>
<g><path style="opacity:1" fill="#9f9e9e" d="M 245.5,138.5 C 245.328,139.492 245.662,140.158 246.5,140.5C 245.68,142.14 244.847,143.807 244,145.5C 243.346,146.696 242.846,146.696 242.5,145.5C 243.33,142.984 244.33,140.65 245.5,138.5 Z"/></g>
<g><path style="opacity:1" fill="#2c2929" d="M 204.5,147.5 C 206.167,147.5 207.833,147.5 209.5,147.5C 209.205,151.228 208.539,154.895 207.5,158.5C 206.932,155.588 206.932,152.588 207.5,149.5C 205.821,149.715 204.821,149.048 204.5,147.5 Z"/></g>
<g><path style="opacity:1" fill="#f8f8f8" d="M 221.5,206.5 C 221.579,203.729 221.079,201.063 220,198.5C 217.213,193.261 214.713,187.928 212.5,182.5C 215.833,181.833 219.167,181.167 222.5,180.5C 227.059,179.746 231.059,177.913 234.5,175C 226.58,176.225 218.58,176.891 210.5,177C 207.037,174.85 205.704,171.684 206.5,167.5C 225.149,167.754 242.816,163.754 259.5,155.5C 260.086,155.709 260.586,156.043 261,156.5C 262.689,164.822 259.189,168.989 250.5,169C 249.663,170.011 249.33,171.178 249.5,172.5C 252.518,172.296 255.518,171.963 258.5,171.5C 258.741,174.794 257.908,177.794 256,180.5C 245.195,190.145 233.695,198.812 221.5,206.5 Z"/></g>
<g><path style="opacity:1" fill="#7b7979" d="M 222.5,180.5 C 219.167,181.167 215.833,181.833 212.5,182.5C 211.957,182.44 211.624,182.107 211.5,181.5C 215.107,180.511 218.774,180.177 222.5,180.5 Z"/></g>
<g><path style="opacity:1" fill="#898888" d="M 263.5,197.5 C 262.833,201.167 262.167,204.833 261.5,208.5C 261.176,204.445 261.509,200.445 262.5,196.5C 263.107,196.624 263.44,196.957 263.5,197.5 Z"/></g>
<g><path style="opacity:1" fill="#2e2b2b" d="M 255.5,207.5 C 253.412,209.336 252.079,211.669 251.5,214.5C 251.527,209.735 253.361,205.401 257,201.5C 257.167,202 257.333,202.5 257.5,203C 256.586,204.406 255.92,205.906 255.5,207.5 Z"/></g>
<g><path style="opacity:1" fill="#3a3737" d="M 263.5,197.5 C 265.575,203.825 264.575,209.491 260.5,214.5C 259.115,215.614 257.615,216.614 256,217.5C 255.833,217.167 255.667,216.833 255.5,216.5C 257.909,214.098 259.909,211.431 261.5,208.5C 262.167,204.833 262.833,201.167 263.5,197.5 Z"/></g>
<g><path style="opacity:1" fill="#9e9d9d" d="M 255.5,207.5 C 254.651,210.035 253.651,212.535 252.5,215C 252.57,215.765 252.903,216.265 253.5,216.5C 253.44,217.043 253.107,217.376 252.5,217.5C 251.614,216.675 251.281,215.675 251.5,214.5C 252.079,211.669 253.412,209.336 255.5,207.5 Z"/></g>
<g><path style="opacity:1" fill="#353232" d="M 253.5,216.5 C 252.903,216.265 252.57,215.765 252.5,215C 253.651,212.535 254.651,210.035 255.5,207.5C 256.458,207.047 257.292,206.381 258,205.5C 257.122,209.278 255.622,212.945 253.5,216.5 Z"/></g>
<g><path style="opacity:1" fill="#696868" d="M 146.5,272.5 C 151.833,273.167 157.167,273.833 162.5,274.5C 156.794,274.829 151.128,274.495 145.5,273.5C 145.624,272.893 145.957,272.56 146.5,272.5 Z"/></g>
<g><path style="opacity:1" fill="#fafafa" d="M 166.5,281.5 C 166.735,280.903 167.235,280.57 168,280.5C 180.446,283.904 192.946,286.904 205.5,289.5C 206.499,298.16 207.499,306.827 208.5,315.5C 208.167,316.5 207.833,317.5 207.5,318.5C 203.833,316 200.167,313.5 196.5,311C 187.5,303.333 178.5,295.667 169.5,288C 168.074,285.955 167.074,283.788 166.5,281.5 Z"/></g>
<g><path style="opacity:1" fill="#272424" d="M 345.5,371.5 C 350.5,371.5 355.5,371.5 360.5,371.5C 360.768,369.901 360.434,368.568 359.5,367.5C 357.156,355.949 353.989,344.615 350,333.5C 337.063,327.626 332.063,317.626 335,303.5C 336.512,298.062 339.345,293.896 343.5,291C 357.518,302.743 360.851,317.076 353.5,334C 356.871,342.645 359.704,351.478 362,360.5C 362.929,346.848 366.262,333.848 372,321.5C 373.609,303.883 382.775,292.05 399.5,286C 401.134,285.506 402.801,285.34 404.5,285.5C 405.654,308.255 395.154,321.589 373,325.5C 367.767,339.719 364.934,354.386 364.5,369.5C 366.833,370.833 369.167,370.833 371.5,369.5C 376.146,359.87 382.479,351.537 390.5,344.5C 396.98,329.691 408.313,322.024 424.5,321.5C 423.771,342.391 413.105,350.891 392.5,347C 385.159,353.837 379.159,361.67 374.5,370.5C 381.142,371.331 387.809,371.831 394.5,372C 398.508,373.113 402.341,374.613 406,376.5C 408.435,395.563 400.268,402.896 381.5,398.5C 384.112,397.546 386.779,397.546 389.5,398.5C 400.995,396.895 405.661,390.228 403.5,378.5C 379.249,383.463 354.915,383.797 330.5,379.5C 330.414,386.761 333.081,392.594 338.5,397C 346.188,397.169 353.855,397.669 361.5,398.5C 359.857,400.154 358.024,401.487 356,402.5C 350.524,403.213 345.024,403.713 339.5,404C 342.571,420.459 345.571,436.959 348.5,453.5C 361.167,453.5 373.833,453.5 386.5,453.5C 389.063,435.602 392.396,417.935 396.5,400.5C 398.024,401.527 398.691,403.027 398.5,405C 395.627,418.068 393.127,431.235 391,444.5C 390.262,448.71 390.428,452.876 391.5,457C 391.241,458.261 390.574,459.261 389.5,460C 372.092,464.108 354.425,465.441 336.5,464C 331.988,463.501 328.155,461.667 325,458.5C 323.824,454.74 324.99,451.907 328.5,450C 332.54,447.573 336.874,445.906 341.5,445C 342.131,443.094 342.464,441.094 342.5,439C 340.285,425.785 337.785,412.619 335,399.5C 328.165,393.329 325.498,385.662 327,376.5C 332.718,373.414 338.884,371.747 345.5,371.5 Z"/></g>
<g><path style="opacity:1" fill="#fbfbfb" d="M 168.5,316.5 C 167.512,311.36 167.179,306.026 167.5,300.5C 167.335,297.15 167.502,293.817 168,290.5C 175.942,300.564 185.108,309.397 195.5,317C 200.119,320.225 204.952,323.059 210,325.5C 211.112,335.496 211.778,345.496 212,355.5C 196.611,344.448 182.777,331.615 170.5,317C 169.906,316.536 169.239,316.369 168.5,316.5 Z"/></g>
<g><path style="opacity:1" fill="#797777" d="M 167.5,300.5 C 167.179,306.026 167.512,311.36 168.5,316.5C 168.5,317.833 168.5,319.167 168.5,320.5C 167.833,321.167 167.167,321.833 166.5,322.5C 166.175,314.981 166.508,307.648 167.5,300.5 Z"/></g>
<g><path style="opacity:1" fill="#faf9f9" d="M 168.5,320.5 C 179.674,337.674 194.341,351.008 212.5,360.5C 214.562,368.016 215.396,375.683 215,383.5C 199.004,372.845 184.17,360.679 170.5,347C 169.552,346.517 168.552,346.351 167.5,346.5C 168.352,349.223 169.519,351.89 171,354.5C 183.764,368.622 198.598,379.955 215.5,388.5C 216.867,398.801 217.867,409.135 218.5,419.5C 199.491,417.906 180.491,416.24 161.5,414.5C 164.417,383.912 166.084,353.245 166.5,322.5C 167.167,321.833 167.833,321.167 168.5,320.5 Z"/></g>
<g><path style="opacity:1" fill="#f4f4f4" d="M 231.5,413.5 C 231.5,414.833 231.5,416.167 231.5,417.5C 229.833,417.5 228.167,417.5 226.5,417.5C 224.833,417.5 223.167,417.5 221.5,417.5C 222.512,413.13 222.512,408.797 221.5,404.5C 221.772,400.098 221.439,395.765 220.5,391.5C 225.578,390.324 225.745,388.657 221,386.5C 219.834,379.34 218.667,372.173 217.5,365C 220.023,362.426 219.856,360.259 217,358.5C 215.927,349.321 214.76,340.155 213.5,331C 216.459,326.898 215.959,323.398 212,320.5C 210.972,310.808 209.806,301.142 208.5,291.5C 210.5,291.833 212.5,292.167 214.5,292.5C 218.207,333.115 223.874,373.448 231.5,413.5 Z"/></g>
<g><path style="opacity:1" fill="#696767" d="M 359.5,367.5 C 360.434,368.568 360.768,369.901 360.5,371.5C 355.5,371.5 350.5,371.5 345.5,371.5C 349.97,370.514 354.637,370.181 359.5,370.5C 359.5,369.5 359.5,368.5 359.5,367.5 Z"/></g>
<g><path style="opacity:1" fill="#2a2727" d="M 167.5,380.5 C 170.778,381.809 173.778,383.642 176.5,386C 181.5,390.333 186.5,394.667 191.5,399C 199.666,403.582 207.666,408.415 215.5,413.5C 212.124,414.711 208.791,414.544 205.5,413C 190.277,405.603 177.277,395.437 166.5,382.5C 166.863,381.817 167.196,381.15 167.5,380.5 Z"/></g>
<g><path style="opacity:1" fill="#868484" d="M 221.5,404.5 C 222.512,408.797 222.512,413.13 221.5,417.5C 220.167,413.167 220.167,408.833 221.5,404.5 Z"/></g>
<g><path style="opacity:1" fill="#8c8b8b" d="M 231.5,413.5 C 232.451,414.919 232.784,416.585 232.5,418.5C 230.265,418.795 228.265,418.461 226.5,417.5C 228.167,417.5 229.833,417.5 231.5,417.5C 231.5,416.167 231.5,414.833 231.5,413.5 Z"/></g>
<g><path style="opacity:1" fill="#f7f7f7" d="M 187.5,419.5 C 190.833,419.833 194.167,420.167 197.5,420.5C 198.38,432.844 198.38,445.178 197.5,457.5C 194.47,456.568 191.637,455.235 189,453.5C 188.167,442.179 187.667,430.846 187.5,419.5 Z"/></g>
</svg>
