<?xml version="1.0" encoding="UTF-8"?>
<!DOCTYPE svg PUBLIC "-//W3C//DTD SVG 1.1//EN" "http://www.w3.org/Graphics/SVG/1.1/DTD/svg11.dtd">
<svg xmlns="http://www.w3.org/2000/svg" version="1.1" width="1040px" height="1040px" style="shape-rendering:geometricPrecision; text-rendering:geometricPrecision; image-rendering:optimizeQuality; fill-rule:evenodd; clip-rule:evenodd" xmlns:xlink="http://www.w3.org/1999/xlink">
<g><path style="opacity:1" fill="#fefefe" d="M -0.5,-0.5 C 346.167,-0.5 692.833,-0.5 1039.5,-0.5C 1039.5,346.167 1039.5,692.833 1039.5,1039.5C 692.833,1039.5 346.167,1039.5 -0.5,1039.5C -0.5,692.833 -0.5,346.167 -0.5,-0.5 Z"/></g>
<g><path style="opacity:1" fill="#c0bebf" d="M 535.5,207.5 C 565.174,207.497 594.841,207.997 624.5,209C 626.592,209.953 626.925,211.286 625.5,213C 619.046,214.017 612.546,214.517 606,214.5C 564.496,213.366 522.996,213.199 481.5,214C 484.866,211.816 488.533,210.483 492.5,210C 506.975,208.986 521.309,208.153 535.5,207.5 Z"/></g>
<g><path style="opacity:1" fill="#c1c0c0" d="M 627.5,214.5 C 631.759,214.102 633.592,216.102 633,220.5C 632.76,236.428 632.927,252.428 633.5,268.5C 632.178,268.67 631.011,268.337 630,267.5C 628.964,264.247 628.297,260.914 628,257.5C 627.5,243.171 627.333,228.837 627.5,214.5 Z"/></g>
<g><path style="opacity:1" fill="#b3b2b2" d="M 482.5,220.5 C 486.153,223.931 487.986,228.264 488,233.5C 489.321,246.128 489.821,258.795 489.5,271.5C 500.603,272.926 511.77,273.593 523,273.5C 556.496,272.494 589.996,272.327 623.5,273C 625.5,273.667 627.5,274.333 629.5,275C 626.403,276.61 623.069,277.61 619.5,278C 578.19,279.973 536.857,280.64 495.5,280C 492.086,279.703 488.753,279.036 485.5,278C 484.333,277.5 483.5,276.667 483,275.5C 482.821,259.795 481.988,244.129 480.5,228.5C 480.385,225.591 481.051,222.925 482.5,220.5 Z"/></g>
<g><path style="opacity:1" fill="#c1bfc0" d="M 516.5,224.5 C 538.907,224.398 561.24,225.231 583.5,227C 582.377,228.044 581.044,228.71 579.5,229C 558.144,228.91 536.81,229.077 515.5,229.5C 514,229.547 513,228.881 512.5,227.5C 513.624,226.141 514.958,225.141 516.5,224.5 Z"/></g>
<g><path style="opacity:1" fill="#bfbdbe" d="M 523.5,239.5 C 537.71,239.364 551.71,240.53 565.5,243C 560.777,244.112 555.944,244.612 551,244.5C 541.132,244.321 531.298,243.655 521.5,242.5C 522.193,241.482 522.859,240.482 523.5,239.5 Z"/></g>
<g><path style="opacity:1" fill="#c2c1c1" d="M 562.5,293.5 C 563.496,293.414 564.329,293.748 565,294.5C 566.474,313.812 566.807,333.145 566,352.5C 565.5,353 565,353.5 564.5,354C 546.525,355.496 528.525,355.829 510.5,355C 506.845,353.525 507.178,352.191 511.5,351C 527.808,349.741 544.142,349.241 560.5,349.5C 560.333,331.497 560.5,313.497 561,295.5C 561.717,294.956 562.217,294.289 562.5,293.5 Z"/></g>
<g><path style="opacity:1" fill="#bfbdbe" d="M 280.5,321.5 C 365.88,321.505 451.214,323.005 536.5,326C 528.281,327.882 519.947,328.882 511.5,329C 454.165,329.552 396.832,329.386 339.5,328.5C 317.15,328.438 294.817,328.938 272.5,330C 271.684,337.421 271.184,344.921 271,352.5C 270.313,354.555 269.146,356.221 267.5,357.5C 266.808,356.975 266.308,356.308 266,355.5C 265.333,345.833 265.333,336.167 266,326.5C 266.833,325.667 267.667,324.833 268.5,324C 272.699,323.472 276.699,322.639 280.5,321.5 Z"/></g>
<g><path style="opacity:1" fill="#c1bfc0" d="M 589.5,324.5 C 648.833,325.303 708.166,326.136 767.5,327C 781.523,327.237 795.523,327.904 809.5,329C 812.788,330.358 814.288,332.858 814,336.5C 814.667,343.833 814.667,351.167 814,358.5C 813.261,360.221 812.427,361.887 811.5,363.5C 809.855,361.075 808.689,358.408 808,355.5C 807.5,348.508 807.334,341.508 807.5,334.5C 735.486,333.28 663.486,331.447 591.5,329C 588.957,328.86 586.623,328.194 584.5,327C 586.491,326.626 588.158,325.793 589.5,324.5 Z"/></g>
<g><path style="opacity:1" fill="#b4b3b3" d="M 599.5,348.5 C 607.524,348.566 615.524,349.066 623.5,350C 625.815,351.109 627.315,352.943 628,355.5C 629.807,371.523 629.473,387.523 627,403.5C 626.626,404.416 626.126,405.25 625.5,406C 622.899,406.92 620.232,407.587 617.5,408C 580.16,408.6 542.827,408.267 505.5,407C 504.044,404.734 503.21,402.234 503,399.5C 502.667,394.167 502.333,388.833 502,383.5C 501.035,375.002 501.368,366.669 503,358.5C 505.146,361.126 506.479,364.126 507,367.5C 508.165,378.811 508.999,390.144 509.5,401.5C 546.842,402.197 584.175,402.197 621.5,401.5C 622.509,387.514 622.676,373.514 622,359.5C 621.751,358.376 621.251,357.376 620.5,356.5C 607.118,355.982 593.784,355.148 580.5,354C 582.888,352.139 585.554,350.806 588.5,350C 592.356,349.823 596.023,349.323 599.5,348.5 Z"/></g>
<g><path style="opacity:1" fill="#bdbbbc" d="M 391.5,352.5 C 393.144,352.286 394.644,352.62 396,353.5C 396.333,355.5 396.667,357.5 397,359.5C 397.488,395.588 396.821,431.588 395,467.5C 393.473,465.779 392.473,463.779 392,461.5C 391.788,427.658 391.288,393.825 390.5,360C 390.555,357.413 390.889,354.913 391.5,352.5 Z"/></g>
<g><path style="opacity:1" fill="#bfbdbe" d="M 275.5,357.5 C 276.5,357.5 277.5,357.5 278.5,357.5C 278.08,362.853 276.58,367.853 274,372.5C 272.152,377.416 268.986,378.583 264.5,376C 259.201,371.869 255.534,366.702 253.5,360.5C 258.099,360.467 262.599,361.133 267,362.5C 270.486,361.828 273.32,360.161 275.5,357.5 Z"/></g>
<g><path style="opacity:1" fill="#bebcbd" d="M 801.5,363.5 C 804.93,365.298 808.43,366.965 812,368.5C 816.401,367.133 820.901,366.467 825.5,366.5C 823.01,374.327 818.01,379.993 810.5,383.5C 808.007,382.239 806.174,380.239 805,377.5C 803.107,372.993 801.941,368.327 801.5,363.5 Z"/></g>
<g><path style="opacity:1" fill="#bfbdbe" d="M 236.5,378.5 C 259.169,378.333 281.836,378.5 304.5,379C 311.218,379.225 317.885,379.892 324.5,381C 325.333,381.833 326.167,382.667 327,383.5C 328.524,396.796 328.857,410.129 328,423.5C 326.329,430.56 324.662,430.893 323,424.5C 321.936,411.854 321.436,399.188 321.5,386.5C 279.872,384.667 238.205,384 196.5,384.5C 196.007,399.162 195.674,413.829 195.5,428.5C 198.722,428.108 201.722,428.608 204.5,430C 200.187,430.735 195.853,431.235 191.5,431.5C 189.871,414.436 190.204,397.436 192.5,380.5C 207.328,379.833 221.994,379.167 236.5,378.5 Z"/></g>
<g><path style="opacity:1" fill="#c0bebf" d="M 765.5,384.5 C 800.606,383.848 835.606,385.348 870.5,389C 871,389.5 871.5,390 872,390.5C 872.667,394.833 872.667,399.167 872,403.5C 871.685,406.636 870.518,409.303 868.5,411.5C 867.749,410.624 867.249,409.624 867,408.5C 866.501,403.511 866.334,398.511 866.5,393.5C 827.558,389.627 788.558,388.794 749.5,391C 748.079,401.7 746.579,412.533 745,423.5C 743.815,421.623 742.815,419.623 742,417.5C 741.114,408.105 741.447,398.772 743,389.5C 744.579,387.959 746.413,386.792 748.5,386C 754.348,385.827 760.015,385.327 765.5,384.5 Z"/></g>
<g><path style="opacity:1" fill="#c1bfc0" d="M 221.5,398.5 C 240.185,398.63 258.852,399.296 277.5,400.5C 276.975,401.192 276.308,401.692 275.5,402C 258.149,402.208 240.816,402.708 223.5,403.5C 219.254,403.088 218.587,401.421 221.5,398.5 Z"/></g>
<g><path style="opacity:1" fill="#2a2627" d="M 888.5,407.5 C 890.144,407.286 891.644,407.62 893,408.5C 893.667,412.5 893.667,416.5 893,420.5C 891.333,421.833 889.667,421.833 888,420.5C 887.294,416.113 887.46,411.78 888.5,407.5 Z"/></g>
<g><path style="opacity:1" fill="#242021" d="M 830.5,522.5 C 829.078,522.709 827.745,523.209 826.5,524C 825.304,524.654 825.304,525.154 826.5,525.5C 828.396,524.725 830.063,523.725 831.5,522.5C 833.455,521.677 835.455,521.51 837.5,522C 824.373,534.396 809.707,544.563 793.5,552.5C 791.188,553.32 788.854,554.153 786.5,555C 790.791,554.804 795.124,554.637 799.5,554.5C 807.001,554.829 812.168,558.496 815,565.5C 816.547,581.859 811.88,596.193 801,608.5C 792.513,617.494 783.013,625.161 772.5,631.5C 776.265,633.927 780.432,634.927 785,634.5C 791.301,634.04 797.467,633.207 803.5,632C 804.5,634.091 803.833,635.757 801.5,637C 788.735,643.504 776.568,642.671 765,634.5C 764.333,632.833 764.333,631.167 765,629.5C 772.5,624 780,618.5 787.5,613C 798.645,603.875 806.145,592.375 810,578.5C 811.668,563.836 805.168,557.669 790.5,560C 784.855,561.829 779.189,563.163 773.5,564C 775.037,562.293 776.704,560.793 778.5,559.5C 780.14,558.68 781.807,557.847 783.5,557C 781.225,556.595 779.225,557.095 777.5,558.5C 743.673,567.498 718.84,556.498 703,525.5C 698.022,512.305 698.355,499.305 704,486.5C 709.674,477.499 717.841,472.666 728.5,472C 725.136,458.424 728.803,447.091 739.5,438C 766.027,421.058 789.527,424.558 810,448.5C 807.722,431.908 814.555,420.741 830.5,415C 856.005,413.178 873.172,424.345 882,448.5C 886.407,458.226 887.407,468.226 885,478.5C 881.363,473.096 879.363,467.096 879,460.5C 875.832,446.685 868.665,435.518 857.5,427C 846.295,420.197 834.962,419.864 823.5,426C 817.811,430.537 815.311,436.37 816,443.5C 827.864,425.672 843.031,422.505 861.5,434C 868.289,442.075 873.122,451.242 876,461.5C 877.346,469.241 879.012,476.908 881,484.5C 883.289,487.968 886.456,489.968 890.5,490.5C 938.913,474.281 969.413,490.614 982,539.5C 982.333,546.167 982.667,552.833 983,559.5C 990.23,526.13 978.73,501.63 948.5,486C 929.509,479.631 910.676,480.131 892,487.5C 890.521,486.127 890.688,484.627 892.5,483C 897.873,478.205 904.206,475.538 911.5,475C 942.614,471.478 966.781,482.645 984,508.5C 992.539,524.229 994.872,540.895 991,558.5C 983.933,592.053 965.1,616.386 934.5,631.5C 933.772,652.227 923.105,663.561 902.5,665.5C 899.408,665.493 896.408,664.993 893.5,664C 891.963,662.89 891.297,661.39 891.5,659.5C 906.76,661.927 918.26,656.594 926,643.5C 928.406,637.154 927.739,631.154 924,625.5C 920.832,621.467 916.999,620.633 912.5,623C 906.853,627.823 900.853,632.157 894.5,636C 890.412,636.604 887.912,634.77 887,630.5C 886.419,617.579 890.585,606.413 899.5,597C 893.01,591.502 887.843,585.002 884,577.5C 877.529,562.56 870.529,547.893 863,533.5C 858.588,528.582 853.755,524.249 848.5,520.5C 849.376,519.749 850.376,519.249 851.5,519C 849.01,517.057 846.177,515.891 843,515.5C 838.193,516.834 834.026,519.167 830.5,522.5 Z"/></g>
<g><path style="opacity:1" fill="#292526" d="M 922.5,416.5 C 926.797,417.288 927.63,419.621 925,423.5C 920.785,428.015 916.285,432.182 911.5,436C 909.866,436.494 908.199,436.66 906.5,436.5C 906.784,433.148 907.95,430.148 910,427.5C 912.872,424.963 915.372,422.13 917.5,419C 919.315,418.243 920.981,417.41 922.5,416.5 Z"/></g>
<g><path style="opacity:1" fill="#2c2829" d="M 97.5,420.5 C 99.4109,420.574 100.578,421.574 101,423.5C 101.667,432.5 101.667,441.5 101,450.5C 100.439,451.022 99.772,451.355 99,451.5C 97.3113,450.142 95.978,448.475 95,446.5C 92.3262,437.399 93.1596,428.733 97.5,420.5 Z"/></g>
<g><path style="opacity:1" fill="#242021" d="M 169.5,547.5 C 165.702,540.765 161.035,534.599 155.5,529C 148.188,523.017 140.355,517.85 132,513.5C 131.153,510.51 132.32,509.176 135.5,509.5C 135.882,503.722 137.715,498.389 141,493.5C 170.013,450.731 210.513,427.731 262.5,424.5C 279.97,424.269 296.303,428.435 311.5,437C 339.373,455.482 344.206,478.648 326,506.5C 318.303,514.268 309.469,520.434 299.5,525C 302.754,526.027 305.754,527.527 308.5,529.5C 309.776,531.861 309.442,534.028 307.5,536C 301.132,534.799 294.632,533.966 288,533.5C 275.406,534.091 262.906,535.424 250.5,537.5C 250.768,540.119 250.435,542.619 249.5,545C 242.115,545.199 234.782,545.865 227.5,547C 219.736,549.387 212.402,552.554 205.5,556.5C 201.5,556.337 200,554.337 201,550.5C 206.174,545.327 212.341,541.827 219.5,540C 200.959,539.355 182.959,536.355 165.5,531C 184.958,552.083 193.458,576.916 191,605.5C 188.941,613.45 185.441,620.617 180.5,627C 179.5,627.667 178.5,627.667 177.5,627C 173.216,619.05 167.216,612.716 159.5,608C 152.42,606.123 146.92,608.289 143,614.5C 140.16,622.612 141.494,629.945 147,636.5C 151.841,642.331 157.674,646.831 164.5,650C 172.809,652.251 179.643,650.085 185,643.5C 186.962,650.612 184.128,655.112 176.5,657C 165.891,658.864 156.891,655.864 149.5,648C 137.241,647.536 126.574,643.202 117.5,635C 92.2487,610.828 85.082,581.994 96,548.5C 101.017,535.279 108.85,524.112 119.5,515C 121.639,513.596 123.972,512.763 126.5,512.5C 128.319,512.342 129.652,513.009 130.5,514.5C 124.541,519.958 118.708,525.624 113,531.5C 112.333,532.167 112.333,532.833 113,533.5C 126.676,526.605 140.176,527.105 153.5,535C 159.045,538.934 164.378,543.101 169.5,547.5 Z"/></g>
<g><path style="opacity:1" fill="#272324" d="M 408.5,671.5 C 406.192,669.529 403.858,667.529 401.5,665.5C 389.093,651.563 384.26,635.23 387,616.5C 397.725,560.726 421.058,511.059 457,467.5C 464.863,459.302 473.03,451.469 481.5,444C 492.666,435.08 505.333,431.413 519.5,433C 529.577,434.78 536.743,440.28 541,449.5C 556.04,430.782 574.54,426.282 596.5,436C 608.914,443.746 619.414,453.579 628,465.5C 666.268,520.387 692.268,580.721 706,646.5C 707.05,654.663 706.383,662.663 704,670.5C 692.764,683.046 679.264,692.546 663.5,699C 643.455,708.678 622.455,712.011 600.5,709C 592.958,708.461 589.291,704.461 589.5,697C 590.986,687.53 595.653,680.03 603.5,674.5C 603.673,676.546 602.84,678.546 601,680.5C 597.624,694.617 603.124,701.284 617.5,700.5C 646.033,698.314 670.533,687.314 691,667.5C 696.85,661.281 699.516,653.948 699,645.5C 685.303,592.777 664.97,542.777 638,495.5C 627.748,478.505 615.248,463.338 600.5,450C 595.277,446.221 589.61,443.221 583.5,441C 568.513,440.156 555.179,444.489 543.5,454C 542.929,455.205 542.262,456.372 541.5,457.5C 525.993,436.946 507.66,434.113 486.5,449C 463.917,467.58 445.75,489.747 432,515.5C 413.621,546.302 400.955,579.302 394,614.5C 389.219,642.448 399.719,661.948 425.5,673C 427.019,674.351 428.352,675.851 429.5,677.5C 426.155,678.559 422.822,678.392 419.5,677C 415.78,675.14 412.114,673.307 408.5,671.5 Z"/></g>
<g><path style="opacity:1" fill="#f1f1f1" d="M 218.5,441.5 C 217.833,441.5 217.5,441.167 217.5,440.5C 244.935,429.163 272.602,428.663 300.5,439C 313.607,444.441 323.107,453.607 329,466.5C 329.991,468.447 330.325,470.447 330,472.5C 326.553,465.386 321.386,459.886 314.5,456C 284.395,438.979 252.395,434.145 218.5,441.5 Z"/></g>
<g><path style="opacity:1" fill="#f2f2f2" d="M 737.5,466.5 C 736.833,468.5 736.167,470.5 735.5,472.5C 733.548,464.814 734.381,457.481 738,450.5C 753.221,432.897 771.054,429.397 791.5,440C 796.5,444.333 801.5,448.667 806.5,453C 799.346,448.934 791.68,445.6 783.5,443C 766.418,438.695 752.251,443.195 741,456.5C 739.132,459.605 737.965,462.938 737.5,466.5 Z"/></g>
<g><path style="opacity:1" fill="#2a2627" d="M 62.5,441.5 C 66.1309,441.16 69.4642,441.994 72.5,444C 77.7286,447.695 81.0619,452.528 82.5,458.5C 80.6916,458.509 79.0249,458.009 77.5,457C 72.3545,453.517 67.5211,449.683 63,445.5C 62.51,444.207 62.3433,442.873 62.5,441.5 Z"/></g>
<g><path style="opacity:1" fill="#acabab" d="M 217.5,440.5 C 217.5,441.167 217.833,441.5 218.5,441.5C 214.791,443.569 210.791,444.735 206.5,445C 210.07,443.201 213.737,441.701 217.5,440.5 Z"/></g>
<g><path style="opacity:1" fill="#bebdbd" d="M 400.5,467.5 C 402.144,467.286 403.644,467.62 405,468.5C 405.135,475.404 402.635,481.237 397.5,486C 391.657,486.522 387.49,484.022 385,478.5C 380.857,469.037 383.357,467.037 392.5,472.5C 395.568,471.309 398.235,469.642 400.5,467.5 Z"/></g>
<g><path style="opacity:1" fill="#716f70" d="M 737.5,466.5 C 737.665,469.518 737.498,472.518 737,475.5C 736.487,474.473 735.987,473.473 735.5,472.5C 736.167,470.5 736.833,468.5 737.5,466.5 Z"/></g>
<g><path style="opacity:1" fill="#292526" d="M 55.5,473.5 C 60.8437,473.334 66.1771,473.501 71.5,474C 72.3366,475.011 72.67,476.178 72.5,477.5C 65.8305,478.599 59.3305,480.266 53,482.5C 50.7802,482.455 49.2802,481.455 48.5,479.5C 50.2627,476.73 52.5961,474.73 55.5,473.5 Z"/></g>
<g><path style="opacity:1" fill="#f0f0f0" d="M 724.5,478.5 C 726.924,478.192 729.257,478.526 731.5,479.5C 716.669,489.167 710.503,502.834 713,520.5C 714.375,525.276 715.708,529.942 717,534.5C 706.586,522.426 703.586,508.759 708,493.5C 711.567,486.312 717.067,481.312 724.5,478.5 Z"/></g>
<g><path style="opacity:1" fill="#272324" d="M 510.5,487.5 C 512.5,487.5 514.5,487.5 516.5,487.5C 518.668,495.306 523.001,501.806 529.5,507C 541.401,515.119 554.068,521.953 567.5,527.5C 570.544,531.661 572.377,536.328 573,541.5C 574.895,551.839 573.228,561.506 568,570.5C 563.76,575.317 559.76,580.317 556,585.5C 552.338,592.549 553.005,599.215 558,605.5C 561.726,610.228 565.059,615.228 568,620.5C 569.358,630.95 565.525,638.783 556.5,644C 554.246,645.15 551.913,645.484 549.5,645C 555.636,639.894 559.636,633.561 561.5,626C 561.333,624.5 561.167,623 561,621.5C 555.093,614.352 550.76,606.352 548,597.5C 546.499,588.838 548.166,580.838 553,573.5C 556,569.167 559,564.833 562,560.5C 564.349,552.001 563.515,543.834 559.5,536C 550.084,532.215 541.584,527.048 534,520.5C 533.51,521.793 533.343,523.127 533.5,524.5C 528.906,523.221 524.24,521.887 519.5,520.5C 515.2,521.399 511.033,522.733 507,524.5C 503.854,522.703 503.687,520.536 506.5,518C 512.145,515.089 518.145,513.422 524.5,513C 519.943,508.946 515.943,504.446 512.5,499.5C 503.454,508.359 492.788,514.526 480.5,518C 481.833,519.333 481.833,520.667 480.5,522C 475.539,522.609 470.705,522.109 466,520.5C 462.428,520.859 458.928,521.526 455.5,522.5C 455.5,521.5 455.5,520.5 455.5,519.5C 449.857,519.78 448.857,518.28 452.5,515C 472.952,515.408 490.785,508.908 506,495.5C 507.777,492.941 509.277,490.274 510.5,487.5 Z"/></g>
<g><path style="opacity:1" fill="#bfbebf" d="M 365.5,491.5 C 382.837,491.333 400.17,491.5 417.5,492C 419.5,492.667 421.5,493.333 423.5,494C 419.019,495.954 414.352,497.287 409.5,498C 395.155,498.167 380.822,498.667 366.5,499.5C 365.516,514.452 365.183,529.452 365.5,544.5C 375.838,544.041 386.171,543.874 396.5,544C 399.816,545.251 400.15,546.918 397.5,549C 385.828,549.682 374.162,550.015 362.5,550C 362,549.5 361.5,549 361,548.5C 360.61,544.486 360.11,540.486 359.5,536.5C 360.282,522.518 360.782,508.518 361,494.5C 362.409,493.219 363.909,492.219 365.5,491.5 Z"/></g>
<g><path style="opacity:1" fill="#7f7c7d" d="M 830.5,522.5 C 830.833,522.5 831.167,522.5 831.5,522.5C 830.063,523.725 828.396,524.725 826.5,525.5C 825.304,525.154 825.304,524.654 826.5,524C 827.745,523.209 829.078,522.709 830.5,522.5 Z"/></g>
<g><path style="opacity:1" fill="#2e2a2b" d="M 435.5,536.5 C 449.921,535.649 463.254,538.982 475.5,546.5C 474.652,547.991 473.319,548.658 471.5,548.5C 459.13,544.574 446.463,542.907 433.5,543.5C 433.166,540.812 433.832,538.479 435.5,536.5 Z"/></g>
<g><path style="opacity:1" fill="#282425" d="M 469.5,574.5 C 471.4,571.482 472.733,568.149 473.5,564.5C 473.201,562.396 473.534,560.396 474.5,558.5C 477.109,557.77 479.776,557.27 482.5,557C 485.865,553.464 487.698,554.297 488,559.5C 500.098,555.597 504.432,559.93 501,572.5C 498.811,578.025 495.311,579.692 490.5,577.5C 495.425,592.13 504.758,595.964 518.5,589C 526.772,580.517 530.939,570.351 531,558.5C 525.918,554.209 520.084,551.376 513.5,550C 507.534,548.841 501.534,548.007 495.5,547.5C 492.833,546.833 490.167,546.167 487.5,545.5C 504.1,541.12 519.767,543.286 534.5,552C 537.208,554.416 538.875,557.416 539.5,561C 538.264,575.736 532.264,588.069 521.5,598C 501.722,605.527 488.888,599.027 483,578.5C 482.667,576.167 482.333,573.833 482,571.5C 475.234,583.351 467.234,594.351 458,604.5C 456.961,606.746 455.794,608.913 454.5,611C 463.438,612.029 472.438,613.029 481.5,614C 478.584,617.199 474.917,618.866 470.5,619C 463.837,619.956 457.337,619.456 451,617.5C 454.613,650.781 472.447,672.281 504.5,682C 507.833,682.167 511.167,682.333 514.5,682.5C 524.707,681.942 534.707,680.442 544.5,678C 539.05,683.605 532.384,686.938 524.5,688C 484.166,688.911 458,670.078 446,631.5C 442.972,620.681 441.972,609.681 443,598.5C 444.667,595.833 446.333,595.833 448,598.5C 448.333,601.167 448.667,603.833 449,606.5C 451.783,602.049 454.95,597.883 458.5,594C 440.504,597.262 429.338,590.095 425,572.5C 424.333,565.833 424.333,559.167 425,552.5C 425.516,549.966 426.683,547.8 428.5,546C 429.944,545.219 431.277,545.386 432.5,546.5C 429.349,556.737 429.849,566.737 434,576.5C 442.312,586.786 452.146,588.786 463.5,582.5C 465.909,580.098 467.909,577.431 469.5,574.5 Z"/></g>
<g><path style="opacity:1" fill="#828080" d="M 487.5,545.5 C 490.167,546.167 492.833,546.833 495.5,547.5C 492.428,547.817 489.428,547.484 486.5,546.5C 486.624,545.893 486.957,545.56 487.5,545.5 Z"/></g>
<g><path style="opacity:1" fill="#959393" d="M 169.5,547.5 C 171.085,548.002 171.585,549.002 171,550.5C 169.961,549.756 169.461,548.756 169.5,547.5 Z"/></g>
<g><path style="opacity:1" fill="#999798" d="M 793.5,552.5 C 795.5,553.167 797.5,553.833 799.5,554.5C 795.124,554.637 790.791,554.804 786.5,555C 788.854,554.153 791.188,553.32 793.5,552.5 Z"/></g>
<g><path style="opacity:1" fill="#282425" d="M 471.5,560.5 C 471.731,564.993 471.064,569.326 469.5,573.5C 461.579,577.757 458.745,575.423 461,566.5C 462.512,564.043 463.846,564.043 465,566.5C 465.494,564.866 465.66,563.199 465.5,561.5C 462.833,561.5 460.167,561.5 457.5,561.5C 458.338,554.546 462.005,552.713 468.5,556C 470.141,557.129 471.141,558.629 471.5,560.5 Z"/></g>
<g><path style="opacity:1" fill="#282425" d="M 584.5,556.5 C 600.539,555.371 608.873,562.871 609.5,579C 609.475,584.129 608.308,588.962 606,593.5C 602.61,597.393 598.777,600.727 594.5,603.5C 601.264,612.338 600.931,621.005 593.5,629.5C 589.836,632.722 585.836,633.222 581.5,631C 577.401,623.427 577.735,615.927 582.5,608.5C 578.538,608.058 574.871,606.891 571.5,605C 579.571,601.974 587.571,598.641 595.5,595C 600.119,591.26 602.119,586.427 601.5,580.5C 601.429,567.561 595.429,563.061 583.5,567C 580.112,569.786 577.446,573.119 575.5,577C 569.92,578.261 568.087,576.094 570,570.5C 573.408,564.257 578.242,559.59 584.5,556.5 Z"/></g>
<g><path style="opacity:1" fill="#797778" d="M 778.5,559.5 C 778.5,558.833 778.167,558.5 777.5,558.5C 779.225,557.095 781.225,556.595 783.5,557C 781.807,557.847 780.14,558.68 778.5,559.5 Z"/></g>
<g><path style="opacity:1" fill="#2c2829" d="M 836.5,557.5 C 847.824,556.551 857.324,560.217 865,568.5C 867.664,571.376 867.831,574.21 865.5,577C 864.167,577.667 862.833,577.667 861.5,577C 859.005,571.172 854.671,567.505 848.5,566C 842.782,565.484 837.115,565.484 831.5,566C 829.38,564.477 829.047,562.644 830.5,560.5C 832.745,559.792 834.745,558.792 836.5,557.5 Z"/></g>
<g><path style="opacity:1" fill="#d5d4d4" d="M 479.5,561.5 C 481.344,562.204 481.844,563.537 481,565.5C 480.333,564.167 479.667,564.167 479,565.5C 478.421,564.072 478.588,562.738 479.5,561.5 Z"/></g>
<g><path style="opacity:1" fill="#2a2627" d="M 301.5,564.5 C 303.722,564.178 305.556,564.845 307,566.5C 310.394,570.898 313.394,575.565 316,580.5C 317.457,584.741 317.791,589.074 317,593.5C 316.218,596.076 314.718,598.076 312.5,599.5C 317.246,604.745 321.412,610.412 325,616.5C 326.879,631.279 320.379,637.112 305.5,634C 295.673,632.089 287.339,627.589 280.5,620.5C 282.074,619.369 283.741,619.202 285.5,620C 291.498,623.5 297.831,626.167 304.5,628C 320.2,630.315 323.367,625.148 314,612.5C 303.667,602.167 293.333,591.833 283,581.5C 281.697,579.06 280.53,576.56 279.5,574C 279.725,572.379 280.558,571.212 282,570.5C 289.546,578.714 297.712,586.214 306.5,593C 307.5,593.667 308.5,593.667 309.5,593C 310.617,589.927 310.784,586.76 310,583.5C 307,578.833 304,574.167 301,569.5C 300.36,567.735 300.527,566.068 301.5,564.5 Z"/></g>
<g><path style="opacity:1" fill="#7c7a7a" d="M 471.5,560.5 C 472.167,561.833 472.833,563.167 473.5,564.5C 472.733,568.149 471.4,571.482 469.5,574.5C 469.5,574.167 469.5,573.833 469.5,573.5C 471.064,569.326 471.731,564.993 471.5,560.5 Z"/></g>
<g><path style="opacity:1" fill="#e6e5e5" d="M 488.5,564.5 C 490.833,564.5 493.167,564.5 495.5,564.5C 495.657,565.873 495.49,567.207 495,568.5C 493.817,567.269 492.651,567.269 491.5,568.5C 490.787,570.776 490.287,573.109 490,575.5C 488.892,571.914 488.392,568.247 488.5,564.5 Z"/></g>
<g><path style="opacity:1" fill="#292526" d="M 261.5,572.5 C 263.467,572.261 265.301,572.594 267,573.5C 270.123,579.537 272.457,585.87 274,592.5C 275.623,606.528 269.456,611.695 255.5,608C 244.769,602.698 237.102,594.532 232.5,583.5C 232.608,582.558 232.941,581.725 233.5,581C 235.259,580.202 236.926,580.369 238.5,581.5C 242.589,589.756 248.589,596.256 256.5,601C 264.929,604.889 268.429,602.389 267,593.5C 265.794,587.884 263.794,582.55 261,577.5C 260.36,575.735 260.527,574.068 261.5,572.5 Z"/></g>
<g><path style="opacity:1" fill="#292526" d="M 760.5,573.5 C 761.165,576.817 761.499,580.317 761.5,584C 759.834,603.807 759.334,623.641 760,643.5C 760.873,664.374 767.539,683.04 780,699.5C 790.795,712.648 804.629,718.148 821.5,716C 829.054,714.038 836.554,711.871 844,709.5C 844.5,709.667 845,709.833 845.5,710C 839.305,717.41 831.305,721.41 821.5,722C 805.774,724.091 792.107,719.758 780.5,709C 768.711,698.266 760.878,685.099 757,669.5C 751.08,639.179 751.08,608.845 757,578.5C 758.176,576.804 759.343,575.138 760.5,573.5 Z"/></g>
<g><path style="opacity:1" fill="#292526" d="M 787.5,579.5 C 793.551,579.449 799.218,580.783 804.5,583.5C 804.023,584.478 803.357,585.311 802.5,586C 800.5,586.333 798.5,586.667 796.5,587C 799.288,596.875 795.622,601.208 785.5,600C 783.951,598.786 782.785,597.286 782,595.5C 779.904,588.569 781.737,583.236 787.5,579.5 Z"/></g>
<g><path style="opacity:1" fill="#f1f0f0" d="M 787.5,587.5 C 789.539,588.911 790.539,590.911 790.5,593.5C 789.5,593.5 788.5,593.5 787.5,593.5C 787.5,591.5 787.5,589.5 787.5,587.5 Z"/></g>
<g><path style="opacity:1" fill="#292526" d="M 820.5,592.5 C 826.616,592.113 832.282,593.446 837.5,596.5C 837.023,597.478 836.357,598.311 835.5,599C 833.423,599.192 831.423,599.692 829.5,600.5C 832.01,610.155 828.343,614.322 818.5,613C 816.951,611.786 815.785,610.286 815,608.5C 812.904,601.569 814.737,596.236 820.5,592.5 Z"/></g>
<g><path style="opacity:1" fill="#efefef" d="M 820.5,600.5 C 822.975,601.687 823.975,603.687 823.5,606.5C 822.5,606.5 821.5,606.5 820.5,606.5C 820.5,604.5 820.5,602.5 820.5,600.5 Z"/></g>
<g><path style="opacity:1" fill="#c1c0c1" d="M 723.5,602.5 C 725.446,604.734 726.613,607.401 727,610.5C 726.288,648.49 725.622,686.49 725,724.5C 724.581,725.672 723.915,726.672 723,727.5C 721.156,724.467 720.156,721.134 720,717.5C 719.484,679.086 720.651,640.752 723.5,602.5 Z"/></g>
<g><path style="opacity:1" fill="#f2f1f1" d="M 587.5,609.5 C 590.254,611.053 591.087,613.386 590,616.5C 588.644,617.38 587.144,617.714 585.5,617.5C 585.287,614.549 585.954,611.882 587.5,609.5 Z"/></g>
<g><path style="opacity:1" fill="#2a2627" d="M 505.5,632.5 C 510.377,632.963 511.544,635.296 509,639.5C 501.726,646.444 493.226,648.61 483.5,646C 482.09,645.632 481.09,644.799 480.5,643.5C 489.028,643.767 496.695,641.433 503.5,636.5C 504.63,635.378 505.297,634.044 505.5,632.5 Z"/></g>
<g><path style="opacity:1" fill="#292526" d="M 315.5,639.5 C 316.5,639.5 317.5,639.5 318.5,639.5C 319.815,661.715 314.315,682.048 302,700.5C 287.716,719.039 269.216,725.206 246.5,719C 235.494,715.33 225.161,710.33 215.5,704C 212.312,701.646 209.645,698.812 207.5,695.5C 207.833,695.167 208.167,694.833 208.5,694.5C 218.997,700.123 229.663,705.623 240.5,711C 269.069,721.466 289.902,712.966 303,685.5C 308.411,670.524 312.578,655.191 315.5,639.5 Z"/></g>
<g><path style="opacity:1" fill="#292526" d="M 275.5,653.5 C 278.599,653.092 280.933,654.259 282.5,657C 289.279,660.829 296.279,661.495 303.5,659C 305.609,665.841 302.942,668.675 295.5,667.5C 286.495,668.081 279.329,664.747 274,657.5C 273.516,655.807 274.016,654.473 275.5,653.5 Z"/></g>
<g><path style="opacity:1" fill="#2a2627" d="M 811.5,666.5 C 816.376,665.404 818.043,667.071 816.5,671.5C 811.093,676.544 804.76,678.711 797.5,678C 792.525,677.049 791.525,674.716 794.5,671C 800.99,672.445 806.656,670.945 811.5,666.5 Z"/></g>
<g><path style="opacity:1" fill="#a9a8a9" d="M 401.5,665.5 C 403.858,667.529 406.192,669.529 408.5,671.5C 408.667,682.172 408.5,692.839 408,703.5C 407.282,704.451 406.449,704.617 405.5,704C 403.996,702.509 403.163,700.676 403,698.5C 402.789,687.454 402.289,676.454 401.5,665.5 Z"/></g>
<g><path style="opacity:1" fill="#c0bfbf" d="M 355.5,713.5 C 390.502,714.18 425.502,715.013 460.5,716C 465.202,716.172 469.868,716.672 474.5,717.5C 475.649,731.788 475.816,746.122 475,760.5C 474.781,761.938 474.281,763.271 473.5,764.5C 471.84,761.353 470.673,758.02 470,754.5C 469.5,743.839 469.333,733.172 469.5,722.5C 431.503,721.847 393.503,721.513 355.5,721.5C 356.278,734.161 356.444,746.827 356,759.5C 355.369,762.641 353.702,763.641 351,762.5C 350.38,749.653 349.547,736.82 348.5,724C 347.325,717.791 349.658,714.291 355.5,713.5 Z"/></g>
<g><path style="opacity:1" fill="#bebcbd" d="M 727.5,730.5 C 729.833,730.5 732.167,730.5 734.5,730.5C 733.735,738.411 730.235,744.744 724,749.5C 716.621,745.745 712.454,739.745 711.5,731.5C 715.169,731.332 718.502,732.332 721.5,734.5C 723.911,733.639 725.911,732.306 727.5,730.5 Z"/></g>
<g><path style="opacity:1" fill="#c0bebf" d="M 680.5,754.5 C 698.854,754.274 717.187,754.774 735.5,756C 743.004,756.376 750.337,757.709 757.5,760C 729.185,761.158 700.852,761.991 672.5,762.5C 672.5,776.167 672.5,789.833 672.5,803.5C 704.824,804.581 737.157,804.748 769.5,804C 770.321,793.91 770.821,783.744 771,773.5C 771.875,770.785 773.708,769.452 776.5,769.5C 776.667,781.838 776.5,794.171 776,806.5C 775.5,807.667 774.667,808.5 773.5,809C 763.403,810.13 753.236,810.63 743,810.5C 718.818,810.136 694.651,809.302 670.5,808C 668.667,807.5 667.5,806.333 667,804.5C 666.333,789.5 666.333,774.5 667,759.5C 671.054,756.367 675.554,754.701 680.5,754.5 Z"/></g>
<g><path style="opacity:1" fill="#c0bebf" d="M 317.5,768.5 C 338.519,768.793 359.519,769.626 380.5,771C 387.833,771.498 388.166,772.831 381.5,775C 378.374,775.759 375.207,776.259 372,776.5C 353.508,775.56 335.008,774.726 316.5,774C 315.243,771.924 315.576,770.09 317.5,768.5 Z"/></g>
<g><path style="opacity:1" fill="#cac9c9" d="M 457.5,770.5 C 470.504,770.333 483.504,770.5 496.5,771C 500.006,771.629 503.34,772.629 506.5,774C 504.974,775.887 502.974,776.887 500.5,777C 484.167,777.333 467.833,777.667 451.5,778C 450.379,792.445 450.546,806.945 452,821.5C 452.374,822.416 452.874,823.25 453.5,824C 474.862,824.679 496.195,824.179 517.5,822.5C 517.333,809.163 517.5,795.829 518,782.5C 521.35,779.793 523.017,780.793 523,785.5C 523.667,798.5 523.667,811.5 523,824.5C 522.535,825.931 521.701,827.097 520.5,828C 505.21,829.55 489.876,830.384 474.5,830.5C 465.733,830.71 457.067,830.043 448.5,828.5C 446.929,826.118 446.096,823.451 446,820.5C 444.667,806.521 444.334,792.521 445,778.5C 445.273,776.899 445.773,775.399 446.5,774C 450.161,772.407 453.828,771.241 457.5,770.5 Z"/></g>
<g><path style="opacity:1" fill="#c0bfbf" d="M 692.5,773.5 C 709.5,773.937 726.5,774.437 743.5,775C 741.377,776.194 739.043,776.86 736.5,777C 721.508,778.759 706.508,778.759 691.5,777C 691.043,776.586 690.709,776.086 690.5,775.5C 691.243,774.818 691.909,774.151 692.5,773.5 Z"/></g>
<g><path style="opacity:1" fill="#bfbdbe" d="M 315.5,778.5 C 317.117,779.589 317.95,781.256 318,783.5C 318.5,797.163 318.667,810.829 318.5,824.5C 343.498,825.758 368.498,825.758 393.5,824.5C 393.333,812.495 393.5,800.495 394,788.5C 394.419,787.328 395.085,786.328 396,785.5C 398.322,799.77 398.822,814.104 397.5,828.5C 372.576,831.141 347.576,831.975 322.5,831C 319.377,830.794 316.377,830.127 313.5,829C 312.343,813.574 312.176,798.074 313,782.5C 313.662,781.016 314.496,779.683 315.5,778.5 Z"/></g>
<g><path style="opacity:1" fill="#c1bfc0" d="M 331.5,793.5 C 342.172,793.333 352.839,793.5 363.5,794C 353.837,795.59 344.17,797.09 334.5,798.5C 337.383,799.738 340.217,801.072 343,802.5C 343.365,805.494 342.031,807.494 339,808.5C 338.5,808.167 338,807.833 337.5,807.5C 338.167,806.5 338.833,805.5 339.5,804.5C 335.558,802.942 331.724,801.275 328,799.5C 327.651,796.669 328.817,794.669 331.5,793.5 Z"/></g>
<g><path style="opacity:1" fill="#c1bfc0" d="M 469.5,797.5 C 478.398,796.216 487.398,796.549 496.5,798.5C 496.291,799.086 495.957,799.586 495.5,800C 493.5,800.167 491.5,800.333 489.5,800.5C 482.747,799.93 476.08,798.93 469.5,797.5 Z"/></g>
</svg>
