<?xml version="1.0" encoding="UTF-8"?>
<!DOCTYPE svg PUBLIC "-//W3C//DTD SVG 1.1//EN" "http://www.w3.org/Graphics/SVG/1.1/DTD/svg11.dtd">
<svg xmlns="http://www.w3.org/2000/svg" version="1.1" width="1041px" height="1041px" style="shape-rendering:geometricPrecision; text-rendering:geometricPrecision; image-rendering:optimizeQuality; fill-rule:evenodd; clip-rule:evenodd" xmlns:xlink="http://www.w3.org/1999/xlink">
<g><path style="opacity:1" fill="#fefefe" d="M -0.5,-0.5 C 346.5,-0.5 693.5,-0.5 1040.5,-0.5C 1040.5,346.5 1040.5,693.5 1040.5,1040.5C 693.5,1040.5 346.5,1040.5 -0.5,1040.5C -0.5,693.5 -0.5,346.5 -0.5,-0.5 Z"/></g>
<g><path style="opacity:1" fill="#292526" d="M 708.5,120.5 C 741.772,118.084 769.605,129.084 792,153.5C 808.273,176.563 810.94,201.23 800,227.5C 784.562,257.144 760.062,272.477 726.5,273.5C 714.809,274.397 704.142,271.564 694.5,265C 710.012,267.855 725.678,268.189 741.5,266C 780.158,255.458 799.658,230.291 800,190.5C 799.336,178.837 795.336,168.504 788,159.5C 769.709,138.301 746.376,127.301 718,126.5C 689.799,126.929 667.799,138.595 652,161.5C 636.723,193.447 641.89,221.614 667.5,246C 674.513,250.508 681.847,254.508 689.5,258C 682.371,259.352 675.705,258.185 669.5,254.5C 668.155,260.552 666.488,266.552 664.5,272.5C 665,272.833 665.5,273.167 666,273.5C 672.064,271.544 677.898,269.211 683.5,266.5C 683.323,270.526 681.323,273.359 677.5,275C 671.859,276.936 666.192,278.769 660.5,280.5C 659.914,280.291 659.414,279.957 659,279.5C 658.333,277.167 658.333,274.833 659,272.5C 662.217,265.144 663.217,257.478 662,249.5C 634.214,221.668 629.548,190.335 648,155.5C 662.879,134.645 683.046,122.979 708.5,120.5 Z"/></g>
<g><path style="opacity:1" fill="#2b2728" d="M 754.5,158.5 C 775.679,156.852 782.179,165.852 774,185.5C 767.894,192.092 760.394,194.258 751.5,192C 742.752,187.455 739.585,180.288 742,170.5C 744.744,164.921 748.911,160.921 754.5,158.5 Z"/></g>
<g><path style="opacity:1" fill="#292526" d="M 418.5,159.5 C 445.398,156.141 469.731,162.307 491.5,178C 524.627,209.292 530.794,245.126 510,285.5C 501.682,297.995 491.015,307.995 478,315.5C 474.747,325.787 471.247,335.954 467.5,346C 464.975,346.896 462.808,346.396 461,344.5C 458.157,338.142 454.323,332.475 449.5,327.5C 451.55,326.337 453.55,326.504 455.5,328C 459.103,331.38 462.103,335.213 464.5,339.5C 466.371,332.35 468.705,325.35 471.5,318.5C 466.537,318.487 461.537,318.153 456.5,317.5C 489.046,307.455 508.879,285.788 516,252.5C 518.159,215.301 502.659,188.468 469.5,172C 449.233,164.932 428.567,163.599 407.5,168C 375.328,180.95 358.661,204.95 357.5,240C 357.599,257.972 363.765,273.472 376,286.5C 395.424,305.038 418.591,315.371 445.5,317.5C 430.252,320.871 415.585,319.037 401.5,312C 354.515,287.72 340.682,250.887 360,201.5C 372.635,177.78 392.135,163.78 418.5,159.5 Z"/></g>
<g><path style="opacity:1" fill="#292526" d="M 705.5,162.5 C 721.126,163.298 726.959,171.298 723,186.5C 720.76,189.402 717.927,191.569 714.5,193C 725.352,201.87 730.185,213.37 729,227.5C 724.796,230.769 719.963,232.602 714.5,233C 703.798,234.204 693.465,232.871 683.5,229C 682.667,228.167 681.833,227.333 681,226.5C 680.048,220.638 680.715,214.972 683,209.5C 686.747,201.665 691.247,194.332 696.5,187.5C 691.444,176.041 694.444,167.708 705.5,162.5 Z"/></g>
<g><path style="opacity:1" fill="#f8f8f8" d="M 760.5,161.5 C 772.793,166.645 774.793,174.479 766.5,185C 760.149,188.495 753.982,188.328 748,184.5C 743.796,176.975 744.963,170.475 751.5,165C 754.459,163.396 757.459,162.229 760.5,161.5 Z"/></g>
<g><path style="opacity:1" fill="#322e2f" d="M 756.5,167.5 C 757.5,167.5 758.5,167.5 759.5,167.5C 759.5,169.167 759.5,170.833 759.5,172.5C 761.827,172.247 763.827,172.914 765.5,174.5C 763.977,176.283 761.977,176.949 759.5,176.5C 759.5,178.167 759.5,179.833 759.5,181.5C 756.09,181.616 754.756,179.95 755.5,176.5C 754.167,176.5 752.833,176.5 751.5,176.5C 751.5,175.167 751.5,173.833 751.5,172.5C 753.167,172.5 754.833,172.5 756.5,172.5C 756.5,170.833 756.5,169.167 756.5,167.5 Z"/></g>
<g><path style="opacity:1" fill="#858384" d="M 710.5,193.5 C 716.121,203.754 719.121,214.754 719.5,226.5C 710.881,227.608 702.215,227.775 693.5,227C 687.176,226.689 684.676,223.523 686,217.5C 689.591,207.65 694.258,198.317 700,189.5C 700.336,185.999 700.169,182.499 699.5,179C 700.213,170.3 704.88,166.967 713.5,169C 719.046,172.732 720.879,177.899 719,184.5C 715.184,187.942 710.684,189.942 705.5,190.5C 704.614,191.325 704.281,192.325 704.5,193.5C 706.5,193.5 708.5,193.5 710.5,193.5 Z"/></g>
<g><path style="opacity:1" fill="#eeeeee" d="M 710.5,193.5 C 712.624,194.031 714.124,195.365 715,197.5C 720.168,205.676 723.335,214.509 724.5,224C 723.347,225.883 721.681,226.716 719.5,226.5C 719.121,214.754 716.121,203.754 710.5,193.5 Z"/></g>
<g><path style="opacity:1" fill="#272324" d="M 424.5,252.5 C 425.364,251.312 426.364,250.145 427.5,249C 424.254,249.317 420.92,249.483 417.5,249.5C 411.98,248.149 408.147,244.816 406,239.5C 402.914,227.245 407.748,221.745 420.5,223C 426.307,224.807 430.141,228.64 432,234.5C 440.584,225.838 446.75,215.672 450.5,204C 452.635,203.365 454.635,203.699 456.5,205C 462,211.167 467.5,217.333 473,223.5C 474.11,221.963 475.61,221.297 477.5,221.5C 477.567,223.401 477.233,225.234 476.5,227C 478.994,229.328 481.328,231.828 483.5,234.5C 479.781,235.073 476.614,233.74 474,230.5C 469.429,234.436 469.763,238.103 475,241.5C 475.483,242.448 475.649,243.448 475.5,244.5C 472.138,243.802 469.138,242.636 466.5,241C 461.06,251.214 454.394,260.547 446.5,269C 436.398,272.033 428.898,268.867 424,259.5C 423.297,257.071 423.463,254.738 424.5,252.5 Z"/></g>
<g><path style="opacity:1" fill="#f9f9f9" d="M 445.5,224.5 C 452.642,226.462 458.642,230.296 463.5,236C 459.192,243.451 455.026,250.951 451,258.5C 449.637,252.134 445.804,247.968 439.5,246C 436.093,245.518 432.76,245.518 429.5,246C 432.501,239.988 436.667,234.822 442,230.5C 443.421,228.595 444.588,226.595 445.5,224.5 Z"/></g>
<g><path style="opacity:1" fill="#a5a3a3" d="M 424.5,252.5 C 422.492,250.917 420.159,249.917 417.5,249.5C 420.92,249.483 424.254,249.317 427.5,249C 426.364,250.145 425.364,251.312 424.5,252.5 Z"/></g>
<g><path style="opacity:1" fill="#292526" d="M 932.5,403.5 C 927.64,398.819 923.473,393.485 920,387.5C 911.17,369.827 900.837,353.16 889,337.5C 874.644,321.713 857.144,316.213 836.5,321C 816.208,331.75 807.708,348.584 811,371.5C 813.01,382.696 816.51,393.363 821.5,403.5C 822.536,405.428 823.036,407.428 823,409.5C 821.296,407.627 819.463,405.96 817.5,404.5C 808.557,389.822 804.39,373.822 805,356.5C 798.883,370.597 799.05,384.597 805.5,398.5C 805,398.833 804.5,399.167 804,399.5C 799.571,395.167 797.238,389.833 797,383.5C 795.697,373.569 796.697,363.903 800,354.5C 802.422,349.657 804.755,344.99 807,340.5C 796.073,350.937 791.24,363.77 792.5,379C 793.112,384.506 793.779,390.006 794.5,395.5C 794.493,397.369 794.16,399.036 793.5,400.5C 793.5,399.833 793.167,399.5 792.5,399.5C 789.054,391.392 787.721,382.892 788.5,374C 788.008,365.925 789.008,358.091 791.5,350.5C 793.121,347.433 795.121,344.599 797.5,342C 793.835,341.613 791.002,343.113 789,346.5C 786.888,349.727 785.055,353.06 783.5,356.5C 779.703,363.919 778.036,371.919 778.5,380.5C 778.453,389.513 779.786,398.179 782.5,406.5C 783.16,408.816 783.827,411.149 784.5,413.5C 784.167,414.167 783.833,414.833 783.5,415.5C 781.674,413.853 780.34,411.853 779.5,409.5C 774.348,395.975 772.515,381.975 774,367.5C 770.033,380.536 769.533,393.703 772.5,407C 772.093,411.337 771.259,411.171 770,406.5C 766.899,395.167 766.732,383.833 769.5,372.5C 770.905,365.783 773.572,359.616 777.5,354C 777,353.833 776.5,353.667 776,353.5C 768.072,357.341 763.572,363.675 762.5,372.5C 760.14,379.848 759.14,387.514 759.5,395.5C 759.447,402.929 760.114,410.263 761.5,417.5C 760.833,417.167 760.167,416.833 759.5,416.5C 755.294,407.664 753.627,398.331 754.5,388.5C 754.534,383.038 755.034,377.705 756,372.5C 752.356,377.6 750.189,383.267 749.5,389.5C 748.833,395.679 748.167,402.012 747.5,408.5C 746.201,407.91 745.368,406.91 745,405.5C 744.501,401.848 744.335,398.182 744.5,394.5C 744.913,388.358 746.079,382.358 748,376.5C 751.157,370.741 754.157,365.074 757,359.5C 747.765,369.309 742.931,380.975 742.5,394.5C 741.075,402.636 741.741,410.636 744.5,418.5C 744.762,419.978 744.429,421.311 743.5,422.5C 739.613,420.301 737.446,416.968 737,412.5C 734.281,393.209 738.281,375.542 749,359.5C 757.704,350.039 768.537,345.873 781.5,347C 784.5,344 787.5,341 790.5,338C 794.716,336.796 799.049,336.13 803.5,336C 805.002,335.417 806.335,334.584 807.5,333.5C 795.537,327.154 783.537,326.987 771.5,333C 769.65,335.018 767.65,336.851 765.5,338.5C 764.337,336.45 764.504,334.45 766,332.5C 777.117,323.096 789.617,320.929 803.5,326C 807.058,327.362 810.558,328.862 814,330.5C 818.775,327.396 823.275,323.896 827.5,320C 843.115,311.469 858.782,311.469 874.5,320C 886.285,326.785 895.785,335.952 903,347.5C 913.117,365.935 923.617,384.102 934.5,402C 934.164,403.03 933.497,403.53 932.5,403.5 Z"/></g>
<g><path style="opacity:1" fill="#999797" d="M 932.5,403.5 C 931.861,404.097 931.528,404.93 931.5,406C 934.797,420.764 941.631,433.597 952,444.5C 961.132,453.292 969.132,462.959 976,473.5C 977.392,484.665 974.892,494.832 968.5,504C 963.431,503.404 960.265,505.57 959,510.5C 955.708,513.873 952.208,516.873 948.5,519.5C 943.147,513.636 938.313,507.303 934,500.5C 928.783,490.067 924.117,479.401 920,468.5C 914.431,443.39 908.764,418.39 903,393.5C 909.396,413.146 914.396,433.146 918,453.5C 920.074,460.723 922.741,467.723 926,474.5C 926.811,475.96 927.645,476.293 928.5,475.5C 926.033,468.932 923.866,462.265 922,455.5C 919.167,437.341 915.5,419.341 911,401.5C 907.33,390.494 902.33,380.161 896,370.5C 887.913,359.742 879.08,349.576 869.5,340C 867.667,338.833 865.833,337.667 864,336.5C 863.48,338.289 863.813,339.956 865,341.5C 881.479,358.444 892.812,378.444 899,401.5C 904.419,423.085 909.419,444.752 914,466.5C 918.71,482.66 925.71,497.66 935,511.5C 938.41,515.416 942.243,518.749 946.5,521.5C 944.533,524.579 942.2,527.412 939.5,530C 934.05,529.926 928.717,529.26 923.5,528C 918.04,530.312 913.707,533.812 910.5,538.5C 900.115,527.898 893.282,515.231 890,500.5C 888.887,498.671 887.387,497.837 885.5,498C 887.146,510.088 891.479,521.255 898.5,531.5C 895.73,528.782 892.397,527.115 888.5,526.5C 884.648,528.169 880.648,528.669 876.5,528C 868.31,520.987 862.31,512.487 858.5,502.5C 865.794,492.351 868.128,481.351 865.5,469.5C 866.233,466.355 867.233,463.188 868.5,460C 866.744,459.798 865.078,459.298 863.5,458.5C 863.624,457.893 863.957,457.56 864.5,457.5C 874.282,457.981 880.782,453.315 884,443.5C 887.334,433.84 885.167,425.674 877.5,419C 871.761,416.486 866.595,417.319 862,421.5C 862.195,412.258 860.861,403.258 858,394.5C 856.507,388.836 853.007,385.502 847.5,384.5C 847.5,385.833 847.5,387.167 847.5,388.5C 843.873,390.794 840.539,393.46 837.5,396.5C 826.661,376.798 824.661,356.131 831.5,334.5C 830.082,330.897 828.582,331.231 827,335.5C 820.312,358.032 822.812,379.365 834.5,399.5C 830.252,401.125 825.919,402.458 821.5,403.5C 816.51,393.363 813.01,382.696 811,371.5C 807.708,348.584 816.208,331.75 836.5,321C 857.144,316.213 874.644,321.713 889,337.5C 900.837,353.16 911.17,369.827 920,387.5C 923.473,393.485 927.64,398.819 932.5,403.5 Z"/></g>
<g><path style="opacity:1" fill="#242021" d="M 298.5,627.5 C 297.542,626.038 296.376,624.705 295,623.5C 295.097,625.459 295.93,627.125 297.5,628.5C 304.675,639.185 313.175,648.851 323,657.5C 323.432,658.6 322.932,659.267 321.5,659.5C 318.205,658.184 315.205,656.351 312.5,654C 297.709,639.59 286.543,622.757 279,603.5C 274.253,617.457 264.753,622.291 250.5,618C 242.667,613.584 235,608.918 227.5,604C 221.111,600.803 214.777,600.803 208.5,604C 194.78,614.388 183.946,627.221 176,642.5C 152.246,685.189 138.58,730.855 135,779.5C 133.26,803.726 136.927,827.06 146,849.5C 152.73,860.946 162.563,868.113 175.5,871C 186.536,871.785 197.536,871.452 208.5,870C 230.756,864.372 251.756,855.705 271.5,844C 284.567,835.271 297.901,826.938 311.5,819C 312.5,818.333 313.5,818.333 314.5,819C 290.704,841.242 263.371,857.909 232.5,869C 214.77,875.947 196.437,878.614 177.5,877C 156.566,874.054 142.066,862.887 134,843.5C 128.706,828.276 126.539,812.609 127.5,796.5C 129.481,740.728 144.148,688.561 171.5,640C 163.397,644.368 154.731,647.702 145.5,650C 109.024,657.505 82.1904,645.005 65,612.5C 52.4442,578.502 61.2775,551.668 91.5,532C 98.8333,528 106.167,524 113.5,520C 121.151,511.732 125.318,501.899 126,490.5C 125.184,464.849 124.851,439.182 125,413.5C 131.285,381.22 150.118,360.386 181.5,351C 200.727,347.743 217.061,353.076 230.5,367C 220.337,362.504 209.67,359.171 198.5,357C 190.919,355.979 183.585,356.813 176.5,359.5C 174.488,360.228 172.488,361.062 170.5,362C 173.058,362.275 175.392,361.775 177.5,360.5C 198.341,358.927 216.341,365.261 231.5,379.5C 237.327,356.501 251.661,341.334 274.5,334C 299.374,326.452 323.374,328.452 346.5,340C 369.969,356.405 376.469,377.905 366,404.5C 359.101,415.872 349.601,424.372 337.5,430C 332.007,432.221 326.34,433.721 320.5,434.5C 319.006,461.85 326.839,486.183 344,507.5C 348.014,513.982 349.348,520.982 348,528.5C 345.883,534.736 343.216,540.736 340,546.5C 335.682,556.009 335.349,565.676 339,575.5C 342.52,582.872 345.186,590.539 347,598.5C 349.519,613.646 343.685,623.812 329.5,629C 318.916,632.644 308.582,632.144 298.5,627.5 Z"/></g>
<g><path style="opacity:1" fill="#292526" d="M 837.5,396.5 C 840.834,403.987 839.834,404.987 834.5,399.5C 822.812,379.365 820.312,358.032 827,335.5C 828.582,331.231 830.082,330.897 831.5,334.5C 824.661,356.131 826.661,376.798 837.5,396.5 Z"/></g>
<g><path style="opacity:1" fill="#282425" d="M 849.5,330.5 C 852.394,331.882 854.894,333.882 857,336.5C 869.18,356.203 876.013,377.536 877.5,400.5C 876.201,399.91 875.368,398.91 875,397.5C 869.639,375.07 860.972,354.07 849,334.5C 848.421,333.072 848.588,331.738 849.5,330.5 Z"/></g>
<g><path style="opacity:1" fill="#272425" d="M 948.5,519.5 C 951.178,522.523 950.512,523.19 946.5,521.5C 942.243,518.749 938.41,515.416 935,511.5C 925.71,497.66 918.71,482.66 914,466.5C 909.419,444.752 904.419,423.085 899,401.5C 892.812,378.444 881.479,358.444 865,341.5C 863.813,339.956 863.48,338.289 864,336.5C 865.833,337.667 867.667,338.833 869.5,340C 879.08,349.576 887.913,359.742 896,370.5C 902.33,380.161 907.33,390.494 911,401.5C 915.5,419.341 919.167,437.341 922,455.5C 923.866,462.265 926.033,468.932 928.5,475.5C 927.645,476.293 926.811,475.96 926,474.5C 922.741,467.723 920.074,460.723 918,453.5C 914.396,433.146 909.396,413.146 903,393.5C 908.764,418.39 914.431,443.39 920,468.5C 924.117,479.401 928.783,490.067 934,500.5C 938.313,507.303 943.147,513.636 948.5,519.5 Z"/></g>
<g><path style="opacity:1" fill="#282425" d="M 838.5,339.5 C 842.302,340.779 845.469,343.112 848,346.5C 851.194,351.554 853.861,356.888 856,362.5C 860.289,375.909 862.956,389.576 864,403.5C 860.489,391.121 856.822,378.788 853,366.5C 849.154,356.798 844.321,347.798 838.5,339.5 Z"/></g>
<g><path style="opacity:1" fill="#eeeeee" d="M 791.5,350.5 C 788.55,352.115 785.884,354.115 783.5,356.5C 785.055,353.06 786.888,349.727 789,346.5C 791.002,343.113 793.835,341.613 797.5,342C 795.121,344.599 793.121,347.433 791.5,350.5 Z"/></g>
<g><path style="opacity:1" fill="#949192" d="M 817.5,404.5 C 811.158,404.666 804.825,404.5 798.5,404C 796.416,403.303 794.749,402.136 793.5,400.5C 794.16,399.036 794.493,397.369 794.5,395.5C 793.779,390.006 793.112,384.506 792.5,379C 791.24,363.77 796.073,350.937 807,340.5C 804.755,344.99 802.422,349.657 800,354.5C 796.697,363.903 795.697,373.569 797,383.5C 797.238,389.833 799.571,395.167 804,399.5C 804.5,399.167 805,398.833 805.5,398.5C 799.05,384.597 798.883,370.597 805,356.5C 804.39,373.822 808.557,389.822 817.5,404.5 Z"/></g>
<g><path style="opacity:1" fill="#999797" d="M 791.5,350.5 C 789.008,358.091 788.008,365.925 788.5,374C 787.721,382.892 789.054,391.392 792.5,399.5C 787.534,399.462 784.201,401.795 782.5,406.5C 779.786,398.179 778.453,389.513 778.5,380.5C 778.036,371.919 779.703,363.919 783.5,356.5C 785.884,354.115 788.55,352.115 791.5,350.5 Z"/></g>
<g><path style="opacity:1" fill="#eeeeee" d="M 345.5,349.5 C 345.897,348.475 346.563,348.308 347.5,349C 365.895,365.078 369.395,383.911 358,405.5C 355.036,409.466 351.703,413.133 348,416.5C 358.852,400.177 361.185,382.51 355,363.5C 352.552,358.248 349.386,353.581 345.5,349.5 Z"/></g>
<g><path style="opacity:1" fill="#f6f6f6" d="M 769.5,372.5 C 766.856,372.715 764.523,372.715 762.5,372.5C 763.572,363.675 768.072,357.341 776,353.5C 776.5,353.667 777,353.833 777.5,354C 773.572,359.616 770.905,365.783 769.5,372.5 Z"/></g>
<g><path style="opacity:1" fill="#908d8e" d="M 176.5,359.5 C 176.5,360.167 176.833,360.5 177.5,360.5C 175.392,361.775 173.058,362.275 170.5,362C 172.488,361.062 174.488,360.228 176.5,359.5 Z"/></g>
<g><path style="opacity:1" fill="#282425" d="M 898.5,368.5 C 901.764,369.927 904.264,372.261 906,375.5C 913.557,387.621 919.224,400.621 923,414.5C 927.498,436.164 934.831,456.831 945,476.5C 950.61,484.278 957.11,491.278 964.5,497.5C 963.277,498.614 961.944,498.781 960.5,498C 950.946,492.78 943.78,485.28 939,475.5C 935.392,467.95 932.058,460.283 929,452.5C 923.841,435.529 918.841,418.529 914,401.5C 910.306,391.111 905.306,381.444 899,372.5C 898.51,371.207 898.343,369.873 898.5,368.5 Z"/></g>
<g><path style="opacity:1" fill="#e1e0e0" d="M 744.5,394.5 C 743.698,395.952 743.198,397.618 743,399.5C 742.506,397.866 742.34,396.199 742.5,394.5C 742.931,380.975 747.765,369.309 757,359.5C 754.157,365.074 751.157,370.741 748,376.5C 746.079,382.358 744.913,388.358 744.5,394.5 Z"/></g>
<g><path style="opacity:1" fill="#999797" d="M 779.5,409.5 C 777.068,410.75 774.734,412.25 772.5,414C 768.556,414.664 764.889,415.831 761.5,417.5C 760.114,410.263 759.447,402.929 759.5,395.5C 759.14,387.514 760.14,379.848 762.5,372.5C 764.523,372.715 766.856,372.715 769.5,372.5C 766.732,383.833 766.899,395.167 770,406.5C 771.259,411.171 772.093,411.337 772.5,407C 769.533,393.703 770.033,380.536 774,367.5C 772.515,381.975 774.348,395.975 779.5,409.5 Z"/></g>
<g><path style="opacity:1" fill="#f0f0f0" d="M 754.5,388.5 C 752.871,389.625 751.371,390.959 750,392.5C 749.517,391.552 749.351,390.552 749.5,389.5C 750.189,383.267 752.356,377.6 756,372.5C 755.034,377.705 754.534,383.038 754.5,388.5 Z"/></g>
<g><path style="opacity:1" fill="#292526" d="M 864.5,457.5 C 868.871,454.546 873.037,451.213 877,447.5C 881.733,440.369 881.566,433.369 876.5,426.5C 873.945,423.278 870.945,422.778 867.5,425C 862.921,429.985 859.755,435.819 858,442.5C 856.89,444.037 855.39,444.703 853.5,444.5C 857.755,428.049 857.255,411.716 852,395.5C 850.974,392.761 849.474,390.428 847.5,388.5C 847.5,387.167 847.5,385.833 847.5,384.5C 853.007,385.502 856.507,388.836 858,394.5C 860.861,403.258 862.195,412.258 862,421.5C 866.595,417.319 871.761,416.486 877.5,419C 885.167,425.674 887.334,433.84 884,443.5C 880.782,453.315 874.282,457.981 864.5,457.5 Z"/></g>
<g><path style="opacity:1" fill="#9b9999" d="M 754.5,388.5 C 753.627,398.331 755.294,407.664 759.5,416.5C 754.672,418.151 749.672,418.817 744.5,418.5C 741.741,410.636 741.075,402.636 742.5,394.5C 742.34,396.199 742.506,397.866 743,399.5C 743.198,397.618 743.698,395.952 744.5,394.5C 744.335,398.182 744.501,401.848 745,405.5C 745.368,406.91 746.201,407.91 747.5,408.5C 748.167,402.012 748.833,395.679 749.5,389.5C 749.351,390.552 749.517,391.552 750,392.5C 751.371,390.959 752.871,389.625 754.5,388.5 Z"/></g>
<g><path style="opacity:1" fill="#2b2728" d="M 523.5,402.5 C 563.566,401.435 590.066,419.768 603,457.5C 608.477,487.737 599.644,512.904 576.5,533C 565.89,540.57 554.223,543.237 541.5,541C 541.167,540.667 540.833,540.333 540.5,540C 569.202,535.296 588.036,519.129 597,491.5C 603.733,456.805 591.567,431.305 560.5,415C 532.163,404.476 506.163,408.476 482.5,427C 458.204,451.165 453.704,478.665 469,509.5C 477.031,521.533 487.531,530.7 500.5,537C 510.933,540.315 521.266,543.815 531.5,547.5C 526.615,548.802 521.782,548.802 517,547.5C 515.768,552.166 514.601,556.833 513.5,561.5C 522.342,560.245 530.008,556.579 536.5,550.5C 537.788,553.428 537.121,555.928 534.5,558C 526.078,563.863 516.744,567.03 506.5,567.5C 509.034,560.746 510.701,553.746 511.5,546.5C 481.496,538.662 462.663,519.662 455,489.5C 450.923,453.15 465.09,426.65 497.5,410C 505.971,406.337 514.638,403.837 523.5,402.5 Z"/></g>
<g><path style="opacity:1" fill="#2c2829" d="M 800.5,407.5 C 805.511,407.334 810.511,407.501 815.5,408C 817.573,408.118 818.907,409.118 819.5,411C 819.266,412.732 818.266,413.566 816.5,413.5C 807.404,411.065 799.57,413.065 793,419.5C 790.681,418.591 790.014,416.925 791,414.5C 793.79,411.535 796.957,409.202 800.5,407.5 Z"/></g>
<g><path style="opacity:1" fill="#fcfcfc" d="M 243.5,410.5 C 256.922,423.546 272.922,431.88 291.5,435.5C 282.438,439.623 278.605,446.623 280,456.5C 286.488,470.147 294.488,482.813 304,494.5C 305.664,497.289 305.83,500.123 304.5,503C 297.476,503.169 290.476,503.669 283.5,504.5C 286.578,507.034 289.911,509.034 293.5,510.5C 290.431,518.207 287.264,525.874 284,533.5C 278.121,542.38 270.621,549.546 261.5,555C 241.52,559.93 226.353,553.43 216,535.5C 213.934,530.637 212.268,525.637 211,520.5C 210.422,513.681 209.255,507.014 207.5,500.5C 208.833,499.5 210.167,498.5 211.5,497.5C 202.321,496.496 194.821,492.496 189,485.5C 185.774,477.182 187.274,470.015 193.5,464C 198.356,461.504 202.522,462.338 206,466.5C 209.389,472.504 211.889,478.837 213.5,485.5C 214.651,486.731 215.817,486.731 217,485.5C 215.436,456.685 224.269,431.685 243.5,410.5 Z"/></g>
<g><path style="opacity:1" fill="#282425" d="M 896.5,415.5 C 897.75,415.577 898.583,416.244 899,417.5C 899.876,450.904 908.209,482.237 924,511.5C 928.089,517.593 932.922,523.093 938.5,528C 936.029,528.706 933.695,528.373 931.5,527C 927.667,524.5 924.5,521.333 922,517.5C 901.539,486.322 893.039,452.322 896.5,415.5 Z"/></g>
<g><path style="opacity:1" fill="#2c2829" d="M 767.5,421.5 C 775.846,420.591 782.346,423.591 787,430.5C 797.547,450.6 794.38,468.266 777.5,483.5C 776.386,482.277 776.219,480.944 777,479.5C 781.529,473.778 785.029,467.445 787.5,460.5C 778.004,459.745 772.004,454.745 769.5,445.5C 770.167,444.167 771.167,443.167 772.5,442.5C 774.915,446.096 777.582,449.596 780.5,453C 782.146,454.401 783.813,454.568 785.5,453.5C 788.521,444.455 786.521,436.622 779.5,430C 772.766,424.813 767.099,425.813 762.5,433C 761.552,433.483 760.552,433.649 759.5,433.5C 759.698,427.751 762.364,423.751 767.5,421.5 Z"/></g>
<g><path style="opacity:1" fill="#2a2627" d="M 817.5,428.5 C 818.822,428.33 819.989,428.663 821,429.5C 822.439,434.762 822.772,440.096 822,445.5C 817.779,453.72 811.613,455.553 803.5,451C 798.847,446.863 796.514,441.696 796.5,435.5C 798.144,435.286 799.644,435.62 801,436.5C 802.119,441.239 804.619,445.072 808.5,448C 812.801,449.266 815.634,447.766 817,443.5C 817.143,438.398 817.31,433.398 817.5,428.5 Z"/></g>
<g><path style="opacity:1" fill="#282526" d="M 505.5,435.5 C 503.025,439.805 500.358,443.971 497.5,448C 498.036,451.072 499.37,453.739 501.5,456C 502.5,456.667 503.5,456.667 504.5,456C 509.191,450.464 515.024,448.964 522,451.5C 524.821,451.592 527.321,450.926 529.5,449.5C 530.79,448.942 531.623,447.942 532,446.5C 532.497,443.854 532.664,441.187 532.5,438.5C 526.02,437.348 519.354,436.515 512.5,436C 511.244,435.583 510.577,434.75 510.5,433.5C 529.348,428.92 545.514,433.587 559,447.5C 566.126,458.117 568.46,469.783 566,482.5C 558.695,509.806 541.195,520.639 513.5,515C 487.886,505.555 478.053,487.388 484,460.5C 487.451,448.906 494.618,440.572 505.5,435.5 Z"/></g>
<g><path style="opacity:1" fill="#2a2627" d="M 250.5,434.5 C 256.925,434.13 263.258,434.63 269.5,436C 272.326,438.864 271.826,441.031 268,442.5C 259.187,439.678 250.52,440.345 242,444.5C 239.277,443.792 238.277,442.125 239,439.5C 242.767,437.449 246.601,435.782 250.5,434.5 Z"/></g>
<g><path style="opacity:1" fill="#848283" d="M 510.5,433.5 C 510.577,434.75 511.244,435.583 512.5,436C 519.354,436.515 526.02,437.348 532.5,438.5C 531.5,438.5 530.5,438.5 529.5,438.5C 529.371,442.477 529.371,446.143 529.5,449.5C 527.321,450.926 524.821,451.592 522,451.5C 515.024,448.964 509.191,450.464 504.5,456C 503.5,456.667 502.5,456.667 501.5,456C 499.37,453.739 498.036,451.072 497.5,448C 500.358,443.971 503.025,439.805 505.5,435.5C 507.514,435.608 509.18,434.942 510.5,433.5 Z"/></g>
<g><path style="opacity:1" fill="#262324" d="M 889.5,434.5 C 890.496,434.414 891.329,434.748 892,435.5C 891.571,457.36 896.238,478.027 906,497.5C 909.242,501.685 911.909,506.018 914,510.5C 905.591,504.366 899.591,496.366 896,486.5C 899.654,501.805 906.988,515.138 918,526.5C 918.591,527.483 918.257,528.15 917,528.5C 910.679,524.846 905.679,519.846 902,513.5C 892.074,497.053 886.574,479.22 885.5,460C 887.63,451.775 888.964,443.275 889.5,434.5 Z"/></g>
<g><path style="opacity:1" fill="#ebebeb" d="M 532.5,438.5 C 532.664,441.187 532.497,443.854 532,446.5C 531.623,447.942 530.79,448.942 529.5,449.5C 529.371,446.143 529.371,442.477 529.5,438.5C 530.5,438.5 531.5,438.5 532.5,438.5 Z"/></g>
<g><path style="opacity:1" fill="#7f7d7d" d="M 297.5,440.5 C 301.298,439.517 305.298,439.183 309.5,439.5C 309.768,441.099 309.434,442.432 308.5,443.5C 308.5,442.5 308.5,441.5 308.5,440.5C 304.833,440.5 301.167,440.5 297.5,440.5 Z"/></g>
<g><path style="opacity:1" fill="#f9f9f9" d="M 297.5,440.5 C 301.167,440.5 304.833,440.5 308.5,440.5C 308.5,441.5 308.5,442.5 308.5,443.5C 307.996,449.871 307.162,456.205 306,462.5C 304.556,460.845 302.722,460.178 300.5,460.5C 300.897,465.959 300.397,471.292 299,476.5C 292.758,468.924 288.258,460.424 285.5,451C 287.152,444.85 291.152,441.35 297.5,440.5 Z"/></g>
<g><path style="opacity:1" fill="#fcfcfc" d="M 538.5,440.5 C 548.688,443.685 555.688,450.352 559.5,460.5C 556.336,465.592 551.669,468.425 545.5,469C 539.946,470.53 537.779,474.03 539,479.5C 541.869,482.268 545.202,484.268 549,485.5C 548.798,490.59 549.965,495.257 552.5,499.5C 543.149,510.171 531.483,513.838 517.5,510.5C 518.698,507.028 518.698,503.528 517.5,500C 521.345,492.187 519.011,487.687 510.5,486.5C 507.165,487.353 503.832,487.853 500.5,488C 499.808,483.809 497.475,480.975 493.5,479.5C 491.303,479.848 489.47,480.848 488,482.5C 485.927,471.345 487.927,461.012 494,451.5C 495.041,456.286 497.874,459.286 502.5,460.5C 506.694,459.127 510.527,457.127 514,454.5C 522.218,458.056 529.552,456.722 536,450.5C 537.759,447.392 538.592,444.059 538.5,440.5 Z"/></g>
<g><path style="opacity:1" fill="#282425" d="M 753.5,444.5 C 755.716,449.916 756.883,455.583 757,461.5C 758.747,492.203 756.247,522.537 749.5,552.5C 749.509,554.308 749.009,555.975 748,557.5C 747.667,557.167 747.333,556.833 747,556.5C 746.162,545.347 747.162,534.347 750,523.5C 751.26,508.856 752.094,494.19 752.5,479.5C 752.777,468.547 751.777,457.714 749.5,447C 749.554,443.812 750.887,442.979 753.5,444.5 Z"/></g>
<g><path style="opacity:1" fill="#2c2829" d="M 249.5,462.5 C 251.144,462.286 252.644,462.62 254,463.5C 254.421,467.872 255.088,472.205 256,476.5C 257.999,482.535 261.832,484.035 267.5,481C 270.138,477.303 271.638,473.136 272,468.5C 273.356,467.62 274.856,467.286 276.5,467.5C 277.748,476.072 274.748,482.572 267.5,487C 260.489,489.075 255.323,486.908 252,480.5C 249.388,474.638 248.555,468.638 249.5,462.5 Z"/></g>
<g><path style="opacity:1" fill="#2a2627" d="M 865.5,469.5 C 868.128,481.351 865.794,492.351 858.5,502.5C 844.094,523.858 826.094,527.358 804.5,513C 797.194,507.379 791.86,500.379 788.5,492C 788.833,491.167 789.167,490.333 789.5,489.5C 795.624,496.126 801.958,502.626 808.5,509C 826.386,521.19 841.553,518.357 854,500.5C 859.362,490.364 862.862,479.698 864.5,468.5C 865.107,468.624 865.44,468.957 865.5,469.5 Z"/></g>
<g><path style="opacity:1" fill="#2b2728" d="M 760.5,549.5 C 759.59,552.814 758.257,553.148 756.5,550.5C 759.059,536.298 760.893,521.965 762,507.5C 762.333,496.833 762.667,486.167 763,475.5C 763.414,475.043 763.914,474.709 764.5,474.5C 766.194,476.554 767.361,478.888 768,481.5C 767.714,487.401 769.047,492.734 772,497.5C 774.15,511.465 772.816,525.132 768,538.5C 768.033,529.158 768.533,519.824 769.5,510.5C 769.167,506.833 768.833,503.167 768.5,499.5C 766.477,516.28 763.81,532.946 760.5,549.5 Z"/></g>
<g><path style="opacity:1" fill="#d7d6d6" d="M 542.5,476.5 C 544.14,477.32 545.807,478.153 547.5,479C 544.738,480.077 543.072,479.244 542.5,476.5 Z"/></g>
<g><path style="opacity:1" fill="#969494" d="M 753.5,444.5 C 761.882,450.596 766.048,458.93 766,469.5C 768.274,480.417 773.774,489.084 782.5,495.5C 779.951,495.559 777.951,494.559 776.5,492.5C 775.28,492.887 774.613,493.72 774.5,495C 775.078,496.811 775.578,498.645 776,500.5C 776.685,515.181 776.518,529.848 775.5,544.5C 770.574,546.364 765.574,548.031 760.5,549.5C 763.81,532.946 766.477,516.28 768.5,499.5C 768.833,503.167 769.167,506.833 769.5,510.5C 768.533,519.824 768.033,529.158 768,538.5C 772.816,525.132 774.15,511.465 772,497.5C 769.047,492.734 767.714,487.401 768,481.5C 767.361,478.888 766.194,476.554 764.5,474.5C 763.914,474.709 763.414,475.043 763,475.5C 762.667,486.167 762.333,496.833 762,507.5C 760.893,521.965 759.059,536.298 756.5,550.5C 754.079,550.878 751.746,551.545 749.5,552.5C 756.247,522.537 758.747,492.203 757,461.5C 756.883,455.583 755.716,449.916 753.5,444.5 Z"/></g>
<g><path style="opacity:1" fill="#2a2627" d="M 823.5,482.5 C 825.948,482.085 827.281,483.085 827.5,485.5C 826.017,492.434 821.684,496.434 814.5,497.5C 811.915,496.927 810.915,495.261 811.5,492.5C 818.279,492.381 822.279,489.047 823.5,482.5 Z"/></g>
<g><path style="opacity:1" fill="#504d4e" d="M 503.5,492.5 C 502.737,493.268 501.737,493.768 500.5,494C 501.108,494.87 501.941,495.37 503,495.5C 505.56,494.47 508.06,493.303 510.5,492C 509.906,491.536 509.239,491.369 508.5,491.5C 509.601,490.402 510.934,490.235 512.5,491C 513.059,491.725 513.392,492.558 513.5,493.5C 512.688,495.623 512.022,497.79 511.5,500C 512.022,502.21 512.688,504.377 513.5,506.5C 513.444,507.737 512.944,508.737 512,509.5C 499.066,505.401 491.232,496.734 488.5,483.5C 490.833,483.5 493.167,483.5 495.5,483.5C 494.749,489.709 497.415,492.709 503.5,492.5 Z"/></g>
<g><path style="opacity:1" fill="#e9e9e9" d="M 508.5,491.5 C 509.239,491.369 509.906,491.536 510.5,492C 508.06,493.303 505.56,494.47 503,495.5C 501.941,495.37 501.108,494.87 500.5,494C 501.737,493.768 502.737,493.268 503.5,492.5C 505.117,491.962 506.784,491.629 508.5,491.5 Z"/></g>
<g><path style="opacity:1" fill="#272324" d="M 782.5,495.5 C 784.881,499.481 785.881,503.814 785.5,508.5C 785.666,517.173 785.5,525.84 785,534.5C 785.094,538.633 784.26,542.299 782.5,545.5C 782.5,545.167 782.5,544.833 782.5,544.5C 782.475,512.63 781.142,512.63 778.5,544.5C 776.914,555.026 775.914,555.026 775.5,544.5C 776.518,529.848 776.685,515.181 776,500.5C 775.578,498.645 775.078,496.811 774.5,495C 774.613,493.72 775.28,492.887 776.5,492.5C 777.951,494.559 779.951,495.559 782.5,495.5 Z"/></g>
<g><path style="opacity:1" fill="#292526" d="M 910.5,538.5 C 909.749,539.573 908.749,539.74 907.5,539C 904.335,536.665 901.335,534.165 898.5,531.5C 891.479,521.255 887.146,510.088 885.5,498C 887.387,497.837 888.887,498.671 890,500.5C 893.282,515.231 900.115,527.898 910.5,538.5 Z"/></g>
<g><path style="opacity:1" fill="#2b2728" d="M 787.5,516.5 C 788.822,516.33 789.989,516.663 791,517.5C 792.923,520.544 793.756,523.877 793.5,527.5C 793.187,535.03 791.853,542.363 789.5,549.5C 788.081,548.995 787.415,547.995 787.5,546.5C 788.799,536.497 788.799,526.497 787.5,516.5 Z"/></g>
<g><path style="opacity:1" fill="#868485" d="M 785.5,508.5 C 786.255,511.053 786.922,513.72 787.5,516.5C 788.799,526.497 788.799,536.497 787.5,546.5C 786.07,546.421 784.736,546.754 783.5,547.5C 782.702,547.043 782.369,546.376 782.5,545.5C 784.26,542.299 785.094,538.633 785,534.5C 785.5,525.84 785.666,517.173 785.5,508.5 Z"/></g>
<g><path style="opacity:1" fill="#322f2f" d="M 257.5,521.5 C 260.439,521.918 262.772,523.418 264.5,526C 266.5,526.333 268.5,526.667 270.5,527C 271.554,528.388 271.72,529.888 271,531.5C 264.177,533.038 259.343,530.538 256.5,524C 256.743,523.098 257.077,522.265 257.5,521.5 Z"/></g>
<g><path style="opacity:1" fill="#858384" d="M 782.5,544.5 C 781.167,544.5 779.833,544.5 778.5,544.5C 781.142,512.63 782.475,512.63 782.5,544.5 Z"/></g>
<g><path style="opacity:1" fill="#272324" d="M 620.5,530.5 C 637.891,532.808 655.058,536.141 672,540.5C 690.414,573.006 710.081,604.672 731,635.5C 731.392,638.188 731.892,640.855 732.5,643.5C 731.577,645.636 729.911,646.802 727.5,647C 718.833,647.333 710.167,647.667 701.5,648C 702.977,650.445 704.81,652.612 707,654.5C 707.591,655.483 707.257,656.15 706,656.5C 699.195,651.251 693.528,644.917 689,637.5C 688.974,640.105 687.807,641.271 685.5,641C 685.23,634.5 684.73,628 684,621.5C 682.58,617.655 680.413,614.322 677.5,611.5C 673.879,614.1 672.212,612.933 672.5,608C 674.136,599.698 679.136,594.698 687.5,593C 682.076,589.487 676.909,589.987 672,594.5C 669.686,598.601 667.853,602.934 666.5,607.5C 663.372,599.376 665.372,592.542 672.5,587C 688.384,585.771 688.384,584.271 672.5,582.5C 665,582.484 660.167,586.151 658,593.5C 657.667,599.167 657.333,604.833 657,610.5C 654.298,606.628 652.965,602.295 653,597.5C 650.957,596.421 649.624,594.754 649,592.5C 648.449,582.43 648.783,572.43 650,562.5C 646.276,565.994 644.276,570.327 644,575.5C 643.333,587.167 643.333,598.833 644,610.5C 647.017,622.03 653.183,631.53 662.5,639C 670.5,645 678.5,651 686.5,657C 688.788,659.743 690.955,662.577 693,665.5C 696.179,662.994 699.679,661.161 703.5,660C 715.415,656.626 726.415,658.293 736.5,665C 753.652,681.46 766.152,700.96 774,723.5C 774.821,726.554 774.655,729.554 773.5,732.5C 765.95,715.728 757.116,699.728 747,684.5C 740.614,675.44 732.448,668.607 722.5,664C 712.742,662.958 704.242,665.791 697,672.5C 694.128,676.547 692.962,681.047 693.5,686C 697.393,717.451 710.393,744.451 732.5,767C 739.328,773.415 747.328,777.749 756.5,780C 770.092,782.138 781.258,777.972 790,767.5C 793.593,759.721 796.593,751.721 799,743.5C 802.055,760.904 796.555,775.071 782.5,786C 769.497,792.417 756.831,791.751 744.5,784C 711.74,759.521 692.74,726.854 687.5,686C 687.743,680.32 688.576,674.82 690,669.5C 681.857,660.363 672.69,652.53 662.5,646C 654.879,639.386 648.379,631.886 643,623.5C 641.268,619.637 639.934,615.637 639,611.5C 638.333,598.5 638.333,585.5 639,572.5C 639.5,571.5 640,570.5 640.5,569.5C 630.915,559.348 623.582,547.682 618.5,534.5C 618.752,532.927 619.418,531.594 620.5,530.5 Z"/></g>
<g><path style="opacity:1" fill="#2a2627" d="M 864.5,533.5 C 867.85,533.335 871.183,533.502 874.5,534C 874.957,534.414 875.291,534.914 875.5,535.5C 868.097,537.248 861.097,540.081 854.5,544C 847.505,549.166 840.172,553.833 832.5,558C 826.488,561.394 820.654,561.227 815,557.5C 814.444,551.324 816.777,546.324 822,542.5C 820.673,545.977 821.507,548.81 824.5,551C 827.833,551.667 831.167,551.667 834.5,551C 844.41,544.904 854.41,539.071 864.5,533.5 Z"/></g>
<g><path style="opacity:1" fill="#e7e7e7" d="M 625.5,537.5 C 627.56,536.189 629.726,536.189 632,537.5C 635.015,545.865 638.849,553.865 643.5,561.5C 643,562.5 642.5,563.5 642,564.5C 636.475,555.436 630.975,546.436 625.5,537.5 Z"/></g>
<g><path style="opacity:1" fill="#2a2627" d="M 882.5,539.5 C 891.12,539.767 899.12,542.6 906.5,548C 921.961,560.788 934.461,575.955 944,593.5C 969.645,639.394 978.979,688.394 972,740.5C 961.896,779.639 937.396,793.472 898.5,782C 873.047,772.364 851.547,757.197 834,736.5C 827.219,728.272 822.553,718.939 820,708.5C 819.364,700.731 819.697,693.064 821,685.5C 818.769,680.269 816.103,675.269 813,670.5C 808.238,668.333 803.404,666.166 798.5,664C 797.044,662.255 795.711,660.422 794.5,658.5C 787.007,661.136 781.007,659.303 776.5,653C 774.275,652.439 772.275,651.439 770.5,650C 765.14,644.98 760.973,639.147 758,632.5C 756.614,624.121 760.114,618.954 768.5,617C 774.22,616.212 779.886,616.379 785.5,617.5C 786.739,619.007 786.405,620.174 784.5,621C 780.838,621.281 777.171,621.115 773.5,620.5C 762.028,621.11 758.861,626.443 764,636.5C 767.798,625.045 775.631,621.045 787.5,624.5C 788.604,625.631 788.271,626.465 786.5,627C 781.527,627.805 776.694,628.972 772,630.5C 768.667,635.167 768.667,639.833 772,644.5C 772.05,634.951 776.883,630.284 786.5,630.5C 788.56,630.572 790.56,630.905 792.5,631.5C 793.711,632.274 793.711,633.107 792.5,634C 778.81,631.998 774.644,637.164 780,649.5C 782.28,653.059 785.447,654.559 789.5,654C 777.415,640.733 780.082,636.733 797.5,642C 798.833,642.667 798.833,643.333 797.5,644C 794.447,644.179 791.447,644.679 788.5,645.5C 789.815,647.316 791.315,648.983 793,650.5C 793.284,648.114 794.284,647.448 796,648.5C 796.645,653.785 798.811,658.285 802.5,662C 810.157,662.574 815.991,666.074 820,672.5C 821.504,675.509 823.004,678.509 824.5,681.5C 828.263,677.401 832.596,674.067 837.5,671.5C 830.157,658.816 823.324,645.816 817,632.5C 812.042,623.07 805.542,614.904 797.5,608C 786.106,601.816 774.106,600.149 761.5,603C 758.924,603.782 756.924,605.282 755.5,607.5C 764.148,608.332 772.814,608.832 781.5,609C 785.482,609.772 787.149,611.939 786.5,615.5C 784.833,614.667 783.167,613.833 781.5,613C 772.167,612.667 762.833,612.333 753.5,612C 749.399,608.195 749.732,604.528 754.5,601C 762.386,596.982 770.719,595.648 779.5,597C 795.241,598.953 807.075,606.786 815,620.5C 821.843,632.184 828.176,644.184 834,656.5C 837.251,662.004 840.751,667.338 844.5,672.5C 855.966,672.933 866.633,676.099 876.5,682C 891.625,693.119 907.291,703.452 923.5,713C 916.202,714.015 909.536,712.348 903.5,708C 892.833,700.667 882.167,693.333 871.5,686C 859.494,678.261 847.16,677.594 834.5,684C 825.967,690.126 823.133,698.292 826,708.5C 828.279,715.724 831.612,722.391 836,728.5C 853.374,750.549 875.208,766.383 901.5,776C 936.219,785.736 957.719,773.236 966,738.5C 973.265,679.894 960.265,626.227 927,577.5C 915.6,560.731 900.767,548.064 882.5,539.5 Z"/></g>
<g><path style="opacity:1" fill="#282425" d="M 816.5,602.5 C 816.739,600.533 816.406,598.699 815.5,597C 814.833,596.333 814.167,596.333 813.5,597C 814.38,598.356 814.714,599.856 814.5,601.5C 810.403,601.531 807.903,599.531 807,595.5C 805.657,590.185 807.157,585.852 811.5,582.5C 809.348,576.311 811.015,571.478 816.5,568C 819.257,567.218 821.757,567.718 824,569.5C 824.667,572.833 824.667,576.167 824,579.5C 822.295,587.989 820.128,596.322 817.5,604.5C 816.702,604.043 816.369,603.376 816.5,602.5 Z"/></g>
<g><path style="opacity:1" fill="#eaeaea" d="M 817.5,572.5 C 820.018,573.759 819.852,575.093 817,576.5C 816.667,577.833 816.333,579.167 816,580.5C 815.109,577.502 815.609,574.836 817.5,572.5 Z"/></g>
<g><path style="opacity:1" fill="#eaeaea" d="M 653.5,584.5 C 655.918,586.878 656.085,589.545 654,592.5C 653.503,589.854 653.336,587.187 653.5,584.5 Z"/></g>
<g><path style="opacity:1" fill="#716f6f" d="M 816.5,602.5 C 815.833,602.167 815.167,601.833 814.5,601.5C 814.714,599.856 814.38,598.356 813.5,597C 814.167,596.333 814.833,596.333 815.5,597C 816.406,598.699 816.739,600.533 816.5,602.5 Z"/></g>
<g><path style="opacity:1" fill="#272425" d="M 220.5,611.5 C 227.827,610.329 230.994,613.329 230,620.5C 226.468,626.29 222.135,626.957 217,622.5C 216.333,620.5 216.333,618.5 217,616.5C 218.387,614.953 219.553,613.287 220.5,611.5 Z"/></g>
<g><path style="opacity:1" fill="#252122" d="M 455.5,669.5 C 454.596,670.209 454.263,671.209 454.5,672.5C 458.5,672.5 462.5,672.5 466.5,672.5C 471.369,673.562 473.202,676.562 472,681.5C 465.008,686.442 457.175,689.109 448.5,689.5C 448.281,690.675 448.614,691.675 449.5,692.5C 452.612,691.875 455.779,691.541 459,691.5C 463.027,691.291 466.86,691.958 470.5,693.5C 471.84,694.688 472.507,696.188 472.5,698C 472.212,701.751 472.045,705.585 472,709.5C 470.972,711.361 469.472,712.695 467.5,713.5C 467.221,719.231 464.554,723.397 459.5,726C 450.251,730.362 440.584,733.195 430.5,734.5C 430.225,739.22 431.059,739.554 433,735.5C 433.944,736.263 434.444,737.263 434.5,738.5C 430.577,754.433 425.577,769.933 419.5,785C 391.505,787.598 363.505,790.098 335.5,792.5C 336.14,786.575 337.807,780.908 340.5,775.5C 339.635,774.417 338.635,774.251 337.5,775C 331.742,777.767 326.242,780.934 321,784.5C 321.493,789.17 322.326,793.837 323.5,798.5C 323.491,800.308 323.991,801.975 325,803.5C 325.796,800.961 325.629,798.628 324.5,796.5C 323.833,794.181 323.666,791.847 324,789.5C 324.837,787.993 326.004,787.493 327.5,788C 330.362,793.832 331.196,799.998 330,806.5C 328.303,812.543 324.469,814.71 318.5,813C 311.376,808.273 306.543,801.773 304,793.5C 296.565,775.607 294.398,757.274 297.5,738.5C 297.833,738.833 298.167,739.167 298.5,739.5C 302.673,744.523 306.34,749.856 309.5,755.5C 317.995,751.917 324.995,746.417 330.5,739C 331.448,738.517 332.448,738.351 333.5,738.5C 333.319,742.695 331.653,746.195 328.5,749C 321.292,755.694 312.958,760.528 303.5,763.5C 302.348,766.106 302.182,768.773 303,771.5C 304.488,775.787 305.822,780.12 307,784.5C 307.423,785.956 308.256,786.456 309.5,786C 313.217,782.615 317.217,779.615 321.5,777C 337.257,768.788 353.257,761.121 369.5,754C 379.156,749.341 387.323,742.841 394,734.5C 396.05,730.698 397.05,726.698 397,722.5C 393.158,729.843 387.325,734.843 379.5,737.5C 379.167,737.167 378.833,736.833 378.5,736.5C 382.485,732.015 386.651,727.682 391,723.5C 394.628,717.583 397.128,711.25 398.5,704.5C 399.793,702.636 399.793,700.636 398.5,698.5C 397.702,698.957 397.369,699.624 397.5,700.5C 393.316,710.526 387.316,719.359 379.5,727C 377.975,728.009 376.308,728.509 374.5,728.5C 376.98,722.905 380.48,717.905 385,713.5C 390.399,706.366 393.899,698.366 395.5,689.5C 395.167,688.833 394.833,688.167 394.5,687.5C 389.1,694.621 383.933,701.954 379,709.5C 373.091,717.08 365.424,721.747 356,723.5C 353.497,723.01 351.497,721.677 350,719.5C 348.384,713.509 348.051,707.509 349,701.5C 345.644,704.876 343.31,708.876 342,713.5C 340.927,719.449 340.26,725.449 340,731.5C 335.114,718.805 337.28,707.305 346.5,697C 349.099,696.231 351.599,696.398 354,697.5C 354.164,702.179 354.164,706.845 354,711.5C 363.68,683.778 373.514,656.111 383.5,628.5C 386.572,626.728 389.905,625.561 393.5,625C 419.327,620.084 445.327,616.584 471.5,614.5C 471.469,619.625 470.636,624.625 469,629.5C 464.206,642.75 459.706,656.083 455.5,669.5 Z"/></g>
<g><path style="opacity:1" fill="#cfcece" d="M 221.5,616.5 C 225.339,617.05 225.339,618.05 221.5,619.5C 220.438,618.575 220.438,617.575 221.5,616.5 Z"/></g>
<g><path style="opacity:1" fill="#b0afaf" d="M 466.5,615.5 C 467.774,616.189 467.774,617.023 466.5,618C 465.167,618.667 463.833,618.667 462.5,618C 464.066,617.392 465.4,616.558 466.5,615.5 Z"/></g>
<g><path style="opacity:1" fill="#2b2728" d="M 275.5,619.5 C 282,618.499 284.5,621.165 283,627.5C 279.645,632.31 275.979,632.644 272,628.5C 271.219,627.056 271.386,625.723 272.5,624.5C 273.833,625.5 275.167,626.5 276.5,627.5C 277.086,627.291 277.586,626.957 278,626.5C 277.536,624.142 276.703,621.809 275.5,619.5 Z"/></g>
<g><path style="opacity:1" fill="#a2a1a1" d="M 298.5,627.5 C 297.833,627.5 297.5,627.833 297.5,628.5C 295.93,627.125 295.097,625.459 295,623.5C 296.376,624.705 297.542,626.038 298.5,627.5 Z"/></g>
<g><path style="opacity:1" fill="#2d292a" d="M 236.5,629.5 C 243.314,629.49 245.814,632.823 244,639.5C 241.151,643.553 237.818,644.22 234,641.5C 233.323,637.187 234.156,633.187 236.5,629.5 Z"/></g>
<g><path style="opacity:1" fill="#e2e2e2" d="M 388.5,631.5 C 390.199,631.34 391.866,631.506 393.5,632C 381.927,660.89 370.26,689.724 358.5,718.5C 358.167,718.333 357.833,718.167 357.5,718C 368.371,689.346 378.704,660.513 388.5,631.5 Z"/></g>
<g><path style="opacity:1" fill="#ececec" d="M 236.5,634.5 C 237.5,634.5 238.5,634.5 239.5,634.5C 239.5,635.833 239.5,637.167 239.5,638.5C 238.5,638.5 237.5,638.5 236.5,638.5C 236.5,637.167 236.5,635.833 236.5,634.5 Z"/></g>
<g><path style="opacity:1" fill="#2a2728" d="M 259.5,640.5 C 266.861,641.557 268.361,645.224 264,651.5C 258.334,655.04 255.167,653.374 254.5,646.5C 254.76,643.246 256.427,641.246 259.5,640.5 Z"/></g>
<g><path style="opacity:1" fill="#2c2929" d="M 914.5,647.5 C 917.388,647.22 918.888,648.553 919,651.5C 921.816,664.777 922.149,678.11 920,691.5C 919.145,694.601 917.645,697.268 915.5,699.5C 914.054,698.829 913.388,697.662 913.5,696C 915.568,690.697 916.568,685.197 916.5,679.5C 915.532,668.848 914.865,658.182 914.5,647.5 Z"/></g>
<g><path style="opacity:1" fill="#2f2b2c" d="M 786.5,665.5 C 787.5,665.5 788.5,665.5 789.5,665.5C 788.521,680.457 783.355,693.79 774,705.5C 773.333,704.167 773.333,702.833 774,701.5C 780.278,690.163 784.445,678.163 786.5,665.5 Z"/></g>
<g><path style="opacity:1" fill="#2b2728" d="M 287.5,670.5 C 288.496,670.414 289.329,670.748 290,671.5C 297.143,686.406 301.643,702.073 303.5,718.5C 301.089,718.863 299.589,717.863 299,715.5C 294.959,701.626 290.792,687.793 286.5,674C 286.989,672.862 287.322,671.695 287.5,670.5 Z"/></g>
<g><path style="opacity:1" fill="#7d7a7b" d="M 455.5,669.5 C 458.891,671.125 462.558,672.125 466.5,672.5C 462.5,672.5 458.5,672.5 454.5,672.5C 454.263,671.209 454.596,670.209 455.5,669.5 Z"/></g>
<g><path style="opacity:1" fill="#efefef" d="M 456.5,676.5 C 460.11,676.402 463.443,677.236 466.5,679C 457.094,683.814 447.094,685.814 436.5,685C 442.877,681.27 449.544,678.437 456.5,676.5 Z"/></g>
<g><path style="opacity:1" fill="#f4f4f4" d="M 448.5,696.5 C 454.176,696.334 459.843,696.501 465.5,697C 465.957,697.414 466.291,697.914 466.5,698.5C 455.678,703.356 444.344,705.189 432.5,704C 437.804,701.178 443.137,698.678 448.5,696.5 Z"/></g>
<g><path style="opacity:1" fill="#8b8989" d="M 398.5,704.5 C 398.768,702.901 398.434,701.568 397.5,700.5C 397.369,699.624 397.702,698.957 398.5,698.5C 399.793,700.636 399.793,702.636 398.5,704.5 Z"/></g>
<g><path style="opacity:1" fill="#eeeeee" d="M 466.5,704.5 C 467.239,704.369 467.906,704.536 468.5,705C 465.347,709.418 461.014,712.085 455.5,713C 447.09,715.83 438.757,715.83 430.5,713C 431.167,712.333 431.833,711.667 432.5,711C 444.317,710.705 455.65,708.539 466.5,704.5 Z"/></g>
<g><path style="opacity:1" fill="#eaeaea" d="M 458.5,716.5 C 461.97,716.71 461.97,717.877 458.5,720C 450.618,724.793 442.285,727.626 433.5,728.5C 437.713,725.9 441.713,723.067 445.5,720C 450.11,719.386 454.443,718.22 458.5,716.5 Z"/></g>
<g><path style="opacity:1" fill="#302c2d" d="M 213.5,739.5 C 214.496,739.414 215.329,739.748 216,740.5C 216.667,742.833 216.667,745.167 216,747.5C 211.766,756.222 206.932,764.555 201.5,772.5C 200.369,770.926 200.202,769.259 201,767.5C 206.01,758.485 210.177,749.151 213.5,739.5 Z"/></g>
<g><path style="opacity:1" fill="#2a2627" d="M 283.5,739.5 C 287.375,739.085 291.042,739.585 294.5,741C 281.966,745.176 269.966,750.51 258.5,757C 240.341,769.913 222.007,782.58 203.5,795C 198.641,798.401 193.308,799.734 187.5,799C 185.606,797.921 185.273,796.587 186.5,795C 192.856,793.105 198.856,790.438 204.5,787C 220.5,776 236.5,765 252.5,754C 262.422,748.036 272.755,743.203 283.5,739.5 Z"/></g>
<g><path style="opacity:1" fill="#2c2829" d="M 285.5,766.5 C 286.117,766.611 286.617,766.944 287,767.5C 288.213,777.4 290.38,787.067 293.5,796.5C 289.93,796.099 287.764,794.099 287,790.5C 285.637,782.571 285.137,774.571 285.5,766.5 Z"/></g>
<g><path style="opacity:1" fill="#3a3637" d="M 276.5,772.5 C 277.496,772.414 278.329,772.748 279,773.5C 279.221,778.22 279.721,782.887 280.5,787.5C 279.349,788.731 278.183,788.731 277,787.5C 276.501,782.511 276.334,777.511 276.5,772.5 Z"/></g>
<g><path style="opacity:1" fill="#2c2829" d="M 802.5,784.5 C 803.5,784.5 804.5,784.5 805.5,784.5C 805.666,788.514 805.499,792.514 805,796.5C 801.435,807.557 799.935,818.891 800.5,830.5C 799.167,830.5 797.833,830.5 796.5,830.5C 794.783,814.607 796.783,799.273 802.5,784.5 Z"/></g>
<g><path style="opacity:1" fill="#2c2829" d="M 947.5,793.5 C 949.39,793.297 950.89,793.963 952,795.5C 956.84,805.823 962.673,815.49 969.5,824.5C 968.277,825.614 966.944,825.781 965.5,825C 957.668,816.343 951.335,806.676 946.5,796C 946.743,795.098 947.077,794.265 947.5,793.5 Z"/></g>
<g><path style="opacity:1" fill="#807d7e" d="M 324.5,796.5 C 325.629,798.628 325.796,800.961 325,803.5C 323.991,801.975 323.491,800.308 323.5,798.5C 324.338,798.158 324.672,797.492 324.5,796.5 Z"/></g>
<g><path style="opacity:1" fill="#2e2a2b" d="M 310.5,852.5 C 313.735,853.595 315.568,855.928 316,859.5C 316.814,868.902 318.647,878.069 321.5,887C 321.167,887.5 320.833,888 320.5,888.5C 319.186,887.687 318.019,886.687 317,885.5C 313.229,874.811 311.062,863.811 310.5,852.5 Z"/></g>
<g><path style="opacity:1" fill="#2b2728" d="M 161.5,908.5 C 160.833,910.833 160.167,913.167 159.5,915.5C 158.883,915.389 158.383,915.056 158,914.5C 157.875,904.079 158.875,893.746 161,883.5C 164.131,881.834 165.631,882.834 165.5,886.5C 164.162,893.849 162.828,901.182 161.5,908.5 Z"/></g>
<g><path style="opacity:1" fill="#8a8788" d="M 161.5,908.5 C 161.813,911.247 161.48,913.914 160.5,916.5C 159.893,916.376 159.56,916.043 159.5,915.5C 160.167,913.167 160.833,910.833 161.5,908.5 Z"/></g>
</svg>
