<?xml version="1.0" encoding="UTF-8"?>
<!DOCTYPE svg PUBLIC "-//W3C//DTD SVG 1.1//EN" "http://www.w3.org/Graphics/SVG/1.1/DTD/svg11.dtd">
<svg xmlns="http://www.w3.org/2000/svg" version="1.1" width="1041px" height="1041px" style="shape-rendering:geometricPrecision; text-rendering:geometricPrecision; image-rendering:optimizeQuality; fill-rule:evenodd; clip-rule:evenodd" xmlns:xlink="http://www.w3.org/1999/xlink">
<g><path style="opacity:1" fill="#fefefe" d="M -0.5,-0.5 C 346.5,-0.5 693.5,-0.5 1040.5,-0.5C 1040.5,346.5 1040.5,693.5 1040.5,1040.5C 693.5,1040.5 346.5,1040.5 -0.5,1040.5C -0.5,693.5 -0.5,346.5 -0.5,-0.5 Z"/></g>
<g><path style="opacity:1" fill="#282425" d="M 97.5,676.5 C 97.1984,673.941 97.5318,671.607 98.5,669.5C 136.503,822.671 232.503,916.171 386.5,950C 514.626,972.3 630.626,944.633 734.5,867C 811.942,805.009 863.442,725.842 889,629.5C 910.934,545.79 910.934,462.123 889,378.5C 855.343,266.196 787.176,182.03 684.5,126C 618.785,91.0709 548.785,75.7376 474.5,80C 410.422,85.6852 352.755,107.685 301.5,146C 300.241,146.982 298.908,147.315 297.5,147C 328.474,117.004 364.807,96.0041 406.5,84C 465.106,67.4395 524.106,66.1061 583.5,80C 720.437,114.948 818.603,196.448 878,324.5C 915.79,418.357 923.457,514.69 901,613.5C 874.741,729.965 813.241,822.465 716.5,891C 604.037,964.156 482.703,984.156 352.5,951C 275.604,930.001 212.104,888.834 162,827.5C 129.882,785.92 108.549,739.253 98,687.5C 97.5014,683.848 97.3347,680.182 97.5,676.5 Z"/></g>
<g><path style="opacity:1" fill="#282425" d="M 883.5,93.5 C 886.398,100.253 891.065,105.753 897.5,110C 890.446,113.389 885.946,118.889 884,126.5C 882.288,119.284 878.122,113.951 871.5,110.5C 878.68,107 882.68,101.333 883.5,93.5 Z"/></g>
<g><path style="opacity:1" fill="#262223" d="M 375.5,130.5 C 442.216,127.245 502.216,145.411 555.5,185C 579.278,204.413 598.445,227.58 613,254.5C 614.734,258.017 615.401,261.684 615,265.5C 612.333,262.833 609.667,260.167 607,257.5C 579.161,213.674 540.661,183.174 491.5,166C 446.027,148.742 399.027,141.742 350.5,145C 338.378,146.256 326.378,148.256 314.5,151C 310.833,151.667 307.167,151.667 303.5,151C 303.043,150.586 302.709,150.086 302.5,149.5C 308.088,145.04 314.421,142.207 321.5,141C 339.443,136.507 357.443,133.007 375.5,130.5 Z"/></g>
<g><path style="opacity:1" fill="#2a2627" d="M 351.5,240.5 C 353.448,245.299 356.781,249.132 361.5,252C 356.769,254.956 353.602,259.123 352,264.5C 351.004,258.841 347.838,255.007 342.5,253C 347.704,250.314 350.704,246.147 351.5,240.5 Z"/></g>
<g><path style="opacity:1" fill="#282425" d="M 770.5,251.5 C 771.833,251.5 773.167,251.5 774.5,251.5C 775.581,260.465 775.748,269.465 775,278.5C 773,281.167 771,281.167 769,278.5C 767.485,271.233 767.152,263.899 768,256.5C 768.366,254.548 769.199,252.882 770.5,251.5 Z"/></g>
<g><path style="opacity:1" fill="#242021" d="M 718.5,312.5 C 715.024,311.357 711.358,311.19 707.5,312C 709.345,313.128 711.345,313.628 713.5,313.5C 732.965,318.463 746.798,330.13 755,348.5C 761.223,367.602 760.89,386.602 754,405.5C 749.034,415.147 744.034,424.814 739,434.5C 729.384,456.64 729.051,478.974 738,501.5C 741.215,531.565 730.715,555.398 706.5,573C 697.496,578.172 687.829,580.338 677.5,579.5C 676.775,589.233 674.109,598.399 669.5,607C 669.905,607.945 670.572,608.612 671.5,609C 680.125,610.419 688.792,610.752 697.5,610C 704.595,607.953 711.595,605.62 718.5,603C 735.594,594.453 752.927,586.453 770.5,579C 777.892,576.623 785.058,577.123 792,580.5C 798.988,576.179 804.654,570.512 809,563.5C 815.077,551.088 821.244,538.754 827.5,526.5C 831.668,524.514 834.168,525.848 835,530.5C 835.333,534.167 835.667,537.833 836,541.5C 842.953,533.091 849.787,524.591 856.5,516C 861.141,514.349 863.807,515.849 864.5,520.5C 860.915,531.004 855.748,540.67 849,549.5C 847.316,551.351 845.483,553.018 843.5,554.5C 843.167,554.167 842.833,553.833 842.5,553.5C 845.303,545.89 849.136,538.89 854,532.5C 855.187,530.956 855.52,529.289 855,527.5C 848.286,535.759 841.452,543.926 834.5,552C 832.726,552.97 830.893,553.804 829,554.5C 827.5,554.333 826.667,553.5 826.5,552C 829.082,546.763 829.915,541.263 829,535.5C 823.495,547.181 817.495,558.515 811,569.5C 806.79,575.378 801.623,580.211 795.5,584C 806.6,593.356 811.767,605.189 811,619.5C 809.112,624.945 806.445,629.945 803,634.5C 771.756,666.944 733.422,683.611 688,684.5C 638.097,681.615 593.931,664.448 555.5,633C 547.747,625.61 541.914,617.11 538,607.5C 552.695,623.531 569.195,637.365 587.5,649C 601.39,650.446 613.723,646.779 624.5,638C 633.588,629.917 640.755,620.417 646,609.5C 646.781,608.056 646.614,606.723 645.5,605.5C 639.634,602.96 634.634,599.293 630.5,594.5C 632.466,593.628 634.466,593.795 636.5,595C 644.955,598.645 653.455,602.145 662,605.5C 662.833,605.167 663.667,604.833 664.5,604.5C 668.364,596.573 671.031,588.24 672.5,579.5C 668.708,579.274 665.041,578.44 661.5,577C 648.63,569.399 635.63,562.066 622.5,555C 620.167,554.333 617.833,554.333 615.5,555C 610.573,560.198 604.573,562.198 597.5,561C 589.853,556.699 582.187,552.366 574.5,548C 554.73,541.175 536.397,543.841 519.5,556C 515.12,560.048 510.454,563.715 505.5,567C 500.161,574.684 494.828,582.35 489.5,590C 501.973,620.813 524.64,638.479 557.5,643C 555.996,644.491 555.163,646.324 555,648.5C 520.184,649.83 494.017,635.497 476.5,605.5C 468.627,613.205 461.293,621.372 454.5,630C 460.982,647.815 473.316,659.482 491.5,665C 490.833,665.667 490.167,666.333 489.5,667C 483.083,667.87 476.749,667.536 470.5,666C 466.5,663.333 462.5,660.667 458.5,658C 453.289,652.458 448.456,646.625 444,640.5C 432.765,652.645 421.765,664.978 411,677.5C 410.262,680.212 410.929,682.545 413,684.5C 415.674,687.753 418.84,690.42 422.5,692.5C 414.737,696.08 407.904,694.747 402,688.5C 380.941,711.608 363.607,737.275 350,765.5C 337.889,794.847 346.056,816.347 374.5,830C 375.687,831.019 376.687,832.186 377.5,833.5C 374.155,834.559 370.822,834.392 367.5,833C 359.955,829.061 352.288,825.394 344.5,822C 340.39,817.803 336.056,813.803 331.5,810C 326.659,807.278 321.659,804.944 316.5,803C 286.367,806.59 257.367,802.256 229.5,790C 184.048,770.357 147.215,740.191 119,699.5C 114.537,693.412 110.703,686.912 107.5,680C 112.432,682.595 116.932,686.095 121,690.5C 151.497,735.171 192.664,765.338 244.5,781C 275.549,789.544 306.883,790.71 338.5,784.5C 339.618,773.253 342.785,762.586 348,752.5C 353.913,741.001 360.58,730.001 368,719.5C 397.429,681.392 429.096,645.058 463,610.5C 472.523,599.945 481.69,589.112 490.5,578C 487.821,578.218 485.155,578.885 482.5,580C 460.818,584.109 450.318,575.276 451,553.5C 454.198,544.77 458.198,536.437 463,528.5C 464.476,523.924 464.81,519.257 464,514.5C 457,505.5 450,496.5 443,487.5C 429.583,464.023 433.749,444.523 455.5,429C 467.156,423.174 478.49,416.84 489.5,410C 499.753,400.004 507.086,388.504 511.5,375.5C 502.359,381.452 492.359,383.952 481.5,383C 479.579,382.64 477.912,381.806 476.5,380.5C 496.33,381.005 511.496,373.005 522,356.5C 530.073,338.001 540.406,321.001 553,305.5C 578.448,280.352 607.615,274.852 640.5,289C 655.517,297.68 664.684,310.513 668,327.5C 686.913,308.636 708.746,304.136 733.5,314C 728.428,314.354 723.428,313.854 718.5,312.5 Z"/></g>
<g><path style="opacity:1" fill="#292526" d="M 816.5,287.5 C 820.833,287.5 825.167,287.5 829.5,287.5C 829.201,290.642 827.534,292.809 824.5,294C 814.619,298.045 804.452,299.878 794,299.5C 793.219,298.056 793.386,296.723 794.5,295.5C 801.645,292.024 808.978,289.357 816.5,287.5 Z"/></g>
<g><path style="opacity:1" fill="#797677" d="M 718.5,312.5 C 716.585,312.216 714.919,312.549 713.5,313.5C 711.345,313.628 709.345,313.128 707.5,312C 711.358,311.19 715.024,311.357 718.5,312.5 Z"/></g>
<g><path style="opacity:1" fill="#282425" d="M 171.5,342.5 C 173.764,349.939 178.431,355.439 185.5,359C 178.053,362.048 173.553,367.548 172,375.5C 169.5,368.816 165.333,363.483 159.5,359.5C 163.187,357.069 166.353,354.069 169,350.5C 170.144,347.92 170.978,345.253 171.5,342.5 Z"/></g>
<g><path style="opacity:1" fill="#fcfcfc" d="M 660.5,370.5 C 682.757,367.922 696.257,377.589 701,399.5C 699.635,437.597 685.135,469.764 657.5,496C 633.231,509.693 613.398,504.859 598,481.5C 591.591,467.643 589.591,453.31 592,438.5C 587.981,436.968 583.814,435.801 579.5,435C 572.194,430.095 569.361,423.261 571,414.5C 574.086,406.208 579.919,403.041 588.5,405C 590.906,406.622 592.739,408.789 594,411.5C 593.899,417.205 594.065,422.872 594.5,428.5C 597.982,430.934 601.649,431.101 605.5,429C 614.363,418.782 621.863,407.615 628,395.5C 636.116,383.541 646.949,375.208 660.5,370.5 Z"/></g>
<g><path style="opacity:1" fill="#2d292a" d="M 641.5,389.5 C 650.222,388.906 657.722,391.573 664,397.5C 664.49,398.793 664.657,400.127 664.5,401.5C 663.127,401.657 661.793,401.49 660.5,401C 658.016,398.256 655.016,396.256 651.5,395C 646.342,394.352 641.342,394.685 636.5,396C 635.483,394.951 635.316,393.784 636,392.5C 637.876,391.391 639.709,390.391 641.5,389.5 Z"/></g>
<g><path style="opacity:1" fill="#2a2627" d="M 673.5,401.5 C 680.221,400.751 686.554,401.918 692.5,405C 694.557,406.719 696.224,408.719 697.5,411C 697.333,412.5 696.5,413.333 695,413.5C 691.426,410.961 687.593,408.794 683.5,407C 670.44,407.4 664.273,414.234 665,427.5C 666.821,430.991 669.654,432.157 673.5,431C 677.432,428.576 679.432,425.076 679.5,420.5C 681.665,420.116 683.332,420.783 684.5,422.5C 682.388,431.805 676.721,436.305 667.5,436C 665.714,435.215 664.214,434.049 663,432.5C 662.827,441.494 665.994,449.161 672.5,455.5C 668.492,456.59 665.325,455.256 663,451.5C 655.204,436.769 655.871,422.436 665,408.5C 667.628,405.79 670.461,403.456 673.5,401.5 Z"/></g>
<g><path style="opacity:1" fill="#2a2627" d="M 635.5,409.5 C 636.833,409.5 638.167,409.5 639.5,409.5C 639.191,414.267 639.691,418.934 641,423.5C 645.446,426.142 649.113,425.142 652,420.5C 652.689,416.708 654.856,414.708 658.5,414.5C 657.321,425.526 651.321,430.359 640.5,429C 634.763,423.681 633.097,417.181 635.5,409.5 Z"/></g>
<g><path style="opacity:1" fill="#2d292a" d="M 635.5,460.5 C 636.822,460.33 637.989,460.663 639,461.5C 640.429,469.639 645.263,472.972 653.5,471.5C 653.714,473.144 653.38,474.644 652.5,476C 640.771,477.095 635.104,471.928 635.5,460.5 Z"/></g>
<g><path style="opacity:1" fill="#2a2627" d="M 868.5,524.5 C 871.85,524.651 873.516,526.485 873.5,530C 872.158,536.018 869.491,541.351 865.5,546C 868.608,544.633 871.941,543.467 875.5,542.5C 876.772,542.57 877.938,542.903 879,543.5C 879.333,545.167 879.667,546.833 880,548.5C 881.011,547.663 882.178,547.33 883.5,547.5C 883.649,548.552 883.483,549.552 883,550.5C 871.633,563.534 859.3,575.534 846,586.5C 844.438,589.72 842.604,592.72 840.5,595.5C 839.682,592.893 839.182,590.226 839,587.5C 830.24,591.132 821.74,595.132 813.5,599.5C 813.472,597.418 814.139,595.584 815.5,594C 825.677,588.411 836.01,583.078 846.5,578C 857.399,570.268 866.399,560.768 873.5,549.5C 873,549.167 872.5,548.833 872,548.5C 865.378,552.286 858.878,556.286 852.5,560.5C 851.5,560.167 850.833,559.5 850.5,558.5C 855.862,550.97 861.029,543.303 866,535.5C 867.904,532.077 868.737,528.41 868.5,524.5 Z"/></g>
<g><path style="opacity:1" fill="#322e2f" d="M 616.5,560.5 C 617.873,560.343 619.207,560.51 620.5,561C 610.083,575.151 598.417,576.151 585.5,564C 586.833,563.333 588.167,563.333 589.5,564C 596.524,568.93 603.857,569.597 611.5,566C 612.843,563.768 614.51,561.934 616.5,560.5 Z"/></g>
<g><path style="opacity:1" fill="#f9f9f9" d="M 775.5,584.5 C 780.702,583.756 785.369,584.923 789.5,588C 798.52,595.55 803.687,605.05 805,616.5C 800.967,626.207 794.967,634.541 787,641.5C 790.189,620.011 783.355,602.178 766.5,588C 769.571,586.704 772.571,585.538 775.5,584.5 Z"/></g>
<g><path style="opacity:1" fill="#fcfcfc" d="M 753.5,593.5 C 773.903,609.231 779.403,629.231 770,653.5C 756.199,663.318 741.033,669.818 724.5,673C 733.71,657.426 735.877,640.926 731,623.5C 728.996,618.167 726.163,613.334 722.5,609C 732.894,603.803 743.227,598.636 753.5,593.5 Z"/></g>
<g><path style="opacity:1" fill="#fcfcfc" d="M 658.5,612.5 C 674.468,618.245 690.635,618.912 707,614.5C 709.151,614.643 710.818,615.643 712,617.5C 717.93,625.884 720.43,635.217 719.5,645.5C 719.641,656.101 717.641,666.268 713.5,676C 688.422,680.509 663.755,678.842 639.5,671C 629.273,667.883 619.273,664.217 609.5,660C 635.932,654.399 652.265,638.566 658.5,612.5 Z"/></g>
<g><path style="opacity:1" fill="#2a2627" d="M 223.5,615.5 C 225.311,620.601 228.645,624.434 233.5,627C 228.856,629.641 225.689,633.475 224,638.5C 221.739,634.071 218.572,630.404 214.5,627.5C 219.44,624.952 222.44,620.952 223.5,615.5 Z"/></g>
<g><path style="opacity:1" fill="#272324" d="M 544.5,656.5 C 561.689,655.371 578.022,658.538 593.5,666C 612.123,678.206 617.29,694.706 609,715.5C 621.674,707.868 633.34,709.201 644,719.5C 650.34,732.422 649.673,745.088 642,757.5C 622.795,782.372 600.628,804.205 575.5,823C 540.408,848.216 502.408,868.216 461.5,883C 454.987,885.282 448.32,886.949 441.5,888C 435.282,893.278 428.282,897.278 420.5,900C 404.575,905.154 388.241,907.821 371.5,908C 349.375,914.281 327.375,913.947 305.5,907C 303.668,906.252 302.001,905.252 300.5,904C 303.95,903.825 307.283,903.658 310.5,903.5C 307.413,897.675 309.08,893.508 315.5,891C 323.435,889.056 331.435,887.39 339.5,886C 345.648,884.395 351.648,882.395 357.5,880C 359.458,875.146 361.625,870.313 364,865.5C 370.402,857.864 378.568,854.864 388.5,856.5C 388.344,852.418 388.844,848.418 390,844.5C 404.416,814.065 424.25,787.565 449.5,765C 467.035,749.461 485.702,735.461 505.5,723C 512.204,718.431 519.538,716.097 527.5,716C 491.192,737.294 458.692,763.461 430,794.5C 417.229,808.369 407.229,824.036 400,841.5C 396.525,860.676 404.358,869.843 423.5,869C 437.622,864.272 450.956,857.938 463.5,850C 509.189,820.659 549.689,785.159 585,743.5C 595.458,730.917 602.458,716.583 606,700.5C 607.25,689.497 603.417,680.664 594.5,674C 588.328,669.914 581.661,666.914 574.5,665C 551.776,661.856 529.442,663.523 507.5,670C 469.97,680.43 433.97,694.763 399.5,713C 397.835,713.788 396.169,714.122 394.5,714C 403.296,706.099 412.963,699.433 423.5,694C 462.186,675.628 502.519,663.128 544.5,656.5 Z"/></g>
<g><path style="opacity:1" fill="#6d6b6b" d="M 98.5,669.5 C 97.5318,671.607 97.1984,673.941 97.5,676.5C 96.1997,673.976 96.1997,671.309 97.5,668.5C 98.1067,668.624 98.44,668.957 98.5,669.5 Z"/></g>
<g><path style="opacity:1" fill="#fcfcfc" d="M 617.5,716.5 C 635.901,715.065 643.734,723.398 641,741.5C 638.325,749.849 634.325,757.516 629,764.5C 606.175,789.001 580.675,810.167 552.5,828C 531.983,840.428 510.983,852.094 489.5,863C 476.216,869.317 462.55,874.65 448.5,879C 442.51,879.56 437.177,877.893 432.5,874C 455.42,863.879 476.753,851.212 496.5,836C 527.109,813.4 555.276,787.9 581,759.5C 591.241,747.245 599.908,733.912 607,719.5C 610.557,718.335 614.057,717.335 617.5,716.5 Z"/></g>
<g><path style="opacity:1" fill="#282425" d="M 929.5,731.5 C 931.543,738.728 935.877,744.228 942.5,748C 935.522,751.448 931.022,756.948 929,764.5C 927.288,757.284 923.122,751.951 916.5,748.5C 923.515,744.826 927.848,739.16 929.5,731.5 Z"/></g>
<g><path style="opacity:1" fill="#2b2728" d="M 861.5,821.5 C 863.148,823.56 864.648,825.893 866,828.5C 867.731,830.617 869.898,832.117 872.5,833C 867.011,835.468 863.511,839.635 862,845.5C 860.872,840.228 858.039,836.228 853.5,833.5C 858.236,830.784 860.903,826.784 861.5,821.5 Z"/></g>
</svg>
