<?xml version="1.0" encoding="UTF-8"?>
<!DOCTYPE svg PUBLIC "-//W3C//DTD SVG 1.1//EN" "http://www.w3.org/Graphics/SVG/1.1/DTD/svg11.dtd">
<svg xmlns="http://www.w3.org/2000/svg" version="1.1" width="1040px" height="1040px" style="shape-rendering:geometricPrecision; text-rendering:geometricPrecision; image-rendering:optimizeQuality; fill-rule:evenodd; clip-rule:evenodd" xmlns:xlink="http://www.w3.org/1999/xlink">
<g><path style="opacity:1" fill="#fefefe" d="M -0.5,-0.5 C 346.167,-0.5 692.833,-0.5 1039.5,-0.5C 1039.5,346.167 1039.5,692.833 1039.5,1039.5C 692.833,1039.5 346.167,1039.5 -0.5,1039.5C -0.5,692.833 -0.5,346.167 -0.5,-0.5 Z"/></g>
<g><path style="opacity:1" fill="#292526" d="M 642.5,182.5 C 642.67,183.822 642.337,184.989 641.5,186C 637.486,186.769 633.486,187.603 629.5,188.5C 625.557,185.301 622.057,181.634 619,177.5C 618.981,170.548 620.814,164.048 624.5,158C 630.5,157.333 636.5,157.333 642.5,158C 646.009,161.496 648.676,165.496 650.5,170C 649.201,174.229 647.701,178.396 646,182.5C 644.855,183.684 643.688,183.684 642.5,182.5 Z"/></g>
<g><path style="opacity:1" fill="#a1a0a0" d="M 627.5,162.5 C 629.124,162.36 630.29,163.027 631,164.5C 633.111,170.606 634.611,176.606 635.5,182.5C 632.246,176.07 629.579,169.404 627.5,162.5 Z"/></g>
<g><path style="opacity:1" fill="#a7a5a5" d="M 642.5,182.5 C 639.084,176.616 636.418,170.283 634.5,163.5C 636.347,162.17 637.847,162.503 639,164.5C 640.24,170.533 641.407,176.533 642.5,182.5 Z"/></g>
<g><path style="opacity:1" fill="#a4a3a3" d="M 625.5,166.5 C 627.668,171.657 629.668,176.99 631.5,182.5C 631.167,182.833 630.833,183.167 630.5,183.5C 627.662,180.493 624.995,177.327 622.5,174C 623.214,171.352 624.214,168.852 625.5,166.5 Z"/></g>
<g><path style="opacity:1" fill="#9a9899" d="M 642.5,166.5 C 643.479,167.765 644.479,169.099 645.5,170.5C 645.167,170.833 644.833,171.167 644.5,171.5C 643.05,170.15 642.383,168.484 642.5,166.5 Z"/></g>
<g><path style="opacity:1" fill="#2b2728" d="M 755.5,221.5 C 758.822,222.658 760.988,224.992 762,228.5C 763.916,235.186 766.583,241.519 770,247.5C 770.494,249.134 770.66,250.801 770.5,252.5C 765.609,250.779 762.109,247.446 760,242.5C 758.591,238.684 756.924,235.017 755,231.5C 754.253,228.076 754.42,224.743 755.5,221.5 Z"/></g>
<g><path style="opacity:1" fill="#2d292a" d="M 813.5,225.5 C 817.071,225.408 818.238,227.074 817,230.5C 813.333,236.167 809.667,241.833 806,247.5C 804.301,248.406 802.467,248.739 800.5,248.5C 800.203,244.089 801.369,240.089 804,236.5C 806.287,232.048 809.454,228.382 813.5,225.5 Z"/></g>
<g><path style="opacity:1" fill="#2b2728" d="M 172.5,230.5 C 180.444,232.306 187.444,235.973 193.5,241.5C 187.446,242.331 182.113,240.498 177.5,236C 171.921,236.417 166.754,238.25 162,241.5C 160.846,245.104 160.013,248.771 159.5,252.5C 164.893,254.689 170.226,257.189 175.5,260C 177.002,262.574 178.002,265.407 178.5,268.5C 182.327,266.754 185.993,264.754 189.5,262.5C 190.329,257.533 190.829,252.533 191,247.5C 191.589,245.137 193.089,244.137 195.5,244.5C 194.835,251.143 194.335,257.809 194,264.5C 189,267.5 184,270.5 179,273.5C 178.667,276.5 178.333,279.5 178,282.5C 171.978,286.679 165.644,290.345 159,293.5C 153.057,289.778 146.89,286.445 140.5,283.5C 139.343,276.084 139.843,268.75 142,261.5C 145.417,258.539 149.25,256.206 153.5,254.5C 155.304,249.688 156.471,244.688 157,239.5C 162.18,236.333 167.347,233.333 172.5,230.5 Z"/></g>
<g><path style="opacity:1" fill="#252122" d="M 736.5,767.5 C 731.456,767.418 726.456,767.251 721.5,767C 724.154,767.941 726.821,768.774 729.5,769.5C 750.252,770.416 768.919,764.583 785.5,752C 813.235,730.396 830.735,702.23 838,667.5C 844.011,635.797 843.678,604.131 837,572.5C 833.431,558.394 830.264,544.227 827.5,530C 827.833,528.167 828.167,526.333 828.5,524.5C 833.61,534.66 837.443,545.327 840,556.5C 850.421,596.702 851.087,637.035 842,677.5C 832.355,713.644 811.855,741.811 780.5,762C 764.865,771.825 747.865,776.159 729.5,775C 715.198,771.342 702.865,764.342 692.5,754C 662.536,721.157 646.369,682.323 644,637.5C 642.036,597.985 650.036,560.652 668,525.5C 668.804,518.486 666.304,516.986 660.5,521C 646.975,533.864 632.309,545.197 616.5,555C 604.367,560.446 592.033,560.946 579.5,556.5C 566.55,549.405 554.216,541.238 542.5,532C 533.77,525.469 524.104,520.802 513.5,518C 506.751,517.123 500.084,517.456 493.5,519C 492.167,519.667 492.167,520.333 493.5,521C 499.833,521.333 506.167,521.667 512.5,522C 514.751,522.748 516.084,524.248 516.5,526.5C 515.167,526.5 513.833,526.5 512.5,526.5C 506.347,525.347 500.014,525.18 493.5,526C 494.044,526.717 494.711,527.217 495.5,527.5C 498.898,530.284 502.398,532.951 506,535.5C 511.165,533.421 516.332,531.421 521.5,529.5C 525.261,527.725 526.594,528.725 525.5,532.5C 520.923,534.957 516.256,537.123 511.5,539C 517.485,539.455 523.319,538.622 529,536.5C 530.627,536.625 532.127,537.125 533.5,538C 538.617,544.39 545.284,547.223 553.5,546.5C 553.5,547.5 553.5,548.5 553.5,549.5C 548.811,550.833 544.144,550.666 539.5,549C 535.711,546.873 532.211,544.373 529,541.5C 524.611,543.112 520.111,544.279 515.5,545C 557.844,582.348 589.677,627.181 611,679.5C 621.76,707.049 624.76,735.382 620,764.5C 614.538,783.955 601.705,794.789 581.5,797C 545.663,799.032 511.996,791.365 480.5,774C 461.985,764.82 446.485,751.986 434,735.5C 428.409,723.448 426.409,710.781 428,697.5C 429.388,691.05 432.554,685.716 437.5,681.5C 432.856,678.69 429.023,675.023 426,670.5C 418.747,658.329 411.747,645.996 405,633.5C 402.463,630.628 399.63,628.128 396.5,626C 378.931,617.533 360.598,611.366 341.5,607.5C 340.5,607.833 339.5,608.167 338.5,608.5C 340.431,610.804 342.764,612.638 345.5,614C 355.502,618.334 365.836,621.667 376.5,624C 380.383,627.679 379.383,629.179 373.5,628.5C 359.02,625.023 344.353,623.857 329.5,625C 328.328,625.419 327.328,626.085 326.5,627C 341.088,630.21 355.755,633.21 370.5,636C 374.04,636.6 376.707,638.434 378.5,641.5C 377.333,641.833 376.167,642.167 375,642.5C 359.327,638.977 343.494,637.644 327.5,638.5C 329.336,639.919 331.336,641.086 333.5,642C 345.824,645.08 357.824,649.08 369.5,654C 371.734,655.638 373.067,657.805 373.5,660.5C 358.808,655.593 343.808,651.76 328.5,649C 322.506,646.815 319.673,642.648 320,636.5C 321.214,634.951 322.714,633.785 324.5,633C 320.23,632.088 318.396,629.588 319,625.5C 320.938,622.894 323.438,621.061 326.5,620C 331.785,618.974 337.118,618.307 342.5,618C 338.208,616.604 334.708,614.104 332,610.5C 330.595,604.573 332.928,601.573 339,601.5C 344.183,602.121 349.349,602.788 354.5,603.5C 364.019,607.065 373.686,610.565 383.5,614C 390.446,616.806 397.112,620.139 403.5,624C 406.361,626.894 408.861,630.061 411,633.5C 417,644.167 423,654.833 429,665.5C 432.478,670.279 436.311,674.779 440.5,679C 442.167,679.667 443.833,679.667 445.5,679C 450.454,674.508 456.121,673.008 462.5,674.5C 452.902,679.545 445.068,686.545 439,695.5C 431.691,710.925 433.358,725.259 444,738.5C 466.725,760.79 493.558,776.29 524.5,785C 603.196,803.633 631.696,773.799 610,695.5C 595.905,652.141 573.572,613.807 543,580.5C 521.99,558.481 499.49,538.314 475.5,520C 469.833,516.5 464.167,513 458.5,509.5C 438.849,528.127 415.516,539.627 388.5,544C 382.5,544.667 376.5,544.667 370.5,544C 360.328,540.151 358.161,533.651 364,524.5C 366.971,521.96 368.971,519.627 370,517.5C 356.221,522.705 342.055,526.371 327.5,528.5C 341.675,550.175 354.842,572.508 367,595.5C 368.205,597.534 368.372,599.534 367.5,601.5C 364.478,599.312 361.978,596.645 360,593.5C 347.588,570.332 333.921,547.999 319,526.5C 315.919,520.669 312.585,515.002 309,509.5C 306.155,504.814 304.155,499.814 303,494.5C 268.344,518.804 236.344,546.47 207,577.5C 200.206,585.963 193.039,594.13 185.5,602C 179.695,602.04 174.028,601.04 168.5,599C 160.712,595.606 153.045,591.939 145.5,588C 124.499,575.835 103.833,563.168 83.5,550C 86.1667,549.333 88.8333,549.333 91.5,550C 113.515,564.011 136.181,577.011 159.5,589C 162.227,589.818 164.894,589.652 167.5,588.5C 150.813,569.671 130.48,556.171 106.5,548C 109.702,546.517 113.036,546.183 116.5,547C 140.858,556.345 161.691,570.845 179,590.5C 177.793,559.774 187.626,533.274 208.5,511C 212.135,507.343 216.468,505.677 221.5,506C 214.333,513.833 207.167,521.667 200,529.5C 192.216,542.514 187.883,556.514 187,571.5C 197.086,547.157 212.586,526.99 233.5,511C 236.339,509.08 239.339,507.413 242.5,506C 243.635,505.251 244.635,505.417 245.5,506.5C 244.747,508.753 243.414,510.587 241.5,512C 215.475,528.906 198.975,552.406 192,582.5C 192.414,582.957 192.914,583.291 193.5,583.5C 209.625,566.874 225.959,550.374 242.5,534C 252.135,525.519 262.135,517.519 272.5,510C 264.325,507.511 259.492,502.011 258,493.5C 257.667,487.167 257.333,480.833 257,474.5C 255.833,472.667 254.333,471.167 252.5,470C 229.174,467.188 220.341,454.355 226,431.5C 230.06,421.707 235.394,412.707 242,404.5C 251.209,395.07 259.209,384.737 266,373.5C 266.863,370.731 267.363,367.898 267.5,365C 264.987,351.244 262.987,337.41 261.5,323.5C 262.328,295.005 276.328,276.505 303.5,268C 316.221,265.899 328.221,267.899 339.5,274C 342.237,275.614 344.403,277.781 346,280.5C 348.104,256.055 360.937,240.221 384.5,233C 409.29,227.864 428.623,235.697 442.5,256.5C 453.246,244.624 466.579,239.124 482.5,240C 497.027,243.524 506.861,252.357 512,266.5C 516.6,281.158 514.6,294.825 506,307.5C 501.04,313.897 494.54,317.563 486.5,318.5C 484.112,340.618 487.945,361.618 498,381.5C 500.234,385.458 503.067,388.958 506.5,392C 515.487,398.828 524.821,405.162 534.5,411C 549.798,424.614 552.631,440.447 543,458.5C 533.622,466.773 523.456,473.94 512.5,480C 507.917,483.912 504.083,488.412 501,493.5C 499.18,499.425 497.68,505.425 496.5,511.5C 511.242,510.881 524.908,514.381 537.5,522C 548.167,529.667 558.833,537.333 569.5,545C 591.055,557.726 611.388,556.06 630.5,540C 641.539,529.959 652.873,520.292 664.5,511C 668.947,507.609 673.947,505.609 679.5,505C 660.333,495.167 645.833,480.667 636,461.5C 631.27,447.752 631.604,434.086 637,420.5C 656.018,379.562 687.851,355.396 732.5,348C 742.167,347.667 751.833,347.333 761.5,347C 763.034,340.944 764.2,334.778 765,328.5C 766.171,325.65 767.338,322.816 768.5,320C 760.091,312.322 760.758,305.322 770.5,299C 779.869,296.01 785.536,299.176 787.5,308.5C 786.783,316.716 782.283,321.049 774,321.5C 769.935,329.761 767.101,338.428 765.5,347.5C 768.229,349.367 767.896,350.367 764.5,350.5C 764.5,352.5 764.5,354.5 764.5,356.5C 767.212,356.263 769.712,356.263 772,356.5C 772.684,357.784 772.517,358.951 771.5,360C 765.14,361.468 759.474,360.135 754.5,356C 756.333,354.212 758.333,354.046 760.5,355.5C 761.429,354.311 761.762,352.978 761.5,351.5C 721.337,351.373 687.504,365.707 660,394.5C 631.96,428.232 634.126,459.732 666.5,489C 690.672,507.283 718.005,517.283 748.5,519C 781.71,522.817 812.71,516.484 841.5,500C 859.321,486.557 866.154,468.724 862,446.5C 852.872,409.063 831.372,381.23 797.5,363C 787.877,359.239 778.544,354.906 769.5,350C 784.385,350.294 798.051,354.627 810.5,363C 841.234,383.304 860.401,411.47 868,447.5C 872.459,475.077 862.625,495.577 838.5,509C 792.34,530.058 745.006,533.058 696.5,518C 691.256,515.797 686.422,512.964 682,509.5C 675.684,524.136 669.351,538.803 663,553.5C 640.61,615.37 646.943,674.036 682,729.5C 696.074,749.236 714.241,761.903 736.5,767.5 Z"/></g>
<g><path style="opacity:1" fill="#ededed" d="M 395.5,237.5 C 409.319,237.241 421.152,241.908 431,251.5C 433.51,254.199 435.176,257.199 436,260.5C 416.192,240.339 394.025,237.172 369.5,251C 362.239,256.028 356.739,262.528 353,270.5C 356.872,255.288 366.372,245.121 381.5,240C 386.272,239.017 390.938,238.183 395.5,237.5 Z"/></g>
<g><path style="opacity:1" fill="#e6e6e6" d="M 468.5,246.5 C 477.101,245.359 485.101,246.859 492.5,251C 487.856,250.837 483.189,250.337 478.5,249.5C 474.155,250.269 469.821,251.102 465.5,252C 459.355,255.073 453.355,258.073 447.5,261C 453.324,254.322 460.324,249.489 468.5,246.5 Z"/></g>
<g><path style="opacity:1" fill="#949292" d="M 159.5,256.5 C 164.134,259.651 169.134,261.984 174.5,263.5C 173.959,265.535 173.292,267.535 172.5,269.5C 168.296,266.8 163.963,264.3 159.5,262C 158.248,260.172 158.248,258.339 159.5,256.5 Z"/></g>
<g><path style="opacity:1" fill="#ebeaea" d="M 152.5,259.5 C 153.097,259.735 153.43,260.235 153.5,261C 150.479,267.562 148.146,274.395 146.5,281.5C 144.709,281.038 143.709,279.871 143.5,278C 144.591,273.211 145.424,268.378 146,263.5C 148.314,262.267 150.481,260.933 152.5,259.5 Z"/></g>
<g><path style="opacity:1" fill="#f5f4f4" d="M 154.5,264.5 C 156.966,264.899 158.966,266.065 160.5,268C 158.661,274.182 156.828,280.349 155,286.5C 153.581,285.54 152.081,284.707 150.5,284C 149.919,283.107 149.585,282.107 149.5,281C 151.071,275.455 152.738,269.955 154.5,264.5 Z"/></g>
<g><path style="opacity:1" fill="#ededed" d="M 163.5,269.5 C 165.252,269.418 166.252,270.251 166.5,272C 164.597,277.043 163.097,282.209 162,287.5C 160.989,288.337 159.822,288.67 158.5,288.5C 159.555,282.002 161.222,275.669 163.5,269.5 Z"/></g>
<g><path style="opacity:1" fill="#e9e9e9" d="M 169.5,272.5 C 176.699,277.607 176.032,281.607 167.5,284.5C 167.167,284 166.833,283.5 166.5,283C 167.942,279.618 168.942,276.118 169.5,272.5 Z"/></g>
<g><path style="opacity:1" fill="#f1f0f1" d="M 303.5,274.5 C 311.903,274.13 320.236,274.63 328.5,276C 293.056,277.11 273.223,295.277 269,330.5C 265.824,311.02 271.991,295.187 287.5,283C 292.483,279.344 297.816,276.511 303.5,274.5 Z"/></g>
<g><path style="opacity:1" fill="#ececec" d="M 776.5,301.5 C 777.643,301.908 778.643,302.575 779.5,303.5C 774.926,305.241 771.426,308.241 769,312.5C 768.294,310.029 768.627,307.695 770,305.5C 772.095,303.875 774.261,302.542 776.5,301.5 Z"/></g>
<g><path style="opacity:1" fill="#2a2627" d="M 914.5,314.5 C 920.55,315.771 926.384,317.771 932,320.5C 934.667,319.167 937.333,317.833 940,316.5C 945.102,318.534 950.269,320.367 955.5,322C 958.02,327.912 959.687,334.079 960.5,340.5C 958.097,340.607 956.264,339.607 955,337.5C 953.69,333.93 952.857,330.263 952.5,326.5C 948.522,325.181 944.522,323.848 940.5,322.5C 938.483,323.174 936.817,324.341 935.5,326C 936.638,331.517 937.971,337.017 939.5,342.5C 942.432,343.699 945.432,344.699 948.5,345.5C 950.861,343.988 953.361,342.654 956,341.5C 958.188,342.059 958.854,343.393 958,345.5C 956.108,347.054 954.608,348.888 953.5,351C 954.514,354.686 955.514,358.352 956.5,362C 956.167,363.167 955.833,364.333 955.5,365.5C 951.585,362.878 949.252,359.211 948.5,354.5C 945.933,354.778 943.267,354.944 940.5,355C 946.229,359.395 951.063,364.229 955,369.5C 951.5,373 948,376.5 944.5,380C 937.293,379.656 930.46,377.823 924,374.5C 922.645,368.411 920.978,362.411 919,356.5C 912.799,354.214 906.799,351.547 901,348.5C 899.799,340.802 898.799,333.135 898,325.5C 903.307,321.438 908.807,317.771 914.5,314.5 Z"/></g>
<g><path style="opacity:1" fill="#f9f9f9" d="M 914.5,320.5 C 919.192,320.841 923.526,322.341 927.5,325C 924.523,326.145 922.856,328.312 922.5,331.5C 924.14,336.252 925.473,341.085 926.5,346C 925.056,348.449 923.222,350.615 921,352.5C 916.135,350.653 911.301,348.653 906.5,346.5C 905.749,345.624 905.249,344.624 905,343.5C 904.615,338.585 903.782,333.752 902.5,329C 906.361,325.909 910.361,323.076 914.5,320.5 Z"/></g>
<g><path style="opacity:1" fill="#fcfcfc" d="M 374.5,428.5 C 375.043,428.44 375.376,428.107 375.5,427.5C 372.691,426.2 370.024,426.2 367.5,427.5C 357.375,428.959 348.875,425.959 342,418.5C 338.838,413.223 337.838,407.557 339,401.5C 343.433,393.68 349.266,392.513 356.5,398C 359.731,400.727 362.397,403.894 364.5,407.5C 365.651,408.731 366.817,408.731 368,407.5C 368.859,397.781 368.526,388.115 367,378.5C 365.503,372.002 362.337,366.502 357.5,362C 364.389,361.384 370.889,359.551 377,356.5C 376.973,358.417 376.139,360.084 374.5,361.5C 375.212,363.046 376.378,364.046 378,364.5C 382.576,358.95 388.076,354.45 394.5,351C 397.241,350.023 400.075,349.523 403,349.5C 406.932,349.826 410.766,350.326 414.5,351C 415.554,349.612 415.72,348.112 415,346.5C 407.975,343.094 400.808,342.594 393.5,345C 399.696,338.138 404.196,330.305 407,321.5C 418.258,332.438 431.424,335.438 446.5,330.5C 462.932,354.939 474.432,381.605 481,410.5C 483.287,425.583 482.954,440.583 480,455.5C 472.386,472.656 459.053,480.989 440,480.5C 419.488,478.744 402.488,470.077 389,454.5C 383.032,447.198 377.866,439.365 373.5,431C 373.743,430.098 374.077,429.265 374.5,428.5 Z"/></g>
<g><path style="opacity:1" fill="#929090" d="M 929.5,329.5 C 931.298,332.031 932.465,335.031 933,338.5C 933.833,339.333 934.667,340.167 935.5,341C 933.919,341.707 932.419,342.54 931,343.5C 929.987,339.78 928.82,336.114 927.5,332.5C 928.193,331.482 928.859,330.482 929.5,329.5 Z"/></g>
<g><path style="opacity:1" fill="#2b2728" d="M 438.5,333.5 C 441.187,333.336 443.854,333.503 446.5,334C 449.124,334.576 449.791,335.91 448.5,338C 442.666,338.055 437.499,339.888 433,343.5C 431.087,347.471 431.087,351.471 433,355.5C 438.976,366.15 446.476,375.65 455.5,384C 457.74,384.977 460.073,385.477 462.5,385.5C 462.982,377.278 460.648,369.945 455.5,363.5C 456.457,360.85 458.124,360.183 460.5,361.5C 466.326,368.476 468.826,376.476 468,385.5C 466.74,388.428 464.573,390.261 461.5,391C 466.119,396.385 468.286,402.552 468,409.5C 465.9,412.467 463.066,414.3 459.5,415C 454.5,415.667 449.5,415.667 444.5,415C 440.719,414.633 440.052,413.3 442.5,411C 447.833,410.667 453.167,410.333 458.5,410C 461.228,409.473 462.561,407.806 462.5,405C 461.964,401.093 460.464,397.593 458,394.5C 451.365,386.864 444.365,379.53 437,372.5C 430.902,365.804 427.069,357.971 425.5,349C 426.694,341.068 431.027,335.901 438.5,333.5 Z"/></g>
<g><path style="opacity:1" fill="#ececec" d="M 930.5,351.5 C 932.086,352.148 933.753,352.648 935.5,353C 940.021,358.02 944.355,363.187 948.5,368.5C 947.998,369.521 947.332,369.688 946.5,369C 941.095,362.924 935.095,357.591 928.5,353C 929.416,352.722 930.082,352.222 930.5,351.5 Z"/></g>
<g><path style="opacity:1" fill="#ebebeb" d="M 926.5,354.5 C 931.795,358.636 936.295,363.636 940,369.5C 941.214,371.049 942.714,372.215 944.5,373C 943.407,374.365 942.074,374.699 940.5,374C 935.323,367.991 929.989,362.158 924.5,356.5C 925.243,355.818 925.909,355.151 926.5,354.5 Z"/></g>
<g><path style="opacity:1" fill="#e1e1e1" d="M 925.5,361.5 C 928.36,365.355 931.36,369.188 934.5,373C 932.182,373.342 930.015,372.842 928,371.5C 926.85,368.232 926.016,364.899 925.5,361.5 Z"/></g>
<g><path style="opacity:1" fill="#2b2728" d="M 419.5,372.5 C 421.144,372.286 422.644,372.62 424,373.5C 429.401,380.864 430.734,388.864 428,397.5C 423.86,402.211 418.694,403.711 412.5,402C 404.951,397.725 399.617,391.559 396.5,383.5C 396.747,380.918 398.08,380.085 400.5,381C 404.008,387.351 408.675,392.684 414.5,397C 420.673,398.328 423.673,395.828 423.5,389.5C 422.443,383.735 421.109,378.069 419.5,372.5 Z"/></g>
<g><path style="opacity:1" fill="#282425" d="M 730.5,373.5 C 763.357,369.685 789.524,381.018 809,407.5C 814.441,415.38 819.108,423.714 823,432.5C 830.146,462.377 819.313,482.544 790.5,493C 757.37,503.32 725.037,501.32 693.5,487C 677.953,479.121 666.953,467.121 660.5,451C 659.95,423.436 671.284,402.103 694.5,387C 705.785,380.188 717.785,375.688 730.5,373.5 Z"/></g>
<g><path style="opacity:1" fill="#c7c6c6" d="M 673.5,459.5 C 669.454,445.341 671.287,432.007 679,419.5C 690.011,404.157 703.845,391.991 720.5,383C 719.906,382.536 719.239,382.369 718.5,382.5C 730.08,378.486 742.08,376.319 754.5,376C 761.711,379.852 769.044,383.519 776.5,387C 799.698,401.355 814.032,421.855 819.5,448.5C 819.352,461.14 814.352,471.307 804.5,479C 783.963,490.374 761.963,494.707 738.5,492C 713.53,488.912 692.03,478.746 674,461.5C 673.536,460.906 673.369,460.239 673.5,459.5 Z"/></g>
<g><path style="opacity:1" fill="#f5f5f5" d="M 718.5,382.5 C 719.239,382.369 719.906,382.536 720.5,383C 703.845,391.991 690.011,404.157 679,419.5C 671.287,432.007 669.454,445.341 673.5,459.5C 665.68,450.84 663.513,440.84 667,429.5C 676.384,405.282 693.55,389.615 718.5,382.5 Z"/></g>
<g><path style="opacity:1" fill="#2a2627" d="M 712.5,417.5 C 717.012,417.468 719.012,419.801 718.5,424.5C 718.909,429.726 716.576,432.392 711.5,432.5C 709.856,427.312 710.19,422.312 712.5,417.5 Z"/></g>
<g><path style="opacity:1" fill="#ededed" d="M 531.5,417.5 C 540.588,424.705 543.755,434.038 541,445.5C 538.877,453.61 534.044,459.11 526.5,462C 534.535,451.509 537.368,439.676 535,426.5C 534.111,423.324 532.945,420.324 531.5,417.5 Z"/></g>
<g><path style="opacity:1" fill="#2c2829" d="M 740.5,420.5 C 745.012,420.468 747.012,422.801 746.5,427.5C 747.048,432.865 744.715,435.532 739.5,435.5C 737.856,430.312 738.19,425.312 740.5,420.5 Z"/></g>
<g><path style="opacity:1" fill="#827f80" d="M 367.5,427.5 C 370.024,426.2 372.691,426.2 375.5,427.5C 375.376,428.107 375.043,428.44 374.5,428.5C 372.393,427.532 370.059,427.198 367.5,427.5 Z"/></g>
<g><path style="opacity:1" fill="#282425" d="M 145.5,436.5 C 147.95,436.874 148.95,438.374 148.5,441C 145.167,455.289 143.667,469.789 144,484.5C 142.667,485.833 141.333,485.833 140,484.5C 135.915,472.341 135.582,460.007 139,447.5C 140.674,443.476 142.841,439.809 145.5,436.5 Z"/></g>
<g><path style="opacity:1" fill="#2b2829" d="M 432.5,439.5 C 436.282,441.232 440.282,442.565 444.5,443.5C 445.833,443.333 447.167,443.167 448.5,443C 449.725,441.437 451.225,440.27 453,439.5C 456.292,441.95 456.125,444.45 452.5,447C 445.431,450.804 438.931,449.97 433,444.5C 432.506,442.866 432.34,441.199 432.5,439.5 Z"/></g>
<g><path style="opacity:1" fill="#292526" d="M 711.5,448.5 C 715.533,449.673 719.533,451.173 723.5,453C 729.416,453.88 735.082,453.046 740.5,450.5C 743.396,451.024 744.063,452.524 742.5,455C 733.149,459.663 723.816,459.663 714.5,455C 712.081,453.491 711.081,451.325 711.5,448.5 Z"/></g>
<g><path style="opacity:1" fill="#282425" d="M 94.5,468.5 C 96.1992,468.34 97.8659,468.506 99.5,469C 106.481,473.494 113.815,477.494 121.5,481C 122.38,482.356 122.714,483.856 122.5,485.5C 112.29,484.647 103.457,480.647 96,473.5C 94.9914,471.975 94.4914,470.308 94.5,468.5 Z"/></g>
<g><path style="opacity:1" fill="#828080" d="M 579.5,556.5 C 576.606,557.256 574.606,558.923 573.5,561.5C 569.062,557.408 564.062,554.075 558.5,551.5C 557.893,551.624 557.56,551.957 557.5,552.5C 556.128,551.488 554.795,550.488 553.5,549.5C 553.5,548.5 553.5,547.5 553.5,546.5C 545.284,547.223 538.617,544.39 533.5,538C 532.127,537.125 530.627,536.625 529,536.5C 523.319,538.622 517.485,539.455 511.5,539C 516.256,537.123 520.923,534.957 525.5,532.5C 526.594,528.725 525.261,527.725 521.5,529.5C 520.341,527.75 518.674,526.75 516.5,526.5C 516.084,524.248 514.751,522.748 512.5,522C 506.167,521.667 499.833,521.333 493.5,521C 492.167,520.333 492.167,519.667 493.5,519C 500.084,517.456 506.751,517.123 513.5,518C 524.104,520.802 533.77,525.469 542.5,532C 554.216,541.238 566.55,549.405 579.5,556.5 Z"/></g>
<g><path style="opacity:1" fill="#b1b0b0" d="M 354.5,603.5 C 349.349,602.788 344.183,602.121 339,601.5C 332.928,601.573 330.595,604.573 332,610.5C 334.708,614.104 338.208,616.604 342.5,618C 337.118,618.307 331.785,618.974 326.5,620C 323.438,621.061 320.938,622.894 319,625.5C 318.396,629.588 320.23,632.088 324.5,633C 322.714,633.785 321.214,634.951 320,636.5C 319.673,642.648 322.506,646.815 328.5,649C 343.808,651.76 358.808,655.593 373.5,660.5C 372.71,661.794 371.71,662.961 370.5,664C 371.774,664.977 371.774,665.811 370.5,666.5C 356.673,665.339 342.673,665.173 328.5,666C 325.65,668.858 325.15,672.025 327,675.5C 333.478,680.986 340.978,684.153 349.5,685C 354.552,685.726 359.552,685.559 364.5,684.5C 362.167,686.5 359.833,688.5 357.5,690.5C 353.603,694.46 349.269,697.96 344.5,701C 328.5,711.667 312.5,722.333 296.5,733C 291.966,737.199 287.799,741.699 284,746.5C 257.613,698.631 227.113,653.631 192.5,611.5C 221.753,573.118 257.253,541.785 299,517.5C 301.806,524.446 305.139,531.112 309,537.5C 324.423,559.355 339.59,581.355 354.5,603.5 Z"/></g>
<g><path style="opacity:1" fill="#bdbcbc" d="M 512.5,526.5 C 506.642,526.178 500.975,526.511 495.5,527.5C 494.711,527.217 494.044,526.717 493.5,526C 500.014,525.18 506.347,525.347 512.5,526.5 Z"/></g>
<g><path style="opacity:1" fill="#fafafa" d="M 495.5,527.5 C 500.975,526.511 506.642,526.178 512.5,526.5C 513.833,526.5 515.167,526.5 516.5,526.5C 518.674,526.75 520.341,527.75 521.5,529.5C 516.332,531.421 511.165,533.421 506,535.5C 502.398,532.951 498.898,530.284 495.5,527.5 Z"/></g>
<g><path style="opacity:1" fill="#292526" d="M 924.5,695.5 C 929.71,696.207 932.877,699.207 934,704.5C 934.667,707.833 935.333,711.167 936,714.5C 938.098,718.484 939.765,718.151 941,713.5C 942.502,703.003 939.336,694.169 931.5,687C 934.419,686.448 937.086,687.115 939.5,689C 942.293,692.081 944.46,695.581 946,699.5C 945.86,695.193 944.526,691.193 942,687.5C 937.706,681.27 932.706,675.604 927,670.5C 926.295,667.524 925.129,664.858 923.5,662.5C 910.406,623.638 891.573,587.972 867,555.5C 858.042,546.202 848.209,538.036 837.5,531C 834.299,527.614 834.965,526.281 839.5,527C 852.179,532.603 863.013,540.77 872,551.5C 898.276,586.712 918.276,625.379 932,667.5C 941.024,675.184 947.691,684.518 952,695.5C 953.035,701.515 952.035,707.182 949,712.5C 947.899,714.394 946.566,715.061 945,714.5C 944.37,718.963 941.87,721.629 937.5,722.5C 935.234,722.069 933.734,720.736 933,718.5C 932.086,710.024 929.253,702.357 924.5,695.5 Z"/></g>
<g><path style="opacity:1" fill="#242021" d="M 697.5,537.5 C 699.857,537.337 702.19,537.503 704.5,538C 714.38,542.738 724.713,546.071 735.5,548C 746.751,548.228 757.918,548.394 769,548.5C 769.456,549.744 768.956,550.577 767.5,551C 764.343,552.578 761.009,553.578 757.5,554C 749.042,554.395 740.709,554.562 732.5,554.5C 724.684,566.932 726.017,578.099 736.5,588C 751.32,594.635 765.32,593.135 778.5,583.5C 779.412,573.834 779.579,564.167 779,554.5C 783.861,562.504 785.694,571.171 784.5,580.5C 785.347,589.933 783.847,598.933 780,607.5C 775.057,611.151 769.557,613.651 763.5,615C 733.564,619.883 706.564,613.216 682.5,595C 680.57,592.742 679.07,590.242 678,587.5C 677.084,571.319 681.417,556.652 691,543.5C 693.063,541.266 695.229,539.266 697.5,537.5 Z"/></g>
<g><path style="opacity:1" fill="#2a2627" d="M 349.5,540.5 C 351.877,544.717 354.877,548.551 358.5,552C 367.885,555.892 377.551,556.559 387.5,554C 395.405,552.698 402.905,550.198 410,546.5C 411.28,546.613 412.113,547.28 412.5,548.5C 410.583,551.583 407.916,553.75 404.5,555C 391.166,559.311 377.5,560.644 363.5,559C 353.095,556.804 348.428,550.638 349.5,540.5 Z"/></g>
<g><path style="opacity:1" fill="#2c2829" d="M 557.5,552.5 C 557.56,551.957 557.893,551.624 558.5,551.5C 564.062,554.075 569.062,557.408 573.5,561.5C 590.491,572.63 608.158,573.464 626.5,564C 633.712,559.794 640.045,554.461 645.5,548C 647.45,546.504 649.45,546.337 651.5,547.5C 635.946,569.295 614.946,578.129 588.5,574C 576.354,569.339 566.021,562.172 557.5,552.5 Z"/></g>
<g><path style="opacity:1" fill="#292526" d="M 85.5,563.5 C 91.1528,572.638 96.1528,582.138 100.5,592C 100.316,593.376 99.6491,594.209 98.5,594.5C 96.9256,594.063 95.7589,593.063 95,591.5C 89.6271,581.254 84.1271,571.087 78.5,561C 81.6755,558.945 84.0088,559.778 85.5,563.5 Z"/></g>
<g><path style="opacity:1" fill="#afaeae" d="M 85.5,563.5 C 96.2691,568.051 106.602,573.384 116.5,579.5C 114.284,580.203 112.451,581.536 111,583.5C 108.058,588.406 104.891,593.072 101.5,597.5C 100.9,596.1 99.9002,595.1 98.5,594.5C 99.6491,594.209 100.316,593.376 100.5,592C 96.1528,582.138 91.1528,572.638 85.5,563.5 Z"/></g>
<g><path style="opacity:1" fill="#9e9c9c" d="M 504.5,577.5 C 509.034,577.267 513.368,578.1 517.5,580C 518.576,581.726 518.743,583.559 518,585.5C 517.107,586.081 516.107,586.415 515,586.5C 511.836,585.668 508.669,584.834 505.5,584C 503.316,582.102 502.983,579.936 504.5,577.5 Z"/></g>
<g><path style="opacity:1" fill="#292526" d="M 116.5,579.5 C 119.848,580.012 122.181,581.845 123.5,585C 125.5,585.333 127.5,585.667 129.5,586C 130.056,586.383 130.389,586.883 130.5,587.5C 131.045,589.593 131.878,591.593 133,593.5C 135.228,591.887 137.728,591.22 140.5,591.5C 141.674,592.514 142.34,593.847 142.5,595.5C 142.682,597.675 143.349,599.675 144.5,601.5C 142.654,608.191 139.488,614.191 135,619.5C 132.232,623.467 130.898,627.8 131,632.5C 134.253,627.951 138.42,624.451 143.5,622C 146.916,621.107 150.083,621.607 153,623.5C 153.331,627.527 152.998,631.527 152,635.5C 148.244,640.511 145.411,646.011 143.5,652C 144.58,655.662 146.08,659.162 148,662.5C 149.056,670.397 148.223,678.064 145.5,685.5C 143.858,688.102 142.192,690.769 140.5,693.5C 143.011,699.885 146.178,705.885 150,711.5C 155.123,713.074 160.29,714.24 165.5,715C 163.583,712.502 161.916,709.835 160.5,707C 165.643,707.447 169.143,710.281 171,715.5C 172.718,721.157 171.218,725.657 166.5,729C 149.628,737.216 132.628,737.549 115.5,730C 113.963,728.89 113.297,727.39 113.5,725.5C 116.843,725.499 119.177,723.999 120.5,721C 102.906,693.889 92.2393,664.222 88.5,632C 88.9582,627 90.1249,622.167 92,617.5C 95.451,610.933 98.6177,604.266 101.5,597.5C 104.891,593.072 108.058,588.406 111,583.5C 112.451,581.536 114.284,580.203 116.5,579.5 Z"/></g>
<g><path style="opacity:1" fill="#292526" d="M 911.5,659.5 C 912.497,663.137 912.997,666.804 913,670.5C 909.073,679.352 904.906,688.019 900.5,696.5C 901.552,696.649 902.552,696.483 903.5,696C 906.951,692.26 910.285,688.427 913.5,684.5C 914.429,685.689 914.762,687.022 914.5,688.5C 911.668,697.528 905.668,702.028 896.5,702C 894.556,699.847 894.056,697.347 895,694.5C 899.253,687.663 903.253,680.663 907,673.5C 908.15,671.246 908.484,668.913 908,666.5C 899.969,643.772 889.303,622.439 876,602.5C 871.7,597.199 867.034,592.199 862,587.5C 858.072,581.141 859.239,579.641 865.5,583C 876.392,592.968 885.226,604.468 892,617.5C 899.369,631.231 905.869,645.231 911.5,659.5 Z"/></g>
<g><path style="opacity:1" fill="#787576" d="M 391.5,584.5 C 395.499,585.928 398.999,588.261 402,591.5C 402.667,592.5 402.667,593.5 402,594.5C 400.274,595.576 398.441,595.743 396.5,595C 393.275,593.277 390.942,590.777 389.5,587.5C 389.942,586.261 390.609,585.261 391.5,584.5 Z"/></g>
<g><path style="opacity:1" fill="#fafafa" d="M 116.5,586.5 C 117.629,588.628 117.796,590.961 117,593.5C 111.659,600.174 107.325,607.507 104,615.5C 103.28,622.536 103.447,629.536 104.5,636.5C 105.5,636.5 106.5,636.5 107.5,636.5C 107.334,629.825 107.5,623.158 108,616.5C 112.775,607.284 118.775,598.951 126,591.5C 126.823,595.738 126.156,599.738 124,603.5C 119.08,608.749 115.413,614.749 113,621.5C 112.333,625.833 112.333,630.167 113,634.5C 113.615,636.116 114.615,637.449 116,638.5C 115.815,630.863 117.149,623.53 120,616.5C 125.303,609.364 131.137,602.697 137.5,596.5C 138.512,598.837 138.345,601.17 137,603.5C 132.149,610.536 127.816,617.869 124,625.5C 123.029,633.394 123.863,641.06 126.5,648.5C 127.675,648.719 128.675,648.386 129.5,647.5C 132.178,641 135.845,635.167 140.5,630C 142.37,628.634 144.37,627.467 146.5,626.5C 146.833,627 147.167,627.5 147.5,628C 143.382,633.06 139.882,638.56 137,644.5C 135.538,651.431 136.872,657.764 141,663.5C 141.667,668.833 141.667,674.167 141,679.5C 139.079,684.999 136.912,690.332 134.5,695.5C 135.5,695.5 136.5,695.5 137.5,695.5C 141.294,707.254 147.294,717.754 155.5,727C 147.368,729.293 139.202,729.793 131,728.5C 111.07,699.887 98.9037,668.22 94.5,633.5C 97.7927,615.916 105.126,600.249 116.5,586.5 Z"/></g>
<g><path style="opacity:1" fill="#282425" d="M 258.5,587.5 C 259.5,587.5 260.5,587.5 261.5,587.5C 261.657,588.873 261.49,590.207 261,591.5C 248.546,601.617 237.879,613.283 229,626.5C 228.333,624.833 228.333,623.167 229,621.5C 231.606,616.565 234.606,611.898 238,607.5C 244.729,600.603 251.562,593.937 258.5,587.5 Z"/></g>
<g><path style="opacity:1" fill="#aaa9a9" d="M 130.5,587.5 C 133.574,589.665 136.907,590.998 140.5,591.5C 137.728,591.22 135.228,591.887 133,593.5C 131.878,591.593 131.045,589.593 130.5,587.5 Z"/></g>
<g><path style="opacity:1" fill="#b1afaf" d="M 142.5,595.5 C 155.104,603.97 168.771,609.97 183.5,613.5C 202.802,638.082 221.635,663.082 240,688.5C 253.784,708.447 266.95,728.78 279.5,749.5C 278.609,750.11 277.609,750.443 276.5,750.5C 264.216,748.927 252.216,745.761 240.5,741C 212.507,727.012 185.841,711.012 160.5,693C 157.029,690.928 153.362,689.428 149.5,688.5C 149.5,689.5 149.5,690.5 149.5,691.5C 148.623,689.272 147.29,687.272 145.5,685.5C 148.223,678.064 149.056,670.397 148,662.5C 146.08,659.162 144.58,655.662 143.5,652C 145.411,646.011 148.244,640.511 152,635.5C 152.998,631.527 153.331,627.527 153,623.5C 150.083,621.607 146.916,621.107 143.5,622C 138.42,624.451 134.253,627.951 131,632.5C 130.898,627.8 132.232,623.467 135,619.5C 139.488,614.191 142.654,608.191 144.5,601.5C 143.349,599.675 142.682,597.675 142.5,595.5 Z"/></g>
<g><path style="opacity:1" fill="#282425" d="M 192.5,611.5 C 227.113,653.631 257.613,698.631 284,746.5C 287.799,741.699 291.966,737.199 296.5,733C 312.5,722.333 328.5,711.667 344.5,701C 349.269,697.96 353.603,694.46 357.5,690.5C 364.551,689.27 365.218,691.436 359.5,697C 335.268,713.897 311.602,731.563 288.5,750C 285.444,751.715 282.444,751.548 279.5,749.5C 266.95,728.78 253.784,708.447 240,688.5C 221.635,663.082 202.802,638.082 183.5,613.5C 184.167,613.5 184.833,613.5 185.5,613.5C 187.5,616.167 189.833,618.5 192.5,620.5C 191.214,617.883 189.547,615.55 187.5,613.5C 186.194,611.184 184.861,608.85 183.5,606.5C 183.833,606.167 184.167,605.833 184.5,605.5C 187.468,607.14 190.135,609.14 192.5,611.5 Z"/></g>
<g><path style="opacity:1" fill="#a6a5a5" d="M 185.5,613.5 C 186.167,613.5 186.833,613.5 187.5,613.5C 189.547,615.55 191.214,617.883 192.5,620.5C 189.833,618.5 187.5,616.167 185.5,613.5 Z"/></g>
<g><path style="opacity:1" fill="#2e2a2b" d="M 261.5,613.5 C 262.5,613.5 263.5,613.5 264.5,613.5C 264.649,614.552 264.483,615.552 264,616.5C 257.634,622.531 251.634,628.864 246,635.5C 245.308,634.975 244.808,634.308 244.5,633.5C 245.467,631.37 246.634,629.37 248,627.5C 252.703,622.965 257.203,618.298 261.5,613.5 Z"/></g>
<g><path style="opacity:1" fill="#767374" d="M 192.5,620.5 C 194.757,621.562 195.923,623.228 196,625.5C 194.198,624.211 193.031,622.544 192.5,620.5 Z"/></g>
<g><path style="opacity:1" fill="#767374" d="M 483.5,636.5 C 487.929,637.743 491.762,640.077 495,643.5C 496.167,647.667 494.667,649.167 490.5,648C 487.72,646.188 485.22,644.021 483,641.5C 482.36,639.735 482.527,638.068 483.5,636.5 Z"/></g>
<g><path style="opacity:1" fill="#838182" d="M 911.5,659.5 C 915.095,661.97 919.095,662.97 923.5,662.5C 925.129,664.858 926.295,667.524 927,670.5C 932.706,675.604 937.706,681.27 942,687.5C 944.526,691.193 945.86,695.193 946,699.5C 944.46,695.581 942.293,692.081 939.5,689C 937.086,687.115 934.419,686.448 931.5,687C 939.336,694.169 942.502,703.003 941,713.5C 939.765,718.151 938.098,718.484 936,714.5C 935.333,711.167 934.667,707.833 934,704.5C 932.877,699.207 929.71,696.207 924.5,695.5C 922.177,691.676 918.844,689.343 914.5,688.5C 914.762,687.022 914.429,685.689 913.5,684.5C 910.285,688.427 906.951,692.26 903.5,696C 902.552,696.483 901.552,696.649 900.5,696.5C 904.906,688.019 909.073,679.352 913,670.5C 912.997,666.804 912.497,663.137 911.5,659.5 Z"/></g>
<g><path style="opacity:1" fill="#292526" d="M 370.5,666.5 C 368.266,668.446 365.599,669.613 362.5,670C 352.5,670.333 342.5,670.667 332.5,671C 338.354,674.383 344.687,676.383 351.5,677C 358.5,677.333 365.5,677.667 372.5,678C 384.819,693.664 400.819,700.831 420.5,699.5C 418.584,701.317 416.251,702.484 413.5,703C 395.563,704.368 380.896,698.034 369.5,684C 367.803,683.616 366.137,683.782 364.5,684.5C 359.552,685.559 354.552,685.726 349.5,685C 340.978,684.153 333.478,680.986 327,675.5C 325.15,672.025 325.65,668.858 328.5,666C 342.673,665.173 356.673,665.339 370.5,666.5 Z"/></g>
<g><path style="opacity:1" fill="#292526" d="M 468.5,672.5 C 483.189,672.561 496.856,676.395 509.5,684C 523.333,694.339 537,704.839 550.5,715.5C 547.037,717.494 543.37,718.327 539.5,718C 532.875,713.709 527.209,708.376 522.5,702C 511.215,691.521 498.215,683.854 483.5,679C 478.511,678.251 473.511,677.585 468.5,677C 466.069,675.568 466.069,674.068 468.5,672.5 Z"/></g>
<g><path style="opacity:1" fill="#737071" d="M 585.5,682.5 C 590.123,681.408 591.956,683.075 591,687.5C 587.703,690.572 583.87,692.072 579.5,692C 577.789,690.867 577.289,689.367 578,687.5C 580.479,685.686 582.979,684.019 585.5,682.5 Z"/></g>
<g><path style="opacity:1" fill="#292526" d="M 276.5,750.5 C 276.298,751.364 275.964,752.364 275.5,753.5C 273.137,754.677 270.637,755.343 268,755.5C 259.848,754.47 252.014,752.303 244.5,749C 211.085,732.354 179.418,713.187 149.5,691.5C 149.5,690.5 149.5,689.5 149.5,688.5C 153.362,689.428 157.029,690.928 160.5,693C 185.841,711.012 212.507,727.012 240.5,741C 252.216,745.761 264.216,748.927 276.5,750.5 Z"/></g>
<g><path style="opacity:1" fill="#2a2627" d="M 177.5,722.5 C 178.552,722.351 179.552,722.517 180.5,723C 193.59,744.716 212.923,755.216 238.5,754.5C 238.64,756.124 237.973,757.29 236.5,758C 225.489,761.593 214.822,760.593 204.5,755C 194.711,748.878 186.544,741.045 180,731.5C 178.092,728.794 177.259,725.794 177.5,722.5 Z"/></g>
<g><path style="opacity:1" fill="#757273" d="M 500.5,724.5 C 504,724.495 505.5,726.162 505,729.5C 500.722,731.723 496.888,734.557 493.5,738C 489.333,739.167 487.833,737.667 489,733.5C 492.733,730.255 496.566,727.255 500.5,724.5 Z"/></g>
<g><path style="opacity:1" fill="#2a2627" d="M 110.5,732.5 C 111.675,732.281 112.675,732.614 113.5,733.5C 134.022,764.189 159.689,789.689 190.5,810C 204.029,816.967 218.362,819.967 233.5,819C 243.163,816.82 251.163,811.987 257.5,804.5C 258.419,807.626 257.919,810.626 256,813.5C 243.29,825.386 228.457,829.219 211.5,825C 192.868,819.003 176.202,809.67 161.5,797C 143.164,780.669 126.997,762.503 113,742.5C 111.539,739.321 110.705,735.988 110.5,732.5 Z"/></g>
<g><path style="opacity:1" fill="#a09e9e" d="M 559.5,748.5 C 563.273,747.822 566.106,749.156 568,752.5C 569.914,754.748 571.414,757.248 572.5,760C 570.687,763.911 568.187,764.411 565,761.5C 563,758.833 561,756.167 559,753.5C 558.36,751.735 558.527,750.068 559.5,748.5 Z"/></g>
<g><path style="opacity:1" fill="#a4a2a2" d="M 162.5,752.5 C 165.85,752.335 169.183,752.502 172.5,753C 175.495,757.495 174.161,759.662 168.5,759.5C 166.077,759.406 163.744,758.906 161.5,758C 160.243,755.924 160.576,754.09 162.5,752.5 Z"/></g>
<g><path style="opacity:1" fill="#979595" d="M 736.5,767.5 C 734.167,768.167 731.833,768.833 729.5,769.5C 726.821,768.774 724.154,767.941 721.5,767C 726.456,767.251 731.456,767.418 736.5,767.5 Z"/></g>
<g><path style="opacity:1" fill="#757273" d="M 196.5,775.5 C 199.288,775.077 201.288,776.077 202.5,778.5C 200.833,781.833 199.167,785.167 197.5,788.5C 193.876,790.396 191.876,789.396 191.5,785.5C 192.115,781.603 193.782,778.27 196.5,775.5 Z"/></g>
<g><path style="opacity:1" fill="#9e9c9c" d="M 239.5,775.5 C 243.182,775.335 246.848,775.501 250.5,776C 252.283,777.067 252.783,778.567 252,780.5C 248.256,781.626 244.423,781.793 240.5,781C 238.365,779.444 238.032,777.611 239.5,775.5 Z"/></g>
<g><path style="opacity:1" fill="#282425" d="M 883.5,803.5 C 879.71,796.899 875.21,790.899 870,785.5C 868.941,785.63 868.108,786.13 867.5,787C 871.933,793.046 876.933,798.546 882.5,803.5C 883.684,804.688 883.684,805.855 882.5,807C 878.614,809.11 874.614,810.943 870.5,812.5C 865.955,809.975 861.455,807.308 857,804.5C 856.169,798.141 856.336,791.807 857.5,785.5C 862.462,782.513 867.796,780.513 873.5,779.5C 885.592,783.952 888.926,791.952 883.5,803.5 Z"/></g>
<g><path style="opacity:1" fill="#a4a2a2" d="M 883.5,803.5 C 883.167,803.5 882.833,803.5 882.5,803.5C 876.933,798.546 871.933,793.046 867.5,787C 868.108,786.13 868.941,785.63 870,785.5C 875.21,790.899 879.71,796.899 883.5,803.5 Z"/></g>
<g><path style="opacity:1" fill="#a3a2a2" d="M 861.5,788.5 C 863.39,788.297 864.89,788.963 866,790.5C 869.118,795.286 872.618,799.786 876.5,804C 875.216,804.684 874.049,804.517 873,803.5C 868.544,798.89 864.71,793.89 861.5,788.5 Z"/></g>
<g><path style="opacity:1" fill="#7e7b7c" d="M 876.5,788.5 C 876.56,787.957 876.893,787.624 877.5,787.5C 880.25,788.716 881.417,790.716 881,793.5C 879.483,791.76 877.983,790.094 876.5,788.5 Z"/></g>
<g><path style="opacity:1" fill="#a4a3a3" d="M 860.5,792.5 C 864.258,797.435 868.258,802.268 872.5,807C 868.461,806.655 864.794,805.155 861.5,802.5C 860.513,799.232 860.18,795.898 860.5,792.5 Z"/></g>
<g><path style="opacity:1" fill="#2b2829" d="M 831.5,846.5 C 832.739,847.212 833.239,848.212 833,849.5C 830.286,852.551 827.286,855.218 824,857.5C 819.257,856.738 814.924,855.071 811,852.5C 809.564,847.868 808.564,843.201 808,838.5C 811.728,835.101 815.728,832.101 820,829.5C 823.991,830.883 827.825,832.55 831.5,834.5C 832.915,838.409 833.915,842.409 834.5,846.5C 833.5,846.5 832.5,846.5 831.5,846.5 Z"/></g>
<g><path style="opacity:1" fill="#e9e8e8" d="M 831.5,846.5 C 826.134,843.979 821.134,840.812 816.5,837C 817.275,835.77 818.275,835.437 819.5,836C 823.693,839.365 827.693,842.865 831.5,846.5 Z"/></g>
<g><path style="opacity:1" fill="#9d9c9c" d="M 823.5,836.5 C 825.263,835.666 826.93,836.166 828.5,838C 826.718,838.122 825.052,837.622 823.5,836.5 Z"/></g>
<g><path style="opacity:1" fill="#dbdada" d="M 812.5,839.5 C 813.552,839.351 814.552,839.517 815.5,840C 819.217,843.385 823.217,846.385 827.5,849C 826.5,849.667 825.5,849.667 824.5,849C 820.334,846.083 816.001,843.416 811.5,841C 812.056,840.617 812.389,840.117 812.5,839.5 Z"/></g>
<g><path style="opacity:1" fill="#dedede" d="M 812.5,844.5 C 816.736,846.723 820.736,849.389 824.5,852.5C 821.167,853.015 817.834,852.515 814.5,851C 813.603,848.913 812.936,846.746 812.5,844.5 Z"/></g>
<g><path style="opacity:1" fill="#2a2627" d="M 271.5,855.5 C 276.588,855.485 281.421,856.485 286,858.5C 287.07,861.876 288.236,865.21 289.5,868.5C 289.167,869.167 288.833,869.833 288.5,870.5C 283.248,867.291 278.082,863.958 273,860.5C 272.167,861.333 271.333,862.167 270.5,863C 276.198,865.849 281.864,868.682 287.5,871.5C 288.583,872.365 288.749,873.365 288,874.5C 286.285,876.759 284.452,878.926 282.5,881C 277.81,881.332 273.143,880.998 268.5,880C 266.123,875.549 264.123,870.882 262.5,866C 265.322,862.345 268.322,858.845 271.5,855.5 Z"/></g>
<g><path style="opacity:1" fill="#c7c7c7" d="M 278.5,861.5 C 279.849,860.203 281.182,860.37 282.5,862C 281.181,862.195 279.847,862.028 278.5,861.5 Z"/></g>
<g><path style="opacity:1" fill="#d5d5d5" d="M 266.5,865.5 C 272.644,867.238 278.31,870.072 283.5,874C 282.5,874.667 281.5,874.667 280.5,874C 276.333,871.552 272,869.385 267.5,867.5C 266.702,867.043 266.369,866.376 266.5,865.5 Z"/></g>
<g><path style="opacity:1" fill="#e4e4e4" d="M 268.5,870.5 C 272.606,872.388 276.606,874.554 280.5,877C 277.106,877.752 273.773,877.585 270.5,876.5C 269.232,874.696 268.565,872.696 268.5,870.5 Z"/></g>
</svg>
