<?xml version="1.0" standalone="no"?>
<!DOCTYPE svg PUBLIC "-//W3C//DTD SVG 20010904//EN"
 "http://www.w3.org/TR/2001/REC-SVG-20010904/DTD/svg10.dtd">
<svg version="1.0" xmlns="http://www.w3.org/2000/svg"
 width="1040.000000pt" height="1041.000000pt" viewBox="0 0 1040.000000 1041.000000"
 preserveAspectRatio="xMidYMid meet">

<g transform="translate(0.000000,1041.000000) scale(0.100000,-0.100000)"
fill="#000000" stroke="none">
<path d="M7175 9284 c-551 -68 -1317 -79 -2635 -39 -746 23 -1500 30 -1738 16
-315 -18 -416 -42 -454 -107 -54 -92 -73 -344 -59 -775 31 -913 53 -1295 73
-1263 35 55 45 456 24 980 -25 635 -21 771 30 884 48 108 102 139 318 182 108
22 128 23 671 22 308 -1 706 -6 885 -13 700 -24 1238 -33 1755 -28 650 7 944
25 1254 78 126 21 215 54 191 69 -21 13 -184 10 -315 -6z"/>
<path d="M7650 9235 c0 -11 11 -125 24 -254 13 -129 25 -297 25 -372 l2 -138
-66 -30 c-289 -131 -455 -385 -415 -636 22 -138 88 -240 206 -316 35 -23 66
-49 69 -58 3 -9 -4 -42 -14 -72 -70 -198 -116 -505 -101 -671 18 -198 84 -316
257 -459 48 -40 91 -78 95 -84 4 -5 8 -200 8 -432 0 -268 4 -423 10 -423 5 0
17 15 27 33 15 27 18 68 21 290 l4 259 21 -6 c125 -31 237 -2 395 103 33 23
73 57 88 76 24 33 35 78 21 92 -4 3 -35 -21 -70 -53 -88 -82 -203 -139 -277
-138 -63 1 -127 29 -159 70 -17 22 -29 64 -18 64 1 0 43 9 93 19 100 21 156
46 193 85 14 14 31 26 38 26 29 0 166 64 236 110 126 82 195 164 212 250 7 34
4 32 -87 -58 -101 -100 -147 -135 -250 -187 -243 -125 -511 -95 -658 73 -152
172 -169 460 -53 877 20 72 37 131 38 133 2 2 32 -5 67 -16 34 -11 85 -23 113
-27 33 -5 60 -16 83 -36 27 -24 37 -27 52 -19 11 6 20 16 20 23 0 9 36 16 113
25 143 15 267 50 379 106 l88 43 -7 -26 c-12 -43 -8 -193 5 -238 7 -23 28 -62
46 -86 l33 -43 -28 -55 c-38 -73 -61 -152 -53 -183 3 -14 17 -37 30 -51 50
-54 126 -22 220 93 61 77 109 97 152 65 37 -28 42 -96 11 -160 -33 -69 -93
-103 -181 -103 -55 0 -66 -3 -62 -15 8 -20 88 -48 124 -43 l30 5 0 -53 c0 -29
3 -61 7 -71 6 -16 5 -16 -11 -4 -25 21 -41 -1 -39 -53 4 -113 140 -278 291
-354 153 -77 341 -93 474 -43 92 35 195 116 255 199 71 100 96 178 91 290 -7
154 -61 251 -256 456 -172 180 -167 166 -167 451 l0 230 -34 69 c-46 93 -144
192 -234 236 -106 52 -239 53 -353 4 -8 -3 -13 25 -16 88 -6 100 -28 163 -61
174 -29 9 -32 -3 -13 -43 21 -45 31 -127 22 -178 l-7 -38 -41 84 c-88 181
-315 346 -545 394 -37 8 -111 15 -163 15 -84 0 -114 -4 -207 -25 -22 -5 -23
-3 -23 67 0 170 -39 473 -77 593 -26 82 -43 115 -43 80z m35 -867 c-60 -43
-181 -175 -218 -238 -61 -106 -82 -186 -82 -320 0 -102 3 -122 27 -180 l27
-65 -49 52 c-71 77 -94 143 -95 268 0 95 2 104 38 180 52 108 167 222 285 283
92 46 113 53 67 20z"/>
<path d="M9182 8517 c-15 -16 -25 -46 -33 -98 -13 -90 -3 -142 29 -147 17 -3
23 4 31 35 49 183 51 207 22 223 -26 13 -24 14 -49 -13z"/>
<path d="M9531 8325 c-99 -37 -170 -96 -157 -131 7 -18 51 -18 80 1 13 9 68
27 122 40 121 31 144 42 144 71 0 16 -9 25 -31 33 -47 16 -86 12 -158 -14z"/>
<path d="M8074 7306 c-13 -34 1 -49 53 -61 57 -13 118 -53 128 -84 13 -42 75
-33 75 11 0 32 -86 115 -137 132 -59 20 -112 21 -119 2z"/>
<path d="M1201 7301 c-16 -11 -12 -48 18 -145 33 -111 62 -161 91 -161 22 0
25 5 28 38 2 22 -1 51 -7 65 -42 113 -53 140 -76 174 -27 40 -32 43 -54 29z"/>
<path d="M7637 7273 c-4 -3 -7 -17 -7 -29 0 -18 12 -29 55 -49 49 -24 105 -74
105 -95 0 -5 -36 -50 -81 -102 -119 -137 -155 -221 -111 -261 48 -44 262 -50
262 -8 0 5 -36 14 -80 20 -85 13 -140 28 -140 40 0 18 70 114 141 194 98 108
100 125 32 199 -58 62 -155 112 -176 91z"/>
<path d="M7631 7133 c-20 -16 -21 -24 -14 -73 7 -48 12 -56 37 -65 24 -8 31
-6 47 14 25 31 24 82 -2 115 -24 31 -39 32 -68 9z"/>
<path d="M7946 7079 c-22 -31 -20 -36 12 -44 15 -3 55 -24 90 -46 64 -39 86
-46 96 -30 14 21 -102 123 -156 136 -20 5 -29 2 -42 -16z"/>
<path d="M5107 7069 c-515 -44 -914 -342 -1029 -769 -33 -122 -33 -340 0 -454
71 -247 253 -486 485 -636 93 -61 97 -65 97 -100 0 -20 -16 -92 -35 -161 -40
-142 -42 -165 -17 -178 46 -24 255 38 360 107 51 33 83 74 69 88 -3 4 -50 -14
-104 -39 -84 -40 -241 -92 -249 -84 -2 1 13 43 33 91 19 49 38 106 40 128 5
37 7 38 45 38 38 0 38 0 23 23 -8 13 -47 43 -85 68 -270 169 -446 352 -536
555 -72 163 -89 357 -46 519 81 302 322 542 659 656 540 182 1161 -25 1470
-490 45 -67 87 -167 115 -269 45 -167 18 -413 -62 -573 -133 -262 -389 -447
-723 -520 -98 -21 -324 -49 -405 -49 -29 0 -51 -4 -48 -8 3 -5 40 -20 83 -33
67 -20 97 -23 213 -22 322 2 595 121 812 352 135 144 199 287 224 503 33 274
-16 487 -159 701 -247 369 -751 597 -1230 556z"/>
<path d="M2475 7016 c-136 -32 -267 -106 -350 -198 -26 -29 -50 -47 -53 -42
-35 51 -155 88 -268 82 -189 -10 -332 -140 -365 -330 -18 -106 8 -225 62 -284
19 -21 19 -21 -50 -73 -230 -171 -393 -535 -392 -876 0 -216 51 -375 173 -542
101 -139 252 -242 429 -294 109 -32 346 -38 447 -11 64 16 72 17 67 3 -4 -9
-9 -29 -12 -46 l-6 -30 44 43 c24 23 75 68 113 100 83 68 166 148 186 180 23
35 122 65 200 60 209 -13 320 -209 320 -568 0 -313 -58 -648 -245 -1420 -88
-359 -141 -594 -174 -766 -21 -111 -52 -193 -82 -220 -18 -16 -43 -18 -212
-19 -213 -1 -279 -13 -409 -74 -143 -68 -190 -129 -81 -104 31 8 52 8 60 2 8
-7 31 0 72 20 33 17 100 43 148 58 85 25 97 26 313 26 216 -1 229 -2 310 -28
47 -15 89 -31 94 -35 10 -10 12 -10 -122 20 -77 17 -111 20 -188 14 -84 -6
-116 -15 -101 -30 2 -2 40 -11 83 -19 201 -37 342 -79 459 -137 45 -23 108
-68 102 -74 -2 -2 -46 14 -98 35 -105 43 -263 86 -279 76 -20 -12 -10 -45 20
-60 16 -8 36 -15 44 -15 41 0 276 -145 276 -170 0 -19 -27 -10 -136 43 -243
120 -286 134 -258 89 6 -9 64 -54 130 -99 65 -45 123 -89 129 -97 32 -50 -60
-8 -215 99 -58 40 -120 80 -139 90 -33 17 -35 17 -47 0 -18 -24 -6 -44 74
-127 64 -66 72 -86 22 -51 -14 10 -71 54 -127 100 -113 91 -131 98 -269 107
-105 6 -138 17 -176 54 -22 20 -28 22 -28 9 0 -24 58 -86 89 -95 17 -4 -14 -9
-89 -12 -69 -3 -114 -9 -113 -15 3 -12 130 -22 336 -26 82 -2 151 -7 153 -11
3 -5 -82 -8 -188 -8 -192 0 -238 -4 -238 -21 0 -5 73 -9 162 -9 89 0 159 -2
157 -4 -2 -3 -47 -7 -99 -11 -121 -7 -143 -25 -34 -26 43 -1 111 -4 149 -8
l70 -6 -65 -7 c-36 -4 -73 -10 -83 -13 -44 -17 8 -25 169 -25 169 0 176 -1
207 -24 52 -39 117 -67 145 -64 33 4 41 38 18 73 -9 13 -16 26 -16 29 0 2 32
-14 70 -36 117 -68 199 -63 188 11 l-4 29 52 -5 c47 -5 53 -3 68 19 19 28 11
63 -20 88 -16 14 -14 15 27 20 44 5 44 5 43 43 -2 53 -47 97 -154 151 -69 35
-84 46 -77 58 15 23 0 63 -29 83 -14 9 -73 29 -130 43 -74 19 -103 31 -99 40
3 7 12 61 20 120 25 173 69 377 190 887 172 723 214 953 236 1276 23 341 -22
551 -144 685 -71 78 -140 109 -242 109 -44 0 -93 -4 -108 -8 l-29 -8 9 43 c4
24 8 86 8 139 0 87 -3 102 -30 155 -19 37 -47 71 -75 92 -25 19 -58 45 -75 58
l-29 23 44 -10 c24 -6 62 -7 85 -3 39 6 105 39 105 52 0 4 -31 7 -68 7 -56 0
-79 5 -127 30 -116 59 -153 150 -100 240 33 58 83 82 136 66 32 -10 51 -27
104 -100 84 -114 125 -151 170 -151 24 0 39 7 54 26 33 41 27 100 -18 207 -68
159 -72 257 -16 353 28 48 92 106 148 135 l37 20 -6 -39 c-10 -67 47 -87 61
-22 4 18 24 48 44 68 32 30 53 39 168 68 196 49 275 85 349 158 78 78 98 133
92 250 -8 136 -68 230 -185 288 -82 40 -172 49 -256 24 -60 -17 -151 -83 -162
-115 -6 -19 -11 -16 -63 26 -129 105 -332 155 -487 119z m930 -125 c49 -22 99
-70 128 -125 30 -58 31 -174 0 -232 -20 -38 -90 -110 -99 -102 -2 2 7 24 19
49 31 63 31 193 -1 263 -33 73 -67 112 -125 147 l-52 31 45 -7 c24 -3 62 -14
85 -24z m-1445 -116 c25 -9 55 -23 68 -33 l22 -17 -22 -57 -23 -56 -35 30
c-92 79 -218 102 -329 60 l-54 -21 24 25 c25 27 111 72 162 85 41 10 130 3
187 -16z m428 -5502 c-10 -2 -28 -2 -40 0 -13 2 -5 4 17 4 22 1 32 -1 23 -4z"/>
<path d="M7906 6979 c-28 -33 -35 -86 -14 -107 7 -7 27 -12 44 -12 67 0 96 89
43 133 -30 24 -43 22 -73 -14z m34 -49 c0 -5 -5 -10 -11 -10 -5 0 -7 5 -4 10
3 6 8 10 11 10 2 0 4 -4 4 -10z"/>
<path d="M1070 6840 c-8 -5 -27 -11 -41 -14 -15 -3 -37 -14 -49 -24 -20 -16
-21 -21 -10 -41 11 -21 16 -23 68 -16 85 10 122 29 122 59 0 38 -51 59 -90 36z"/>
<path d="M7712 6587 c-6 -6 -13 -24 -17 -39 -5 -21 -1 -33 19 -52 30 -31 49
-33 76 -6 25 25 26 72 2 93 -22 20 -65 22 -80 4z"/>
<path d="M8447 6125 c187 -172 335 -390 447 -656 230 -550 340 -1388 230
-1765 -75 -259 -196 -389 -394 -425 -59 -10 -78 -10 -136 5 -152 38 -298 132
-523 336 -79 72 -147 130 -152 130 -34 0 15 -92 93 -175 197 -211 448 -360
640 -380 189 -20 387 85 476 253 36 67 75 206 93 332 19 126 16 504 -5 680
-40 339 -151 783 -261 1040 -88 207 -234 438 -349 554 -66 66 -191 146 -227
146 -8 0 23 -34 68 -75z"/>
<path d="M3224 6140 c-73 -36 -117 -79 -112 -110 3 -21 5 -20 50 14 47 36 68
44 68 27 0 -5 12 -23 26 -40 29 -35 77 -43 88 -14 9 23 -20 116 -42 136 -18
16 -22 15 -78 -13z"/>
<path d="M4640 6080 c-50 -53 -51 -126 -3 -174 21 -21 35 -26 75 -26 43 0 54
4 84 34 29 29 34 41 34 81 0 40 -5 52 -34 81 -29 29 -41 34 -81 34 -39 0 -52
-5 -75 -30z"/>
<path d="M5248 6057 c-52 -42 -65 -128 -25 -165 56 -52 125 -56 173 -8 30 30
34 41 34 84 0 72 -29 99 -109 100 -32 0 -65 -5 -73 -11z m82 -17 c0 -5 -10
-10 -22 -10 -19 0 -20 2 -8 10 19 13 30 13 30 0z"/>
<path d="M5840 6056 c-44 -16 -80 -68 -80 -115 1 -60 47 -101 114 -101 75 0
116 42 116 119 0 78 -73 126 -150 97z"/>
<path d="M3450 6009 c0 -6 21 -30 48 -54 26 -24 45 -45 42 -47 -3 -1 -19 -16
-36 -31 l-31 -28 -37 50 c-20 28 -40 51 -45 51 -6 0 3 -30 18 -67 64 -155 99
-301 77 -323 -22 -22 -68 -11 -103 27 -28 29 -38 35 -52 26 -63 -40 48 -145
136 -128 l33 6 -6 -43 c-23 -163 -101 -290 -215 -348 -98 -51 -282 -67 -404
-35 -57 15 -168 65 -227 103 -34 21 -54 6 -44 -32 15 -60 189 -137 350 -155
222 -26 413 47 511 194 66 100 79 157 79 335 0 135 -3 163 -22 214 l-22 59 50
53 c28 29 50 62 50 73 0 11 -18 34 -42 54 -66 53 -108 71 -108 46z"/>
<path d="M8472 5588 c-20 -20 -14 -34 27 -71 43 -39 91 -67 114 -67 40 0 45
63 7 75 -11 3 -38 22 -61 41 -43 36 -67 42 -87 22z"/>
<path d="M7342 5428 c-20 -20 -14 -73 14 -114 14 -21 60 -75 103 -119 127
-133 133 -143 41 -75 -47 35 -108 74 -136 87 -127 58 -204 4 -116 -82 l37 -37
-32 7 c-40 8 -73 -9 -73 -38 0 -41 51 -96 213 -226 62 -50 79 -71 59 -71 -4 0
-47 16 -95 36 -54 22 -100 34 -120 32 -28 -3 -32 -7 -35 -37 -3 -30 4 -41 65
-100 116 -113 267 -201 345 -201 43 0 37 5 -132 118 -115 77 -208 152 -188
152 3 0 39 -15 79 -34 101 -45 134 -52 164 -32 52 34 26 75 -137 216 -65 56
-118 103 -118 105 0 8 49 -14 92 -41 24 -15 80 -56 126 -92 75 -58 85 -63 99
-50 10 11 13 23 8 39 -10 30 -109 134 -197 206 -101 82 -87 96 22 23 83 -55
218 -129 224 -122 3 3 6 20 6 37 0 39 -33 90 -109 170 -93 98 -131 144 -131
160 0 14 3 14 28 1 81 -42 202 -183 258 -301 58 -123 65 -165 73 -450 5 -143
12 -271 18 -284 9 -22 10 -21 22 20 14 47 28 168 38 331 5 86 3 112 -9 130 -8
13 -18 47 -22 76 -13 100 -53 204 -115 297 -66 100 -184 221 -248 254 -47 23
-102 28 -121 9z"/>
<path d="M8158 5229 c-61 -43 -64 -48 -48 -80 16 -29 40 -23 102 26 50 39 56
48 49 67 -13 36 -41 32 -103 -13z"/>
<path d="M7990 4659 c0 -11 15 -33 33 -47 133 -108 307 -321 447 -547 49 -80
74 -111 90 -113 20 -3 22 0 17 25 -10 58 -168 375 -224 450 -24 33 -61 59 -70
50 -2 -3 3 -18 12 -34 17 -27 16 -27 -6 2 -12 17 -59 67 -103 111 -107 107
-196 154 -196 103z"/>
<path d="M8747 4623 c-19 -18 -3 -51 42 -90 53 -46 71 -52 90 -29 34 41 -94
157 -132 119z"/>
<path d="M6197 4528 c-8 -22 23 -61 109 -137 148 -131 231 -174 253 -133 14
27 -31 89 -96 133 -26 17 -59 42 -73 55 -40 36 -142 94 -166 94 -12 0 -24 -6
-27 -12z"/>
<path d="M5822 4397 c-6 -6 -18 -50 -27 -96 -25 -119 -9 -201 39 -201 19 0 25
8 34 43 14 56 25 208 16 241 -7 28 -43 36 -62 13z"/>
<path d="M1688 4199 c-99 -101 -242 -280 -375 -469 -298 -421 -616 -1114 -742
-1617 -29 -114 -38 -183 -25 -183 18 0 47 26 58 51 l12 29 40 -56 c21 -32 56
-70 77 -85 55 -40 99 -44 198 -18 161 41 288 19 534 -95 113 -52 121 -58 137
-97 32 -74 42 -47 49 127 6 162 20 248 65 409 l25 90 70 2 c95 3 128 22 95 56
-16 15 -110 32 -126 22 -6 -3 -10 -2 -10 3 0 11 147 443 153 448 2 2 48 8 102
14 138 14 198 34 166 55 -12 7 -166 27 -203 27 -16 0 -28 1 -28 2 0 7 124 345
178 486 61 159 116 321 151 445 24 86 38 205 22 190 -6 -6 -44 -109 -86 -229
-41 -121 -78 -222 -81 -225 -8 -7 -5 3 31 124 25 85 45 217 31 204 -3 -3 -40
-105 -80 -225 -41 -120 -130 -381 -199 -579 -70 -198 -142 -412 -161 -475
l-36 -115 -217 -3 c-355 -5 -569 -29 -717 -81 -31 -11 -56 -16 -56 -12 0 24
152 386 230 547 l92 191 81 7 c45 3 111 6 147 6 70 0 140 15 140 30 0 5 -8 14
-18 19 -20 11 -157 30 -243 34 l-56 2 54 100 c30 55 74 129 98 165 23 36 70
111 103 166 61 104 154 233 297 409 94 117 129 170 122 188 -3 7 -43 -27 -99
-84z"/>
<path d="M7720 4208 c0 -9 -6 -74 -14 -145 -8 -70 -20 -216 -26 -323 -31 -558
-113 -803 -345 -1035 -131 -131 -300 -233 -486 -294 -59 -19 -296 -56 -519
-81 -338 -38 -1243 -40 -2295 -6 -707 22 -800 23 -819 5 -13 -12 19 -36 64
-49 109 -32 1100 -64 1980 -65 581 0 722 4 1085 30 33 3 229 9 435 14 755 20
1221 43 1266 63 27 12 21 13 -66 16 l-95 4 55 14 c98 26 82 34 -75 36 -83 1
-132 3 -110 5 22 2 64 8 94 14 78 16 45 30 -54 24 -44 -3 -161 -1 -260 4
l-180 8 226 0 c125 0 232 3 238 7 6 4 11 14 11 22 0 11 -18 14 -87 15 -49 1
-113 4 -143 9 l-55 7 56 2 c37 1 61 6 69 16 11 13 -7 15 -155 15 l-168 0 60
63 c191 200 294 470 338 891 19 185 19 459 0 606 -13 101 -25 151 -25 108z"/>
<path d="M8212 3953 c-33 -17 -55 -35 -58 -49 -13 -52 28 -58 99 -14 47 30 58
55 35 78 -16 16 -16 16 -76 -15z"/>
<path d="M8682 3718 c-22 -22 -13 -45 31 -80 59 -49 79 -58 100 -47 30 17 19
46 -37 93 -55 48 -74 54 -94 34z"/>
</g>
</svg>
