<?xml version="1.0" standalone="no"?>
<!DOCTYPE svg PUBLIC "-//W3C//DTD SVG 20010904//EN"
 "http://www.w3.org/TR/2001/REC-SVG-20010904/DTD/svg10.dtd">
<svg version="1.0" xmlns="http://www.w3.org/2000/svg"
 width="1040.000000pt" height="1041.000000pt" viewBox="0 0 1040.000000 1041.000000"
 preserveAspectRatio="xMidYMid meet">

<g transform="translate(0.000000,1041.000000) scale(0.100000,-0.100000)"
fill="#000000" stroke="none">
<path d="M5493 9610 c-160 -29 -311 -136 -387 -273 -48 -86 -69 -166 -70 -270
-1 -74 2 -91 17 -101 9 -7 17 -20 17 -28 0 -13 -20 -16 -107 -20 -91 -4 -119
-9 -178 -34 -306 -130 -506 -455 -444 -723 28 -125 123 -246 236 -301 56 -28
82 -35 152 -38 216 -12 368 80 465 281 25 50 48 105 52 120 8 35 62 73 132 93
44 13 52 19 52 40 0 34 -20 39 -82 20 -29 -8 -54 -14 -55 -12 -2 1 15 40 37
85 22 45 40 89 40 97 0 11 15 14 63 14 75 0 131 -15 270 -69 124 -48 176 -53
212 -17 l23 23 21 -28 c12 -15 21 -31 21 -34 0 -15 -70 -45 -107 -45 -54 0
-109 19 -255 86 -115 53 -188 69 -203 44 -3 -5 1 -10 10 -10 8 0 75 -30 148
-66 72 -37 156 -75 186 -85 60 -21 145 -25 188 -8 39 15 93 69 93 94 0 12 -20
50 -45 85 -25 36 -51 81 -57 101 -33 111 57 189 159 137 72 -36 88 -64 88
-158 0 -72 -3 -82 -32 -124 -18 -26 -33 -51 -33 -56 0 -32 134 -53 194 -30
118 44 191 234 166 432 -48 387 -281 666 -635 759 -91 24 -270 33 -352 19z
m908 -705 c50 -238 0 -400 -141 -464 -67 -31 -80 -25 -34 14 54 45 101 119
126 198 26 79 27 242 4 342 -9 39 -19 79 -21 90 -3 11 7 -5 21 -35 15 -30 35
-95 45 -145z m-1956 -761 c31 -62 87 -112 169 -150 145 -66 355 -14 491 122
l38 38 -33 -62 c-97 -183 -328 -259 -507 -168 -111 56 -195 185 -200 306 -2
65 -2 65 7 17 5 -27 20 -73 35 -103z"/>
<path d="M5443 8163 c-18 -7 -16 -30 7 -91 25 -65 25 -77 0 -102 -26 -26 -29
-26 -90 16 -53 36 -82 41 -88 12 -4 -21 41 -63 97 -90 41 -20 47 -20 85 -7 60
21 83 70 67 146 -11 57 -38 114 -56 119 -6 1 -16 0 -22 -3z"/>
<path d="M6617 8080 c-27 -18 -53 -78 -72 -170 -21 -101 -53 -170 -94 -200
-17 -11 -59 -34 -93 -51 l-63 -30 66 4 c139 9 223 87 254 235 9 42 20 84 24
92 22 41 163 37 342 -9 367 -95 800 -311 1099 -549 162 -129 407 -390 459
-489 18 -35 13 -136 -10 -198 -49 -132 -205 -316 -380 -450 -73 -56 -144 -98
-263 -156 -90 -43 -168 -79 -173 -78 -4 0 -28 30 -52 67 -24 37 -63 90 -88
117 l-44 50 57 -115 c62 -126 68 -151 118 -505 39 -281 49 -428 49 -735 -2
-675 -103 -1287 -325 -1958 -33 -101 -38 -128 -30 -148 17 -36 83 -74 190
-110 l97 -32 7 -49 c3 -26 7 -123 7 -215 1 -197 23 -167 -189 -257 -195 -82
-249 -114 -256 -150 -5 -25 -11 -29 -53 -35 -26 -3 -56 -12 -66 -20 -18 -13
-17 -15 20 -25 60 -16 312 -12 465 8 74 10 122 19 105 20 -27 2 -24 5 32 31
43 19 69 39 83 62 11 18 20 36 20 41 0 15 -40 6 -126 -27 -125 -48 -224 -67
-319 -64 l-80 3 45 24 c25 13 107 50 183 82 161 67 184 81 198 117 7 17 9 105
7 230 -3 228 -10 213 78 191 52 -13 48 30 33 -383 -10 -284 -7 -346 20 -346
14 0 19 48 37 397 l18 331 39 6 c54 9 61 15 43 35 -15 16 -14 33 4 187 45 390
54 543 54 1004 1 245 -2 501 -5 570 l-7 125 14 -80 c23 -137 63 -531 74 -725
18 -327 9 -656 -25 -975 -17 -157 -13 -168 67 -184 86 -18 235 -31 354 -31
l111 0 22 -103 c30 -141 54 -318 44 -328 -4 -4 -85 -48 -178 -96 -262 -136
-329 -187 -323 -242 5 -40 40 -51 169 -51 109 0 429 26 439 36 2 3 -1 9 -8 13
-8 5 20 10 66 14 93 6 133 20 84 30 l-31 6 2 308 c1 169 -2 335 -6 369 l-8 60
102 18 c201 35 370 98 495 184 152 103 164 162 124 593 -65 698 -178 1370
-311 1854 -175 641 -452 1278 -740 1706 -254 378 -700 731 -1193 944 -316 137
-744 245 -809 205z m2278 -5557 c4 -10 9 -131 12 -268 l6 -251 -124 -61 c-168
-83 -357 -140 -434 -131 l-30 3 50 37 c28 20 134 81 238 134 212 109 204 99
193 222 -6 69 -39 260 -52 304 -4 14 4 18 43 21 26 2 58 4 69 5 13 1 25 -5 29
-15z m17 -642 c3 -37 1 -40 -26 -45 -15 -3 -56 -6 -90 -6 l-61 0 64 35 c36 19
69 39 75 45 20 20 34 9 38 -29z"/>
<path d="M6344 7960 c-57 -13 -95 -43 -124 -100 -80 -157 -253 -270 -413 -270
-76 0 -150 18 -276 69 -96 38 -96 39 -101 77 -4 34 -9 39 -30 39 -23 0 -25 -5
-30 -52 -3 -30 -13 -60 -23 -70 -16 -16 -18 -15 -42 7 -33 31 -55 107 -55 191
0 46 -4 70 -15 79 -21 17 -35 3 -35 -36 0 -39 -2 -40 -34 -19 -27 18 -56 10
-56 -15 0 -19 39 -55 70 -65 12 -4 21 -20 25 -48 17 -104 66 -167 128 -167 30
0 44 6 64 29 l25 28 57 -28 c273 -135 497 -111 687 76 39 39 86 95 103 127 24
43 42 61 74 76 23 11 50 29 61 41 18 20 18 21 0 27 -11 4 -21 8 -24 9 -3 1
-19 -1 -36 -5z"/>
<path d="M5724 7877 c-3 -8 -1 -31 4 -53 12 -53 0 -82 -43 -100 -28 -11 -36
-20 -33 -37 7 -53 109 -22 135 41 17 40 12 124 -8 148 -15 18 -48 18 -55 1z"/>
<path d="M7044 7692 c-54 -19 -93 -46 -125 -86 -21 -27 -53 -96 -46 -102 2 -2
18 14 35 35 47 59 144 104 224 103 135 0 210 -64 260 -223 21 -67 23 -92 22
-259 0 -210 -18 -334 -83 -605 -81 -330 -156 -514 -254 -613 -190 -195 -788
-672 -842 -672 -23 0 -104 62 -202 152 -103 96 -203 168 -235 168 -24 0 -23
-10 6 -52 l23 -35 -67 -21 c-36 -12 -87 -22 -113 -22 -55 0 -86 24 -178 137
-71 87 -101 100 -136 59 -37 -43 -32 -115 10 -175 19 -25 37 -51 41 -58 5 -10
-33 -11 -172 -6 -174 6 -180 5 -200 -15 -12 -12 -22 -30 -22 -39 0 -33 39 -78
94 -109 l55 -30 -67 -22 c-77 -25 -115 -54 -110 -84 4 -30 48 -59 97 -65 30
-4 39 -9 32 -16 -17 -17 -13 -55 9 -77 16 -16 33 -20 81 -20 58 0 60 -1 54
-22 -18 -57 5 -88 65 -88 55 0 77 10 204 95 127 85 162 99 301 125 55 10 107
21 116 25 15 6 17 -10 20 -158 3 -119 8 -168 18 -180 7 -9 17 -15 21 -12 4 2
10 100 14 216 6 164 11 217 23 235 16 26 12 54 -9 54 -7 0 -35 -15 -61 -34
-53 -38 -116 -64 -227 -97 -89 -25 -131 -46 -225 -109 -79 -53 -155 -94 -162
-87 -2 3 16 19 41 36 24 17 53 41 63 54 10 12 39 35 65 50 43 25 68 60 54 74
-3 3 -41 -8 -85 -26 -44 -17 -106 -38 -137 -46 -63 -16 -162 -31 -154 -22 7 7
267 117 278 117 12 0 42 34 42 48 0 17 -24 15 -130 -12 -52 -13 -131 -27 -175
-31 -44 -4 -88 -9 -97 -11 -10 -3 -18 -1 -18 4 0 13 258 86 295 83 35 -2 85 8
85 17 -1 26 -29 36 -150 53 -119 18 -190 38 -190 56 0 3 66 3 147 0 81 -3 158
-1 171 4 21 8 24 14 19 45 -3 19 -24 62 -46 96 -37 54 -55 115 -32 106 5 -1
34 -35 64 -73 77 -99 125 -130 197 -129 57 1 108 14 169 42 32 15 36 14 80 -8
27 -14 92 -71 161 -142 72 -74 122 -118 135 -118 73 1 358 202 695 492 220
189 302 272 340 348 47 94 166 415 205 555 118 422 126 837 19 943 -16 16 -40
48 -54 71 -30 53 -88 94 -160 115 -69 20 -122 20 -186 -2z"/>
<path d="M6297 7183 c-24 -55 -74 -228 -108 -373 -32 -143 -29 -139 -167 -215
-126 -70 -172 -103 -172 -125 0 -36 38 -34 108 8 37 22 101 59 142 83 113 65
122 76 157 214 17 66 36 152 42 190 6 39 16 104 22 146 14 95 2 132 -24 72z"/>
<path d="M6746 6977 c-9 -20 -34 -126 -57 -235 -57 -282 -85 -379 -124 -432
-88 -119 -367 -361 -580 -501 -210 -138 -198 -128 -185 -144 18 -22 44 -18
108 14 216 110 666 495 738 632 18 36 101 388 121 516 12 76 13 114 6 145
l-10 43 -17 -38z"/>
<path d="M3902 6798 c-34 -44 -42 -78 -37 -167 4 -88 17 -136 48 -176 31 -40
40 -6 41 167 1 90 0 169 -2 176 -2 6 -12 12 -22 12 -10 0 -22 -6 -28 -12z"/>
<path d="M3654 6666 c-7 -18 60 -138 101 -182 53 -55 86 -26 47 42 -72 130
-131 185 -148 140z"/>
<path d="M3485 6313 c-29 -7 -41 -21 -29 -33 15 -15 177 -39 226 -33 23 2 48
9 55 15 21 17 15 45 -9 52 -26 7 -213 6 -243 -1z"/>
<path d="M4299 6290 c-185 -10 -238 -19 -260 -41 -26 -26 -24 -37 16 -75 22
-21 33 -38 29 -48 -7 -19 18 -30 251 -116 91 -33 181 -60 200 -60 20 0 46 -6
58 -14 18 -11 106 -12 542 -6 816 13 785 14 785 -10 0 -11 7 -37 16 -58 16
-37 16 -37 25 -13 6 14 9 54 7 89 l-3 64 -585 -1 c-632 -1 -753 -6 -787 -27
-20 -12 -23 -12 -23 0 0 18 -28 36 -120 76 -138 59 -290 133 -290 140 0 4 12
10 28 14 58 12 493 28 842 29 l365 2 211 -82 c188 -74 331 -119 342 -108 5 5
-75 63 -118 84 -19 10 -118 51 -220 92 l-185 74 -495 1 c-272 1 -556 -2 -631
-6z"/>
<path d="M4012 6118 c-9 -9 -12 -70 -12 -212 -1 -111 -5 -352 -10 -536 -5
-184 -7 -345 -4 -357 3 -12 66 -70 145 -133 228 -183 327 -251 391 -268 55
-15 1199 -9 1258 6 62 17 120 43 120 55 0 7 -67 8 -197 3 -523 -20 -952 -14
-1066 15 -32 8 -48 18 -53 32 -4 11 -5 280 -3 598 2 317 1 581 -3 585 -10 10
-38 -15 -49 -43 -5 -13 -13 -198 -19 -411 -10 -389 -26 -711 -34 -720 -11 -10
-102 52 -255 173 l-161 129 6 510 c4 281 4 528 0 549 -7 39 -30 49 -54 25z"/>
<path d="M2185 4570 c-27 -11 -219 -81 -425 -156 -470 -171 -569 -210 -591
-230 -16 -15 -18 -49 -19 -464 l-1 -448 37 -21 c20 -12 35 -23 33 -25 -4 -3
-177 -71 -252 -98 -28 -11 -54 -44 -43 -56 4 -3 21 -1 39 5 17 6 84 28 148 48
l116 37 159 -72 c199 -91 403 -173 470 -189 48 -12 57 -11 120 15 60 23 668
297 917 413 l88 40 79 -57 c43 -31 79 -61 79 -65 2 -26 -496 -240 -1076 -463
l-375 -144 -27 18 c-14 11 -93 54 -176 97 -82 43 -233 125 -335 183 -205 117
-245 132 -256 99 -4 -12 -7 -245 -7 -518 l1 -497 -40 -6 c-77 -13 -126 -54
-113 -95 9 -28 105 -91 290 -189 94 -49 222 -120 285 -157 63 -37 144 -82 180
-100 68 -33 157 -62 166 -52 14 14 -144 114 -559 355 -111 65 -108 59 -128
222 -14 116 -23 799 -12 892 l8 67 195 -111 c208 -117 459 -248 478 -248 8 0
12 -147 14 -532 3 -453 6 -539 19 -572 14 -35 17 -37 24 -20 5 10 11 263 13
561 l4 542 26 9 c15 6 88 34 162 62 74 28 250 91 390 140 419 145 553 199 548
220 -3 10 156 89 339 170 52 23 70 53 52 87 -7 13 -50 49 -95 80 -80 54 -83
57 -76 87 13 59 8 676 -7 740 -8 37 -16 55 -22 49 -6 -6 -13 -167 -16 -387 -4
-253 -10 -379 -17 -385 -6 -5 -96 -45 -201 -89 -104 -44 -260 -110 -345 -147
-238 -103 -463 -196 -465 -193 -1 2 -4 180 -6 396 l-4 394 60 24 c33 14 164
65 290 114 467 180 595 237 685 305 l35 27 -35 -7 c-45 -9 -213 -70 -510 -183
-129 -49 -304 -112 -388 -141 l-152 -51 -103 39 c-249 96 -556 226 -549 233 7
7 315 122 715 265 l239 86 306 -103 c288 -96 422 -129 422 -103 0 13 -28 37
-65 56 -51 25 -640 217 -666 216 -13 0 -46 -9 -74 -19z m-625 -594 c69 -24
175 -62 235 -85 l110 -42 4 -439 3 -439 -118 53 c-178 80 -538 262 -553 279
-17 22 -31 254 -31 549 l0 247 113 -40 c61 -23 168 -60 237 -83z"/>
<path d="M4985 4149 c-608 -187 -706 -221 -718 -247 -15 -33 -1 -42 143 -96
69 -26 222 -89 340 -141 551 -239 623 -264 744 -264 l89 1 441 200 c243 110
450 209 461 220 l20 20 -60 -4 c-74 -6 -119 -23 -515 -205 -173 -80 -332 -152
-352 -160 -36 -14 -41 -13 -175 32 -313 107 -1023 374 -1023 384 0 7 572 193
817 266 l122 37 108 -32 c60 -18 263 -83 453 -145 217 -71 376 -118 428 -125
46 -7 85 -10 87 -8 5 5 -8 10 -459 168 -286 100 -600 201 -620 199 -6 0 -155
-45 -331 -100z"/>
<path d="M2659 3906 c-56 -20 -96 -53 -116 -96 -13 -28 -22 -38 -33 -33 -8 4
-43 9 -76 11 -71 4 -111 -12 -142 -55 -78 -111 7 -229 215 -297 83 -28 99 -21
166 64 148 192 179 361 72 406 -41 17 -40 17 -86 0z m67 -64 c15 -9 27 -49 19
-62 -4 -7 -13 -6 -27 1 -28 15 -82 3 -118 -27 -38 -32 -38 -19 0 25 50 58 97
82 126 63z m-282 -132 c-66 -29 -90 -81 -63 -131 10 -19 9 -19 -10 -9 -11 6
-28 24 -36 40 -14 26 -14 34 -1 65 17 41 43 54 106 54 l45 0 -41 -19z"/>
<path d="M4228 3798 c-10 -18 -14 -132 -18 -472 l-5 -449 -30 -10 c-38 -13
-336 -174 -355 -193 -12 -12 -12 -16 5 -28 11 -8 47 -25 80 -37 33 -13 287
-115 565 -227 278 -113 564 -226 635 -253 l130 -48 0 -625 c1 -344 4 -628 8
-633 19 -18 121 44 707 432 201 133 406 267 455 297 101 64 135 92 135 113 0
18 -62 51 -112 60 l-36 7 -4 276 c-3 222 -8 291 -22 350 -10 39 -21 72 -25 72
-14 0 -22 -217 -16 -413 7 -190 -2 -341 -25 -420 -11 -36 -28 -50 -278 -214
-245 -162 -593 -386 -684 -442 l-38 -23 0 569 0 569 74 36 73 37 53 -16 c85
-25 91 -22 680 309 184 103 342 191 350 196 13 8 15 77 18 508 4 542 -1 662
-25 671 -8 3 -22 -2 -31 -11 -15 -15 -17 -67 -17 -559 0 -298 -4 -549 -8 -557
-8 -15 -27 -27 -457 -272 -213 -122 -315 -182 -395 -234 -20 -13 -20 -11 -20
529 0 418 -3 555 -13 601 -11 44 -17 55 -25 47 -9 -9 -13 -167 -17 -571 -3
-307 -9 -562 -13 -566 -16 -17 -278 76 -552 196 -229 100 -640 294 -670 316
-19 14 -20 30 -26 542 -3 290 -9 535 -13 545 -11 23 -23 22 -38 -5z m-18
-1017 c0 -5 -22 -23 -50 -41 -27 -18 -50 -35 -50 -39 0 -3 89 -45 198 -92 108
-48 314 -139 457 -204 143 -64 328 -145 412 -179 l152 -62 -33 -12 c-31 -11
-44 -9 -152 31 -66 24 -207 81 -314 127 -343 145 -622 262 -743 310 l-117 47
107 61 c107 60 133 70 133 53z"/>
<path d="M4535 3437 c-4 -19 -5 -164 -3 -324 2 -234 6 -293 17 -307 24 -29
141 -83 391 -181 259 -102 339 -130 346 -122 3 3 10 88 16 189 10 192 6 396
-10 437 -8 22 -10 19 -16 -25 -6 -45 -25 -379 -26 -467 0 -21 -4 -36 -9 -33
-5 3 -30 57 -56 118 -25 62 -63 148 -82 191 -20 42 -34 79 -32 80 2 2 32 20
66 41 74 44 123 88 123 110 0 13 -19 7 -87 -28 -49 -24 -127 -56 -175 -72 -87
-28 -87 -28 -109 -8 -12 10 -53 66 -92 124 -38 58 -90 131 -113 163 -24 31
-42 57 -40 57 2 0 76 -27 164 -60 259 -96 424 -141 438 -119 13 22 -35 47
-169 89 -145 45 -322 107 -435 151 -40 16 -79 29 -87 29 -8 0 -17 -14 -20 -33z
m243 -387 c12 -16 4 -26 -80 -93 l-93 -76 -7 42 c-3 23 -7 113 -7 201 l-1 158
88 -107 c48 -59 93 -116 100 -125z m123 -100 c7 0 33 9 56 20 l42 19 20 -27
c10 -15 39 -74 64 -132 25 -58 60 -134 77 -169 17 -35 29 -65 27 -67 -7 -7
-419 166 -524 219 l-46 24 95 65 c52 37 100 74 108 83 12 14 15 13 40 -10 14
-14 33 -25 41 -25z"/>
<path d="M3220 3140 c-1 -3 -5 -237 -10 -520 -5 -331 -12 -525 -19 -543 -9
-24 -38 -42 -174 -107 -291 -140 -798 -353 -1144 -480 -152 -56 -180 -70 -169
-88 11 -18 77 -14 151 9 202 62 960 383 1260 534 l140 70 8 180 c11 234 2 782
-13 860 -10 52 -27 100 -30 85z"/>
<path d="M2467 2675 c-101 -38 -206 -137 -250 -234 -21 -47 -36 -161 -21 -161
5 0 21 28 34 63 57 142 162 250 278 283 117 34 232 -16 287 -126 80 -157 45
-365 -83 -503 -58 -61 -103 -91 -172 -111 -101 -30 -164 -15 -231 54 -53 54
-78 116 -89 222 -4 38 -11 72 -14 75 -4 4 -14 -1 -24 -11 -25 -25 -21 -134 9
-211 30 -80 114 -166 182 -184 194 -54 419 90 493 315 14 45 19 88 19 179 0
111 -2 125 -28 181 -32 70 -81 122 -147 156 -56 28 -184 36 -243 13z"/>
<path d="M3786 2578 c-14 -19 -15 -90 -9 -613 4 -409 9 -594 17 -604 15 -20
189 -101 494 -233 553 -237 695 -288 820 -296 53 -3 82 -1 82 6 0 12 -108 57
-230 97 -151 50 -329 120 -615 243 -422 182 -468 204 -485 238 -11 24 -15 133
-21 579 -6 503 -12 605 -33 605 -3 0 -12 -10 -20 -22z"/>
<path d="M2482 2448 c-11 -24 -33 -85 -48 -136 -26 -88 -30 -95 -65 -113 -34
-17 -59 -45 -59 -65 0 -7 34 -1 61 10 14 6 14 0 2 -62 -10 -51 -11 -75 -3 -97
16 -41 28 -23 55 85 13 50 26 94 29 98 4 3 37 15 75 27 l69 22 22 -56 c29 -73
47 -101 64 -101 27 0 25 32 -6 107 -30 70 -31 76 -14 85 32 18 56 47 56 68 0
33 -28 35 -60 5 -17 -16 -31 -27 -33 -24 -2 2 -14 31 -26 65 -48 132 -84 156
-119 82z m83 -138 l14 -39 -52 -20 c-29 -10 -54 -17 -56 -16 -1 2 9 41 24 86
28 82 28 82 42 55 8 -15 21 -45 28 -66z"/>
<path d="M4364 2103 c30 -144 50 -372 41 -465 l-7 -72 -20 24 c-11 14 -32 33
-47 43 l-26 19 28 -6 c22 -5 27 -3 27 13 0 27 -37 51 -80 51 -61 -1 -100 -49
-100 -123 0 -96 64 -167 152 -167 49 0 77 19 103 71 21 40 39 190 31 262 l-6
59 38 -23 c126 -76 172 -99 217 -110 28 -6 56 -13 63 -15 9 -2 12 -38 12 -136
l0 -132 -32 31 c-18 16 -44 37 -58 46 l-24 17 22 0 c13 0 32 -5 43 -10 31 -17
22 4 -10 23 -93 55 -190 -28 -160 -136 12 -46 78 -113 120 -122 111 -25 159
62 159 286 0 116 -18 317 -31 341 -21 38 -263 190 -364 227 -99 37 -98 37 -91
4z"/>
</g>
</svg>
