<?xml version="1.0" standalone="no"?>
<!DOCTYPE svg PUBLIC "-//W3C//DTD SVG 20010904//EN"
 "http://www.w3.org/TR/2001/REC-SVG-20010904/DTD/svg10.dtd">
<svg version="1.0" xmlns="http://www.w3.org/2000/svg"
 width="1041.000000pt" height="1041.000000pt" viewBox="0 0 1041.000000 1041.000000"
 preserveAspectRatio="xMidYMid meet">

<g transform="translate(0.000000,1041.000000) scale(0.100000,-0.100000)"
fill="#000000" stroke="none">
<path d="M7091 9660 c-180 -37 -291 -84 -291 -124 0 -29 62 -202 92 -255 16
-29 28 -54 26 -55 -2 -2 -35 -23 -75 -49 -80 -51 -206 -166 -247 -226 l-27
-38 -106 43 c-58 25 -130 51 -160 60 -50 14 -56 14 -80 -1 -59 -39 -153 -327
-156 -478 -2 -81 -2 -81 28 -96 21 -10 75 -16 178 -19 l147 -4 0 -52 c0 -68
23 -169 56 -252 15 -37 23 -69 18 -71 -31 -11 -241 -173 -254 -195 -14 -25
-13 -31 12 -80 50 -104 243 -320 322 -363 20 -11 42 -16 57 -12 46 12 199 223
199 275 0 13 3 22 8 20 115 -59 211 -100 267 -114 39 -10 73 -21 78 -24 4 -3
11 -79 16 -169 11 -184 19 -206 77 -217 79 -15 313 16 444 58 72 23 100 42
100 69 0 32 -59 202 -88 255 l-28 51 47 22 c57 26 111 69 103 82 -10 16 -45
10 -170 -31 -157 -51 -279 -66 -409 -51 -354 42 -639 263 -741 576 -36 109
-44 279 -19 390 35 158 105 287 219 400 285 285 702 347 1022 154 76 -46 195
-158 249 -233 60 -85 111 -195 130 -280 18 -88 35 -257 28 -285 -3 -12 -1 -21
4 -21 5 0 17 25 27 55 20 63 0 61 196 15 l115 -27 -4 -39 c-2 -21 -5 -59 -5
-84 -1 -44 0 -45 29 -45 29 0 31 3 47 65 19 73 22 128 9 149 -9 14 -270 70
-327 71 l-31 0 -6 88 c-3 54 -15 118 -30 163 -19 57 -22 76 -13 81 7 4 48 33
92 64 110 78 154 122 154 154 0 85 -325 430 -405 430 -28 0 -88 -64 -157 -170
-27 -41 -51 -76 -53 -78 -2 -2 -36 12 -77 32 -74 36 -209 76 -258 76 l-27 0
-7 123 c-9 153 -19 207 -42 224 -26 19 -190 15 -303 -7z m260 -87 c0 -21 4
-79 7 -129 l7 -92 -135 -4 c-101 -4 -150 -10 -195 -26 -33 -11 -62 -19 -64
-17 -4 5 -61 239 -58 241 6 4 191 46 237 53 30 5 88 9 128 10 l72 1 1 -37z
m873 -369 c57 -65 116 -151 116 -168 0 -10 -176 -141 -205 -152 -6 -3 -27 19
-47 48 -47 71 -127 157 -189 204 l-50 39 103 96 103 96 61 -54 c33 -29 82 -79
108 -109z m-1814 -309 l115 -48 -32 -66 c-34 -69 -73 -215 -73 -271 0 -26 -3
-31 -17 -26 -33 13 -225 56 -249 56 -30 0 -30 5 0 133 23 93 50 173 87 250 16
35 16 35 169 -28z m220 -1042 c52 -49 105 -94 163 -138 l27 -20 -93 -109 c-50
-60 -100 -114 -109 -120 -14 -9 -25 -3 -59 29 -94 91 -252 296 -238 309 2 2
51 33 109 70 119 74 97 76 200 -21z m1085 -423 c26 -82 35 -124 28 -131 -16
-16 -233 -57 -339 -65 l-94 -7 0 132 c0 118 2 131 18 131 72 2 264 30 292 43
19 8 40 16 46 16 6 1 28 -53 49 -119z"/>
<path d="M8783 9542 c-52 -43 -143 -237 -143 -303 0 -45 10 -59 41 -59 24 0
32 6 46 38 9 20 41 89 71 152 61 127 75 173 59 189 -17 17 -40 12 -74 -17z"/>
<path d="M8810 9048 c-26 -14 -39 -53 -23 -69 15 -15 169 -49 219 -49 46 0 89
28 81 53 -8 27 -67 54 -129 60 -35 3 -76 9 -93 12 -17 3 -41 0 -55 -7z"/>
<path d="M7182 8762 c-99 -36 -176 -120 -209 -231 -45 -146 5 -295 130 -387
72 -53 137 -74 234 -74 115 0 239 53 231 100 -2 8 14 37 34 64 57 74 80 146
76 236 -2 52 -10 89 -26 122 -51 103 -163 180 -259 178 -26 -1 -73 1 -103 5
-40 4 -69 1 -108 -13z m181 -35 c3 -8 33 -24 67 -37 119 -44 188 -145 177
-258 -6 -75 -33 -126 -95 -184 -84 -79 -205 -98 -314 -50 -65 29 -104 66 -137
134 -82 162 5 342 188 390 81 21 107 22 114 5z"/>
<path d="M6740 8560 c-8 -5 -34 -13 -57 -19 -44 -12 -48 -17 -35 -38 11 -17
106 9 110 31 5 25 -1 34 -18 26z"/>
<path d="M6682 8338 c-48 -30 -64 -48 -43 -48 16 0 100 40 107 51 17 28 -16
26 -64 -3z"/>
<path d="M8031 8304 c-12 -15 -21 -35 -21 -45 0 -14 -7 -19 -30 -19 -89 0
-154 -105 -120 -194 9 -24 7 -26 -18 -26 -64 0 -96 -58 -81 -150 9 -59 48
-125 78 -135 11 -3 47 -50 79 -103 101 -164 96 -148 67 -249 -55 -194 -72
-367 -42 -451 23 -66 76 -148 143 -221 34 -36 68 -79 76 -96 42 -81 119 -379
134 -512 l7 -63 -162 0 c-91 0 -161 -4 -161 -9 0 -13 79 -38 165 -52 91 -15
281 -6 404 21 119 25 297 85 430 144 121 53 122 53 164 -42 51 -114 91 -323
118 -617 16 -172 16 -619 1 -770 -71 -682 -287 -1272 -638 -1741 -99 -131
-275 -325 -383 -423 -78 -70 -95 -80 -138 -86 -26 -4 -55 -9 -65 -11 -11 -3
-23 8 -39 40 -25 52 -48 65 -66 40 -16 -21 -12 -34 37 -144 21 -47 71 -166
111 -265 75 -187 154 -367 217 -495 43 -87 110 -190 123 -190 5 0 -2 25 -16
55 -14 30 -37 81 -51 112 -76 168 -292 730 -283 736 2 1 29 15 60 30 64 32
217 164 328 283 744 798 1038 1957 820 3239 -22 131 -62 300 -84 352 -23 55
-45 52 -227 -25 -249 -106 -352 -135 -520 -146 l-86 -6 -7 63 c-11 102 -54
284 -97 407 -35 100 -48 123 -97 178 -136 153 -167 231 -158 400 3 73 14 139
32 207 48 172 50 161 -76 355 -77 118 -124 214 -113 231 4 7 53 -35 126 -107
111 -110 124 -127 165 -214 62 -131 74 -155 95 -182 l18 -23 0 31 c0 43 -33
168 -63 235 -13 31 -47 80 -73 110 -62 68 -108 140 -138 215 -33 82 -41 137
-23 153 13 10 23 1 62 -51 26 -35 93 -108 149 -163 l101 -100 44 -125 c43
-124 72 -180 93 -180 15 0 5 42 -43 193 -29 91 -51 141 -75 170 -135 168 -231
359 -187 374 6 2 36 -29 66 -69 62 -84 86 -110 182 -194 62 -53 73 -70 99
-135 33 -86 80 -165 107 -180 11 -5 19 -6 19 -1 0 5 -25 74 -55 153 l-55 144
-84 78 c-47 43 -117 120 -155 172 -39 52 -80 99 -90 105 -36 19 -78 12 -100
-16z"/>
<path d="M8410 8229 c0 -8 55 -123 122 -257 160 -318 156 -270 56 -712 -45
-198 -51 -239 -52 -340 0 -103 3 -130 37 -255 60 -220 141 -412 170 -402 24 7
17 56 -21 158 -115 305 -142 453 -112 620 6 35 27 134 46 219 90 397 88 442
-32 668 -86 163 -214 343 -214 301z"/>
<path d="M6885 8144 c-53 -82 -71 -122 -59 -134 6 -6 31 23 67 77 51 75 56 88
44 101 -13 12 -20 7 -52 -44z"/>
<path d="M3153 7628 c-26 -33 -63 -125 -63 -155 l0 -33 -68 0 c-38 0 -90 -7
-117 -17 l-48 -16 -71 77 c-75 81 -93 89 -145 62 -35 -19 -111 -101 -111 -121
0 -27 66 -121 109 -155 38 -31 39 -34 27 -59 -8 -14 -17 -40 -20 -58 -8 -35
-15 -38 -93 -48 -48 -6 -52 -5 -58 17 -36 117 -168 51 -259 -130 -57 -113 -82
-288 -52 -357 l13 -30 11 25 c6 14 16 64 22 112 18 150 70 268 149 341 l46 42
3 -38 c2 -20 -9 -99 -23 -175 -64 -335 -38 -525 93 -665 98 -104 206 -136 272
-81 17 15 62 71 101 126 73 102 120 143 178 154 33 7 34 7 27 -22 -11 -45 -79
-183 -171 -349 -150 -269 -171 -339 -162 -543 6 -138 37 -284 77 -363 31 -59
72 -120 78 -115 2 3 -7 49 -21 103 -37 142 -55 247 -63 365 -12 188 9 253 193
589 140 256 168 346 125 400 -15 17 -29 22 -64 22 -25 -1 -56 -6 -67 -13 l-22
-11 20 38 c10 22 22 55 26 75 l7 35 71 10 c81 12 66 19 187 -84 37 -32 71 -53
85 -53 28 0 90 51 111 92 14 27 13 31 -18 76 -17 26 -47 61 -66 79 l-34 31 25
44 c14 23 31 64 37 90 l12 46 62 11 c35 6 74 11 88 11 14 0 37 9 52 21 23 18
26 28 26 78 0 39 -7 71 -22 101 l-23 45 -68 -2 c-37 0 -85 -8 -106 -17 l-39
-15 -13 32 c-7 17 -29 49 -48 70 l-35 38 32 65 c40 81 41 112 4 147 -53 51
-176 84 -199 55z m80 -109 c12 -7 24 -13 26 -15 9 -8 -45 -84 -61 -84 -32 0
-19 -23 52 -91 97 -93 125 -153 125 -274 0 -78 -4 -98 -27 -145 -15 -30 -46
-73 -69 -95 l-43 -40 28 38 c51 69 70 126 70 207 1 62 -4 85 -27 132 -110 224
-425 248 -563 43 -38 -55 -44 -54 -15 3 36 69 89 120 166 158 63 31 87 37 172
44 63 5 90 10 76 15 l-22 7 27 54 c27 57 43 64 85 43z m-493 -89 c29 -34 49
-64 45 -68 -7 -7 -115 104 -115 120 0 20 22 4 70 -52z m386 -235 c80 -47 108
-164 57 -234 -86 -116 -252 -83 -294 58 -41 139 110 251 237 176z m477 -35 c5
-19 0 -20 -78 -20 -63 0 -84 3 -88 14 -6 14 4 17 118 39 24 4 41 -7 48 -33z
m-912 -316 c7 -15 35 -46 62 -70 l48 -43 -40 -79 c-23 -43 -41 -83 -41 -89 0
-26 54 -73 114 -98 l63 -28 -76 -106 c-42 -58 -88 -112 -103 -120 -23 -13 -30
-13 -67 3 -91 41 -165 142 -198 269 -15 61 -14 223 3 317 6 35 6 35 62 36 32
1 75 9 97 17 56 21 60 20 76 -9z m289 -179 c0 -6 -70 -147 -75 -153 -2 -2 -12
-1 -23 2 -19 6 -18 11 21 81 27 49 48 75 60 75 9 0 17 -2 17 -5z"/>
<path d="M5655 7285 c-159 -34 -341 -147 -405 -250 l-20 -33 -46 14 c-78 23
-225 34 -329 23 -282 -29 -519 -160 -684 -379 -73 -97 -116 -186 -142 -298
-29 -120 -23 -301 14 -414 l25 -78 -62 -30 c-205 -101 -358 -324 -397 -580 -7
-44 -9 -120 -6 -185 19 -344 191 -601 514 -763 103 -52 193 -73 338 -79 112
-5 143 -2 214 16 46 11 98 30 115 42 l31 20 -60 -5 c-251 -23 -356 -16 -510
35 -262 87 -468 299 -534 551 -32 121 -33 162 -2 67 109 -337 370 -537 721
-556 77 -4 121 -11 167 -29 74 -29 194 -33 265 -8 56 19 123 75 132 109 l7 26
42 -34 c57 -46 106 -74 185 -107 73 -31 76 -29 -48 -49 -89 -14 -186 -65 -227
-119 -43 -57 -56 -110 -51 -209 4 -69 10 -93 42 -158 43 -88 116 -166 197
-213 l54 -31 -27 -10 c-122 -46 -449 -62 -598 -29 -236 52 -418 159 -624 365
-253 252 -514 653 -683 1048 -19 44 -41 88 -50 97 -20 22 -30 19 -193 -42
-154 -58 -498 -146 -521 -134 -3 2 -9 29 -12 61 -15 133 -103 431 -146 490
-16 21 -109 101 -207 175 -189 144 -275 225 -299 283 -17 40 -20 192 -5 244
31 108 124 106 233 -5 59 -60 65 -79 36 -110 -29 -31 -34 -30 -76 6 -23 21
-44 30 -68 30 -43 0 -44 -5 -5 -25 17 -9 30 -22 30 -29 0 -8 12 -28 26 -45 19
-23 34 -31 57 -31 57 0 127 65 127 118 0 98 -166 242 -278 242 l-43 0 17 33
c25 48 65 87 91 87 27 0 108 -39 170 -82 58 -39 74 -76 81 -175 3 -46 9 -86
14 -89 12 -8 38 59 38 100 0 19 -5 58 -11 87 -18 84 -112 170 -244 224 l-55
22 30 28 c35 34 52 31 140 -26 127 -81 151 -117 160 -234 l5 -80 23 35 c39 61
28 153 -30 237 -33 49 -191 159 -242 168 -62 12 -137 -52 -167 -143 -7 -20
-27 -64 -45 -97 -18 -33 -45 -105 -59 -160 -24 -87 -26 -115 -23 -215 3 -96 8
-122 27 -160 32 -61 131 -156 281 -270 196 -148 224 -178 254 -268 41 -125
106 -414 106 -471 0 -15 -13 -21 -63 -30 -91 -18 -221 -52 -232 -62 -5 -5 12
-10 40 -11 201 -8 400 37 763 172 105 39 196 69 202 65 6 -4 22 -30 36 -58 15
-29 51 -89 80 -135 30 -46 70 -115 90 -154 20 -39 72 -130 116 -202 437 -713
851 -998 1418 -973 131 6 256 28 349 61 53 20 60 20 36 2 -17 -12 -14 -15 31
-32 39 -15 76 -18 189 -18 163 -1 282 22 425 79 48 19 90 35 92 35 2 0 3 -13
0 -28 -12 -85 42 -409 85 -505 38 -84 64 -86 177 -14 138 88 290 375 312 591
8 75 -11 153 -29 120 -6 -10 -25 -79 -43 -153 -59 -240 -162 -404 -290 -465
-31 -15 -58 -26 -59 -24 -12 13 -37 130 -47 220 -9 80 -9 125 -1 172 14 82 84
230 132 281 106 110 50 126 -96 27 -127 -86 -308 -160 -446 -182 -96 -16 -298
-8 -382 15 -92 26 -163 63 -215 114 -109 107 -119 326 -18 417 91 84 318 111
544 66 61 -12 182 -45 268 -72 150 -48 228 -60 271 -44 14 6 14 9 2 23 -21 23
-7 120 30 208 17 39 79 142 138 229 120 175 164 261 194 380 74 287 47 594
-75 850 -33 71 -125 186 -132 166 -2 -6 19 -62 46 -124 97 -223 135 -382 134
-573 0 -185 -28 -309 -104 -462 -123 -247 -365 -410 -661 -445 -233 -28 -481
44 -683 198 -94 71 -99 71 -95 -7 2 -29 -4 -45 -29 -72 -66 -76 -203 -94 -307
-41 -76 39 -106 87 -99 158 12 108 96 174 205 162 106 -13 106 -13 109 12 3
16 -5 27 -27 40 -22 12 -31 25 -31 42 0 14 -7 36 -16 49 -16 22 -14 24 109
142 69 66 129 129 132 140 7 20 7 20 33 -5 15 -13 50 -35 77 -48 43 -20 66
-23 165 -23 110 0 119 2 182 33 117 57 185 160 195 295 17 220 -126 405 -329
424 -166 15 -326 -76 -396 -225 -24 -50 -27 -69 -27 -162 0 -119 16 -168 66
-197 16 -10 29 -20 28 -23 -1 -7 -182 -168 -247 -220 -61 -49 -68 -46 -101 30
-32 74 -37 130 -16 191 24 76 69 135 131 175 32 20 54 42 54 52 0 10 -9 43
-20 75 -67 190 31 386 242 486 72 35 92 40 150 39 174 -1 336 85 392 210 32
70 37 47 7 -27 -103 -247 -52 -480 143 -659 97 -88 247 -144 305 -113 33 18
26 26 -33 38 -94 20 -165 60 -241 137 -40 41 -82 96 -99 129 -25 50 -28 64
-22 109 13 94 55 165 129 219 47 34 62 37 47 10 -17 -32 -12 -79 11 -102 17
-17 29 -20 57 -16 68 12 105 73 78 129 l-15 30 27 -7 c84 -21 151 -76 191
-157 69 -138 24 -265 -129 -358 -40 -25 -75 -51 -78 -57 -7 -24 63 -14 126 18
93 46 149 122 171 231 41 195 -113 391 -318 406 -110 8 -227 -45 -292 -131
l-31 -42 6 44 c4 24 20 77 37 117 l30 72 97 0 c112 -2 182 12 269 53 201 95
300 318 249 560 -39 180 -177 321 -357 364 -77 18 -212 18 -294 0z m306 -84
c120 -38 216 -126 261 -240 31 -81 31 -251 -1 -332 -45 -116 -127 -191 -250
-229 -94 -30 -103 -25 -34 20 165 108 235 261 200 434 -36 177 -116 277 -276
342 l-56 24 47 0 c25 0 74 -9 109 -19z m-678 -1445 c-9 -54 4 -86 39 -101 47
-19 89 2 112 59 l11 29 31 -26 c88 -75 128 -244 84 -359 -15 -41 -35 -70 -72
-103 -91 -82 -216 -96 -348 -40 -36 15 -80 32 -97 39 -29 9 -36 20 -54 75 -17
51 -20 80 -17 150 5 102 33 166 96 223 51 46 75 59 137 74 81 20 85 19 78 -20z
m237 -2235 c95 -6 95 -6 40 -14 -30 -4 -98 -3 -150 3 -52 5 -102 10 -110 10
-13 0 -13 1 0 10 9 7 37 8 70 4 30 -4 98 -10 150 -13z"/>
<path d="M1108 6399 c-10 -5 -18 -20 -18 -32 0 -41 132 -204 207 -255 35 -25
81 -29 89 -8 12 31 -64 133 -195 263 -46 45 -55 49 -83 32z"/>
<path d="M5110 6001 c-65 -21 -193 -90 -235 -127 l-29 -27 21 -36 c35 -61 40
-60 144 20 52 41 118 85 147 98 51 24 60 38 46 75 -8 20 -25 19 -94 -3z"/>
<path d="M8049 5894 c-14 -17 -9 -55 31 -239 86 -396 16 -855 -173 -1139 -174
-260 -483 -462 -787 -516 -36 -6 -89 -19 -118 -27 -78 -25 -51 -38 76 -37 94
0 119 4 202 33 256 87 505 260 647 449 74 97 131 208 177 340 62 179 77 272
83 507 5 184 3 226 -16 334 -31 184 -72 311 -100 311 -5 0 -14 -7 -22 -16z"/>
<path d="M1255 5835 c-16 -7 -49 -18 -71 -24 -55 -15 -94 -46 -94 -77 0 -33
38 -51 77 -36 15 6 48 16 73 22 103 25 164 68 153 108 -5 19 -12 22 -57 21
-28 0 -64 -6 -81 -14z"/>
<path d="M6059 5051 c-58 -45 -92 -55 -179 -56 l-85 0 -3 -33 c-3 -27 1 -34
23 -42 39 -15 146 -12 194 5 65 23 131 72 131 98 0 47 -40 60 -81 28z"/>
<path d="M8735 4826 c-61 -37 -88 -93 -83 -172 3 -50 9 -69 28 -90 92 -99 250
-52 250 74 0 47 -33 101 -74 120 -38 19 -90 7 -116 -25 -25 -33 -25 -54 1 -87
35 -45 84 -28 58 21 -11 20 -11 26 1 33 22 14 27 12 50 -12 28 -31 26 -72 -6
-97 -34 -27 -53 -26 -95 2 -46 31 -58 75 -33 129 17 38 63 78 91 78 6 0 24 5
40 11 27 10 27 11 9 25 -29 21 -76 17 -121 -10z"/>
<path d="M6477 4644 c-19 -19 -4 -46 46 -77 96 -63 123 -110 133 -229 6 -78
-8 -158 -46 -260 -16 -43 -40 -76 -100 -138 -90 -91 -103 -120 -44 -95 106 44
225 191 258 319 19 72 22 196 7 253 -18 64 -89 163 -141 195 -48 29 -100 44
-113 32z"/>
<path d="M2182 4468 c14 -175 318 -768 606 -1183 437 -629 876 -1026 1456
-1317 218 -109 376 -163 666 -227 259 -57 331 -67 380 -52 22 6 38 16 35 21
-3 5 11 12 32 16 75 13 63 21 -48 33 -177 19 -384 50 -478 72 -616 142 -1221
538 -1692 1104 -348 420 -656 925 -863 1419 -80 190 -102 217 -94 114z"/>
<path d="M5250 4125 c0 -29 34 -36 44 -9 8 21 -1 34 -25 34 -14 0 -19 -7 -19
-25z"/>
<path d="M5090 4045 c-16 -19 -5 -47 17 -43 22 4 29 43 9 51 -8 3 -20 -1 -26
-8z"/>
<path d="M5177 3976 c-11 -28 4 -47 32 -44 20 2 26 8 26 28 0 20 -6 26 -26 28
-17 2 -29 -3 -32 -12z"/>
<path d="M6683 3953 c-30 -10 -12 -54 45 -111 32 -31 73 -83 91 -116 44 -78
73 -195 65 -258 -4 -26 -8 -48 -9 -48 -13 0 -124 44 -173 69 -82 41 -106 39
-67 -7 36 -43 179 -112 247 -119 72 -7 91 13 96 103 6 94 -31 204 -107 321
-78 117 -148 179 -188 166z"/>
<path d="M5118 3888 c-8 -21 2 -38 22 -38 19 0 30 17 23 38 -3 6 -13 12 -23
12 -10 0 -20 -6 -22 -12z"/>
<path d="M5487 3853 c-16 -15 -6 -52 15 -59 28 -9 52 20 37 47 -10 19 -39 25
-52 12z"/>
<path d="M5357 3784 c-13 -13 -7 -52 8 -58 27 -10 46 5 43 33 -3 26 -35 41
-51 25z"/>
<path d="M5237 3774 c-4 -4 -7 -16 -7 -26 0 -14 6 -19 23 -16 14 2 22 10 22
23 0 20 -25 32 -38 19z"/>
<path d="M5606 3705 c-8 -22 -8 -21 10 -39 21 -22 56 -3 52 27 -4 28 -52 37
-62 12z"/>
<path d="M8004 3641 c-42 -19 -81 -78 -70 -107 9 -23 23 -16 45 21 26 44 64
60 103 44 29 -12 58 -54 58 -83 0 -17 -47 -56 -68 -56 -13 0 -12 3 3 20 25 28
13 50 -29 50 -25 0 -39 -7 -50 -22 -52 -74 38 -146 128 -103 103 49 99 187 -7
235 -52 24 -62 24 -113 1z"/>
<path d="M6420 3595 c-17 -21 -8 -50 17 -53 30 -4 49 31 27 52 -19 20 -28 20
-44 1z"/>
<path d="M6184 3495 c-4 -9 -2 -21 4 -27 15 -15 44 -1 40 19 -4 23 -36 29 -44
8z"/>
<path d="M6276 3445 c-8 -22 -8 -21 10 -39 21 -22 56 -3 52 27 -4 28 -52 37
-62 12z"/>
<path d="M3733 3363 c-7 -2 -13 -13 -13 -23 0 -21 28 -40 59 -40 11 0 35 -13
53 -29 29 -26 33 -36 33 -79 0 -111 -121 -186 -202 -126 -55 41 -55 107 -1
147 23 17 31 19 53 9 14 -6 25 -19 25 -27 0 -24 -29 -29 -50 -10 -19 17 -20
17 -20 -2 0 -24 30 -53 53 -53 27 0 57 37 57 69 0 63 -97 95 -154 50 -87 -68
-71 -200 30 -249 46 -23 72 -25 129 -9 107 30 173 153 140 260 -25 79 -127
139 -192 112z"/>
<path d="M6337 3343 c-11 -10 -8 -41 4 -49 6 -3 18 1 27 9 13 13 13 19 2 31
-14 17 -23 20 -33 9z"/>
<path d="M6177 3304 c-23 -23 7 -69 37 -58 25 10 17 58 -9 62 -12 2 -24 0 -28
-4z"/>
<path d="M6024 2361 c-67 -41 -88 -151 -44 -230 86 -152 375 -137 404 22 21
113 -118 190 -198 110 -45 -44 -31 -156 16 -138 17 7 35 39 40 70 7 45 68 23
68 -24 0 -96 -187 -117 -272 -31 -33 33 -38 44 -38 84 0 54 10 78 53 124 35
36 20 43 -29 13z"/>
<path d="M5087 1623 c-4 -3 -7 -34 -7 -67 0 -34 -9 -135 -19 -226 -54 -471
-58 -530 -32 -570 19 -28 31 4 41 110 6 57 27 185 46 285 55 281 65 363 44
350 -6 -4 -10 12 -10 40 0 26 -5 55 -10 66 -10 19 -40 26 -53 12z"/>
<path d="M7406 1435 c-24 -22 -37 -52 -18 -43 4 2 24 12 45 23 35 18 39 18 72
2 58 -28 61 -104 5 -127 -35 -14 -60 -1 -60 31 0 25 17 24 30 -1 16 -31 40
-25 40 9 0 60 -61 81 -105 36 -29 -28 -31 -45 -10 -84 33 -64 136 -63 175 2
24 39 25 68 4 113 -31 65 -127 87 -178 39z"/>
</g>
</svg>
