<svg version="1.1" id="Layer_1" xmlns="http://www.w3.org/2000/svg" xmlns:xlink="http://www.w3.org/1999/xlink" x="0px" y="0px" viewBox="0 0 600 600" enable-background="new 0 0 600 600" xml:space="preserve"><path id="color_x5F_1_11_" d="M535.24,203.718L417.634,0.003H182.426L64.76,203.718l55.625,96.259L64.76,396.282l117.665,203.715    h235.208L535.24,396.282l-55.585-96.281L535.24,203.718z M411.195,373.982l-98.304-170.27l98.301-170.264l98.296,170.269    L411.195,373.982z M306.453,385.132l-98.304-170.264h85.43l98.304,170.264H306.453z M195.296,22.303h196.581l-98.301,170.259H96.956    L195.296,22.303z M96.953,214.862h72.593l-36.286,62.824L96.953,214.862z M188.848,226.036l98.291,170.246L188.847,566.53    L90.515,396.282L188.848,226.036z M404.758,577.697H208.149l98.304-170.264H503.05L404.758,577.697z M503.051,385.132h-72.543    l36.272-62.83L503.051,385.132z"></path></svg>