<?xml version="1.0" standalone="no"?>
<!DOCTYPE svg PUBLIC "-//W3C//DTD SVG 20010904//EN"
 "http://www.w3.org/TR/2001/REC-SVG-20010904/DTD/svg10.dtd">
<svg version="1.0" xmlns="http://www.w3.org/2000/svg"
 width="1040.000000pt" height="1041.000000pt" viewBox="0 0 1040.000000 1041.000000"
 preserveAspectRatio="xMidYMid meet">

<g transform="translate(0.000000,1041.000000) scale(0.100000,-0.100000)"
fill="#F5F2EB" stroke="none">
<path d="M7645 9415 c-45 -44 -23 -109 40 -121 52 -9 85 15 85 64 0 43 -7 55
-37 71 -34 17 -62 13 -88 -14z"/>
<path d="M1073 8521 c-42 -26 -62 -86 -43 -131 16 -39 56 -60 115 -60 63 0 95
31 95 94 0 90 -92 144 -167 97z"/>
<path d="M2910 8499 c0 -6 15 -46 34 -88 19 -42 37 -87 40 -101 21 -101 49
-205 59 -221 6 -10 21 -19 33 -19 19 0 23 8 28 53 6 45 2 69 -24 148 -38 114
-68 168 -117 208 -40 33 -53 38 -53 20z"/>
<path d="M2567 8123 c-4 -3 -7 -14 -7 -24 0 -23 236 -139 297 -146 35 -5 43
-2 53 16 9 18 7 27 -10 51 -26 37 -35 42 -149 80 -85 28 -169 39 -184 23z"/>
<path d="M4195 8099 c-323 -17 -603 -47 -750 -81 -104 -24 -145 -55 -166 -129
-15 -50 -19 -406 -7 -526 l8 -71 -38 -13 c-210 -68 -255 -171 -254 -589 1
-380 38 -723 139 -1282 l5 -28 -264 0 c-229 0 -275 3 -341 19 -78 20 -184 56
-249 85 -37 16 -38 16 -38 -4 0 -35 77 -108 154 -145 128 -62 139 -63 866 -57
l655 4 95 -53 c82 -47 117 -76 256 -215 142 -142 167 -163 214 -179 122 -40
163 -66 253 -153 99 -97 180 -198 278 -347 112 -170 186 -227 424 -325 82 -34
168 -73 192 -86 77 -46 153 -139 230 -284 108 -204 104 -185 57 -222 -70 -56
-233 -224 -244 -252 -8 -23 -13 -25 -30 -16 -45 24 -16 84 104 210 73 77 133
157 124 165 -9 10 -156 -96 -215 -155 -64 -64 -113 -145 -113 -187 0 -38 27
-81 62 -99 18 -9 66 -18 112 -21 318 -19 889 220 1175 492 144 138 201 242
171 314 -32 78 -161 87 -397 25 -52 -13 -97 -23 -98 -22 -1 2 -13 23 -25 48
-12 25 -31 57 -41 71 -17 25 -17 27 6 90 35 97 48 204 36 292 -15 110 -48 189
-129 309 -87 130 -112 189 -112 267 0 70 8 97 67 222 l45 95 216 12 c245 13
369 35 470 82 83 39 128 72 148 111 36 71 -14 77 -152 18 -53 -23 -137 -49
-188 -60 -83 -17 -336 -43 -343 -35 -2 2 3 32 11 67 36 156 76 603 76 843 0
297 -35 453 -117 526 -45 39 -138 77 -235 95 -20 4 -39 14 -43 22 -3 9 -10
103 -15 211 -13 260 -29 352 -62 352 -6 0 -9 -98 -6 -266 l3 -266 -60 6 c-94
10 -531 19 -559 12 -30 -7 -34 -23 -8 -28 9 -3 -26 -8 -78 -12 -118 -9 -239
-24 -251 -32 -20 -12 -7 -36 26 -50 31 -13 65 -12 288 2 208 14 283 15 432 5
266 -16 427 -47 502 -96 52 -35 84 -126 103 -300 17 -155 11 -299 -25 -624
-19 -173 -35 -349 -35 -391 l0 -78 -222 -7 c-231 -7 -2459 0 -2538 8 -25 3
-101 8 -170 12 -135 7 -295 22 -322 31 -23 7 -54 59 -79 130 -23 69 -72 394
-95 644 -22 221 -25 674 -6 774 30 157 99 214 303 246 174 27 1191 42 1384 20
171 -20 195 -34 293 -178 33 -48 78 -107 100 -132 39 -43 41 -44 33 -15 -51
178 -140 319 -233 366 -21 11 -72 24 -113 31 -43 7 -70 15 -63 19 7 4 9 12 4
16 -10 10 -922 10 -1068 0 l-108 -8 6 93 c4 52 12 99 19 106 50 54 758 95
1555 90 853 -4 928 -4 941 9 24 24 -37 45 -164 59 -635 68 -948 91 -1387 103
-478 14 -725 -3 -775 -51 -7 -7 79 -8 245 -5 345 7 834 -9 869 -28 25 -13 22
-14 -44 -15 -292 -3 -811 -22 -951 -35 -216 -20 -277 -31 -340 -60 l-51 -24
-12 -73 c-7 -40 -13 -95 -15 -123 l-2 -50 -72 -10 -72 -11 -2 100 c-6 241 9
387 43 430 54 69 415 137 879 167 252 17 1196 17 1415 1 283 -21 512 -59 585
-97 71 -37 90 -137 100 -545 4 -173 10 -322 13 -330 3 -8 11 -42 18 -75 10
-52 13 -57 20 -36 19 49 29 356 19 558 -14 283 -35 391 -86 453 -61 72 -309
121 -769 150 -182 11 -1175 11 -1400 -1z m-59 -2843 c3 -8 54 -52 112 -97 105
-82 342 -286 342 -295 0 -2 -17 3 -37 12 -21 9 -49 20 -63 25 -13 6 -87 75
-165 153 -77 79 -165 160 -195 180 -50 33 -52 36 -27 36 15 0 30 -6 33 -14z
m820 -68 c44 -46 95 -102 113 -125 18 -24 41 -43 52 -43 10 0 19 3 19 7 0 10
-100 154 -128 186 l-26 27 71 0 c59 0 73 -3 89 -21 33 -38 194 -158 258 -193
124 -69 284 -101 382 -77 76 19 129 64 217 183 72 97 83 108 106 104 14 -3 61
-7 104 -8 65 -2 77 -5 73 -18 -3 -8 -19 -53 -37 -100 -26 -69 -32 -100 -32
-165 -1 -100 17 -141 136 -316 102 -151 127 -219 127 -343 0 -88 -30 -228 -54
-255 -8 -9 -16 -35 -18 -58 -3 -41 4 -55 17 -33 11 17 21 4 70 -87 26 -48 81
-138 122 -201 73 -110 74 -114 57 -133 -71 -79 -506 -282 -536 -251 -3 4 -64
117 -134 252 -70 135 -144 270 -165 301 -69 102 -163 168 -351 249 -68 29
-149 65 -180 81 -89 45 -174 132 -248 254 -100 164 -165 261 -228 337 -55 67
-378 360 -488 443 -29 22 -53 43 -54 46 0 3 55 9 123 12 l122 6 75 -42 c55
-31 113 -79 220 -184 80 -79 156 -150 170 -160 19 -14 57 -19 175 -25 180 -8
326 -36 413 -79 85 -42 204 -160 262 -259 69 -120 97 -142 85 -67 -17 115
-129 268 -258 354 -123 82 -250 115 -507 129 l-125 7 -135 133 c-74 74 -159
152 -189 174 l-53 40 104 0 103 0 81 -82z m727 72 l318 0 -43 -62 c-72 -103
-131 -155 -195 -174 -52 -15 -63 -15 -141 0 -112 22 -214 71 -315 149 -128
100 -129 102 -27 94 47 -4 228 -7 403 -7z m1291 -1406 c9 -3 16 -14 16 -24 0
-15 -13 -18 -87 -22 -49 -3 -130 -16 -182 -28 -91 -22 -95 -22 -108 -4 -20 27
-17 31 30 37 23 3 83 15 132 26 91 20 170 26 199 15z"/>
<path d="M2750 7831 c-19 -4 -49 -15 -67 -24 -18 -9 -39 -17 -48 -17 -19 0
-120 -52 -154 -78 -29 -23 -25 -56 8 -60 41 -6 333 79 364 106 17 15 23 57 10
65 -18 10 -80 14 -113 8z"/>
<path d="M783 6902 c-50 -8 -70 -85 -33 -122 26 -26 90 -27 113 -2 22 25 22
85 0 104 -21 18 -49 25 -80 20z"/>
<path d="M4621 6790 c-126 -34 -241 -112 -325 -220 -26 -34 -26 -34 -16 -6 14
39 5 44 -26 15 -69 -64 -124 -211 -131 -352 -11 -191 38 -310 186 -457 107
-106 172 -144 301 -176 109 -27 282 -26 375 3 249 78 399 286 397 548 0 136
-45 278 -102 330 -37 34 -81 93 -85 116 -12 61 -127 153 -235 190 -94 31 -241
36 -339 9z m219 -243 c0 -5 21 -35 46 -68 43 -57 195 -291 191 -296 -1 -1 -34
7 -72 18 -86 24 -131 25 -139 3 -5 -14 7 -136 29 -296 l5 -38 -79 0 -78 0 -7
46 c-3 26 -6 94 -6 151 0 146 -1 147 -111 138 -49 -3 -89 -4 -89 -2 0 3 47 79
104 169 57 90 114 183 127 207 l22 44 28 -34 c16 -19 29 -38 29 -42z"/>
<path d="M2322 6374 c-50 -34 -2 -111 53 -86 20 9 25 19 25 47 0 29 -5 37 -26
45 -31 12 -25 13 -52 -6z"/>
<path d="M3770 5152 c0 -24 12 -35 93 -87 69 -45 140 -107 283 -248 105 -104
204 -197 220 -208 16 -10 79 -39 139 -63 118 -48 255 -112 375 -176 109 -58
130 -53 62 16 -53 54 -132 98 -350 195 l-187 83 -177 177 c-182 182 -251 241
-354 303 -74 45 -104 47 -104 8z"/>
<path d="M1181 5104 c-25 -18 -51 -71 -51 -104 0 -32 50 -80 92 -87 80 -12
128 23 128 95 0 24 -5 52 -10 63 -25 45 -115 64 -159 33z"/>
<path d="M3593 4300 c-44 -18 -56 -77 -22 -111 30 -30 98 -23 118 12 20 35 7
75 -29 94 -33 17 -36 17 -67 5z"/>
<path d="M7116 3725 c12 -52 53 -143 170 -380 204 -413 385 -673 625 -896 60
-55 109 -105 109 -110 0 -4 -17 -11 -37 -15 -48 -8 -93 -31 -93 -46 0 -13 359
-5 576 12 434 36 922 136 1145 236 49 22 59 31 57 48 -5 35 -49 31 -196 -18
-236 -78 -450 -124 -809 -175 -267 -38 -456 -50 -481 -29 -9 8 -53 36 -97 63
-241 148 -530 524 -765 995 -98 196 -151 288 -186 321 l-26 24 8 -30z"/>
<path d="M5551 3020 c61 -161 229 -427 422 -667 342 -427 714 -769 1184 -1086
209 -142 360 -210 576 -262 243 -58 363 -69 752 -69 285 -1 391 3 508 17 231
28 411 63 447 87 13 9 12 12 -4 25 -28 21 -106 19 -334 -10 -258 -32 -433 -45
-611 -45 -275 0 -452 25 -716 101 -419 121 -648 248 -1067 593 l-97 79 28 36
c43 56 78 132 92 199 27 129 -24 293 -126 409 -60 68 -185 130 -185 92 0 -6
31 -51 70 -101 85 -110 125 -215 117 -310 -5 -61 -51 -159 -91 -197 l-23 -21
-134 137 c-245 252 -423 473 -636 793 -61 91 -129 185 -152 210 l-41 45 21
-55z"/>
<path d="M3023 2862 c-31 -5 -63 -49 -63 -87 0 -45 35 -75 88 -75 55 0 82 26
82 78 0 57 -47 94 -107 84z"/>
<path d="M7259 2843 c-19 -22 -24 -163 -9 -232 19 -84 66 -169 126 -227 62
-59 110 -85 171 -92 40 -4 43 -3 43 20 0 19 -18 40 -73 85 -60 49 -79 73 -111
136 -36 70 -40 87 -48 189 -6 87 -12 116 -25 126 -23 17 -58 15 -74 -5z"/>
<path d="M9149 1978 c-7 -14 -10 -58 -7 -129 4 -96 8 -114 36 -172 55 -111
175 -205 305 -239 41 -11 49 -10 57 2 16 25 11 36 -26 53 -54 26 -137 91 -178
138 -55 65 -76 132 -76 245 l0 95 -35 15 c-47 19 -62 18 -76 -8z"/>
<path d="M8305 1736 c-75 -24 -130 -59 -193 -123 -75 -76 -112 -148 -112 -216
0 -66 22 -73 68 -21 89 101 137 144 191 173 32 17 67 31 77 32 11 0 44 8 74
18 59 19 67 32 69 102 1 25 -4 39 -15 43 -26 10 -116 5 -159 -8z"/>
</g>
</svg>
