<?xml version="1.0" standalone="no"?>
<!DOCTYPE svg PUBLIC "-//W3C//DTD SVG 20010904//EN"
 "http://www.w3.org/TR/2001/REC-SVG-20010904/DTD/svg10.dtd">
<svg version="1.0" xmlns="http://www.w3.org/2000/svg"
 width="1040.000000pt" height="1041.000000pt" viewBox="0 0 1040.000000 1041.000000"
 preserveAspectRatio="xMidYMid meet">

<g transform="translate(0.000000,1041.000000) scale(0.100000,-0.100000)"
fill="#F5F2EB" stroke="none">
<path d="M5176 9618 c-36 -62 -66 -248 -52 -323 6 -30 11 -36 29 -33 24 3 33
26 65 163 28 118 36 179 28 210 -10 39 -41 32 -70 -17z"/>
<path d="M3214 8865 c-9 -22 12 -42 54 -56 20 -6 92 -38 160 -70 131 -63 165
-70 182 -40 15 29 13 34 -26 74 -35 35 -87 58 -209 93 -67 19 -154 19 -161 -1z"/>
<path d="M4236 8685 c61 -93 553 -207 1079 -250 105 -8 310 -18 458 -22 235
-5 267 -8 267 -22 0 -9 -11 -99 -25 -201 -81 -591 -101 -827 -90 -1020 6 -105
32 -220 55 -243 13 -15 22 81 15 171 -13 158 57 621 149 991 48 194 51 211 37
211 -12 0 -45 -87 -76 -200 -36 -129 -34 -125 -46 -113 -7 7 -1 63 16 173 36
231 41 295 24 306 -8 5 -162 12 -344 16 -600 12 -1043 75 -1414 203 -41 14
-85 25 -98 25 -23 0 -23 -1 -7 -25z"/>
<path d="M4170 8650 c-8 -15 -6 -56 7 -158 45 -342 8 -838 -92 -1231 -16 -62
-21 -100 -15 -111 7 -14 38 -19 157 -29 81 -7 200 -19 263 -28 272 -37 295 16
25 60 -66 10 -169 29 -230 41 -126 26 -120 16 -92 146 51 238 75 904 42 1154
-21 162 -39 204 -65 156z"/>
<path d="M6795 8590 c-22 -11 -57 -25 -78 -31 -78 -21 -127 -47 -127 -68 0
-28 35 -35 128 -27 87 8 167 45 192 89 30 54 -39 76 -115 37z"/>
<path d="M4657 8224 c-4 -4 -7 -40 -7 -79 0 -81 -30 -259 -60 -355 -32 -102
-52 -202 -41 -213 20 -20 46 -2 58 43 6 25 25 97 42 160 33 124 58 324 47 381
-7 40 -28 74 -39 63z"/>
<path d="M4855 8108 c-2 -7 -13 -50 -25 -95 -24 -98 -26 -166 -5 -183 9 -7 17
-11 18 -9 2 2 11 47 21 99 10 52 23 112 28 132 8 28 8 41 -2 53 -15 18 -29 19
-35 3z"/>
<path d="M5486 7943 c-8 -81 -40 -223 -90 -391 -20 -68 -36 -141 -36 -163 0
-35 3 -39 25 -39 19 0 26 7 31 28 3 15 21 83 40 152 43 161 66 306 62 399 -4
97 -23 105 -32 14z"/>
<path d="M4985 7657 c-22 -19 -32 -44 -56 -151 -39 -174 -91 -324 -145 -423
-45 -82 -45 -83 -21 -83 26 0 75 47 101 98 28 55 79 211 116 357 32 126 41
150 56 150 52 0 67 -120 39 -310 -18 -128 -19 -194 -1 -237 8 -19 45 -72 81
-118 76 -96 97 -134 115 -208 26 -112 -17 -225 -136 -352 -80 -84 -80 -101 -1
-49 149 99 224 271 187 430 -17 71 -32 100 -96 187 l-54 72 62 0 c126 0 358
-50 546 -116 116 -41 192 -55 192 -35 0 16 -24 29 -130 71 -203 81 -393 128
-564 139 -150 9 -151 12 -131 333 9 146 -3 198 -56 243 -38 31 -70 32 -104 2z"/>
<path d="M3470 7596 c-25 -6 -67 -27 -93 -46 -25 -19 -66 -47 -90 -62 -59 -37
-137 -107 -137 -123 0 -18 25 -11 145 38 170 70 284 157 254 193 -14 17 -19
17 -79 0z"/>
<path d="M6544 7479 c-3 -6 -2 -14 2 -19 5 -4 89 -49 188 -99 185 -94 227
-107 246 -71 9 17 5 26 -31 60 -23 21 -62 47 -88 56 -25 10 -71 27 -101 40
-52 21 -152 44 -191 44 -10 0 -21 -5 -25 -11z"/>
<path d="M4410 7044 c1 -49 42 -134 123 -251 179 -258 253 -487 245 -762 l-3
-103 -75 -27 c-93 -35 -134 -55 -159 -82 -14 -15 -21 -17 -27 -8 -7 12 15 36
97 102 l34 27 -40 -6 c-102 -15 -163 -72 -151 -139 11 -59 79 -100 216 -130
103 -22 420 -32 531 -16 97 14 220 53 261 83 16 11 31 18 33 16 3 -2 9 -112
15 -244 26 -607 49 -815 107 -972 15 -39 15 -44 -2 -62 -24 -26 -144 -96 -345
-201 -210 -109 -207 -101 -78 -235 110 -114 193 -174 243 -176 19 -1 38 1 41
4 3 4 -30 32 -73 64 -43 32 -114 94 -157 137 l-80 80 35 19 c18 11 144 78 279
149 403 214 650 395 650 479 0 30 -49 2 -129 -74 -94 -89 -288 -224 -301 -210
-16 19 -61 205 -75 314 -14 112 -36 399 -55 730 -12 197 -33 336 -58 370 -24
33 -121 81 -177 88 -25 2 -45 1 -45 -2 0 -24 29 -51 78 -73 62 -27 102 -59
102 -80 0 -11 -6 -10 -27 5 -37 24 -74 39 -152 56 -34 8 -65 17 -68 19 -5 6
-19 94 -33 214 -12 98 -26 141 -41 126 -8 -8 -6 -77 5 -236 9 -124 19 -239 22
-255 6 -28 5 -29 -41 -36 -57 -7 -268 -8 -287 -1 -10 4 -12 46 -10 210 3 151
0 231 -12 303 -30 193 -106 370 -241 567 -34 50 -78 117 -98 151 -20 33 -45
68 -57 79 -20 18 -20 18 -20 -11z"/>
<path d="M4410 5728 c-31 -145 -36 -620 -10 -938 11 -140 33 -591 28 -595 -2
-2 -34 17 -73 42 -125 82 -239 143 -265 143 -20 0 -41 -20 -105 -102 -44 -57
-103 -128 -131 -158 -86 -93 -174 -202 -174 -217 0 -7 5 -13 12 -13 17 0 198
188 310 321 l91 108 46 -26 c25 -14 89 -54 142 -89 94 -62 96 -63 112 -121 28
-98 37 -172 31 -262 -3 -47 -7 -95 -9 -106 -4 -21 -136 -139 -235 -212 -113
-82 -344 -212 -635 -358 -324 -162 -328 -165 -267 -209 15 -10 64 -57 109
-102 77 -80 103 -98 103 -73 0 19 -62 101 -124 164 l-61 61 75 23 c235 71 748
369 1204 700 80 58 102 69 112 59 6 -7 71 -85 144 -173 338 -409 709 -773 938
-920 34 -22 62 -42 62 -45 0 -5 -20 -17 -170 -97 -106 -58 -169 -97 -292 -184
-53 -38 -105 -69 -114 -69 -30 0 -108 47 -425 256 -194 128 -257 157 -186 84
40 -41 136 -112 292 -217 156 -104 259 -187 370 -295 49 -49 96 -87 105 -86
28 6 22 36 -15 77 l-37 41 93 45 c150 71 393 133 634 160 148 17 205 30 205
47 0 12 -192 5 -349 -13 -116 -14 -155 -4 -205 51 -20 23 -34 45 -31 50 3 4
44 25 93 45 48 20 98 44 112 55 21 16 23 21 12 44 -6 15 -51 54 -98 89 -125
89 -286 221 -389 318 -96 91 -375 387 -375 399 0 3 23 12 51 18 203 47 703
401 1130 800 l37 34 63 -43 c352 -237 849 -699 849 -789 0 -56 -76 -92 -289
-135 -325 -67 -791 -213 -908 -285 -42 -25 -42 -36 -3 -233 47 -242 93 -379
120 -362 18 11 10 79 -26 220 -41 159 -56 313 -33 331 72 54 516 197 820 264
205 45 340 60 619 70 135 4 259 12 275 17 29 10 28 10 -30 24 -40 9 -119 14
-241 13 l-180 0 -18 43 c-76 184 -620 691 -965 900 -52 31 -54 32 -85 16 -17
-9 -70 -53 -118 -98 -101 -95 -243 -202 -396 -297 -124 -79 -164 -99 -327
-169 -120 -51 -192 -99 -150 -99 11 0 61 14 112 31 100 35 150 34 103 -1 -103
-78 -430 -257 -430 -236 0 7 -17 33 -38 57 -21 24 -72 87 -115 140 -101 126
-178 199 -211 199 -14 0 -27 -4 -30 -9 -11 -18 -119 -72 -126 -64 -12 12 -28
219 -35 433 -5 167 -37 720 -50 862 -2 31 0 187 5 345 6 158 6 301 2 317 -13
48 -29 41 -42 -16z"/>
<path d="M5371 5599 c-64 -39 -175 -60 -308 -60 -67 0 -125 -4 -128 -9 -22
-36 269 -45 375 -11 84 27 130 55 130 81 0 26 -25 26 -69 -1z"/>
<path d="M6210 4822 c0 -14 124 -128 228 -211 141 -111 292 -215 507 -348 304
-188 300 -185 303 -214 2 -21 -16 -44 -103 -129 -107 -107 -126 -140 -79 -140
45 0 284 246 284 293 0 9 -64 51 -150 100 -329 189 -543 330 -770 507 -167
131 -220 165 -220 142z"/>
<path d="M5821 4344 c-32 -27 -187 -98 -278 -128 -50 -17 -82 -40 -70 -52 3
-3 64 13 134 36 196 64 298 126 259 159 -11 9 -20 6 -45 -15z"/>
<path d="M3363 4044 c-6 -3 -54 -56 -106 -117 -183 -216 -439 -452 -610 -561
-102 -64 -44 -92 61 -29 115 68 225 163 448 389 122 123 226 224 231 224 4 0
82 -75 173 -166 243 -244 393 -351 480 -342 l34 3 -65 39 c-151 92 -307 232
-526 469 -87 95 -95 101 -120 91z"/>
<path d="M4659 3495 c-35 -19 -100 -54 -144 -76 -314 -161 -595 -340 -595
-377 0 -13 29 -24 43 -15 7 3 48 32 92 63 83 60 397 244 545 321 111 57 182
119 136 119 -7 0 -42 -16 -77 -35z"/>
<path d="M7830 3213 c0 -204 77 -594 166 -845 30 -84 48 -108 66 -90 9 9 6 29
-13 89 -18 58 -24 100 -24 168 l0 90 80 42 c44 23 108 52 142 63 60 21 92 44
79 57 -10 10 -171 -44 -266 -91 -47 -22 -88 -42 -91 -44 -4 -1 -9 12 -12 30
-3 18 -17 85 -31 148 -14 63 -32 176 -41 250 -16 138 -29 195 -46 205 -5 4 -9
-27 -9 -72z"/>
<path d="M4645 3175 c-163 -80 -222 -121 -212 -148 9 -24 18 -22 68 17 24 19
96 62 160 95 113 59 159 93 142 104 -5 3 -76 -27 -158 -68z"/>
<path d="M2580 3200 c0 -38 233 -285 369 -391 29 -23 32 -29 22 -48 -12 -21
-13 -21 -71 19 -32 23 -98 75 -147 116 -95 81 -123 100 -123 85 0 -14 191
-188 273 -248 159 -116 172 -135 142 -192 l-16 -32 -47 39 c-134 112 -320 217
-437 247 -126 32 -153 17 -195 -114 -79 -244 -246 -481 -463 -654 -122 -99
-143 -160 -28 -83 96 65 234 191 296 271 93 120 132 182 221 354 l81 156 44
-1 c64 0 204 -66 344 -162 131 -89 276 -213 515 -442 180 -173 268 -246 328
-272 75 -34 67 -14 -29 69 -136 117 -383 373 -409 422 l-21 42 25 43 c39 67
210 217 366 323 91 61 140 106 140 127 0 20 -14 14 -115 -54 -38 -26 -129 -83
-202 -127 l-132 -81 -77 50 c-177 113 -295 214 -483 416 -130 138 -171 167
-171 122z"/>
<path d="M7290 3105 c-292 -29 -614 -109 -665 -165 -17 -19 -17 -20 2 -20 10
0 55 13 99 29 115 42 352 88 549 106 257 23 286 29 271 54 -9 14 -92 13 -256
-4z"/>
<path d="M7305 2950 c-123 -22 -218 -47 -267 -71 -63 -32 -57 -53 9 -28 41 15
148 37 249 49 128 16 164 27 164 50 0 24 -16 24 -155 0z"/>
<path d="M3830 2812 c0 -17 57 -87 121 -148 87 -84 189 -158 275 -201 l72 -35
-15 -37 c-66 -159 -375 -479 -728 -753 -124 -96 -195 -168 -195 -197 0 -11 14
-29 30 -41 35 -25 271 -138 344 -165 42 -15 46 -19 30 -28 -10 -5 -33 -11 -51
-13 -19 -1 -54 -18 -82 -38 -91 -67 -275 -273 -294 -329 -5 -15 -200 133 -337
255 -58 51 -154 138 -215 192 -143 128 -359 290 -465 350 -161 91 -322 150
-433 161 -80 8 -66 -1 94 -60 292 -108 447 -208 752 -484 259 -234 265 -241
122 -134 -276 206 -465 311 -520 289 -15 -5 -2 -14 57 -40 131 -57 220 -118
496 -338 151 -120 275 -204 345 -230 27 -11 63 -26 79 -34 39 -20 60 -7 123
80 43 58 55 67 114 89 36 14 108 44 160 67 74 34 105 42 150 42 86 0 129 -27
267 -168 117 -120 123 -124 164 -124 46 0 107 36 255 149 80 61 163 101 211
101 32 0 61 -16 99 -53 32 -32 118 -77 148 -77 10 0 28 -5 40 -12 38 -21 80
-16 167 22 156 69 436 145 655 179 72 11 149 26 173 33 53 15 108 3 205 -47
l69 -35 156 35 c666 148 1158 222 1409 213 146 -6 154 -2 135 68 -18 65 -15
102 13 184 53 154 177 315 286 371 32 15 100 40 153 55 98 27 137 46 123 60
-4 4 -40 2 -79 -4 -39 -7 -73 -10 -76 -7 -12 11 46 54 126 95 46 23 86 48 89
56 9 25 -5 57 -88 194 -95 156 -138 246 -169 348 -24 80 -34 92 -58 69 -35
-36 30 -210 162 -429 47 -79 86 -149 86 -155 0 -7 -30 -29 -67 -49 -202 -111
-358 -204 -439 -260 l-92 -63 -7 56 c-10 84 -69 237 -100 263 -20 16 -20 11 4
-108 12 -56 26 -201 35 -342 8 -135 21 -267 29 -295 l13 -50 -79 4 c-194 8
-630 -57 -1280 -193 -120 -25 -226 -46 -236 -46 -15 0 -19 11 -24 63 -3 34 -8
70 -12 80 -10 25 63 55 167 68 130 17 189 30 183 39 -10 17 -139 23 -239 11
-114 -14 -305 -51 -416 -82 -186 -50 -516 -168 -742 -265 -150 -64 -195 -69
-228 -27 -12 16 -42 70 -67 120 l-45 93 107 132 c59 73 149 196 200 274 101
153 219 373 213 398 -6 33 -46 -13 -152 -172 -57 -86 -141 -204 -187 -262
-104 -129 -300 -333 -439 -455 -106 -92 -295 -244 -315 -251 -6 -3 -60 44
-121 103 -172 169 -376 308 -643 440 l-155 76 35 31 c19 17 122 105 229 196
374 318 680 652 782 855 29 57 50 125 39 125 -4 0 -31 -33 -60 -74 -29 -41
-63 -77 -74 -80 -45 -12 -104 -5 -154 18 -78 37 -230 142 -304 212 -66 62
-109 92 -109 76z"/>
<path d="M2433 2443 c-46 -136 -109 -235 -229 -364 -128 -138 -138 -174 -19
-72 69 59 165 171 223 262 39 61 76 157 68 177 -8 20 -36 17 -43 -3z"/>
<path d="M6324 2375 c-15 -39 32 -283 85 -445 66 -196 230 -509 277 -527 31
-12 25 9 -32 109 -123 214 -206 444 -258 713 -25 128 -35 161 -49 163 -9 2
-20 -4 -23 -13z"/>
<path d="M7715 2260 c-257 -33 -588 -111 -725 -170 l-65 -28 -145 14 c-171 16
-259 17 -280 4 -25 -16 27 -27 201 -45 207 -21 548 -21 718 0 216 27 396 75
396 105 0 24 -28 23 -152 -9 -148 -37 -312 -58 -338 -43 -52 28 144 86 438
128 95 13 188 29 207 36 30 10 32 12 15 19 -31 12 -118 8 -270 -11z"/>
<path d="M5896 2094 c-195 -34 -295 -79 -259 -115 9 -9 22 -6 55 9 51 25 206
68 297 83 68 10 101 24 101 39 0 15 -39 11 -194 -16z"/>
<path d="M5925 1950 c-286 -73 -415 -129 -389 -171 9 -15 33 -10 77 15 23 13
110 45 192 71 275 87 280 89 283 108 4 21 16 23 -163 -23z"/>
<path d="M7617 1908 c4 -13 8 -102 8 -198 0 -152 2 -175 16 -178 14 -2 17 13
22 100 7 97 -3 241 -18 281 -4 9 -14 17 -22 17 -11 0 -12 -6 -6 -22z"/>
<path d="M5945 1769 c-111 -24 -195 -63 -195 -90 0 -24 11 -24 58 0 40 20 185
66 244 76 20 4 45 13 55 21 16 12 13 13 -27 13 -25 0 -85 -9 -135 -20z"/>
</g>
</svg>
