<?xml version="1.0" standalone="no"?>
<!DOCTYPE svg PUBLIC "-//W3C//DTD SVG 20010904//EN"
 "http://www.w3.org/TR/2001/REC-SVG-20010904/DTD/svg10.dtd">
<svg version="1.0" xmlns="http://www.w3.org/2000/svg"
 width="1040.000000pt" height="1041.000000pt" viewBox="0 0 1040.000000 1041.000000"
 preserveAspectRatio="xMidYMid meet">

<g transform="translate(0.000000,1041.000000) scale(0.100000,-0.100000)"
fill="#000000" stroke="none">
<path d="M2373 9159 c3 -67 3 -226 0 -354 l-6 -233 -26 -12 c-14 -6 -63 -34
-108 -61 -45 -27 -86 -49 -91 -49 -9 0 -12 32 -29 320 l-8 125 -6 -90 c-4 -49
-7 -158 -8 -242 l-1 -152 -87 -60 c-419 -287 -764 -694 -798 -941 l-6 -45 24
27 c14 14 56 80 95 146 39 66 100 158 134 203 78 103 245 278 358 374 100 84
269 209 275 203 3 -2 7 -36 11 -76 5 -48 11 -73 21 -76 30 -12 35 6 32 102
l-4 96 105 63 c58 34 108 63 113 63 4 0 7 -11 7 -24 0 -13 7 -29 15 -36 24
-20 44 5 47 58 l3 46 155 72 c297 137 593 233 898 289 145 27 165 29 160 17
-1 -5 -58 -55 -125 -111 -256 -213 -414 -427 -528 -711 -64 -159 -95 -284
-102 -411 l-6 -105 -86 43 c-50 25 -136 56 -206 74 -105 28 -141 32 -290 36
-149 4 -191 2 -333 -21 -290 -46 -529 -143 -674 -274 -45 -41 -47 -49 -12 -62
21 -8 55 -2 168 30 260 74 518 105 802 97 216 -6 327 -30 493 -107 110 -51
134 -59 113 -38 -16 16 -15 28 3 28 8 0 65 35 127 77 62 42 147 92 188 111
165 75 382 131 583 150 78 7 87 6 87 -9 0 -13 -14 -18 -72 -23 -240 -23 -530
-122 -680 -232 -52 -37 -58 -49 -29 -59 13 -4 62 17 144 60 128 67 216 102
347 135 79 20 281 52 288 46 4 -4 2 11 43 -461 34 -401 86 -924 129 -1295 16
-140 41 -376 55 -525 14 -148 32 -328 40 -400 22 -194 24 -182 -36 -187 -28
-3 -62 -14 -77 -25 -24 -18 -27 -28 -27 -76 -1 -38 -6 -62 -18 -75 -21 -23
-22 -70 -2 -99 11 -16 14 -34 9 -63 -5 -33 -2 -47 20 -80 16 -25 26 -53 26
-76 0 -30 7 -44 39 -75 22 -20 56 -43 77 -49 l36 -12 -4 -127 c-6 -173 -36
-239 -120 -261 -86 -24 -175 36 -233 153 -15 31 -33 61 -41 68 -25 21 -16 -51
15 -116 55 -115 140 -172 245 -163 75 6 127 42 160 110 31 64 50 199 41 284
-4 42 -3 64 5 69 6 4 9 17 6 30 -4 14 0 28 9 35 19 16 19 60 1 85 -10 14 -11
25 -4 41 7 15 6 30 -6 52 -38 74 -3 117 51 63 32 -32 97 -51 115 -33 14 14 1
32 -22 32 -10 0 -33 14 -50 32 -25 25 -31 37 -26 59 6 33 -6 45 -25 23 -16
-19 -83 -54 -104 -54 -8 0 -15 5 -15 10 0 16 75 94 119 125 39 26 40 26 75 10
19 -9 80 -66 136 -126 56 -59 124 -123 151 -140 32 -21 48 -38 45 -48 -2 -9
-12 -49 -21 -89 -14 -59 -21 -73 -39 -78 -37 -9 -289 -9 -320 0 -22 7 -28 6
-24 -5 8 -26 79 -52 156 -57 l75 -5 -7 -60 c-3 -33 -6 -79 -6 -103 0 -33 -3
-42 -14 -38 -16 6 -36 47 -36 77 -1 12 -7 33 -14 46 -13 24 -14 24 -25 3 -15
-29 -14 -86 3 -127 18 -42 66 -69 107 -60 108 24 239 327 239 551 0 57 3 74
14 74 8 0 74 -9 148 -20 145 -22 330 -26 443 -10 79 11 189 60 206 92 10 18 9
19 -19 13 -29 -6 -29 -6 16 42 114 123 179 227 291 470 43 95 104 214 134 265
31 51 52 94 47 96 -38 13 -101 -79 -232 -344 -145 -291 -216 -391 -365 -516
l-87 -72 -136 0 c-83 0 -179 7 -250 18 -142 23 -251 34 -267 28 -9 -3 -11 -19
-6 -59 6 -55 6 -55 -17 -43 -12 7 -79 70 -148 140 -136 140 -167 160 -284 180
l-66 12 -6 71 c-20 242 -71 798 -91 1002 -69 670 -155 1659 -155 1774 l0 24
173 -5 c186 -6 283 -23 522 -91 130 -37 185 -50 185 -41 0 13 -159 77 -272
110 -160 46 -322 73 -480 81 -98 5 -128 9 -128 20 0 31 327 5 515 -41 55 -14
182 -54 283 -90 100 -36 196 -66 212 -66 33 0 35 -3 20 -31 -17 -30 2 -23 91
37 163 110 349 184 549 220 112 19 404 28 555 16 77 -6 127 -6 138 0 18 9 18
11 -2 32 -26 28 -126 77 -210 105 -218 71 -509 73 -771 5 -166 -44 -410 -180
-410 -229 0 -13 -21 -25 -45 -25 -7 0 -16 11 -19 25 -13 52 -273 143 -514 181
-143 23 -450 23 -582 1 -115 -20 -302 -67 -402 -103 -114 -41 -287 -134 -344
-186 -54 -50 -79 -61 -70 -30 3 9 8 44 11 77 21 201 67 360 155 538 140 282
305 468 624 706 60 44 118 81 129 81 25 0 234 -100 295 -142 122 -83 268 -225
373 -363 132 -172 196 -302 281 -558 72 -220 77 -231 78 -152 0 112 -68 332
-160 515 -87 173 -254 392 -391 512 -54 47 -97 78 -245 176 -51 34 344 -19
577 -78 290 -73 619 -205 884 -353 173 -97 366 -233 483 -342 70 -64 234 -233
289 -297 18 -21 35 -38 38 -38 3 0 -9 28 -26 63 -128 256 -450 527 -885 745
-444 223 -917 356 -1353 383 -90 5 -167 12 -171 14 -4 3 -10 22 -13 42 -9 50
-33 83 -62 83 -42 0 -57 -27 -67 -120 -3 -23 -8 -25 -73 -32 -342 -33 -756
-152 -1124 -321 l-138 -64 -7 126 c-4 69 -11 173 -16 231 -5 58 -12 151 -15
208 -4 60 -11 102 -18 102 -7 0 -8 -40 -4 -121z m1757 -4479 c0 -43 -2 -45
-31 -30 -23 13 -24 3 -4 -24 18 -23 21 -91 4 -80 -22 13 -69 99 -69 126 0 21
6 29 23 32 49 11 62 14 70 15 4 0 7 -17 7 -39z m117 26 c1 -1 -13 -14 -32 -29
l-35 -28 0 35 c0 35 1 35 33 29 17 -3 33 -7 34 -7z m-208 -176 c12 -17 45 -44
74 -60 60 -34 109 -100 74 -100 -40 0 -206 157 -191 182 9 14 20 9 43 -22z
m105 -201 c50 -24 76 -52 63 -66 -12 -12 -77 28 -134 81 -61 56 -71 82 -15 38
20 -17 59 -41 86 -53z m41 -119 c13 0 29 -29 21 -37 -9 -10 -93 36 -121 66
l-30 32 59 -30 c32 -17 64 -31 71 -31z"/>
<path d="M6091 8749 c-1 -332 2 -365 36 -338 18 15 17 160 -2 341 -8 79 -19
184 -24 233 -6 70 -9 17 -10 -236z"/>
<path d="M6878 8460 c-10 -60 -28 -401 -28 -517 0 -92 11 -123 44 -123 42 0
45 47 16 358 -11 119 -21 242 -22 272 l-3 55 -7 -45z"/>
<path d="M6367 7439 c-116 -24 -239 -105 -277 -183 l-22 -46 -36 29 c-54 41
-130 78 -219 103 -112 32 -330 32 -453 -1 -260 -69 -472 -235 -551 -433 -27
-66 -37 -224 -20 -295 25 -103 112 -189 236 -235 91 -33 260 -31 370 5 74 25
81 25 93 10 14 -19 16 -121 3 -142 -7 -11 -14 -7 -30 20 -12 19 -21 41 -21 50
0 21 -20 39 -36 32 -30 -11 0 -116 45 -157 17 -16 18 -21 5 -63 -24 -80 -15
-162 20 -185 6 -4 32 -8 57 -8 44 0 47 -2 64 -41 25 -55 122 -149 193 -187 92
-49 156 -63 300 -65 115 -2 134 -4 159 -23 42 -31 43 -85 3 -147 -34 -53 -71
-75 -82 -48 -4 9 -12 34 -18 57 -5 22 -20 49 -32 60 -21 19 -21 19 -14 -6 3
-14 11 -63 18 -110 6 -47 15 -91 21 -97 18 -24 50 -13 98 36 27 26 49 47 49
46 0 -2 -9 -45 -19 -97 -28 -136 -49 -304 -57 -455 -8 -158 6 -251 43 -291
l25 -27 -7 35 c-16 92 -16 233 -1 375 28 247 97 555 125 555 4 0 13 -19 20
-42 30 -108 44 -117 111 -77 98 60 275 247 329 348 29 54 42 121 23 121 -4 0
-29 -37 -56 -82 -60 -101 -262 -312 -292 -306 -30 5 -64 86 -71 165 -5 63 -2
79 26 153 18 45 38 92 45 104 16 25 29 86 18 86 -4 0 -31 -31 -60 -70 -190
-248 -571 -278 -782 -61 -30 31 -62 70 -70 85 -14 27 -13 29 13 52 31 27 59
73 51 85 -3 5 -34 -12 -71 -37 -53 -36 -73 -44 -102 -42 -32 3 -36 6 -39 34
-2 18 13 80 32 138 39 116 47 201 22 248 -14 26 -13 28 28 52 23 13 70 46 104
71 58 44 65 46 105 40 23 -4 57 -16 75 -27 26 -16 35 -18 47 -8 8 7 15 19 15
26 0 18 -55 52 -97 60 l-33 6 18 30 c17 29 18 29 77 22 76 -8 123 -32 169 -85
42 -49 62 -106 82 -226 14 -92 32 -128 77 -153 23 -13 30 -13 61 2 47 23 70
71 89 187 18 107 39 144 83 149 37 4 91 -31 117 -75 38 -65 16 -165 -45 -202
-13 -8 -50 -22 -83 -32 l-60 -16 40 -11 c44 -13 108 -1 137 25 15 13 17 10 27
-37 15 -70 43 -120 90 -163 50 -45 96 -69 124 -65 38 5 31 33 -12 53 -22 9
-50 29 -63 42 l-23 24 28 -10 c102 -39 279 28 317 119 18 42 7 60 -35 60 -124
0 -151 96 -99 355 51 255 42 436 -26 564 -96 179 -321 289 -513 250z m-1246
-301 c-100 -99 -172 -215 -207 -333 -21 -74 -22 -194 0 -253 19 -52 5 -46 -29
12 -81 138 -40 339 97 483 52 54 180 153 197 153 3 0 -24 -28 -58 -62z"/>
<path d="M1217 7203 c-12 -127 -20 -428 -13 -475 7 -47 23 -62 52 -51 17 6 16
64 -6 273 -5 47 -11 136 -14 199 -3 62 -7 115 -9 117 -2 3 -7 -26 -10 -63z"/>
<path d="M3394 6718 c-10 -432 -9 -450 32 -434 15 6 16 26 10 244 -11 421 -19
602 -26 602 -4 0 -11 -186 -16 -412z"/>
<path d="M1494 6733 c1 -389 4 -414 42 -382 18 15 17 49 -11 394 -32 376 -33
376 -31 -12z"/>
<path d="M3108 6680 c-5 -30 -11 -172 -14 -316 -6 -226 -5 -261 8 -266 39 -15
42 2 33 194 -18 433 -19 448 -27 388z"/>
<path d="M5617 6393 c-11 -10 -8 -29 13 -87 35 -92 82 -123 144 -94 47 21 92
153 61 178 -24 20 -42 5 -49 -44 -4 -25 -16 -55 -26 -68 -27 -33 -49 -15 -78
61 -17 42 -29 61 -41 61 -10 0 -21 -3 -24 -7z"/>
<path d="M5946 6025 c-3 -9 -6 -27 -6 -39 0 -27 -39 -66 -66 -66 -29 0 -46
-15 -42 -36 5 -27 64 -30 104 -5 59 36 87 152 38 159 -13 2 -24 -4 -28 -13z"/>
<path d="M7012 5847 c21 -12 73 -41 117 -65 197 -109 483 -367 665 -602 298
-384 520 -826 534 -1061 6 -112 -2 -151 -40 -195 -36 -41 -84 -67 -165 -91
-51 -15 -122 -17 -578 -17 -504 -1 -523 -2 -625 -24 -58 -13 -130 -36 -161
-51 l-57 -28 -6 36 c-7 43 -63 141 -126 219 -58 72 -159 154 -234 191 l-58 29
81 31 c212 82 590 137 1031 151 273 9 340 15 340 31 0 5 -18 12 -41 15 -39 7
-42 10 -71 73 -38 87 -99 180 -120 187 -34 10 -41 -7 -14 -35 51 -53 96 -188
68 -205 -4 -3 -114 -10 -244 -15 -463 -21 -868 -90 -1039 -177 -53 -26 -105
-68 -119 -95 -12 -21 8 -79 37 -111 13 -14 13 -18 2 -22 -8 -2 -68 -21 -134
-41 -114 -35 -123 -39 -170 -90 -95 -100 -144 -213 -145 -332 0 -62 39 -90 89
-64 15 8 21 4 35 -25 13 -29 21 -35 43 -32 26 3 53 31 41 43 -3 4 -14 8 -25 9
-21 3 -28 52 -18 134 5 40 18 69 51 119 48 69 69 113 55 113 -5 0 -35 -28 -66
-62 -62 -66 -89 -117 -100 -185 -7 -43 -38 -83 -49 -64 -13 20 16 136 47 194
17 32 51 80 76 107 53 54 104 74 350 135 137 33 146 34 170 19 32 -20 83 -76
117 -128 l26 -38 -24 -25 c-36 -39 -93 -63 -196 -84 -53 -11 -101 -24 -109
-30 -21 -18 -34 -85 -27 -138 4 -29 2 -51 -4 -55 -23 -14 -50 142 -33 187 6
15 34 51 62 79 53 53 55 77 4 64 -31 -8 -157 -135 -179 -180 -8 -18 -18 -62
-22 -99 -7 -68 -17 -85 -28 -44 -19 73 4 161 67 251 51 73 65 106 45 106 -41
0 -126 -111 -152 -200 -20 -68 -21 -160 -1 -207 18 -42 30 -53 63 -53 16 0 26
-7 29 -21 14 -53 90 -190 200 -359 140 -216 207 -336 290 -515 113 -245 203
-490 299 -819 31 -103 60 -199 66 -211 12 -26 70 -45 140 -45 66 0 216 27 401
71 155 38 216 44 191 19 -6 -6 -100 -33 -210 -62 -195 -51 -202 -52 -349 -52
-202 -1 -204 0 -245 137 -122 404 -241 726 -355 962 -72 149 -166 305 -184
305 -40 0 -300 -254 -448 -438 -219 -271 -300 -448 -291 -631 5 -112 46 -199
133 -286 61 -62 178 -131 263 -156 23 -7 40 -14 38 -16 -2 -2 -132 -8 -290
-13 -339 -11 -388 -16 -384 -39 4 -19 63 -20 538 -10 162 4 270 5 240 3 -96
-6 -194 -25 -179 -35 8 -5 187 -7 399 -5 415 5 438 7 -310 -23 -227 -9 -315
-19 -279 -33 21 -8 1401 9 1422 17 10 4 52 0 94 -10 99 -23 317 -16 528 19
205 33 351 44 760 56 386 12 529 23 596 45 40 13 18 14 -261 11 -184 -2 -263
0 -200 4 58 4 160 8 227 9 67 0 134 6 150 12 l28 12 -24 6 c-23 6 -21 8 17 19
84 26 44 32 -199 32 -226 0 -241 1 -234 18 63 164 56 429 -17 572 -31 60 -38
67 -101 99 -58 30 -78 35 -143 36 l-76 2 -65 124 c-87 166 -148 268 -259 430
-98 145 -101 159 -39 159 60 0 286 133 374 221 100 100 151 213 151 334 0 84
-62 316 -114 430 l-33 71 30 53 c108 191 -39 628 -371 1106 -345 495 -758 856
-976 855 l-41 -1 37 -22z m-745 -1777 c19 -23 20 -29 8 -33 -15 -6 -65 45 -65
67 0 22 15 28 25 10 5 -9 20 -29 32 -44z m2048 -310 c8 -16 20 -41 25 -55 9
-24 8 -24 -58 12 -37 20 -68 37 -70 39 -2 1 16 8 40 17 24 8 44 15 45 16 1 0
9 -12 18 -29z m107 -1751 c82 -18 125 -44 149 -90 66 -130 66 -418 1 -549 -26
-51 -111 -92 -196 -94 -104 -2 -105 12 -5 96 31 26 64 63 73 82 18 38 21 127
6 156 -7 13 -6 21 5 30 8 7 15 27 15 45 0 37 -43 164 -89 269 -17 36 -26 66
-21 66 5 0 33 -5 62 -11z m-242 -403 c0 -22 -5 -24 -72 -30 -57 -5 -75 -3 -87
9 -8 8 -12 17 -9 20 2 3 38 9 79 14 41 5 77 9 82 10 4 0 7 -10 7 -23z m226
-11 c15 -81 -1 -109 -129 -223 -20 -19 -40 -44 -43 -57 -6 -25 -29 -35 -81
-35 -32 0 -33 2 -33 39 0 21 -3 52 -6 69 l-6 30 70 12 c39 6 75 17 81 23 6 8
3 35 -10 82 -10 38 -19 75 -19 82 0 10 23 13 85 13 l84 0 7 -35z m-398 -127
c29 -73 52 -143 52 -155 0 -44 -109 -75 -389 -113 -249 -33 -421 -25 -421 20
0 61 129 115 420 175 139 28 190 43 190 54 0 19 -29 31 -76 31 l-52 0 -4 36
c-3 23 0 38 8 41 9 3 157 32 215 42 3 1 29 -59 57 -131z m-810 -199 c-2 -6
-41 -12 -93 -14 l-90 -3 80 12 c107 18 107 18 103 5z m962 -15 c0 -2 -12 -4
-26 -4 -14 0 -23 4 -20 9 6 8 46 4 46 -5z"/>
<path d="M2312 5236 c-3 -288 -2 -305 15 -314 12 -7 25 -7 37 0 20 11 21 -6
-9 343 -32 371 -39 367 -43 -29z"/>
<path d="M6042 4384 c-46 -112 -99 -189 -187 -273 -239 -227 -557 -321 -985
-292 -91 6 -192 14 -225 17 -65 5 -89 -3 -80 -29 11 -26 57 -36 238 -48 436
-30 681 21 939 193 118 79 197 154 257 243 59 88 83 157 79 221 l-3 48 -33
-80z"/>
<path d="M2672 4005 c-39 -43 -48 -60 -106 -203 -36 -86 -64 -136 -124 -215
-43 -56 -83 -116 -91 -133 -11 -29 -17 -32 -71 -38 -32 -4 -64 -13 -70 -21
-11 -13 -4 -15 46 -15 l59 0 0 -112 c0 -109 1 -116 36 -189 20 -41 51 -92 70
-114 41 -47 115 -95 145 -95 19 0 13 9 -38 58 -75 71 -114 126 -138 198 -28
80 -34 145 -20 203 l12 51 94 0 c52 0 160 -7 240 -15 80 -9 149 -13 155 -10
17 11 9 35 -13 39 -61 13 -138 19 -291 25 l-169 6 48 73 c35 52 53 71 65 67
11 -4 20 3 27 22 6 16 29 75 51 133 44 112 110 241 127 247 12 4 44 -91 44
-130 0 -16 -8 -30 -20 -37 -20 -11 -27 -44 -12 -54 5 -3 31 2 58 11 33 10 94
16 184 18 162 3 157 2 143 16 -7 7 -8 23 -2 47 5 20 9 55 9 77 l1 40 33 -38
c18 -20 57 -85 86 -145 86 -177 94 -193 113 -209 16 -15 17 -15 17 3 0 39 -77
241 -119 312 -59 102 -97 142 -131 142 -40 0 -51 -20 -59 -109 -4 -44 -9 -82
-11 -85 -3 -2 -48 -2 -101 1 l-95 6 -50 101 c-42 86 -53 101 -75 104 -19 2
-34 -6 -57 -33z"/>
<path d="M3017 3623 c-13 -12 -7 -51 11 -73 35 -43 70 7 42 61 -10 19 -40 26
-53 12z"/>
<path d="M2862 3588 c-25 -25 -1 -88 34 -88 29 0 39 31 22 67 -15 31 -37 40
-56 21z"/>
<path d="M3480 3546 c-93 -18 -259 -75 -282 -98 -20 -20 -16 -38 7 -38 7 0 69
22 137 49 67 27 134 52 148 56 47 12 80 27 80 36 0 11 -6 10 -90 -5z"/>
<path d="M2970 3452 c-26 -13 -34 -23 -33 -40 2 -12 -3 -22 -9 -22 -19 0 61
-77 98 -95 28 -13 33 -21 39 -65 9 -64 25 -65 25 0 0 36 7 59 25 86 30 45 36
138 9 148 -32 12 -120 6 -154 -12z m28 -82 c15 -25 4 -25 -28 0 -23 18 -23 20
-5 20 11 0 26 -9 33 -20z"/>
<path d="M3306 3373 c-93 -4 -116 -13 -116 -44 0 -20 26 -20 235 2 124 13 145
17 145 28 0 20 -35 22 -264 14z"/>
<path d="M2700 3285 c-171 -58 -288 -121 -266 -142 3 -4 23 1 44 11 55 27 158
62 232 81 36 9 77 21 92 26 41 17 49 61 10 58 -9 -1 -60 -16 -112 -34z"/>
<path d="M3365 3271 c-3 -6 -11 -39 -16 -73 -13 -79 -57 -161 -121 -227 -61
-62 -111 -92 -202 -121 -60 -20 -81 -22 -175 -16 -58 3 -128 9 -156 12 l-50 6
19 -21 c10 -11 55 -35 100 -52 73 -28 89 -31 166 -27 93 5 177 34 208 72 9 12
34 32 54 44 57 35 143 135 179 208 26 53 33 78 33 132 1 54 -2 67 -16 70 -9 2
-19 -2 -23 -7z"/>
<path d="M2413 2810 c-18 -10 -60 -54 -94 -97 -163 -205 -347 -540 -439 -803
-18 -52 -35 -97 -36 -99 -6 -8 -102 70 -155 126 -73 76 -87 105 -143 301 -77
264 -129 379 -186 402 -36 15 -63 1 -87 -43 -23 -43 -22 -221 1 -337 66 -323
186 -600 318 -732 36 -36 143 -96 153 -86 3 2 -17 20 -44 40 -145 108 -291
409 -357 737 -40 199 -43 356 -6 369 25 8 94 -153 133 -313 11 -44 24 -89 28
-100 5 -11 19 -51 31 -90 11 -38 32 -86 45 -106 18 -28 22 -44 18 -81 -5 -40
-2 -48 16 -58 12 -6 37 -10 54 -8 23 2 48 -7 85 -31 l53 -33 -8 -57 c-4 -31
-8 -144 -8 -252 l0 -197 -59 -7 c-42 -4 -56 -9 -45 -16 10 -6 2 -9 -26 -10
-229 -8 -247 -21 -53 -37 79 -7 168 -13 198 -14 91 -2 -94 -16 -232 -17 -120
-1 -193 -16 -153 -31 31 -11 564 -25 930 -24 443 2 535 18 535 98 0 16 -11 46
-24 65 -23 34 -25 50 -35 251 -6 118 -16 339 -21 490 -14 389 -22 468 -45 412
-20 -49 8 -891 35 -1041 6 -30 10 -56 10 -57 0 -2 -32 12 -71 31 -40 19 -96
40 -125 46 l-54 12 0 53 c0 198 -101 334 -247 334 l-48 0 60 -25 c72 -29 135
-93 160 -162 9 -27 19 -90 22 -140 l6 -93 -66 0 c-66 0 -117 -12 -117 -28 0
-5 78 -16 174 -25 186 -18 270 -40 313 -83 49 -49 19 -65 -169 -85 -133 -15
-506 -5 -605 15 -82 17 -152 45 -172 69 -22 27 -25 169 -7 295 53 356 235 756
529 1156 48 65 87 122 87 127 0 15 -23 10 -57 -11z m-635 -1587 c-16 -2 -40
-2 -55 0 -16 2 -3 4 27 4 30 0 43 -2 28 -4z"/>
<path d="M3144 2613 c-15 -147 17 -657 60 -963 30 -203 30 -203 143 -240 91
-30 138 -55 157 -82 26 -36 20 -56 -16 -62 -110 -17 -102 -18 -118 17 -24 52
-91 93 -208 130 l-107 34 -12 84 c-19 136 -41 352 -53 529 -6 91 -19 190 -28
220 l-16 55 -6 -50 c-4 -27 -4 -102 0 -165 8 -118 5 -129 -30 -130 -24 0 -40
-21 -40 -51 0 -33 22 -52 59 -52 l29 0 7 -86 c11 -141 44 -384 53 -393 5 -5
35 -16 67 -24 94 -25 160 -59 190 -98 15 -20 25 -39 23 -42 -3 -2 -72 -9 -154
-15 -165 -11 -184 -14 -184 -34 0 -29 39 -37 153 -31 62 3 245 9 407 15 162 5
309 14 325 19 24 8 12 11 -65 12 -52 1 -115 5 -140 9 -37 7 -28 9 57 10 103 1
133 6 133 22 0 5 -54 9 -120 9 l-120 0 0 34 c0 66 -62 116 -208 166 -52 19
-93 39 -97 48 -19 51 -77 592 -95 892 -13 216 -20 280 -30 280 -5 0 -12 -30
-16 -67z"/>
<path d="M2561 2541 c-25 -25 -26 -31 -7 -56 12 -16 19 -18 43 -10 23 9 28 16
28 45 0 28 -4 36 -22 38 -12 2 -31 -6 -42 -17z"/>
<path d="M2272 1584 c-17 -12 -22 -24 -20 -47 2 -26 8 -33 30 -35 40 -5 68 14
68 46 0 50 -35 66 -78 36z"/>
</g>
</svg>
