<?xml version="1.0" standalone="no"?>
<!DOCTYPE svg PUBLIC "-//W3C//DTD SVG 20010904//EN"
 "http://www.w3.org/TR/2001/REC-SVG-20010904/DTD/svg10.dtd">
<svg version="1.0" xmlns="http://www.w3.org/2000/svg"
 width="1041.000000pt" height="1040.000000pt" viewBox="0 0 1041.000000 1040.000000"
 preserveAspectRatio="xMidYMid meet">

<g transform="translate(0.000000,1040.000000) scale(0.100000,-0.100000)"
fill="#000000" stroke="none">
<path d="M2035 9243 c-339 -31 -710 -244 -921 -529 -248 -334 -290 -735 -114
-1091 148 -300 422 -491 801 -559 114 -20 342 -23 451 -5 l78 12 57 -35 c86
-52 171 -72 253 -57 71 13 140 52 140 79 0 9 -28 43 -62 75 -51 46 -60 59 -48
66 42 26 100 72 100 80 0 14 -73 -6 -164 -43 -206 -85 -363 -119 -556 -119
-338 -1 -614 101 -814 300 -109 109 -171 210 -219 358 -36 110 -47 182 -47
296 0 284 118 535 356 759 457 428 1132 453 1543 56 159 -154 243 -316 277
-541 56 -358 -81 -732 -342 -933 -87 -67 -76 -80 24 -27 324 170 486 648 371
1098 -122 481 -624 809 -1164 760z m670 -2184 c-16 -25 -124 -36 -188 -18
l-38 10 48 25 c26 13 61 34 76 47 l29 23 39 -39 c21 -22 36 -43 34 -48z"/>
<path d="M1914 8855 c-34 -7 -88 -26 -120 -41 -76 -36 -168 -126 -184 -181
l-13 -41 -60 6 c-71 6 -75 -9 -10 -46 l41 -22 -14 -47 c-8 -25 -14 -78 -14
-117 1 -355 363 -571 696 -415 63 30 142 91 179 138 l31 39 62 -25 c65 -26 96
-25 90 4 -3 14 -67 58 -110 75 -4 2 2 30 14 63 16 50 19 79 16 171 -3 104 -5
114 -41 186 -98 199 -331 304 -563 253z m262 -79 c169 -52 277 -200 278 -381
1 -76 -26 -191 -42 -183 -188 93 -361 176 -447 213 -60 27 -155 70 -209 97
-55 26 -105 48 -113 48 -24 0 -13 21 42 80 125 130 316 179 491 126z m-326
-369 c113 -52 255 -119 315 -149 61 -29 134 -63 163 -75 53 -22 53 -22 37 -47
-26 -39 -116 -104 -186 -133 -56 -24 -78 -27 -174 -28 -100 0 -115 2 -172 29
-77 35 -163 122 -201 203 -24 51 -27 70 -27 163 0 110 7 146 28 137 6 -3 104
-48 217 -100z"/>
<path d="M2814 8006 c-34 -15 -44 -32 -44 -76 0 -34 40 -70 77 -70 33 0 73 42
73 78 0 58 -52 91 -106 68z"/>
<path d="M4890 7981 c-171 -37 -328 -120 -453 -240 -124 -118 -179 -212 -298
-504 -82 -203 -157 -303 -283 -381 -39 -24 -149 -85 -244 -135 -96 -50 -208
-115 -250 -143 -249 -167 -372 -386 -372 -660 0 -174 37 -278 141 -397 141
-161 140 -152 94 -490 -25 -187 -4 -279 87 -377 111 -120 352 -167 525 -102
76 28 55 38 -82 38 -137 0 -209 12 -284 45 -71 32 -145 105 -166 164 -19 56
-19 170 1 291 21 130 22 264 0 314 -9 22 -42 70 -74 108 -111 135 -121 150
-144 216 -19 56 -23 87 -22 187 0 108 3 129 33 214 42 124 84 191 173 278 65
62 248 193 271 193 4 0 -18 -22 -50 -48 -32 -27 -89 -82 -128 -123 -170 -180
-232 -337 -223 -567 5 -131 25 -178 124 -297 92 -109 107 -146 103 -249 -9
-217 -4 -361 14 -415 53 -156 156 -216 372 -215 61 1 139 6 174 13 34 7 64 11
66 9 2 -2 -33 -50 -76 -108 -355 -471 -787 -1283 -853 -1603 -31 -148 -20
-134 85 113 98 232 252 538 372 742 302 513 541 832 867 1159 184 184 297 281
459 394 l84 59 16 -24 c53 -82 137 -146 237 -181 48 -17 76 -20 151 -16 l92 4
-19 -50 c-32 -82 -82 -159 -150 -228 -90 -91 -240 -189 -288 -189 -36 0 -67
56 -98 174 -9 33 -21 70 -27 81 -10 18 -11 17 -18 -15 -18 -84 30 -276 77
-306 20 -14 31 -15 72 -5 108 27 267 136 392 267 63 68 90 106 129 185 l48 99
26 -58 c37 -83 47 -126 54 -233 6 -106 -17 -249 -41 -249 -7 0 -60 23 -117 51
-57 28 -114 55 -127 60 -20 8 -21 7 -13 -10 24 -44 159 -132 232 -152 65 -18
92 -7 115 43 16 36 19 66 18 208 0 117 -5 180 -15 217 l-16 52 41 -29 c142
-98 286 -230 377 -346 69 -88 122 -135 136 -120 15 15 -134 223 -227 316 l-58
58 42 12 c88 26 202 126 253 223 l17 32 17 -75 c10 -41 18 -80 19 -87 0 -6
-22 -24 -49 -38 -70 -39 -79 -61 -58 -142 23 -88 176 -460 298 -723 58 -127
99 -228 99 -247 0 -19 15 -52 39 -89 47 -70 111 -135 111 -113 0 40 -75 231
-170 434 -152 325 -302 691 -303 740 -2 74 57 112 255 165 157 41 276 60 379
60 87 0 90 -1 126 -34 65 -59 206 -319 373 -691 78 -171 105 -219 122 -209 20
13 1 109 -41 209 -77 181 -268 554 -334 653 -89 133 -97 137 -269 137 l-137 0
-100 205 c-97 200 -151 336 -151 380 0 12 27 102 60 199 52 155 60 187 60 252
-1 59 -5 83 -25 119 -52 96 -51 88 -22 118 36 38 74 118 98 209 28 103 30 289
5 382 -49 179 -193 365 -341 439 -165 82 -388 87 -537 11 -36 -19 -39 -19 -44
-2 -43 129 -151 245 -294 315 -126 62 -192 79 -335 84 -92 3 -140 0 -205 -15z
m580 -957 c101 -72 223 -83 351 -30 13 6 18 -4 27 -49 16 -76 37 -117 85 -166
44 -43 132 -99 157 -99 9 0 44 -29 78 -63 l63 -64 -26 -154 c-42 -246 -130
-479 -246 -651 -59 -88 -182 -207 -254 -245 -255 -134 -570 -60 -814 191 -25
25 -43 47 -40 49 2 1 18 7 34 13 20 6 31 17 33 32 5 33 -56 155 -115 233 -28
37 -53 71 -57 77 -3 5 10 26 29 45 38 38 47 64 18 52 -10 -5 -43 -15 -74 -23
-47 -13 -62 -14 -103 -2 -92 25 -176 130 -176 218 0 112 106 200 208 172 45
-12 66 -33 116 -117 46 -78 84 -106 143 -107 84 -2 115 66 112 241 l-2 105 98
52 c124 65 222 153 264 238 17 34 31 67 31 75 0 19 4 17 60 -23z m760 -325
c80 -51 238 -209 276 -274 47 -81 39 -149 -39 -352 -53 -136 -63 -196 -43
-270 21 -82 114 -296 181 -416 31 -54 53 -102 50 -107 -3 -4 -43 -13 -91 -20
-47 -7 -116 -20 -155 -29 l-69 -18 -10 36 c-5 20 -16 66 -24 102 -29 128 -104
295 -170 382 -20 26 -36 51 -36 57 0 5 20 59 45 120 53 129 108 335 125 470
18 140 20 144 45 73 l14 -38 1 43 c0 56 -8 71 -101 173 -108 118 -107 138 1
68z m-1483 -691 c63 -103 93 -163 93 -183 0 -13 -22 -15 -155 -15 -94 0 -155
4 -155 10 0 5 30 58 66 116 36 59 71 120 76 136 6 15 13 26 17 24 4 -3 30 -42
58 -88z m1417 -677 c-36 -67 -118 -157 -163 -180 -20 -10 -55 -24 -78 -31 -38
-12 -45 -11 -63 5 -23 21 -26 35 -6 35 8 0 55 21 105 46 94 47 204 137 217
177 4 12 9 17 11 10 3 -7 -8 -35 -23 -62z"/>
<path d="M5356 6688 c-17 -10 -22 -43 -7 -53 6 -3 36 -10 68 -16 32 -5 80 -17
107 -26 43 -14 50 -14 63 0 36 36 -10 66 -139 90 -47 9 -82 11 -92 5z"/>
<path d="M5806 6626 c-67 -13 -91 -35 -65 -62 15 -14 25 -14 93 -4 89 15 111
27 102 58 -8 25 -34 27 -130 8z"/>
<path d="M5516 6429 c-46 -11 -76 -34 -76 -59 0 -23 26 -44 45 -36 11 4 15 -2
15 -24 0 -34 31 -70 59 -70 38 0 51 27 51 105 0 63 -3 76 -19 85 -22 11 -22
11 -75 -1z"/>
<path d="M5714 6396 c-3 -9 -5 -58 -2 -109 3 -78 9 -103 32 -150 29 -56 67
-99 98 -110 29 -10 28 5 -2 46 -38 52 -68 139 -50 145 24 8 50 42 50 66 0 19
6 25 28 28 21 2 28 9 30 31 3 24 -2 30 -34 43 -21 9 -62 18 -91 21 -43 5 -54
3 -59 -11z"/>
<path d="M5440 5845 c-24 -28 0 -49 63 -56 31 -4 68 -14 82 -23 34 -23 69 -17
73 11 5 35 -63 74 -140 80 -52 4 -66 2 -78 -12z"/>
<path d="M6932 7945 c-45 -20 -157 -121 -192 -174 -62 -92 -25 -95 91 -7 140
106 182 153 159 181 -15 18 -16 18 -58 0z"/>
<path d="M2555 7898 c-48 -26 -59 -78 -26 -119 13 -17 29 -23 56 -23 71 0 104
90 49 133 -30 23 -49 26 -79 9z"/>
<path d="M2295 7788 c-48 -26 -59 -78 -26 -119 13 -17 29 -23 56 -23 71 0 104
90 49 133 -30 23 -49 26 -79 9z"/>
<path d="M2050 7682 c-30 -15 -35 -22 -38 -58 -3 -36 1 -45 25 -64 50 -39 123
-4 123 60 0 32 -25 65 -55 74 -11 3 -36 -2 -55 -12z"/>
<path d="M7045 7640 c-76 -18 -104 -30 -125 -55 -11 -13 -11 -18 1 -30 12 -12
33 -13 123 -5 123 11 156 25 149 63 -7 38 -60 47 -148 27z"/>
<path d="M1788 7574 c-30 -16 -44 -51 -34 -89 8 -30 39 -48 80 -47 64 2 91 91
40 131 -31 25 -49 26 -86 5z"/>
<path d="M6835 7310 c-9 -15 5 -33 75 -97 114 -103 180 -134 209 -99 14 17
-33 85 -75 106 -16 8 -40 24 -54 36 -57 50 -140 79 -155 54z"/>
<path d="M6935 4689 c-13 -21 6 -55 50 -87 58 -42 89 -54 104 -39 25 25 11 54
-44 96 -53 40 -97 52 -110 30z"/>
<path d="M5295 4567 c-35 -29 -48 -133 -20 -160 28 -28 79 -22 109 13 78 93
-1 224 -89 147z"/>
<path d="M4333 4533 c-23 -9 -14 -49 22 -96 42 -55 64 -69 88 -56 27 15 20 48
-20 98 -51 63 -59 67 -90 54z"/>
<path d="M5990 4127 c-59 -36 -73 -69 -38 -91 14 -8 31 -3 85 26 59 32 68 41
68 65 0 42 -45 42 -115 0z"/>
<path d="M8070 4099 c-502 -9 -614 -16 -639 -37 -57 -50 -553 -1478 -551
-1584 1 -22 41 33 71 97 16 33 75 195 133 360 195 564 366 1028 390 1060 10
14 55 18 321 25 171 5 503 9 738 10 403 0 428 -1 423 -17 -3 -10 -51 -169
-106 -353 -242 -804 -351 -1089 -464 -1214 l-41 -46 -155 -5 c-85 -2 -427 -9
-760 -15 -333 -5 -708 -11 -835 -13 -171 -3 -202 -2 -120 4 135 9 347 39 358
49 16 14 -264 22 -524 15 l-259 -8 -44 -34 c-49 -38 -62 -61 -46 -77 15 -15
900 -8 2275 19 249 5 409 16 422 29 14 14 -18 28 -83 38 -38 6 -74 12 -81 14
-8 2 -2 21 17 56 82 155 237 605 450 1310 100 332 103 312 -53 321 -126 8
-267 7 -837 -4z m-1747 -1736 c-7 -2 -21 -2 -30 0 -10 3 -4 5 12 5 17 0 24 -2
18 -5z"/>
<path d="M6981 3813 c-46 -64 -51 -90 -18 -103 18 -7 27 -3 53 25 67 75 81
135 30 135 -19 0 -35 -14 -65 -57z"/>
<path d="M5032 3738 c-23 -23 -12 -45 54 -101 55 -48 69 -55 85 -47 39 21 13
76 -64 131 -44 32 -57 35 -75 17z"/>
<path d="M3856 3607 c-69 -37 -86 -58 -67 -81 20 -23 39 -20 114 20 75 39 81
46 72 74 -9 29 -50 25 -119 -13z"/>
<path d="M7967 3389 c-9 -5 -33 -36 -54 -67 -37 -58 -51 -118 -39 -167 9 -34
61 -65 112 -65 133 0 226 212 127 289 -28 23 -114 29 -146 10z m117 -55 c10
-9 16 -33 16 -60 0 -39 -3 -46 -26 -54 -39 -15 -53 -12 -80 15 -27 27 -26 47
2 93 17 26 65 30 88 6z"/>
<path d="M6088 3287 c-93 -63 -163 -112 -249 -174 -123 -88 -306 -148 -484
-159 l-100 -6 -18 41 c-15 34 -29 46 -82 71 -72 34 -267 86 -467 124 -75 15
-155 33 -178 41 -43 15 -155 11 -166 -7 -11 -18 8 -47 39 -57 18 -5 84 -17
147 -26 63 -9 178 -30 255 -46 276 -58 354 -88 393 -151 39 -64 92 -251 137
-488 46 -242 72 -330 86 -293 14 34 9 108 -16 261 -14 84 -25 174 -25 200 0
47 -30 194 -48 243 l-10 26 86 6 c112 8 258 45 357 91 42 20 157 92 255 161
98 68 190 129 206 135 53 20 257 -25 314 -70 23 -18 23 -20 5 -20 -11 0 -54 9
-95 20 -110 29 -154 26 -225 -13 -48 -27 -64 -43 -83 -82 -28 -56 -34 -50 95
-100 50 -20 103 -45 117 -56 24 -19 96 -185 111 -259 l7 -35 -22 20 c-13 11
-40 56 -60 100 -23 50 -50 92 -71 109 -69 58 -185 97 -245 82 -38 -10 -21 -23
88 -71 90 -39 93 -42 120 -95 39 -77 75 -210 57 -210 -5 0 -33 42 -63 93 -60
103 -75 118 -127 140 -52 21 -195 51 -213 44 -31 -12 -15 -26 94 -81 l109 -56
30 -63 c34 -72 47 -117 34 -117 -6 0 -33 27 -62 59 -39 46 -64 64 -106 80 -86
32 -129 28 -190 -18 -56 -43 -134 -84 -180 -96 -16 -4 -72 -11 -124 -14 -97
-6 -115 -15 -86 -45 12 -12 35 -16 83 -16 124 0 236 39 335 114 26 20 57 36
68 36 57 0 102 -25 173 -97 58 -58 79 -73 102 -73 39 0 54 16 54 58 l0 35 25
-27 c47 -51 115 -23 115 47 0 29 0 29 26 13 14 -10 39 -16 57 -14 29 3 32 6
35 42 4 52 -22 153 -67 256 -43 100 -75 127 -196 169 l-77 28 34 20 c80 47
100 49 216 25 130 -27 153 -27 182 -4 18 15 21 24 16 50 -19 84 -191 162 -363
162 l-73 0 -92 -63z"/>
<path d="M1802 3089 c-97 -7 -128 -24 -61 -33 54 -7 221 -14 479 -22 107 -3
222 -10 255 -15 33 -5 119 -12 190 -15 117 -6 135 -5 175 13 25 11 53 23 63
26 21 8 22 21 1 42 -15 14 -67 16 -518 13 -275 -1 -538 -6 -584 -9z"/>
<path d="M3860 3002 c0 -25 8 -37 45 -62 101 -70 99 -133 -10 -265 -68 -82
-85 -118 -85 -180 0 -79 55 -157 132 -189 37 -16 170 -22 202 -10 32 12 14 24
-37 24 -158 0 -272 98 -238 202 6 19 41 68 78 108 77 87 103 137 103 205 0 87
-73 179 -153 192 -36 5 -37 5 -37 -25z"/>
<path d="M8828 3004 c-38 -7 -52 -27 -38 -55 12 -22 14 -22 174 -14 88 4 233
9 321 11 148 4 212 15 154 28 -79 17 -552 40 -611 30z"/>
<path d="M4805 2777 c-26 -20 -14 -52 44 -116 39 -43 52 -52 70 -46 14 4 21
15 21 32 0 38 -82 143 -112 143 -2 0 -12 -6 -23 -13z"/>
<path d="M3591 2150 c-137 -15 -211 -64 -226 -150 -6 -33 -2 -51 20 -96 32
-65 84 -104 149 -111 54 -6 69 11 23 26 -77 26 -137 92 -137 151 0 69 53 106
168 117 49 5 62 3 62 -8 0 -44 23 -256 35 -329 23 -132 62 -265 104 -356 l39
-83 -46 -6 c-69 -10 -112 -25 -112 -40 0 -35 64 -52 257 -67 138 -10 155 -10
198 6 134 51 243 262 285 552 15 101 10 298 -7 315 -22 22 -41 -19 -47 -101
-22 -284 -40 -378 -96 -514 -66 -159 -192 -242 -288 -192 -71 37 -139 153
-186 317 -51 177 -89 508 -58 501 7 -1 82 -5 165 -8 216 -9 342 13 412 70 19
15 11 16 -110 9 -157 -10 -307 -10 -435 -2 -52 4 -128 3 -169 -1z"/>
<path d="M3857 1803 c-11 -3 -16 -11 -13 -26 3 -12 15 -69 26 -126 45 -219
109 -340 180 -341 95 0 162 140 190 394 5 50 7 92 4 95 -7 7 -363 11 -387 4z"/>
</g>
</svg>
