<?xml version="1.0" standalone="no"?>
<!DOCTYPE svg PUBLIC "-//W3C//DTD SVG 20010904//EN"
 "http://www.w3.org/TR/2001/REC-SVG-20010904/DTD/svg10.dtd">
<svg version="1.0" xmlns="http://www.w3.org/2000/svg"
 width="1040.000000pt" height="1041.000000pt" viewBox="0 0 1040.000000 1041.000000"
 preserveAspectRatio="xMidYMid meet">

<g transform="translate(0.000000,1041.000000) scale(0.100000,-0.100000)"
fill="#F5F2EB" stroke="none">
<path d="M5551 9655 c-74 -63 -305 -591 -637 -1457 -63 -164 -114 -309 -114
-322 0 -13 8 -30 18 -39 33 -30 185 -95 588 -253 757 -295 974 -390 1563 -683
223 -110 406 -199 408 -197 9 8 -120 113 -222 181 -134 89 -231 143 -496 275
-112 56 -208 106 -214 110 -18 14 -376 180 -555 257 -96 42 -319 131 -495 199
-402 156 -467 184 -461 199 2 7 19 59 36 116 118 382 467 1263 585 1475 50 90
48 89 162 70 370 -63 1135 -337 1723 -618 345 -166 699 -377 899 -536 l24 -19
-33 -99 c-76 -227 -276 -709 -445 -1069 -116 -247 -149 -325 -136 -325 39 0
120 117 219 315 178 358 457 1053 469 1170 l5 50 -96 72 c-367 275 -887 547
-1529 799 -366 144 -797 282 -1032 329 -158 32 -195 32 -234 0z"/>
<path d="M5702 9248 c-108 -196 -370 -784 -458 -1026 -36 -98 -42 -144 -21
-159 6 -5 98 -40 202 -77 304 -109 554 -211 790 -323 121 -58 234 -107 252
-110 29 -5 34 -2 62 43 88 140 358 706 412 868 20 58 60 234 59 259 -1 22 -81
-143 -177 -367 -52 -121 -136 -304 -186 -406 -105 -214 -93 -217 -126 33 -23
170 -31 197 -61 197 -24 0 -178 -68 -249 -109 -29 -18 -55 -30 -57 -29 -2 2
-17 121 -34 263 -17 143 -36 278 -43 300 -11 36 -16 40 -43 39 -50 -2 -451
-253 -638 -398 -33 -25 -61 -44 -63 -43 -5 5 103 265 202 487 139 312 267 570
282 570 31 0 255 -62 378 -104 203 -69 324 -120 528 -218 103 -50 190 -88 193
-85 10 9 -24 64 -56 91 -115 96 -531 263 -902 361 -194 51 -185 53 -246 -57z
m308 -717 c0 -16 2 -36 5 -44 4 -10 -87 -70 -315 -206 -257 -154 -326 -192
-346 -187 -13 4 -24 10 -24 14 1 11 231 180 350 257 145 94 312 195 322 195 4
0 8 -13 8 -29z m424 -462 c3 -17 4 -34 1 -39 -6 -9 -265 -124 -269 -119 -2 2
-6 18 -9 36 l-6 31 122 61 c67 33 129 61 138 61 10 0 19 -11 23 -31z"/>
<path d="M4274 8924 c-37 -18 -54 -51 -54 -105 0 -33 7 -48 34 -75 45 -45 101
-48 147 -6 27 24 32 36 33 74 2 101 -74 154 -160 112z"/>
<path d="M8667 8842 c-15 -15 -30 -43 -33 -62 -4 -19 -10 -40 -15 -45 -14 -19
-28 -98 -22 -127 8 -39 39 -55 63 -33 29 26 91 165 97 217 9 79 -38 105 -90
50z"/>
<path d="M6328 8704 c-148 -46 -134 -257 22 -309 39 -13 57 -14 89 -5 85 23
139 100 128 182 -5 40 -31 78 -52 78 -6 0 -22 11 -35 25 -13 14 -40 29 -59 35
-42 12 -34 12 -93 -6z"/>
<path d="M8970 8555 c-19 -7 -65 -25 -102 -38 -132 -49 -195 -99 -163 -130 16
-16 21 -16 125 13 36 10 80 21 98 24 42 7 137 54 158 77 11 12 14 27 10 44 -6
22 -12 25 -49 25 -23 -1 -58 -7 -77 -15z"/>
<path d="M7102 8419 c3 -30 8 -33 96 -64 96 -35 528 -248 597 -295 81 -56 185
-101 223 -98 49 4 51 22 5 53 -72 49 -338 197 -528 294 -195 99 -305 141 -363
141 -31 0 -33 -2 -30 -31z"/>
<path d="M8640 8215 c0 -18 25 -31 164 -85 190 -74 285 -90 306 -50 6 11 8 25
5 30 -14 23 -103 64 -164 76 -36 7 -93 20 -126 28 -80 21 -185 21 -185 1z"/>
<path d="M7072 7994 c-38 -26 -25 -54 33 -73 28 -9 108 -47 178 -84 71 -37
139 -67 152 -67 33 0 55 10 55 25 0 23 -304 197 -365 209 -20 4 -38 1 -53 -10z"/>
<path d="M6880 7659 c-18 -32 -7 -44 62 -69 59 -21 317 -154 438 -225 126 -74
174 -91 216 -75 26 10 26 11 9 30 -10 11 -38 29 -64 42 -25 12 -86 46 -134 75
-48 29 -90 53 -92 53 -2 0 -39 21 -82 46 -144 85 -276 144 -324 144 -10 0 -23
-9 -29 -21z"/>
<path d="M3297 7522 c-43 -47 -1 -127 63 -120 63 6 89 78 44 122 -22 22 -87
21 -107 -2z"/>
<path d="M5930 6945 c-199 -40 -359 -157 -390 -286 l-11 -46 -95 -7 c-351 -24
-579 -145 -690 -366 -48 -95 -43 -274 11 -402 5 -13 0 -19 -22 -23 -199 -44
-351 -102 -457 -174 -115 -80 -212 -205 -248 -324 -26 -88 -21 -212 12 -302
28 -75 96 -181 156 -246 32 -33 42 -50 33 -53 -8 -3 -49 -14 -92 -25 -102 -28
-194 -70 -272 -126 -77 -54 -125 -111 -162 -191 -24 -51 -28 -71 -28 -154 0
-52 2 -106 5 -120 5 -25 4 -25 -80 -32 -47 -3 -208 -16 -358 -29 -150 -12
-275 -20 -277 -17 -3 3 10 60 30 127 40 140 46 211 17 211 -31 0 -77 -41 -420
-376 l-333 -327 -67 22 c-55 18 -315 142 -332 158 -3 3 7 15 21 26 14 12 151
132 305 267 153 135 302 265 331 289 l52 43 135 -47 c88 -30 161 -48 207 -52
92 -8 87 3 -29 61 -143 72 -288 122 -339 117 -28 -2 -747 -653 -761 -688 -30
-75 -337 -1563 -457 -2217 -62 -336 -63 -321 15 -372 22 -15 40 -28 40 -30 0
-2 -20 -12 -45 -23 -32 -14 -45 -26 -45 -40 0 -51 113 -75 354 -76 l169 0 28
35 c45 54 524 721 607 845 120 179 112 181 112 -35 l0 -185 -46 -19 c-65 -27
-114 -78 -114 -119 0 -63 125 -242 389 -557 81 -96 167 -204 191 -240 25 -36
50 -68 55 -72 28 -21 326 0 815 57 162 19 448 50 635 70 381 40 889 105 1009
130 80 17 246 72 246 82 0 15 -321 -11 -630 -51 -371 -49 -811 -100 -1195
-140 -132 -14 -280 -30 -328 -36 -232 -28 -417 -24 -457 8 -13 11 -26 42 -35
87 -15 74 -18 156 -35 1035 -15 777 -36 1216 -61 1261 -8 16 -13 18 -24 9 -41
-34 -42 -87 -16 -750 14 -346 22 -1193 14 -1360 l-8 -144 -42 64 c-55 86 -146
248 -220 391 l-61 116 -7 474 c-3 261 -8 719 -10 1019 -3 432 -7 558 -18 608
-8 35 -11 60 -7 55 4 -4 42 -50 85 -101 42 -51 122 -140 177 -198 l101 -104
93 0 c195 0 1851 158 2449 234 204 25 230 35 206 78 -14 26 -208 167 -513 372
l-206 139 -259 -17 c-142 -9 -382 -23 -533 -31 -151 -8 -310 -17 -352 -21
l-77 -6 -11 44 c-20 70 -8 175 25 237 41 75 130 153 229 201 78 38 252 90 300
90 12 0 57 -24 101 -53 211 -141 365 -201 504 -199 51 0 68 5 87 23 48 45 22
122 -60 179 -129 88 -274 130 -461 134 l-130 3 -80 79 c-88 87 -152 194 -175
293 -45 193 92 406 336 523 92 44 303 109 353 108 9 0 31 -23 50 -50 146 -216
605 -473 797 -446 214 29 156 254 -111 431 -146 96 -310 144 -527 152 l-146 6
-21 53 c-69 181 -44 318 81 443 95 95 233 157 413 186 101 17 235 20 235 6 0
-21 110 -128 178 -172 39 -26 109 -60 155 -76 70 -24 98 -28 189 -28 99 0 108
2 132 24 54 51 24 133 -73 197 -99 67 -217 101 -488 140 -37 6 -43 26 -19 73
41 78 171 158 311 192 69 16 265 37 360 39 34 0 3 18 -60 34 -72 19 -224 19
-315 1z m-123 -440 c145 -27 256 -72 318 -126 52 -46 47 -59 -23 -59 -120 0
-297 71 -389 155 l-48 44 31 1 c18 0 68 -7 111 -15z m-664 -770 c178 -31 339
-109 445 -215 68 -68 111 -144 95 -168 -45 -72 -309 14 -538 176 -78 55 -210
174 -226 203 -9 18 -5 19 64 19 41 0 113 -7 160 -15z m-471 -1100 c119 -31
270 -117 253 -145 -23 -37 -252 43 -400 139 l-50 33 67 -6 c37 -3 95 -12 130
-21z m-2720 -945 c53 -33 134 -77 180 -97 45 -20 84 -38 86 -39 3 -2 -63 -341
-229 -1184 -144 -728 -241 -1195 -249 -1204 -9 -9 -202 89 -317 161 -59 38
-72 50 -68 67 3 12 12 64 20 116 32 191 434 2184 450 2228 8 21 30 13 127 -48z"/>
<path d="M4128 6299 c-23 -13 -23 -62 -2 -84 25 -24 75 -16 93 16 13 24 13 29
-2 53 -19 28 -57 34 -89 15z"/>
<path d="M6719 6289 c-16 -16 -20 -29 -15 -53 11 -59 75 -85 124 -50 28 20 31
83 4 107 -27 24 -87 22 -113 -4z"/>
<path d="M3083 6114 c-61 -27 -35 -66 87 -133 l53 -29 -39 -17 c-21 -9 -57
-24 -79 -32 -58 -23 -70 -36 -55 -63 8 -14 17 -19 28 -15 9 4 58 20 108 36
177 58 180 95 16 222 -67 51 -71 52 -119 31z"/>
<path d="M8270 5728 c-52 -5 -105 -15 -117 -24 -29 -18 -30 -56 -3 -99 l21
-33 -66 -7 -65 -7 0 -44 c0 -27 5 -46 13 -49 6 -3 52 1 101 9 71 10 93 18 108
36 24 30 23 48 -7 92 -14 20 -25 41 -25 46 0 5 37 15 82 23 66 12 84 18 86 33
4 16 -14 38 -28 34 -3 0 -48 -5 -100 -10z"/>
<path d="M6963 5665 c-48 -34 -12 -109 50 -103 22 2 36 11 46 30 14 25 14 29
-5 55 -25 33 -60 40 -91 18z"/>
<path d="M7989 3901 c-56 -57 -29 -169 46 -190 115 -31 188 95 109 189 -22 26
-32 30 -76 30 -41 0 -54 -5 -79 -29z"/>
<path d="M5730 3470 c0 -52 7 -174 15 -270 33 -396 47 -921 40 -1465 -4 -286
-4 -532 0 -547 9 -35 29 -36 51 -3 15 23 17 89 18 653 1 406 -4 704 -12 847
-7 121 -17 303 -23 405 -16 300 -32 401 -70 451 -19 24 -19 24 -19 -71z"/>
</g>
</svg>
