<?xml version="1.0" standalone="no"?>
<!DOCTYPE svg PUBLIC "-//W3C//DTD SVG 20010904//EN"
 "http://www.w3.org/TR/2001/REC-SVG-20010904/DTD/svg10.dtd">
<svg version="1.0" xmlns="http://www.w3.org/2000/svg"
 width="1040.000000pt" height="1041.000000pt" viewBox="0 0 1040.000000 1041.000000"
 preserveAspectRatio="xMidYMid meet">

<g transform="translate(0.000000,1041.000000) scale(0.100000,-0.100000)"
fill="#000000" stroke="none">
<path d="M8381 8818 c-2 -274 -40 -504 -131 -778 -97 -295 -210 -528 -529
-1085 -337 -587 -445 -815 -556 -1172 -85 -272 -142 -539 -181 -843 -26 -201
-30 -663 -8 -895 24 -267 24 -261 -6 -258 -38 4 -116 95 -189 219 -36 60 -83
136 -105 169 -86 129 -223 246 -346 295 -99 40 -284 38 -319 -3 -7 -10 19 -12
123 -12 l132 0 79 -39 c65 -31 98 -57 175 -135 77 -78 107 -117 159 -211 130
-233 203 -327 291 -378 25 -14 46 -26 47 -27 1 -1 16 -71 33 -156 41 -206 99
-428 167 -634 56 -172 176 -482 219 -566 l23 -47 -43 -16 c-77 -29 -219 -131
-296 -212 -77 -80 -158 -187 -181 -237 -11 -25 -16 -27 -74 -27 -98 0 -169
-34 -266 -127 -29 -28 -49 -41 -53 -34 -13 20 -63 11 -133 -24 -68 -34 -122
-79 -110 -91 3 -4 28 8 54 26 39 26 55 31 87 27 54 -7 60 -18 31 -57 -26 -35
-34 -80 -14 -80 6 0 36 23 66 50 33 30 64 50 78 50 26 0 55 -33 55 -62 0 -28
15 -21 31 14 21 49 52 49 99 -1 36 -38 70 -53 70 -33 0 24 -66 96 -100 111
-40 17 -50 33 -50 88 0 36 33 62 108 84 38 11 50 10 98 -6 68 -23 113 -61 194
-164 57 -73 90 -99 90 -71 0 5 -28 51 -62 103 -35 51 -76 119 -92 151 -27 55
-28 60 -13 90 25 53 154 202 228 265 39 33 103 75 142 95 l71 35 36 -62 c45
-82 79 -127 92 -127 7 0 9 20 5 60 l-7 60 46 0 c53 0 99 -28 200 -122 83 -78
140 -154 198 -266 64 -126 83 -134 50 -21 -58 197 -230 402 -420 498 -33 17
-78 34 -99 39 -39 8 -39 8 -97 147 -125 295 -233 610 -298 868 l-27 108 52
122 c94 220 176 365 294 525 78 105 226 258 314 326 77 59 242 148 399 216
111 48 147 76 82 64 -135 -24 -311 -103 -470 -210 -232 -155 -447 -419 -602
-736 -59 -120 -85 -159 -99 -145 -7 8 -32 158 -52 317 -72 574 -41 1114 94
1643 119 468 267 805 626 1432 401 701 536 1024 606 1450 22 136 22 425 0 525
l-15 65 -1 -167z"/>
<path d="M6281 8784 c-144 -39 -277 -147 -342 -279 -36 -72 -42 -94 -46 -169
-7 -108 14 -192 67 -274 92 -142 222 -212 395 -212 177 0 337 77 400 192 l29
53 -43 -35 c-78 -63 -105 -82 -171 -114 -63 -30 -70 -31 -195 -31 -125 0 -132
1 -197 32 -85 40 -151 106 -191 191 -29 61 -32 76 -32 162 0 86 3 101 32 163
44 92 114 163 209 212 77 40 79 40 188 40 100 0 117 -3 168 -27 116 -54 182
-125 219 -236 26 -79 28 -170 5 -224 -21 -50 -20 -58 8 -58 80 0 112 204 56
353 -42 113 -166 227 -282 262 -65 19 -205 19 -277 -1z"/>
<path d="M6253 8565 c-3 -9 2 -24 11 -34 9 -10 16 -23 16 -29 0 -22 -23 -12
-50 20 -16 19 -31 28 -38 24 -17 -10 -15 -41 3 -56 8 -7 15 -17 15 -22 0 -5
-7 -16 -15 -24 -8 -9 -15 -21 -15 -28 0 -16 87 -146 148 -221 39 -48 54 -59
74 -57 18 2 30 -5 42 -23 18 -28 56 -34 56 -9 0 9 -9 28 -21 42 -15 19 -17 28
-8 31 7 2 19 -6 27 -18 8 -11 21 -21 29 -21 22 0 27 29 8 50 -16 18 -16 21 4
63 16 33 19 50 12 68 -11 29 -38 54 -69 64 -19 6 -22 11 -16 39 9 49 -27 86
-89 93 -38 5 -52 12 -68 34 -22 32 -46 38 -56 14z m147 -127 c0 -7 -19 -32
-42 -55 -35 -36 -41 -46 -31 -61 12 -19 24 -19 69 -1 36 14 82 5 91 -18 5 -12
-7 -28 -37 -55 -23 -21 -46 -38 -49 -38 -7 0 -41 44 -115 147 l-37 52 38 20
c43 23 113 28 113 9z"/>
<path d="M6730 7955 c0 -18 25 -52 84 -115 127 -136 190 -272 221 -480 10 -61
17 -216 20 -430 6 -339 13 -435 41 -542 29 -114 96 -238 129 -238 10 0 6 16
-14 63 -87 192 -94 240 -96 732 -2 382 -4 428 -22 510 -47 210 -160 404 -287
497 -50 36 -76 37 -76 3z"/>
<path d="M3048 7905 c-165 -33 -314 -154 -392 -320 -44 -93 -65 -206 -81 -432
-9 -138 -19 -224 -29 -248 -29 -69 -76 -95 -289 -155 -77 -23 -167 -55 -198
-71 -116 -62 -174 -148 -174 -259 1 -77 16 -109 105 -227 98 -130 97 -149 -13
-271 -84 -93 -111 -159 -104 -252 2 -36 13 -86 25 -112 45 -102 158 -187 292
-219 65 -15 255 -16 320 -1 24 6 45 10 46 9 2 -1 -35 -78 -81 -170 -155 -312
-249 -571 -243 -669 4 -60 18 -65 34 -13 79 255 102 322 140 414 67 157 197
398 295 546 115 173 231 318 397 497 l137 148 33 -66 c42 -83 93 -135 252
-253 147 -110 215 -173 240 -221 26 -51 42 -144 38 -230 l-3 -75 -71 3 c-82 4
-85 2 -109 -83 -47 -169 -70 -244 -86 -282 -17 -39 -21 -43 -54 -43 -20 0 -49
7 -64 15 -30 15 -125 129 -176 211 -30 48 -55 67 -55 42 0 -8 24 -54 53 -102
57 -97 148 -203 202 -236 l35 -22 -31 -44 c-34 -50 -32 -62 8 -48 59 20 127
155 205 404 l33 105 65 -1 c36 0 97 -8 136 -18 81 -20 253 -102 268 -128 23
-39 -30 -394 -86 -568 -89 -282 -195 -382 -403 -383 -73 -1 -102 4 -158 25
-144 55 -291 160 -503 359 -142 135 -171 160 -159 139 30 -53 80 -116 154
-192 l84 -88 -74 0 c-154 0 -353 28 -642 90 -119 25 -112 29 -223 -110 -261
-327 -414 -651 -416 -885 -1 -185 62 -289 241 -402 2 -1 -58 -62 -134 -135
-220 -212 -370 -407 -505 -658 -91 -169 -119 -230 -158 -350 -36 -112 -45
-160 -33 -179 6 -9 17 9 36 60 66 176 90 230 144 334 68 131 161 282 239 387
100 134 253 297 317 337 154 97 218 114 435 115 141 1 146 0 192 -26 98 -58
216 -222 287 -400 50 -124 60 -143 73 -130 14 14 -41 186 -95 297 -54 109 -88
161 -149 223 l-47 48 122 17 c143 20 339 68 397 97 29 15 40 17 40 7 0 -25
-71 -263 -155 -517 -123 -376 -152 -505 -126 -568 15 -35 40 -48 125 -63 79
-13 80 -14 75 -163 -3 -95 -2 -111 12 -114 13 -2 18 14 27 85 6 48 13 104 14
123 l3 35 155 -3 155 -3 79 -47 c71 -42 206 -154 206 -171 0 -3 -15 -11 -34
-17 -69 -21 -301 45 -475 136 -41 22 -77 37 -80 34 -18 -18 124 -103 262 -159
l79 -32 -47 -23 c-43 -21 -65 -44 -53 -56 3 -2 27 7 54 21 27 14 67 28 88 32
36 6 39 4 31 -13 -20 -49 -18 -64 8 -64 14 0 29 5 32 10 11 18 86 52 102 46
11 -5 13 -15 8 -47 -7 -38 -6 -40 12 -28 11 6 30 27 42 45 23 33 23 33 55 17
17 -8 39 -22 49 -31 28 -25 22 10 -8 46 -15 19 -21 33 -15 37 20 12 10 55 -22
91 -39 44 -119 104 -207 156 l-66 38 222 0 c194 0 222 2 217 15 -4 9 3 23 16
33 24 19 22 8 50 337 6 72 24 240 40 375 65 539 57 847 -26 1068 -47 124 -130
235 -210 278 -19 10 -34 21 -34 24 0 3 20 13 45 23 96 40 183 147 249 309 20
48 36 93 36 101 0 8 6 17 14 20 15 6 47 118 78 270 20 102 21 265 3 311 -5 10
-37 37 -73 61 l-66 42 -1 229 c-2 247 -11 307 -60 404 -35 69 -69 105 -185
195 -55 42 -97 81 -94 86 2 5 22 13 43 19 86 23 251 -69 251 -140 0 -62 33
-188 82 -315 45 -116 97 -269 98 -286 0 -4 -12 -10 -27 -14 -78 -19 -93 -64
-44 -133 36 -48 49 -58 64 -43 7 7 5 22 -7 50 -10 22 -15 44 -11 50 21 36 197
91 288 91 56 0 58 -1 72 -33 59 -141 65 -611 11 -847 -34 -150 -62 -217 -111
-269 -39 -41 -47 -45 -101 -48 -51 -4 -64 -1 -101 23 -45 30 -58 51 -98 154
l-25 65 6 -59 c8 -76 28 -132 64 -178 l30 -37 -55 -6 c-91 -12 -216 -82 -246
-137 -9 -16 -8 -19 3 -15 21 7 97 -82 134 -160 130 -270 136 -636 24 -1501
-17 -130 -34 -259 -37 -286 -5 -36 -11 -50 -25 -54 -26 -7 -18 -24 21 -41 l32
-15 -7 -147 c-5 -103 -4 -148 4 -153 13 -8 12 -12 42 162 12 67 26 122 30 122
5 0 21 -5 36 -10 14 -6 54 -14 89 -19 112 -16 321 -131 385 -211 29 -37 31
-41 10 -30 -18 10 -31 10 -63 0 -35 -10 -41 -9 -61 9 -17 16 -35 21 -74 21
-42 0 -75 10 -163 50 -113 52 -169 70 -169 53 0 -11 104 -72 185 -108 l60 -27
-40 -14 c-39 -14 -81 -51 -70 -62 3 -3 24 4 48 16 52 26 136 41 165 31 13 -5
22 -17 22 -29 0 -26 27 -37 51 -22 28 18 99 16 99 -2 0 -25 21 -29 43 -8 31
29 70 37 86 18 8 -9 17 -16 22 -16 14 0 10 32 -6 50 -9 10 -26 37 -38 61 -26
52 -136 131 -289 206 -53 26 -98 51 -98 54 0 3 39 9 87 13 106 8 271 41 318
63 41 19 52 44 65 143 18 127 24 560 11 745 -32 453 -125 813 -265 1023 -55
82 -104 130 -178 175 l-56 34 35 13 c55 19 117 83 147 151 38 84 83 268 96
389 13 130 13 389 0 505 -21 179 -50 241 -117 247 -33 3 -34 5 -94 143 -71
165 -93 246 -79 295 5 18 34 72 64 120 97 152 129 253 129 400 0 114 -16 162
-71 219 -38 39 -74 52 -87 31 -15 -24 -23 -4 -29 80 -8 107 -38 229 -67 277
-12 19 -23 32 -26 30 -2 -3 6 -47 17 -98 12 -52 24 -146 27 -209 5 -102 2
-127 -21 -225 -30 -120 -65 -207 -99 -244 -51 -54 -177 -86 -279 -70 -62 10
-183 60 -238 99 -15 11 -35 20 -44 20 -9 0 -30 23 -47 50 -17 28 -35 50 -40
50 -13 0 -49 76 -49 105 0 14 4 25 8 25 5 0 18 10 31 21 20 19 21 23 8 37 -14
13 -21 13 -66 -6 -58 -25 -89 -27 -134 -8 -58 24 -82 61 -82 122 0 68 26 99
83 98 51 -2 110 -31 127 -63 21 -40 54 -71 75 -71 26 0 26 29 1 61 -39 51 -54
94 -58 174 -10 152 43 291 157 413 l41 44 23 -25 c29 -31 101 -68 179 -93 44
-14 56 -21 52 -33 -33 -85 -24 -221 20 -295 57 -96 171 -186 238 -186 45 0 40
19 -10 41 -26 11 -63 32 -82 46 l-34 26 36 14 c40 16 61 58 51 102 -15 68 -26
91 -44 91 -28 0 -30 -10 -14 -70 12 -47 12 -56 0 -69 -22 -21 -76 14 -104 69
-20 38 -23 56 -19 115 6 113 9 115 130 115 122 0 195 17 296 67 133 67 226
177 219 260 l-3 38 -39 -62 c-42 -68 -51 -77 -36 -37 6 14 10 58 10 97 0 358
-564 524 -841 247 l-56 -56 -54 50 c-131 120 -340 171 -541 131z m1438 -309
c36 -108 -11 -222 -120 -292 l-29 -18 35 46 c50 66 72 136 72 233 0 44 -3 94
-7 110 l-8 30 21 -30 c11 -16 27 -52 36 -79z m-2440 -1023 c-13 -21 -29 -55
-36 -77 -18 -56 -8 -171 19 -226 l22 -45 -26 30 c-98 113 -97 242 1 323 21 18
40 32 41 32 2 0 -8 -17 -21 -37z m2378 -64 c9 -48 7 -163 -5 -240 -11 -73 -8
-94 9 -62 10 17 23 98 40 233 l8 65 11 -72 c22 -140 -14 -279 -112 -434 -68
-107 -85 -147 -85 -198 0 -51 31 -151 86 -274 29 -67 39 -99 31 -102 -75 -25
-155 -53 -168 -59 -13 -6 -17 3 -23 55 -3 35 -34 144 -67 243 -51 150 -62 193
-63 251 -1 84 8 103 98 205 80 91 101 131 137 269 26 100 27 103 28 56 0 -27
-6 -81 -14 -120 -30 -138 -30 -147 -9 -144 40 8 74 143 74 295 0 67 13 86 24
33z m-847 -312 c59 -118 87 -150 210 -245 65 -49 130 -103 145 -118 34 -37 74
-116 89 -179 12 -51 29 -465 18 -465 -3 0 -37 16 -77 35 -39 19 -84 38 -101
41 l-30 6 6 67 c6 77 -10 187 -36 246 -23 53 -79 107 -231 225 -163 128 -221
189 -261 273 -17 37 -30 70 -27 72 2 2 26 -23 53 -57 107 -129 235 -231 274
-216 5 2 -21 28 -57 58 -36 30 -83 78 -104 105 -40 53 -103 164 -96 170 2 2
28 -27 57 -65 64 -85 142 -156 210 -192 48 -26 51 -27 51 -8 0 10 -24 55 -54
98 -53 78 -96 174 -96 213 0 33 18 12 57 -64z m-1597 -401 c-15 -40 -12 -167
5 -215 8 -23 24 -57 36 -74 l22 -32 -31 29 c-72 67 -97 199 -53 284 24 47 38
52 21 8z m1448 -1714 l40 -18 -117 -17 c-118 -17 -484 -105 -549 -132 -42 -18
-53 -12 -26 14 43 42 469 168 575 170 20 1 55 -7 77 -17z"/>
<path d="M9150 7476 c-112 -32 -214 -116 -265 -220 -37 -75 -49 -211 -20 -222
25 -10 40 15 55 88 17 87 50 147 114 206 71 64 134 87 236 86 145 -3 272 -79
332 -201 30 -62 33 -75 32 -158 -1 -70 -7 -105 -27 -156 -49 -130 -96 -185
-195 -232 -58 -27 -70 -29 -140 -25 -88 6 -175 40 -254 101 -55 42 -60 37 -19
-21 36 -49 98 -93 166 -118 76 -27 225 -25 288 3 153 70 249 210 264 385 20
228 -121 425 -344 483 -68 18 -161 18 -223 1z"/>
<path d="M2148 7441 c-50 -40 -116 -207 -91 -232 16 -16 46 34 71 117 12 39
31 82 42 96 33 42 21 52 -22 19z"/>
<path d="M9192 7193 c-18 -8 -45 -31 -62 -49 -91 -104 -34 -253 112 -290 54
-14 98 -5 98 20 0 24 -19 31 -89 35 -30 1 -97 68 -107 105 -15 63 53 136 128
136 30 0 41 -6 65 -37 21 -25 35 -34 46 -30 28 11 19 47 -22 88 -34 35 -44 39
-87 39 -27 0 -64 -8 -82 -17z"/>
<path d="M3695 7161 c-35 -22 -65 -54 -90 -97 -36 -63 16 -91 55 -29 11 19 35
46 52 61 27 21 38 25 70 20 30 -5 39 -3 48 13 23 45 -77 69 -135 32z"/>
<path d="M3859 6934 c-9 -11 -6 -27 15 -75 28 -64 32 -94 16 -104 -19 -12 -83
17 -127 57 -26 25 -49 38 -58 34 -61 -23 80 -145 170 -146 17 0 41 7 53 16 31
21 29 86 -4 163 -28 64 -45 79 -65 55z"/>
<path d="M8907 6875 c-96 -90 -206 -143 -486 -235 -472 -155 -672 -251 -861
-412 -104 -88 -228 -251 -245 -320 -6 -25 -4 -28 19 -28 21 0 41 20 111 115
198 265 415 390 1047 604 256 86 348 133 430 216 35 35 64 94 56 114 -2 5 -33
-19 -71 -54z"/>
<path d="M3964 6485 c-14 -35 52 -75 124 -75 54 0 88 19 79 43 -4 12 -19 15
-65 14 -45 -2 -65 2 -79 16 -24 21 -52 22 -59 2z"/>
<path d="M3391 5601 c-9 -15 -3 -28 31 -70 43 -52 66 -62 88 -36 13 16 10 23
-39 83 -38 45 -64 53 -80 23z"/>
<path d="M4466 5278 c-21 -29 -20 -51 2 -71 16 -15 20 -15 40 -1 36 25 25 94
-14 94 -7 0 -20 -10 -28 -22z"/>
<path d="M8540 5189 c-69 -14 -146 -58 -201 -116 -59 -62 -88 -123 -96 -199
-5 -45 -3 -54 10 -54 21 0 40 29 67 101 28 76 112 157 195 188 177 67 404 -55
459 -248 46 -159 -17 -340 -148 -428 -63 -43 -115 -56 -201 -51 -96 5 -168 40
-255 124 l-69 66 12 -37 c28 -93 157 -185 290 -207 209 -34 410 132 448 370
30 183 -67 370 -233 451 -96 47 -180 59 -278 40z"/>
<path d="M8541 5021 c-12 -8 -13 -15 -3 -35 14 -32 -2 -45 -27 -22 -16 14 -20
15 -30 2 -9 -11 -10 -20 -1 -36 8 -16 8 -30 0 -55 -29 -87 23 -129 181 -150
52 -7 89 -35 89 -68 0 -37 -19 -47 -92 -47 -54 0 -70 -3 -75 -16 -8 -22 22
-44 61 -44 24 0 35 -7 49 -31 21 -38 43 -33 41 10 -2 38 19 42 46 9 25 -31 46
-12 34 29 -4 15 -8 54 -8 86 -1 53 -4 61 -33 87 -34 31 -88 50 -139 50 -75 0
-118 36 -94 80 19 36 55 53 98 45 32 -5 41 -3 46 11 9 24 -9 41 -52 49 -21 4
-46 17 -57 31 -14 17 -24 21 -34 15z"/>
<path d="M4032 5008 c-17 -17 -15 -36 7 -59 26 -28 63 -22 75 13 7 19 6 31 -4
42 -15 19 -61 21 -78 4z"/>
<path d="M2986 4954 c-7 -19 34 -60 88 -88 34 -18 38 -18 53 -4 22 23 11 43
-44 78 -53 33 -88 38 -97 14z"/>
<path d="M5677 4859 c-229 -54 -355 -336 -248 -553 69 -140 190 -223 341 -233
151 -11 270 45 337 156 35 58 51 127 34 144 -15 15 -37 -7 -61 -61 -34 -76
-68 -112 -137 -144 -58 -27 -72 -30 -137 -26 -234 15 -411 252 -336 451 52
138 166 221 303 219 108 -1 177 -30 255 -108 61 -61 70 -60 37 6 -57 112 -243
183 -388 149z"/>
<path d="M4390 4725 c-20 -25 14 -105 45 -105 14 0 26 7 29 18 8 24 -19 88
-39 96 -22 8 -21 8 -35 -9z"/>
<path d="M5719 4610 c-44 -23 -83 -68 -100 -114 -7 -19 -21 -37 -31 -39 -27
-8 -23 -46 7 -57 21 -8 24 -14 19 -40 -5 -21 -3 -30 7 -32 8 0 19 -2 24 -2 6
-1 23 -11 40 -21 60 -40 215 -15 215 35 0 30 -18 34 -75 14 -41 -13 -59 -15
-77 -7 -22 10 -21 11 17 17 53 9 70 19 70 42 0 16 -7 19 -50 18 -27 0 -66 -4
-85 -8 -20 -4 -6 5 32 20 71 28 84 42 64 70 -12 16 -15 16 -56 0 -23 -9 -45
-14 -48 -11 -10 10 50 64 79 70 34 8 51 27 43 49 -8 21 -50 20 -95 -4z"/>
<path d="M2111 2497 c-28 -14 -49 -43 -38 -53 3 -4 13 -1 21 5 23 19 91 -6
127 -47 24 -27 29 -40 23 -61 -8 -29 -8 -61 0 -68 11 -11 37 7 46 32 19 49 12
115 -15 151 -36 48 -114 67 -164 41z"/>
<path d="M1749 1981 c-48 -15 -71 -33 -85 -66 -18 -43 -9 -65 26 -65 22 0 29
5 33 28 8 38 42 56 104 54 44 -1 53 2 58 19 4 11 5 22 3 24 -9 8 -116 13 -139
6z"/>
<path d="M888 1684 c-29 -28 11 -91 90 -144 l47 -31 -146 7 c-100 5 -148 3
-153 -4 -3 -6 -2 -13 3 -16 5 -4 86 -9 179 -13 134 -5 171 -3 177 7 5 9 0 20
-16 32 -62 48 -100 80 -96 84 6 7 109 -27 172 -56 167 -77 188 -83 198 -55 7
16 -26 46 -73 65 -34 14 -38 30 -12 53 36 33 82 21 189 -51 45 -30 51 -37 42
-53 -24 -45 28 -53 63 -10 37 46 124 102 167 108 37 5 39 4 46 -26 3 -17 4
-35 0 -41 -3 -5 -2 -18 4 -27 8 -16 12 -13 25 19 21 48 21 112 0 132 -33 34
-104 15 -205 -54 -32 -22 -60 -40 -62 -40 -2 0 -34 20 -70 44 -79 51 -159 78
-218 74 -37 -2 -47 -8 -64 -35 -11 -18 -24 -30 -30 -28 -5 2 -39 16 -75 31
-64 27 -168 43 -182 28z"/>
<path d="M2150 1662 c-27 -22 -29 -65 -6 -111 28 -53 54 -56 34 -3 -10 27 -10
34 4 48 24 24 69 5 158 -66 41 -33 83 -60 93 -60 29 0 34 31 8 49 -13 8 -39
27 -58 43 -29 22 -32 29 -19 34 24 9 66 -12 114 -56 45 -43 91 -56 73 -21 -19
35 -122 121 -160 132 -31 9 -43 8 -66 -4 -27 -13 -32 -13 -73 9 -54 29 -73 30
-102 6z"/>
<path d="M1995 1637 c-48 -19 -104 -57 -116 -79 -9 -16 -7 -24 5 -36 15 -15
19 -13 46 19 16 20 45 44 65 53 22 11 35 24 35 36 0 11 -1 20 -2 19 -2 0 -17
-6 -33 -12z"/>
<path d="M7630 1592 c-31 -31 -58 -128 -40 -146 6 -6 12 0 16 22 4 17 17 38
31 48 52 34 159 12 208 -42 34 -36 75 -46 75 -17 0 9 -7 25 -17 35 -15 17 -15
19 2 38 29 32 66 25 110 -20 21 -22 45 -40 52 -40 16 0 17 12 1 28 -16 16 19
54 46 50 15 -2 22 -12 24 -35 3 -34 25 -59 42 -48 5 3 10 25 10 49 0 44 -15
66 -54 80 -26 9 -93 -11 -106 -32 -9 -16 -11 -16 -20 0 -16 27 -75 58 -109 58
-31 0 -71 -29 -71 -52 0 -7 -6 -5 -17 4 -62 55 -140 63 -183 20z"/>
</g>
</svg>
