<?xml version="1.0" standalone="no"?>
<!DOCTYPE svg PUBLIC "-//W3C//DTD SVG 20010904//EN"
 "http://www.w3.org/TR/2001/REC-SVG-20010904/DTD/svg10.dtd">
<svg version="1.0" xmlns="http://www.w3.org/2000/svg"
 width="1040.000000pt" height="1041.000000pt" viewBox="0 0 1040.000000 1041.000000"
 preserveAspectRatio="xMidYMid meet">

<g transform="translate(0.000000,1041.000000) scale(0.100000,-0.100000)"
fill="#F5F2EB" stroke="none">
<path d="M7337 9310 c-437 -79 -785 -331 -962 -695 -62 -128 -81 -194 -94
-325 -59 -561 410 -1182 1056 -1398 188 -64 277 -77 508 -77 184 0 223 3 314
23 461 104 793 402 908 817 26 92 28 113 27 275 0 157 -3 185 -27 274 -28 105
-99 260 -141 311 l-25 30 -1 -35 c0 -20 18 -92 39 -162 77 -245 95 -400 67
-570 -74 -449 -430 -786 -922 -874 -133 -23 -355 -23 -489 0 -565 100 -1057
514 -1211 1021 -25 82 -28 105 -28 255 -1 180 7 227 64 365 72 172 245 377
412 489 423 281 1021 300 1533 51 226 -111 450 -297 589 -492 42 -59 50 -65
36 -29 -132 348 -535 637 -1026 737 -159 32 -475 37 -627 9z"/>
<path d="M7181 8754 c-340 -91 -519 -484 -358 -788 44 -83 145 -182 233 -228
144 -76 323 -90 410 -33 45 29 15 38 -134 39 l-138 1 -77 38 c-195 96 -313
311 -279 509 41 239 252 418 491 418 179 0 308 -78 442 -266 l54 -75 3 36 c10
113 -165 292 -336 345 -77 24 -229 26 -311 4z"/>
<path d="M7260 8439 c-6 -11 -17 -38 -25 -59 -12 -35 -12 -42 1 -55 9 -8 20
-15 24 -15 26 0 75 121 57 139 -17 17 -45 13 -57 -10z"/>
<path d="M7414 8375 c-9 -14 -22 -42 -29 -63 -16 -43 -2 -69 33 -58 26 9 63
104 50 129 -13 24 -35 21 -54 -8z"/>
<path d="M7998 8375 c-149 -38 -286 -146 -366 -288 -52 -91 -67 -152 -67 -267
0 -115 15 -176 66 -265 62 -110 159 -192 287 -242 59 -23 82 -27 182 -27 93 0
126 4 174 22 174 64 306 201 368 381 31 91 32 250 1 333 -54 146 -203 287
-362 341 -74 25 -208 31 -283 12z m276 -79 c209 -79 326 -237 326 -441 0 -206
-132 -398 -324 -470 -238 -89 -487 7 -599 233 -42 85 -42 86 -42 196 0 131 19
193 91 298 125 184 349 259 548 184z"/>
<path d="M8192 8048 c-15 -15 -16 -72 -2 -99 14 -24 46 -25 60 0 11 21 3 78
-13 99 -12 15 -30 15 -45 0z"/>
<path d="M8026 8014 c-31 -31 -14 -114 24 -114 23 0 40 28 40 69 0 28 -21 61
-40 61 -5 0 -16 -7 -24 -16z"/>
<path d="M7957 7819 c-28 -16 -20 -45 23 -82 92 -79 247 -75 335 8 39 36 42
47 19 69 -20 21 -26 20 -55 -5 -36 -32 -99 -59 -139 -59 -37 0 -113 30 -124
49 -13 20 -41 30 -59 20z"/>
<path d="M7074 8235 c-11 -27 27 -106 71 -150 62 -62 151 -87 244 -69 37 8 58
38 41 59 -9 11 -27 13 -74 8 -50 -4 -72 -1 -108 15 -48 21 -95 73 -107 119 -9
33 -57 46 -67 18z"/>
<path d="M6800 6890 c-25 -27 -30 -40 -30 -83 0 -63 29 -109 86 -137 123 -60
235 25 190 145 -26 67 -72 98 -152 103 -61 4 -65 3 -94 -28z m166 -54 c24 -24
34 -43 34 -65 0 -30 -1 -31 -49 -31 -83 0 -130 62 -84 112 25 28 61 22 99 -16z"/>
<path d="M4299 6798 c-47 -66 -31 -288 22 -288 20 0 22 4 43 120 21 118 20
156 -4 180 -27 27 -35 25 -61 -12z"/>
<path d="M6569 6663 c-64 -10 -98 -104 -55 -152 29 -32 82 -45 127 -32 44 13
59 35 59 85 0 64 -61 110 -131 99z m47 -68 c9 -21 -14 -45 -43 -45 -28 0 -40
24 -23 45 16 19 59 19 66 0z"/>
<path d="M3974 6577 c-8 -22 -3 -28 58 -74 85 -65 149 -77 164 -31 7 24 -30
68 -57 68 -10 0 -35 9 -56 20 -57 29 -101 36 -109 17z"/>
<path d="M4881 6399 c-133 -26 -273 -91 -373 -173 -35 -29 -125 -125 -200
-212 -220 -257 -265 -283 -508 -293 l-145 -7 50 -24 c45 -22 62 -25 165 -24
96 0 124 4 169 22 29 13 55 21 57 19 2 -2 -28 -53 -68 -113 -50 -76 -105 -142
-182 -219 -157 -155 -232 -197 -596 -331 -318 -118 -460 -197 -596 -333 -85
-85 -187 -231 -233 -333 -132 -295 -145 -636 -36 -965 38 -115 144 -325 224
-444 61 -91 201 -248 201 -225 0 4 -35 65 -78 135 -115 184 -115 186 -3 69
111 -116 201 -193 269 -228 23 -12 42 -24 42 -26 0 -1 -44 -72 -98 -156 -169
-262 -357 -595 -402 -709 -26 -66 -41 -131 -28 -123 16 10 90 129 188 304 274
489 582 950 807 1210 325 377 722 643 1026 688 42 7 57 6 57 -3 0 -11 -25 -88
-49 -148 l-11 -29 -83 45 c-93 49 -127 61 -127 43 0 -42 227 -183 410 -256
247 -98 486 -137 507 -83 13 34 -11 48 -96 54 -45 4 -83 8 -85 10 -2 2 1 43 6
90 l11 86 81 -37 c103 -48 159 -67 240 -80 122 -19 193 10 205 85 l6 38 59
-51 c148 -130 262 -295 411 -597 132 -269 183 -335 255 -335 20 0 19 3 -12 41
-71 87 -103 142 -208 354 -198 403 -349 587 -583 711 -38 20 -67 37 -65 39 2
2 34 11 71 19 251 58 508 297 507 471 -1 47 -2 49 -16 30 -8 -11 -33 -54 -55
-97 -94 -179 -289 -315 -502 -349 -75 -11 -232 -8 -318 7 -41 7 -41 5 -7 112
15 48 36 82 86 140 86 101 156 209 178 275 22 65 25 180 7 272 -18 99 -16 162
7 210 42 87 169 176 307 215 37 11 74 20 80 20 7 0 -3 -20 -22 -45 -40 -53
-64 -124 -72 -212 -5 -53 -3 -64 12 -69 21 -9 35 11 35 52 0 74 71 212 126
249 25 16 159 21 168 6 3 -4 -14 -42 -38 -84 -83 -147 -115 -305 -82 -406 19
-60 20 -80 3 -87 -14 -5 -118 16 -325 67 -120 29 -162 31 -162 5 0 -11 252
-87 385 -116 90 -19 125 -31 125 -40 0 -18 -39 -20 -85 -5 -55 19 -75 14 -75
-18 0 -29 34 -47 106 -54 62 -7 111 15 120 53 5 20 11 24 28 20 11 -4 78 -9
148 -13 117 -6 129 -4 162 15 l35 21 37 -34 c49 -46 121 -69 189 -62 75 8 106
28 147 94 71 116 106 262 89 376 l-8 58 24 -24 c23 -22 24 -30 24 -137 -1
-137 10 -183 54 -227 32 -32 70 -48 47 -20 -24 29 -44 130 -38 191 19 196 19
199 -6 235 -26 40 -86 73 -164 91 -101 24 -86 55 25 52 166 -4 229 -64 303
-285 46 -139 47 -224 8 -487 -43 -281 -43 -358 -2 -523 18 -71 30 -133 27
-137 -13 -21 -234 -80 -300 -80 -30 0 -35 4 -35 23 0 48 -21 241 -36 324 -21
122 -39 156 -135 253 -46 47 -96 99 -109 115 -24 29 -25 29 -28 8 -5 -33 40
-108 111 -188 71 -79 85 -115 112 -292 23 -155 26 -145 -57 -186 -40 -20 -83
-45 -95 -56 -12 -12 -24 -17 -27 -12 -3 5 21 39 55 76 33 37 58 69 56 72 -9 9
-89 -39 -133 -79 -67 -62 -54 -117 35 -147 84 -28 350 0 516 54 143 47 285
134 285 176 0 22 -3 23 -92 19 l-67 -2 -10 39 c-51 191 -51 268 -7 548 16 99
26 200 26 265 0 95 -4 116 -39 221 -71 209 -112 268 -242 346 -58 35 -169 68
-201 60 -10 -3 -35 1 -53 9 -19 8 -48 14 -65 14 -46 0 -139 -36 -183 -71 -49
-40 -59 -30 -17 17 41 48 86 142 101 213 18 89 7 262 -24 349 -95 273 -299
423 -577 424 -110 1 -193 -15 -278 -52 l-45 -20 -36 38 c-132 141 -332 223
-535 221 -56 -1 -121 -5 -145 -10z m1575 -696 c17 -70 18 -163 3 -235 -8 -40
-66 -181 -105 -256 0 -1 -24 3 -53 9 l-51 11 49 55 c58 64 114 173 131 253 7
31 11 95 9 142 -2 48 -2 85 0 83 2 -2 10 -30 17 -62z m-698 -76 c77 -46 183
-137 214 -184 14 -22 43 -73 63 -113 l37 -73 -54 6 c-29 4 -97 9 -150 13 -87
6 -98 9 -98 26 0 10 -13 26 -29 36 -16 9 -32 28 -34 42 -7 32 -52 58 -114 67
-26 3 -59 14 -72 25 -13 10 -40 18 -60 18 -32 1 -34 2 -16 12 42 23 126 102
156 144 l30 44 37 -15 c20 -9 61 -30 90 -48z m-444 -256 c-66 -49 -179 -165
-222 -228 -80 -118 -63 -161 21 -55 77 97 217 224 284 259 64 34 133 48 188
37 44 -8 36 -17 -30 -33 -157 -39 -317 -180 -342 -302 -6 -31 -3 -29 63 40
140 149 300 232 400 207 37 -10 16 -31 -44 -46 -69 -17 -121 -51 -189 -123
-111 -119 -127 -185 -93 -372 26 -142 22 -194 -22 -280 -35 -71 -82 -135 -166
-227 -49 -54 -65 -81 -82 -134 -36 -120 -75 -338 -82 -474 -3 -43 -5 -45 -36
-48 -50 -5 -187 33 -283 79 l-86 41 24 59 c57 140 136 435 154 577 11 80 10
119 -6 281 -10 104 -15 217 -12 252 11 119 129 315 242 401 28 21 54 38 58 38
5 0 -11 -23 -35 -51 -64 -75 -126 -169 -134 -201 -13 -61 15 -46 79 42 95 129
205 225 305 266 77 32 93 30 46 -5z m1278 -164 c-12 -13 -22 -31 -22 -40 0
-18 -48 -47 -79 -47 -11 0 -25 9 -31 19 -8 16 -5 23 23 40 42 26 98 50 116 51
10 0 8 -7 -7 -23z m138 -12 c-25 -8 -54 -26 -66 -40 -17 -22 -23 -24 -32 -12
-9 11 -8 17 6 29 23 20 70 36 107 37 26 0 24 -2 -15 -14z m-480 -39 c0 -2 -14
-19 -31 -37 -42 -45 -86 -136 -105 -216 -20 -85 -15 -223 10 -272 l18 -33 -43
23 c-78 45 -116 122 -104 216 9 76 39 159 80 220 40 60 71 83 123 94 51 9 52
10 52 5z m163 -77 c37 -42 41 -64 34 -188 -8 -161 -55 -279 -124 -307 -31 -14
-38 -13 -71 3 -55 27 -82 87 -82 183 0 232 147 419 243 309z m247 -4 c0 -3 -9
-16 -21 -28 -37 -40 -67 -101 -89 -181 -23 -82 -31 -218 -17 -268 10 -36 -8
-37 -44 -2 l-26 25 24 67 c19 52 27 98 33 204 5 76 11 142 15 148 3 5 14 10
24 10 10 0 34 7 52 15 37 15 49 18 49 10z m143 -95 c5 -19 7 -75 4 -125 -11
-195 -112 -355 -180 -286 -43 43 -32 237 20 354 32 72 64 99 112 95 30 -3 36
-7 44 -38z"/>
<path d="M6340 4962 c0 -5 -23 -35 -50 -66 -28 -32 -47 -62 -44 -68 8 -13 125
103 122 121 -3 16 -28 28 -28 13z"/>
<path d="M6311 4805 c-52 -56 -45 -75 12 -34 51 37 61 53 43 68 -10 9 -22 1
-55 -34z"/>
<path d="M6690 4811 c-25 -22 -42 -42 -38 -46 10 -10 103 49 103 65 0 25 -20
19 -65 -19z"/>
<path d="M6692 4683 c-30 -27 -40 -42 -33 -52 7 -11 12 -10 27 2 11 9 30 24
43 35 18 14 22 23 14 36 -8 15 -14 13 -51 -21z"/>
<path d="M5495 4444 c-17 -18 -14 -40 14 -89 39 -68 171 -102 179 -46 4 28
-12 41 -51 41 -31 0 -87 48 -87 74 0 26 -36 39 -55 20z"/>
<path d="M4262 3774 c-68 -47 -166 -351 -267 -829 -62 -293 -106 -413 -189
-519 -25 -32 -46 -62 -46 -67 0 -13 14 -11 28 3 16 16 15 3 -3 -32 -21 -40 -4
-38 45 7 69 62 145 244 203 488 144 598 158 648 234 828 53 125 51 161 -5 121z"/>
<path d="M7406 3765 c-15 -34 -19 -339 -7 -473 7 -70 28 -260 46 -422 19 -162
41 -365 50 -450 75 -762 9 -1062 -254 -1165 -63 -25 -78 -27 -168 -23 -111 6
-203 33 -338 101 -181 90 -297 180 -498 386 -75 77 -142 141 -147 141 -17 0
-11 -34 15 -86 30 -61 170 -212 273 -295 108 -88 242 -174 344 -223 48 -22 88
-44 88 -48 0 -4 -17 -10 -37 -13 -62 -11 -105 -27 -96 -35 4 -5 105 -12 223
-16 252 -8 334 1 425 48 l60 31 755 8 c415 5 799 13 852 18 99 10 148 25 131
42 -6 6 -332 10 -836 9 -455 0 -827 3 -827 6 0 3 9 19 20 34 28 39 68 148 88
239 25 110 24 575 -1 791 -41 352 -107 977 -122 1150 -9 102 -19 203 -23 225
-7 34 -9 37 -16 20z"/>
<path d="M6481 3481 c-21 -21 -21 -29 -6 -511 8 -261 84 -597 152 -672 29 -32
32 -19 12 50 -51 177 -60 216 -80 347 -17 112 -22 204 -26 462 -6 345 -9 367
-52 324z"/>
<path d="M5220 3282 c-78 -497 -231 -994 -434 -1417 -83 -172 -151 -285 -240
-400 -240 -306 -452 -348 -793 -159 -97 53 -270 231 -418 428 -66 88 -126 161
-132 164 -23 7 -14 -56 16 -116 36 -71 123 -188 235 -315 92 -106 122 -165 95
-192 -21 -21 -300 -27 -1339 -29 -736 -1 -890 -4 -912 -15 -16 -8 -28 -18 -28
-22 0 -4 39 -11 88 -15 116 -10 2236 -11 2332 -1 60 6 80 4 95 -7 19 -14 18
-15 -17 -30 -23 -10 -67 -16 -112 -16 -81 0 -130 -13 -124 -33 7 -18 381 -29
523 -16 197 20 303 69 440 204 191 189 338 450 508 902 126 333 207 634 241
893 15 110 12 255 -4 265 -4 3 -13 -30 -20 -73z"/>
<path d="M4659 2926 c-10 -21 -7 -31 17 -70 16 -25 32 -45 36 -46 5 0 26 16
48 36 39 36 40 37 23 56 -18 21 -76 48 -99 48 -8 0 -19 -11 -25 -24z"/>
<path d="M3524 2766 c-10 -31 -15 -58 -12 -61 2 -3 26 -8 51 -11 56 -8 65 4
51 75 -8 42 -12 46 -41 49 -30 3 -32 1 -49 -52z"/>
<path d="M7120 2599 l-24 -21 24 -19 c44 -34 57 -40 68 -26 27 32 10 87 -27
87 -9 -1 -27 -10 -41 -21z"/>
<path d="M6265 2343 c-12 -12 -12 -19 2 -48 9 -19 20 -35 24 -35 4 0 19 14 33
32 17 22 22 36 15 44 -15 19 -59 23 -74 7z"/>
<path d="M5638 2285 c-9 -34 -15 -42 -25 -33 -16 13 -15 17 -48 -167 -14 -82
-39 -208 -54 -280 -16 -71 -32 -152 -36 -179 -10 -75 -8 -206 5 -220 10 -13
49 -11 51 3 0 3 2 51 3 106 3 99 49 354 96 525 49 180 61 290 30 290 -6 0 -15
-20 -22 -45z"/>
<path d="M5298 1873 c-14 -18 -38 -68 -38 -81 0 -4 13 -15 28 -24 29 -17 29
-17 65 20 21 21 37 41 37 45 0 11 -53 56 -66 57 -6 0 -17 -8 -26 -17z"/>
<path d="M4690 1273 c-111 -8 -131 -21 -92 -56 17 -15 60 -17 428 -16 225 1
652 4 949 8 488 6 544 9 583 25 50 22 53 31 11 40 -31 6 -1793 5 -1879 -1z"/>
</g>
</svg>
