<?xml version="1.0" standalone="no"?>
<!DOCTYPE svg PUBLIC "-//W3C//DTD SVG 20010904//EN"
 "http://www.w3.org/TR/2001/REC-SVG-20010904/DTD/svg10.dtd">
<svg version="1.0" xmlns="http://www.w3.org/2000/svg"
 width="1040.000000pt" height="1041.000000pt" viewBox="0 0 1040.000000 1041.000000"
 preserveAspectRatio="xMidYMid meet">

<g transform="translate(0.000000,1041.000000) scale(0.100000,-0.100000)"
fill="#a3a3a3" stroke="none">
<path d="M7022 9635 c-15 -32 -16 -187 -1 -237 10 -40 41 -53 53 -23 13 34 19
242 7 263 -16 30 -45 28 -59 -3z"/>
<path d="M5628 9440 c-114 -20 -231 -72 -315 -140 -66 -52 -160 -191 -197
-290 -40 -109 -73 -253 -91 -403 -50 -415 -57 -439 -144 -528 -62 -63 -100
-79 -188 -79 -29 0 -53 -3 -53 -6 0 -4 21 -43 48 -87 60 -104 194 -241 277
-284 187 -98 426 -111 602 -33 l44 19 47 -36 c166 -127 362 -137 529 -26 29
19 64 48 78 65 24 28 27 29 43 15 30 -27 144 -74 210 -87 73 -15 183 -8 259
15 118 36 250 159 295 275 13 34 22 80 22 123 l2 67 -58 0 c-69 0 -113 17
-150 56 -32 35 -48 74 -48 117 0 18 21 113 46 212 42 163 47 194 51 325 4 111
1 161 -11 213 -37 156 -136 282 -280 353 -77 38 -84 39 -180 39 -111 0 -161
-16 -235 -74 l-38 -30 -39 40 c-124 128 -351 201 -526 169z m253 -76 c49 -15
149 -60 149 -67 0 -2 -33 7 -72 21 -90 30 -228 33 -328 8 -150 -38 -307 -141
-390 -255 -70 -98 -72 -100 -55 -56 47 118 158 247 261 302 57 30 138 57 199
67 51 7 179 -3 236 -20z m724 -129 c82 -40 178 -134 214 -209 46 -96 47 -117
2 -50 -104 155 -290 260 -445 252 -73 -3 -76 5 -8 27 70 22 168 14 237 -20z
m-502 -341 c31 -41 85 -95 120 -121 68 -50 190 -113 221 -113 18 0 19 -8 13
-197 -8 -294 -40 -449 -129 -633 -40 -84 -64 -118 -117 -171 -135 -134 -279
-161 -434 -84 -213 108 -360 391 -374 720 -6 129 10 322 28 356 5 10 23 21 41
24 26 6 35 4 46 -14 10 -14 25 -21 46 -21 46 -1 109 -33 156 -80 41 -41 90
-129 90 -163 0 -32 -28 -85 -53 -102 -23 -14 -29 -15 -53 -2 -15 8 -41 38 -59
68 -21 36 -38 54 -51 54 -27 0 -22 -44 11 -101 50 -85 134 -109 196 -57 l32
28 -6 -55 c-18 -143 -20 -170 -10 -170 43 0 70 275 38 386 -32 111 -121 217
-208 247 -36 12 -39 16 -22 22 228 86 335 145 382 214 16 22 30 40 33 40 3 0
31 -34 63 -75z m526 -384 c45 -24 50 -104 11 -180 -19 -37 -116 -137 -124
-129 -3 3 0 70 6 148 l12 144 31 13 c37 16 42 17 64 4z m-1309 -85 c4 -2 10
-57 14 -122 4 -65 10 -129 13 -142 l6 -24 -43 24 c-114 64 -174 229 -98 267
21 10 90 8 108 -3z"/>
<path d="M5976 8727 c-47 -26 -81 -69 -73 -91 10 -25 32 -19 69 17 45 46 96
55 149 28 47 -25 65 -26 73 -6 7 18 -24 52 -60 65 -44 17 -116 11 -158 -13z"/>
<path d="M6150 8468 c-5 -13 -11 -40 -15 -60 -9 -56 -50 -100 -89 -96 -26 2
-36 11 -58 53 -46 86 -93 53 -48 -35 53 -104 167 -105 223 -2 31 58 44 127 27
147 -17 21 -29 19 -40 -7z"/>
<path d="M6006 7894 c-39 -38 -45 -39 -143 -18 -29 5 -33 4 -33 -15 0 -41 81
-70 147 -52 49 13 96 60 91 92 -5 35 -21 33 -62 -7z"/>
<path d="M7350 9319 c-108 -37 -145 -67 -105 -83 22 -8 186 22 212 40 34 22
30 50 -8 58 -38 7 -32 8 -99 -15z"/>
<path d="M4613 8770 c-549 -57 -1244 -342 -1768 -725 -342 -250 -732 -647
-977 -995 -364 -517 -597 -1103 -663 -1670 -22 -187 -19 -306 9 -297 29 10 47
72 71 243 66 461 152 751 333 1118 99 202 176 321 304 471 l94 110 66 12 c40
6 112 33 188 68 l122 58 139 -28 c175 -35 272 -33 342 8 78 46 88 66 102 199
6 52 12 64 57 113 83 91 129 112 376 175 184 47 245 73 313 137 114 106 127
216 36 300 -57 53 -111 71 -237 81 -99 8 -180 32 -180 53 0 4 25 26 56 48 207
148 769 358 1129 422 66 11 172 38 235 59 100 33 110 38 75 39 -22 1 -62 3
-90 5 -27 3 -87 1 -132 -4z m-873 -881 c-15 -36 -86 -101 -140 -129 -23 -12
-123 -42 -223 -66 -208 -52 -305 -94 -377 -164 -63 -61 -81 -99 -96 -198 -14
-94 -22 -108 -79 -133 -54 -25 -143 -24 -263 2 -161 36 -198 32 -338 -34 -65
-31 -139 -59 -164 -63 -51 -8 -53 -14 27 83 38 45 51 54 115 73 140 43 177 45
260 16 102 -35 190 -43 259 -23 83 25 122 75 154 197 44 170 96 205 431 291
198 51 327 100 373 142 13 12 33 42 45 67 l21 45 3 -39 c2 -21 -2 -51 -8 -67z"/>
<path d="M7135 8402 c6 -5 78 -46 160 -91 256 -142 470 -290 614 -426 83 -78
222 -260 215 -279 -3 -7 -15 -18 -27 -25 -31 -16 -118 -41 -143 -41 -67 0
-161 -51 -190 -102 -9 -16 -13 -16 -63 -1 -85 25 -200 15 -285 -25 -129 -60
-237 -205 -266 -357 -6 -33 -10 -99 -8 -147 l3 -88 -55 -10 c-281 -55 -365
-106 -486 -292 -114 -174 -137 -193 -294 -233 -200 -52 -287 -110 -347 -232
l-38 -77 0 -176 c-1 -196 6 -174 -91 -305 -80 -108 -108 -169 -108 -240 1 -70
17 -107 77 -173 91 -98 171 -106 376 -35 118 41 147 47 221 47 110 1 163 -23
291 -131 240 -203 388 -266 624 -265 138 1 235 22 336 73 144 72 239 155 458
397 244 270 320 327 438 327 61 0 63 -1 180 -81 137 -94 220 -138 300 -159 64
-17 129 -20 137 -6 6 9 3 10 -132 62 -55 20 -132 63 -225 127 -78 52 -156 101
-174 109 -18 7 -61 13 -96 13 -54 0 -76 -6 -137 -36 -79 -40 -151 -107 -422
-396 -243 -257 -365 -333 -583 -360 -233 -28 -416 40 -660 247 -49 42 -119 91
-155 108 -56 28 -77 32 -157 35 -81 3 -107 0 -205 -28 -174 -50 -273 -43 -340
25 -15 15 -32 43 -38 63 -18 65 2 116 131 347 34 60 34 61 32 180 -3 170 20
260 95 357 44 58 84 79 227 116 61 16 124 36 140 45 49 25 118 105 199 229 41
64 93 130 113 148 45 37 146 87 261 129 73 26 82 28 82 12 0 -25 75 -175 125
-251 53 -80 179 -204 261 -257 54 -34 168 -73 180 -61 2 3 -31 32 -73 65 -212
165 -351 350 -397 529 -54 211 40 437 220 525 125 62 246 50 363 -36 49 -36
66 -57 95 -117 48 -97 63 -194 46 -297 -24 -146 -93 -325 -200 -511 -54 -94
-61 -120 -32 -120 38 0 93 73 164 215 185 369 187 670 5 862 -47 50 -49 54
-33 72 18 19 64 35 136 46 25 4 54 12 65 17 41 21 127 92 139 116 l13 24 61
-68 c152 -170 346 -440 454 -629 165 -290 320 -679 403 -1008 64 -253 90 -433
124 -861 5 -65 13 -122 19 -128 14 -14 50 36 58 80 13 67 -4 363 -30 522 -77
480 -199 858 -402 1248 -191 369 -420 677 -739 997 -309 310 -680 556 -965
639 -30 9 -50 12 -45 8z"/>
<path d="M7531 7208 c-117 -33 -203 -162 -182 -273 23 -122 118 -198 246 -199
61 -1 77 3 125 30 75 43 113 103 118 190 3 46 -1 78 -13 111 -23 59 -80 123
-110 123 -12 0 -39 7 -58 15 -41 17 -76 18 -126 3z m137 -43 c7 -6 -34 -86
-67 -130 -29 -38 -55 -58 -110 -85 -80 -38 -91 -35 -91 28 0 74 73 160 160
187 37 11 95 12 108 0z m102 -152 c28 -113 -57 -213 -180 -213 -31 0 -66 8
-91 21 l-40 20 59 29 c65 33 128 102 171 188 l26 53 22 -27 c12 -15 26 -47 33
-71z"/>
<path d="M2383 7071 c-35 -17 -63 -45 -63 -65 0 -3 15 3 33 14 17 11 37 20 43
20 14 0 47 -67 40 -79 -3 -5 -37 -6 -74 -3 -70 5 -87 -2 -76 -31 6 -17 40 -25
141 -34 112 -9 153 15 153 92 0 44 -32 79 -86 94 -52 15 -62 14 -111 -8z"/>
<path d="M3550 6843 c-288 -33 -453 -202 -467 -478 -12 -235 72 -405 313 -634
126 -120 280 -228 304 -214 21 14 252 441 290 537 58 147 72 269 44 404 -54
267 -238 413 -484 385z m88 -302 c73 -38 102 -87 102 -175 0 -62 -25 -107 -80
-144 -29 -20 -44 -23 -93 -20 -46 4 -63 10 -88 34 -67 63 -84 135 -50 209 21
46 40 64 96 93 50 26 67 27 113 3z m339 -177 c11 -135 -29 -258 -163 -499 -43
-77 -92 -172 -109 -212 l-32 -72 -31 32 -30 32 63 95 c191 289 288 538 270
694 -3 33 -8 75 -11 91 -2 17 5 3 17 -30 11 -33 23 -92 26 -131z m-307 -804
c0 -5 -2 -10 -4 -10 -3 0 -8 5 -11 10 -3 6 -1 10 4 10 6 0 11 -4 11 -10z"/>
<path d="M7700 6145 c-24 -25 -49 -45 -55 -45 -6 0 -28 14 -48 31 -34 28 -40
30 -53 17 -14 -13 -10 -20 30 -55 l45 -40 -29 -28 c-33 -32 -38 -53 -14 -62
10 -3 29 8 53 31 34 33 42 36 94 36 48 0 57 3 57 18 0 29 -16 46 -36 38 -12
-5 -6 7 16 29 28 29 32 39 24 53 -19 29 -38 24 -84 -23z"/>
<path d="M3796 5395 c-9 -23 104 -72 206 -90 34 -5 38 -3 44 20 10 42 -1 55
-48 55 -24 0 -74 7 -113 15 -85 18 -82 18 -89 0z"/>
<path d="M4413 5293 c-50 -7 -41 -30 17 -42 28 -6 57 -11 65 -11 8 0 48 -11
89 -24 l75 -23 11 28 c7 15 9 32 6 37 -14 23 -188 46 -263 35z"/>
<path d="M1755 5136 c-149 -34 -283 -113 -393 -231 -38 -40 -82 -100 -98 -133
l-29 -59 -65 -12 c-97 -18 -165 -55 -245 -135 -49 -50 -83 -96 -113 -154 -126
-241 -145 -650 -50 -1029 26 -106 51 -137 126 -160 117 -35 373 -14 460 37 31
19 35 19 65 3 18 -9 60 -18 97 -19 61 -3 65 -4 68 -28 4 -34 -13 -63 -48 -81
-26 -14 -33 -14 -58 -1 -15 8 -36 23 -46 35 -25 27 -36 27 -36 -2 0 -46 55
-87 115 -87 109 0 167 113 116 226 -34 75 -112 111 -119 55 -3 -16 5 -31 25
-48 l28 -24 -50 5 c-133 16 -228 179 -164 282 26 43 47 54 100 54 30 0 56 -9
90 -31 65 -41 84 -36 85 21 1 25 6 99 12 165 7 66 12 161 12 211 0 61 4 95 13
102 6 5 82 38 167 71 203 81 203 81 214 120 9 31 0 117 -20 189 -5 16 -2 22 9
22 19 0 32 -22 42 -70 18 -88 37 -140 52 -140 12 0 14 7 10 29 -11 54 -20 131
-15 131 3 0 13 -21 23 -47 30 -80 39 -86 122 -80 123 9 378 90 412 130 33 41
-64 278 -163 399 -102 123 -246 219 -401 268 -89 28 -263 36 -350 16z m350
-101 c147 -49 256 -127 357 -254 61 -76 132 -209 144 -267 5 -26 2 -32 -21
-42 -14 -7 -28 -12 -31 -12 -2 0 -20 35 -39 77 -87 190 -227 346 -377 421
-114 58 -190 75 -325 76 -61 1 -109 3 -107 5 2 3 30 11 62 18 90 20 241 11
337 -22z"/>
<path d="M5017 5044 c-3 -4 11 -27 33 -51 25 -28 42 -60 47 -86 8 -38 11 -42
38 -42 28 0 30 2 27 35 -5 47 -36 95 -80 125 -37 25 -54 30 -65 19z"/>
<path d="M6468 4964 c44 -37 72 -80 72 -109 0 -13 -6 -15 -32 -10 -41 9 -50
17 -64 58 -6 18 -20 36 -32 42 -11 5 -23 17 -25 27 -7 24 -30 23 -72 -4 -47
-31 -61 -67 -41 -106 23 -44 61 -70 114 -78 26 -4 59 -13 74 -20 41 -21 84
-18 102 8 20 28 21 88 2 132 -17 41 -83 96 -115 96 -23 0 -22 -3 17 -36z"/>
<path d="M9110 4640 c-111 -19 -215 -79 -280 -161 -40 -51 -80 -142 -80 -184
0 -29 -1 -29 -66 -10 -177 52 -424 37 -596 -36 -230 -98 -409 -292 -408 -443
1 -105 82 -188 234 -240 17 -6 17 -7 1 -33 -62 -94 -56 -289 10 -325 11 -7 4
-19 -35 -56 -43 -42 -50 -54 -50 -88 0 -74 94 -152 189 -156 75 -3 72 18 -10
55 -41 19 -85 46 -98 61 -43 46 -39 50 264 261 53 37 64 41 92 33 l31 -8 -5
-78 c-4 -68 -2 -82 19 -122 33 -60 100 -102 173 -108 45 -4 65 0 110 22 57 28
126 98 153 154 9 17 21 32 27 32 11 0 204 -87 214 -96 2 -2 -3 -12 -12 -22
-40 -44 -3 -62 56 -28 82 48 153 40 168 -17 15 -58 -42 -176 -108 -222 -42
-29 -111 -35 -177 -14 -34 10 -64 15 -69 10 -5 -5 -4 -12 1 -15 6 -4 -14 -50
-51 -114 -107 -188 -252 -311 -403 -342 -71 -15 -124 -7 -202 30 -141 66 -208
182 -262 452 -11 54 -24 77 -37 64 -3 -3 -5 -45 -5 -93 2 -210 122 -412 290
-491 50 -24 69 -27 157 -27 79 1 112 6 156 23 73 29 140 74 205 137 50 49 53
51 58 29 9 -34 71 -48 178 -41 99 6 142 22 146 54 2 11 -20 71 -47 132 -28 61
-51 115 -51 121 0 5 17 10 37 10 51 0 115 33 159 83 32 35 156 127 171 127 10
0 -101 -116 -145 -153 -43 -36 -44 -38 -16 -31 132 30 304 229 371 429 25 72
27 94 27 225 1 167 -14 223 -86 336 -22 36 -39 66 -37 68 2 1 25 17 50 34 55
37 91 82 127 160 24 51 27 69 27 163 0 101 -1 108 -37 180 -41 82 -119 165
-199 212 -54 32 -186 67 -243 66 -23 -1 -61 -5 -86 -9z m135 -67 l47 -6 -71
-18 c-90 -23 -151 -59 -224 -130 -55 -56 -117 -161 -117 -201 0 -23 -5 -23
-47 3 -40 25 -40 36 6 135 53 114 138 182 264 209 75 16 82 17 142 8z m-947
-352 c-125 -40 -296 -152 -370 -243 -89 -109 -131 -213 -109 -271 9 -24 9 -26
-7 -16 -30 19 -54 59 -59 99 -20 144 248 381 489 434 91 20 123 18 56 -3z
m482 -606 c0 -50 -2 -55 -17 -46 -10 5 -44 14 -76 22 l-58 12 48 21 c26 12 57
27 68 33 32 20 35 16 35 -42z m-276 -70 c4 -10 20 -15 53 -15 54 0 162 -24
199 -43 18 -9 35 -38 59 -97 19 -46 47 -103 63 -126 l30 -42 -56 30 c-36 18
-60 39 -68 56 -13 33 -74 67 -208 117 -102 37 -126 39 -126 7 0 -29 30 -50
119 -82 108 -40 141 -57 141 -76 0 -47 -75 -151 -129 -178 -42 -22 -100 -28
-137 -16 -19 6 -34 13 -34 14 0 2 7 18 16 36 24 48 9 85 -34 85 -18 0 -32 2
-32 5 0 3 7 37 16 75 29 129 31 145 22 145 -13 0 -56 -49 -64 -72 -4 -13 -11
-17 -22 -13 -10 4 -25 10 -34 12 -22 6 -23 23 -3 49 25 33 18 61 -22 89 l-38
25 40 1 c22 0 76 6 120 13 110 18 122 18 129 1z m-419 -36 c63 -16 126 -40
143 -54 1 -1 -6 -21 -17 -44 -17 -39 -71 -88 -135 -123 -16 -9 -18 -8 -13 7
10 25 -10 55 -39 55 -26 0 -46 -33 -46 -77 -1 -32 -15 -28 -34 9 -12 23 -15
48 -11 94 5 66 40 154 61 154 7 0 48 -9 91 -21z m916 -917 c16 -41 29 -77 29
-82 0 -10 -56 -21 -75 -14 -27 11 -36 73 -20 149 8 38 15 72 16 75 0 3 5 -8
11 -25 6 -16 23 -63 39 -103z"/>
<path d="M5050 4545 c-12 -19 -44 -54 -72 -79 l-50 -44 16 -31 c19 -36 32 -33
77 16 41 44 58 76 68 126 11 58 -7 64 -39 12z"/>
<path d="M2312 4254 c-23 -9 -58 -31 -78 -49 -30 -29 -34 -37 -24 -54 15 -28
31 -26 87 9 35 22 59 30 94 30 40 0 49 4 54 21 15 47 -58 70 -133 43z"/>
<path d="M1998 4133 c-65 -22 -162 -101 -166 -135 -2 -19 3 -30 17 -37 17 -10
28 -5 70 33 64 57 83 68 150 81 61 13 83 34 62 59 -17 20 -71 20 -133 -1z"/>
<path d="M2501 4027 c-8 -10 -8 -28 1 -69 6 -30 8 -62 5 -72 -6 -15 -13 -13
-53 18 -53 41 -79 45 -94 16 -13 -23 -8 -28 108 -119 98 -76 199 -182 208
-217 7 -29 -11 -47 -66 -64 -129 -41 -158 -65 -71 -58 l49 3 5 -83 c10 -159
-20 -292 -87 -389 -25 -36 -50 -57 -101 -83 -66 -34 -71 -35 -179 -34 -126 0
-180 16 -284 83 -80 52 -132 100 -215 199 -38 46 -72 81 -74 78 -3 -3 9 -36
27 -73 41 -84 174 -220 270 -276 105 -61 182 -80 308 -75 94 3 115 7 172 34
110 52 170 132 211 279 23 85 30 229 16 318 -7 37 -5 47 6 47 8 0 26 11 41 25
56 52 13 163 -105 269 -43 39 -49 48 -40 65 22 40 7 164 -21 183 -18 11 -24
10 -37 -5z"/>
<path d="M4496 4009 c-48 -32 -82 -71 -110 -126 l-15 -31 41 -16 c22 -9 41
-16 43 -14 1 2 17 30 35 63 19 33 45 75 58 92 22 30 24 63 4 63 -5 0 -30 -14
-56 -31z"/>
<path d="M2246 3905 c-11 -12 -12 -23 -5 -47 12 -44 12 -115 -1 -139 -8 -14
-21 -19 -48 -19 -42 0 -82 25 -126 77 -23 27 -31 31 -47 23 -29 -16 -23 -44
22 -90 105 -108 233 -103 267 10 11 36 11 58 2 113 -13 74 -36 100 -64 72z"/>
<path d="M5305 3586 c-156 -49 -285 -196 -326 -371 -28 -121 -11 -281 45 -406
74 -169 294 -418 421 -479 37 -17 69 -29 72 -27 3 3 -10 24 -27 46 -20 24 -30
46 -27 56 4 8 52 93 109 188 133 225 173 307 192 394 32 144 13 237 -63 313
-72 72 -205 129 -302 130 -60 0 -160 -37 -217 -80 l-54 -41 19 32 c31 53 104
129 147 152 35 19 57 22 156 22 135 0 178 -15 256 -93 125 -124 168 -273 128
-442 -18 -79 -90 -232 -169 -360 -104 -170 -145 -245 -145 -267 0 -20 3 -21
30 -11 67 23 275 372 340 568 27 84 37 219 20 291 -41 178 -168 324 -328 378
-71 24 -212 28 -277 7z m183 -302 c2 -11 16 -28 31 -37 79 -46 121 -134 100
-209 -33 -125 -148 -176 -254 -114 -146 86 -125 282 40 364 50 25 79 24 83 -4z"/>
<path d="M4313 3514 c-10 -26 4 -120 25 -166 19 -43 61 -91 94 -109 14 -8 21
-3 36 27 l19 37 -44 40 c-47 43 -83 102 -83 136 0 46 -33 71 -47 35z"/>
<path d="M2147 3283 c-27 -27 13 -92 76 -124 74 -38 177 -11 177 46 0 32 -26
38 -60 14 -21 -16 -36 -20 -57 -15 -41 11 -73 34 -83 62 -9 23 -38 32 -53 17z"/>
<path d="M1712 2818 c20 -57 151 -309 212 -406 319 -512 811 -956 1401 -1263
428 -223 882 -359 1415 -426 208 -26 784 -26 985 0 898 116 1692 474 2244
1011 109 107 210 230 197 243 -11 11 -91 -50 -231 -178 -77 -70 -176 -156
-220 -192 -490 -391 -1086 -654 -1725 -762 -215 -36 -351 -46 -592 -43 l-217
2 -48 90 c-101 191 -155 222 -407 235 -235 12 -254 25 -343 226 -56 129 -104
184 -201 232 -87 44 -157 56 -287 51 -130 -6 -181 -23 -435 -145 -91 -44 -195
-90 -231 -102 l-67 -22 -113 54 c-166 78 -281 160 -498 351 -108 95 -368 370
-459 484 -67 85 -217 310 -312 470 -40 67 -74 122 -76 122 -2 0 2 -15 8 -32z
m2329 -1252 c70 -15 145 -49 192 -88 17 -14 58 -82 100 -168 106 -213 128
-226 394 -240 147 -7 168 -10 218 -34 57 -28 64 -37 159 -183 l54 -83 -77 0
c-109 0 -440 35 -607 64 -384 68 -760 194 -1118 375 l-188 95 58 16 c74 21
147 52 299 128 157 79 215 101 300 117 93 17 137 17 216 1z"/>
<path d="M8342 2771 c-41 -51 -79 -60 -132 -32 -46 24 -70 19 -70 -15 0 -55
139 -85 205 -44 56 34 85 120 44 128 -8 1 -29 -15 -47 -37z"/>
<path d="M5200 1378 c-19 -5 -57 -8 -83 -5 -26 2 -50 0 -53 -4 -9 -15 35 -29
95 -29 34 0 61 -4 61 -9 0 -12 -80 -71 -97 -71 -7 0 -20 11 -29 26 -21 30 -58
29 -62 -2 -5 -33 49 -80 109 -94 164 -40 275 67 179 170 -30 32 -57 36 -120
18z"/>
</g>
</svg>
