<?xml version="1.0" standalone="no"?>
<!DOCTYPE svg PUBLIC "-//W3C//DTD SVG 20010904//EN"
 "http://www.w3.org/TR/2001/REC-SVG-20010904/DTD/svg10.dtd">
<svg version="1.0" xmlns="http://www.w3.org/2000/svg"
 width="1040.000000pt" height="1041.000000pt" viewBox="0 0 1040.000000 1041.000000"
 preserveAspectRatio="xMidYMid meet">

<g transform="translate(0.000000,1041.000000) scale(0.100000,-0.100000)"
fill="#F5F2EB" stroke="none">
<path d="M945 9993 c-71 -37 -115 -98 -115 -158 0 -33 -4 -37 -47 -57 -64 -27
-184 -36 -202 -15 -19 24 -5 55 57 119 60 63 55 75 -13 28 -78 -54 -108 -136
-64 -176 34 -30 130 -31 219 -1 64 22 77 23 90 12 58 -52 203 -59 232 -12 13
21 -3 27 -72 27 -63 0 -120 14 -120 29 0 4 16 15 35 25 45 25 125 110 125 133
0 57 -62 80 -125 46z m17 -104 c-55 -50 -87 -64 -75 -31 16 45 99 110 118 91
7 -7 -6 -26 -43 -60z"/>
<path d="M1564 9820 c-125 -12 -278 -45 -317 -67 -41 -24 -46 -69 -17 -161 84
-263 410 -751 410 -614 0 10 -33 63 -73 117 -40 55 -89 127 -109 160 -48 79
-148 284 -148 302 0 29 50 119 85 153 31 30 46 36 118 47 118 18 361 25 512
16 l130 -8 -47 -28 c-215 -126 -405 -480 -396 -738 3 -74 7 -91 31 -127 37
-56 142 -141 288 -232 l120 -75 3 -105 c3 -115 26 -194 91 -314 18 -34 45 -89
60 -123 l27 -61 -30 -44 c-56 -82 -66 -127 -66 -293 2 -512 249 -1062 659
-1470 229 -227 512 -407 705 -447 47 -9 59 -16 55 -28 -10 -32 -55 -313 -74
-470 -64 -510 -131 -1251 -172 -1900 -17 -278 -23 -1013 -10 -1219 19 -281 45
-427 92 -512 28 -51 77 -79 194 -111 72 -20 105 -22 320 -22 132 -1 255 2 272
6 28 6 35 4 50 -18 18 -28 63 -185 63 -221 0 -17 -7 -24 -27 -28 -87 -16 -205
-49 -253 -71 -71 -32 -100 -60 -100 -96 0 -27 30 -68 50 -68 23 0 7 -16 -33
-34 l-42 -18 30 -9 c17 -5 53 -7 80 -4 108 12 450 23 459 15 4 -4 -4 -48 -18
-97 -45 -154 -65 -287 -50 -327 11 -29 23 -17 30 32 3 26 28 115 55 197 26 83
49 161 51 175 l3 25 274 9 c254 8 275 7 287 -9 7 -9 26 -72 43 -139 57 -233
78 -289 110 -301 27 -11 34 12 18 62 -8 26 -25 91 -37 143 -19 88 -45 192 -56
231 -4 14 16 17 158 23 285 12 349 27 299 67 -21 17 -34 19 -95 14 l-71 -6 82
26 c101 30 165 60 189 86 26 29 22 75 -10 107 l-27 27 -162 0 -162 0 -18 70
c-19 77 -39 266 -28 276 3 4 35 12 71 19 102 19 346 103 451 154 150 74 239
152 239 210 0 12 -31 91 -69 177 -126 286 -339 869 -465 1276 -163 529 -337
1215 -415 1639 -16 89 -44 217 -63 285 l-33 124 -5 -69 -5 -69 -70 -30 c-182
-77 -429 -111 -755 -105 -231 5 -324 20 -544 88 -74 23 -91 32 -89 47 14 136
23 284 22 366 -1 86 -3 97 -11 70 -6 -18 -15 -33 -19 -33 -4 0 -57 21 -116 46
-219 93 -420 232 -606 418 -365 366 -584 822 -637 1332 -26 240 38 388 176
410 61 9 123 -22 200 -101 63 -66 136 -171 314 -455 217 -345 394 -540 580
-635 52 -27 128 -45 190 -45 82 0 90 13 23 34 -156 48 -296 139 -429 278 -109
113 -182 212 -346 466 -239 371 -310 456 -425 510 -49 23 -71 27 -145 27 l-86
0 -53 119 c-72 163 -89 224 -89 312 l0 75 33 -17 c44 -23 267 -172 295 -197
29 -27 99 -26 195 2 37 11 67 16 67 12 0 -13 -53 -58 -113 -96 -65 -40 -96
-92 -97 -156 0 -35 23 -80 35 -68 3 4 9 29 14 57 10 67 30 94 96 137 l55 35
110 -55 c99 -50 270 -125 284 -125 3 0 6 4 6 10 0 17 -103 88 -215 147 -89 48
-109 62 -107 78 2 11 6 34 9 50 3 22 -1 35 -16 49 -24 22 -43 23 -143 6 l-77
-12 -213 109 c-358 184 -538 301 -585 380 -35 60 -41 151 -18 264 9 46 18 85
20 87 2 2 22 -8 45 -23 71 -45 616 -317 800 -400 96 -43 247 -112 335 -153 88
-41 219 -99 290 -129 72 -31 131 -56 132 -57 1 -1 -7 -26 -17 -56 -26 -73 -26
-191 -1 -245 24 -53 64 -99 118 -136 l44 -31 -58 -59 c-62 -63 -78 -68 -136
-44 -56 23 -86 20 -98 -12 -20 -51 6 -160 45 -192 13 -11 13 -17 -1 -54 -8
-23 -17 -80 -20 -127 -17 -263 107 -468 352 -586 71 -35 99 -41 109 -25 13 21
-10 41 -96 87 -144 77 -243 189 -282 322 l-15 52 53 0 c60 0 119 31 124 67 5
31 -24 36 -59 11 -34 -25 -89 -29 -114 -8 -15 12 -16 25 -11 79 14 129 63 230
194 392 l61 76 68 -18 c83 -22 200 -24 273 -5 30 8 56 13 58 12 1 -2 -8 -29
-19 -62 -16 -43 -22 -84 -23 -155 -1 -92 0 -99 37 -171 21 -42 52 -88 68 -104
l29 -27 -48 -28 c-110 -63 -183 -151 -222 -269 -19 -55 -21 -79 -17 -155 7
-108 27 -169 72 -223 l34 -39 -34 -45 c-89 -113 -58 -293 62 -372 71 -47 192
-54 262 -16 28 14 41 13 41 -5 0 -27 39 -93 77 -131 56 -56 125 -84 209 -84
154 0 254 39 338 131 48 54 53 56 76 44 48 -24 132 -37 210 -33 63 4 92 11
145 37 225 111 321 393 226 667 l-29 84 34 36 c19 19 66 83 106 141 86 126
156 205 202 227 100 47 190 -14 232 -159 26 -94 15 -305 -25 -456 -64 -247
-192 -512 -338 -701 -67 -87 -206 -224 -301 -295 -106 -81 -196 -132 -307
-178 -50 -21 -112 -49 -140 -63 -44 -23 -47 -27 -26 -30 38 -6 137 17 220 50
349 138 681 494 859 918 84 200 142 433 142 571 l0 69 128 -64 c70 -35 156
-76 192 -91 36 -15 67 -29 69 -31 2 -1 -24 -37 -58 -79 -61 -76 -71 -95 -49
-95 12 0 105 91 131 129 l16 24 63 -18 c35 -10 65 -20 67 -21 5 -4 -34 -58
-97 -136 -46 -58 -59 -68 -86 -68 -33 0 -231 48 -306 75 -78 28 -52 9 52 -38
126 -56 248 -91 288 -82 18 4 49 28 80 62 42 46 51 52 56 36 19 -57 30 -76 68
-110 22 -21 53 -47 69 -58 l27 -20 -34 -85 c-19 -47 -37 -102 -41 -123 -7 -38
-25 -52 -25 -19 0 10 14 58 30 108 30 88 33 150 7 141 -22 -7 -79 -158 -85
-223 -4 -58 -3 -63 21 -79 40 -26 82 -11 142 49 90 91 219 306 261 437 9 30
18 55 19 57 1 1 30 -16 65 -39 80 -54 291 -145 742 -320 489 -189 720 -285
928 -386 152 -75 182 -94 235 -147 49 -49 66 -75 88 -133 69 -188 87 -344 94
-790 3 -199 3 -377 -1 -396 -6 -31 -10 -35 -49 -41 -188 -27 -451 -16 -675 29
-113 23 -329 88 -343 103 -4 4 9 61 27 127 121 426 169 662 162 790 l-3 60
-28 -100 c-16 -55 -73 -275 -128 -490 -55 -214 -102 -397 -105 -407 -4 -12 5
-19 33 -28 21 -7 41 -15 45 -19 5 -4 -3 -56 -17 -116 -71 -315 -343 -2156
-465 -3147 -29 -242 -29 -262 -1 -292 45 -48 208 -93 423 -117 119 -13 118
-12 118 -99 l0 -45 -127 -49 c-166 -63 -296 -130 -312 -160 -17 -30 -2 -60 41
-82 57 -29 158 -16 158 21 0 9 -9 15 -22 15 -34 0 -98 20 -98 30 0 12 113 64
265 121 71 27 137 56 145 65 10 10 15 33 14 74 l-1 60 88 0 89 0 0 -42 c0 -24
3 -66 6 -94 l6 -50 -143 -59 c-264 -106 -325 -146 -299 -194 16 -31 47 -43
114 -46 106 -4 710 12 729 20 36 15 15 25 -53 25 -82 0 -97 21 -27 37 l42 11
-40 1 -41 1 3 218 3 217 73 7 c174 18 404 74 521 127 l63 28 7 57 c18 159 -69
2497 -115 3076 -6 74 -12 324 -14 555 -5 660 -40 922 -147 1103 -74 125 -268
227 -926 487 -174 69 -432 171 -572 227 -271 107 -563 235 -568 249 -2 5 -12
9 -22 9 -14 0 -25 -16 -41 -60 l-22 -60 -40 22 c-22 13 -49 35 -60 49 -19 27
-19 27 8 165 42 217 35 331 -22 362 -13 8 -17 26 -19 77 -2 52 -8 75 -28 106
-50 75 -306 253 -599 416 -117 65 -118 65 -147 127 -31 66 -86 128 -134 153
-34 18 -79 20 -160 6 l-59 -10 -391 192 c-872 429 -2163 1013 -2617 1185 -212
80 -463 159 -597 186 -112 23 -155 27 -362 29 -129 2 -276 0 -326 -5z m896
-147 c309 -95 638 -226 1220 -486 571 -254 1238 -564 1793 -832 l326 -158 30
-56 c55 -105 93 -291 58 -291 -8 0 -33 23 -57 51 -23 28 -54 55 -69 60 -22 9
-29 7 -48 -16 -13 -14 -23 -39 -23 -56 l0 -29 -161 81 c-225 112 -433 207
-482 221 -42 11 -42 11 -59 80 -63 257 -378 410 -614 299 l-58 -27 -85 52
c-388 233 -1680 824 -2118 968 -46 15 -83 31 -83 35 0 19 114 114 162 136 64
29 74 28 268 -32z m-240 -248 c234 -87 1047 -442 1370 -597 47 -22 155 -74
240 -115 107 -52 143 -73 115 -68 -180 32 -338 -7 -439 -108 l-42 -43 -46 27
c-26 15 -181 92 -345 171 -563 270 -1158 570 -1188 599 -9 9 50 144 88 201
l18 28 37 -19 c20 -10 107 -44 192 -76z m1720 -845 c23 -7 22 -8 -11 -9 -163
-4 -324 -95 -387 -216 -22 -41 -26 -64 -27 -131 0 -63 -3 -78 -11 -65 -24 34
-36 95 -31 151 11 125 88 212 232 262 53 18 189 23 235 8z m349 -86 c3 -3 -3
-12 -12 -21 -15 -15 -20 -13 -74 37 -32 30 -60 56 -63 58 -3 2 29 -12 70 -33
41 -21 77 -39 79 -41z m322 6 c72 -14 167 -60 217 -104 22 -20 57 -69 78 -108
33 -64 38 -82 40 -153 l3 -80 -9 58 c-23 147 -146 267 -329 321 -72 21 -173
20 -239 -3 -52 -18 -52 -18 -35 2 34 37 126 73 194 76 15 1 50 -4 80 -9z
m1422 -330 c36 -42 68 -132 78 -219 4 -40 11 -76 14 -79 25 -25 25 139 0 208
-23 66 7 32 36 -40 17 -42 23 -83 27 -170 5 -127 -3 -170 -58 -322 -31 -86
-31 -87 -51 -67 -59 59 -167 50 -277 -23 -24 -15 -47 -28 -53 -28 -5 0 -94 43
-197 95 l-187 95 -17 57 c-25 82 -79 149 -157 192 -56 30 -76 35 -147 39 l-82
4 20 44 c17 39 24 81 27 161 1 20 17 14 199 -74 108 -53 267 -134 353 -180
156 -83 156 -83 173 -131 32 -90 70 -162 98 -189 15 -14 31 -24 34 -20 11 10
-15 95 -61 202 -45 104 -63 165 -48 165 4 0 33 -27 64 -60 63 -69 95 -77 124
-34 27 42 29 118 6 240 -25 132 -25 134 -6 107 28 -40 65 -153 73 -221 6 -57
10 -67 27 -67 52 0 37 137 -29 267 -18 37 -31 69 -28 73 10 10 20 5 45 -25z
m366 -306 c64 -37 155 -92 203 -123 87 -55 88 -57 110 -121 18 -51 23 -87 23
-167 0 -56 -3 -104 -6 -108 -4 -3 -52 22 -108 55 -126 75 -323 174 -379 190
-23 7 -42 14 -42 14 0 1 14 55 30 121 16 66 30 136 30 156 0 33 6 49 18 49 3
0 57 -30 121 -66z m-2970 -40 c5 -5 -31 -74 -42 -81 -5 -3 -11 -3 -14 0 -9 9
-22 80 -16 90 4 7 62 0 72 -9z m1706 -13 c58 -26 121 -96 146 -161 27 -70 31
-207 8 -260 l-16 -35 0 76 c-1 165 -102 310 -259 374 -48 20 -53 24 -33 28 37
8 110 -3 154 -22z m1150 -292 c88 -45 281 -155 378 -215 27 -16 47 -36 47 -46
0 -19 -72 -206 -92 -237 -11 -18 -22 -14 -208 80 -108 54 -201 99 -206 99 -6
0 -15 26 -22 58 -7 31 -23 81 -37 111 l-25 54 24 51 c13 28 27 61 31 74 4 13
10 22 13 20 4 -2 48 -24 97 -49z m-807 -23 c48 -24 121 -58 162 -76 41 -18 76
-34 78 -35 5 -4 -209 -315 -216 -314 -4 0 -24 22 -44 49 -34 44 -105 107 -152
135 -16 9 -15 14 10 59 29 52 54 140 54 194 0 17 5 32 10 32 6 0 50 -20 98
-44z m1388 -71 c16 -34 24 -68 24 -105 0 -79 -7 -84 -62 -50 -46 29 -46 29
-37 67 5 21 9 69 9 107 l0 69 21 -19 c12 -10 32 -41 45 -69z m135 -175 c8 -38
-2 -121 -31 -250 -11 -49 -20 -111 -20 -136 0 -42 5 -51 43 -89 23 -23 49 -44
57 -47 13 -4 13 -12 -3 -59 -11 -30 -27 -66 -38 -79 l-18 -25 -47 24 c-66 36
-141 106 -154 146 -11 33 -8 43 48 163 58 123 113 276 127 355 9 45 27 44 36
-3z m-181 -45 c22 -14 40 -27 40 -30 0 -5 -90 -226 -96 -237 -3 -5 -87 25
-101 36 -1 1 15 36 37 77 22 41 44 98 50 127 6 28 16 52 21 52 5 0 27 -11 49
-25z m-1897 -5511 c45 -88 61 -102 136 -115 l61 -11 0 -44 c0 -24 7 -88 15
-142 38 -258 71 -343 145 -379 l45 -22 -155 -1 c-85 0 -240 -3 -345 -7 l-189
-6 33 29 c25 23 34 40 38 74 7 61 -20 210 -61 336 -24 73 -31 107 -23 109 7 3
48 16 92 30 107 33 145 57 145 91 0 14 -16 109 -35 211 -19 102 -35 190 -35
196 0 7 22 -54 49 -134 27 -80 65 -177 84 -215z m361 -150 l65 -7 6 -66 c8
-81 22 -160 41 -227 20 -73 40 -80 192 -65 122 11 175 5 180 -21 10 -54 -379
-145 -467 -109 -50 21 -73 92 -110 341 -11 75 -23 144 -27 154 -7 17 -4 18 24
13 17 -4 61 -9 96 -13z m-699 -176 c31 -98 55 -214 55 -269 0 -45 -19 -62 -97
-85 -82 -25 -282 -39 -364 -27 -76 12 -104 27 -80 42 8 5 71 28 140 52 69 23
136 49 148 56 14 10 23 11 28 4 3 -6 11 -11 17 -11 20 0 -7 224 -37 303 -6 15
1 17 78 17 l86 0 26 -82z m4219 -475 c3 -16 6 -84 8 -152 l3 -124 -80 -34
c-120 -51 -261 -83 -395 -89 l-115 -5 45 24 c25 13 113 53 195 87 83 35 158
70 168 79 15 13 18 30 17 121 -1 58 -1 108 -1 113 1 4 34 7 75 7 73 0 74 0 80
-27z m26 -353 c0 -14 -7 -20 -23 -20 -32 0 -40 10 -19 26 25 19 42 17 42 -6z
m20 -60 c0 -11 -50 -12 -130 0 -51 7 -49 7 38 9 55 0 92 -3 92 -9z"/>
<path d="M7919 8234 c-9 -11 -6 -24 12 -59 101 -190 121 -213 127 -146 10 96
-98 255 -139 205z"/>
<path d="M8675 8016 c-114 -28 -230 -100 -341 -210 -70 -69 -134 -157 -134
-183 0 -25 60 -79 119 -108 l61 -29 -22 -23 c-12 -13 -60 -44 -108 -70 -125
-68 -207 -121 -214 -139 -10 -25 56 -84 93 -84 39 0 39 13 1 40 -16 12 -30 24
-30 28 0 7 161 102 173 102 4 0 -7 -24 -24 -52 -53 -92 -90 -180 -116 -278
-45 -173 -16 -341 77 -443 91 -100 204 -142 364 -135 84 3 111 9 164 32 54 25
131 90 120 102 -2 2 -40 -12 -84 -31 -199 -86 -384 -65 -500 57 -61 63 -86
120 -92 205 l-5 72 49 -5 c39 -4 58 -1 94 18 53 27 69 68 27 68 -14 0 -30 -7
-37 -15 -15 -18 -71 -29 -99 -20 -13 4 -21 15 -21 30 0 77 104 304 201 439
l52 73 161 -53 c89 -28 211 -64 271 -79 61 -16 114 -31 118 -35 5 -4 -10 -64
-32 -133 -45 -139 -53 -210 -23 -226 10 -5 45 -7 78 -4 102 9 158 -38 134
-113 -29 -86 -180 -146 -248 -98 -30 21 -28 3 3 -26 34 -32 145 -41 193 -16
17 9 32 16 34 16 2 0 3 -35 4 -78 0 -42 6 -87 12 -99 7 -13 9 -23 5 -23 -22 0
-51 33 -62 72 -13 41 -14 42 -23 18 -5 -13 -8 -44 -6 -69 3 -39 7 -47 38 -65
49 -29 203 -34 325 -11 182 33 378 113 425 172 27 34 25 58 -9 139 -37 87 -56
179 -76 369 -33 314 -58 443 -107 538 -30 60 -98 128 -153 153 -84 40 -208 29
-284 -25 l-27 -19 -17 48 c-56 157 -297 256 -502 206z m17 -80 c-81 -44 -152
-98 -225 -172 -58 -58 -127 -153 -127 -173 0 -17 -12 -13 -45 13 l-29 24 43
56 c96 124 235 230 350 267 88 28 102 22 33 -15z"/>
<path d="M3714 7854 c-33 -36 -76 -45 -113 -22 -22 14 -51 4 -51 -17 0 -27 60
-57 107 -52 71 7 150 80 122 113 -17 21 -31 17 -65 -22z"/>
<path d="M7710 7877 c-67 -34 -13 -76 74 -57 131 30 162 42 150 61 -8 14 -195
11 -224 -4z"/>
<path d="M8433 7345 c-29 -21 -48 -78 -33 -105 16 -30 55 -26 82 10 26 35 36
37 85 10 57 -30 120 -24 81 8 -18 13 -149 79 -173 86 -11 3 -30 -1 -42 -9z"/>
<path d="M2632 7144 c-24 -17 -30 -62 -10 -82 7 -7 24 -12 38 -12 33 0 50 17
50 50 0 48 -40 71 -78 44z"/>
<path d="M7360 6289 c0 -52 63 -98 115 -85 22 6 26 11 23 39 -3 36 -33 56 -99
64 -36 5 -39 4 -39 -18z"/>
<path d="M6794 6218 c-4 -5 2 -22 13 -36 20 -26 402 -204 813 -378 85 -37 232
-100 325 -141 239 -106 345 -143 408 -143 l52 0 -35 22 c-19 11 -107 51 -195
88 -233 98 -666 288 -1015 445 -333 149 -357 159 -366 143z"/>
<path d="M5058 5999 c-21 -12 -24 -59 -6 -77 7 -7 25 -12 40 -12 40 0 58 39
34 75 -17 26 -39 31 -68 14z"/>
<path d="M7156 5913 c-3 -3 -6 -14 -6 -24 0 -21 30 -38 117 -70 32 -12 239
-111 461 -220 413 -205 454 -223 510 -233 79 -14 27 21 -254 172 -426 228
-803 399 -828 375z"/>
<path d="M8815 5759 c-50 -45 -43 -89 15 -89 46 1 87 52 76 96 -9 34 -47 31
-91 -7z"/>
<path d="M4088 5629 c-21 -12 -24 -69 -6 -87 7 -7 24 -12 38 -12 33 0 50 17
50 51 0 48 -41 72 -82 48z"/>
<path d="M8684 4965 c-10 -25 5 -66 37 -97 28 -28 31 -29 52 -15 31 21 27 74
-8 104 -30 26 -73 30 -81 8z"/>
</g>
</svg>
