<?xml version="1.0" standalone="no"?>
<!DOCTYPE svg PUBLIC "-//W3C//DTD SVG 20010904//EN"
 "http://www.w3.org/TR/2001/REC-SVG-20010904/DTD/svg10.dtd">
<svg version="1.0" xmlns="http://www.w3.org/2000/svg"
 width="520.000000pt" height="520.000000pt" viewBox="0 0 520.000000 520.000000"
 preserveAspectRatio="xMidYMid meet">

<g transform="translate(0.000000,520.000000) scale(0.100000,-0.100000)"
fill="#F5F2EB" stroke="none">
<path d="M2490 4814 c-182 -48 -340 -208 -340 -343 0 -54 11 -46 34 25 36 110
112 193 232 250 85 42 162 56 241 44 68 -9 157 -42 193 -70 21 -16 14 -15 -39
7 -69 27 -162 35 -234 20 -45 -10 -40 -27 8 -27 45 0 144 -32 198 -63 61 -36
160 -145 190 -209 51 -110 61 -249 23 -330 -40 -84 -153 -186 -186 -168 -10 6
-26 10 -34 10 -19 0 -22 -30 -3 -30 33 -1 -33 -30 -94 -41 -128 -23 -272 21
-375 114 -69 63 -107 125 -140 227 -33 104 -44 119 -44 58 0 -101 54 -214 141
-298 143 -137 356 -178 530 -104 33 14 39 14 66 1 16 -9 56 -21 90 -28 54 -11
64 -11 87 4 17 11 26 27 26 43 0 35 -30 84 -52 84 -24 0 -23 -14 3 -49 30 -41
17 -55 -47 -48 -29 3 -61 10 -72 16 -19 10 -15 16 47 78 140 140 185 332 122
515 -81 236 -335 375 -571 312z"/>
<path d="M2016 4639 c-49 -38 -29 -106 61 -210 134 -155 233 -244 388 -349 49
-34 175 -90 201 -90 28 0 13 21 -33 48 -322 187 -643 488 -601 565 8 16 17 18
69 12 68 -8 80 7 24 31 -47 19 -78 18 -109 -7z"/>
<path d="M1830 4407 c0 -16 62 -77 78 -77 22 0 13 26 -21 58 -35 34 -57 41
-57 19z"/>
<path d="M3646 4239 c-56 -13 -101 -44 -128 -87 -19 -31 -23 -51 -23 -122 0
-72 4 -93 27 -141 15 -30 48 -76 73 -102 49 -49 153 -107 193 -107 55 0 163
-41 203 -77 95 -86 116 -197 65 -347 -32 -96 -33 -128 -3 -159 35 -40 67 -41
133 -6 71 37 108 36 112 -4 5 -38 -19 -71 -74 -103 -42 -25 -51 -26 -120 -20
-45 4 -74 3 -74 -3 0 -5 5 -11 10 -13 7 -2 7 -13 0 -35 -27 -78 43 -173 127
-173 71 1 169 81 223 184 23 42 30 47 90 65 204 63 370 240 386 411 16 167
-90 352 -251 436 -133 70 -315 80 -429 22 l-41 -20 24 26 c13 14 32 28 43 32
10 3 18 12 18 20 0 27 -34 14 -76 -30 l-42 -44 -11 45 c-35 138 -156 291 -261
330 -69 26 -144 34 -194 22z m94 -29 c23 -7 22 -8 -10 -9 -51 -2 -113 -34
-143 -72 -33 -44 -51 -118 -44 -177 5 -37 4 -43 -4 -28 -17 28 -23 138 -10
178 16 48 62 89 118 104 55 15 59 15 93 4z m753 -365 c32 -8 77 -25 100 -36
68 -35 161 -132 198 -207 32 -63 34 -73 34 -167 0 -79 -4 -106 -18 -130 -10
-16 -15 -21 -12 -10 18 59 27 124 21 169 -14 119 -123 264 -244 324 -84 41
-157 55 -267 50 -83 -4 -87 -3 -50 8 56 17 170 17 238 -1z"/>
<path d="M1843 4208 c-26 -13 -31 -38 -8 -38 22 0 75 29 75 40 0 13 -39 12
-67 -2z"/>
<path d="M3757 3599 c-134 -101 -296 -315 -359 -474 -40 -100 -46 -225 -14
-289 56 -113 246 -158 408 -96 115 44 106 61 -13 24 -157 -47 -298 -20 -357
69 -24 37 -27 49 -26 126 0 47 6 98 12 113 11 26 12 26 41 12 41 -20 115 -15
119 8 3 15 -2 17 -40 12 -35 -5 -48 -2 -68 14 l-25 21 37 73 c54 105 121 189
247 311 92 88 126 128 109 127 -2 0 -34 -23 -71 -51z"/>
<path d="M2665 3516 c-8 -13 -21 -59 -27 -104 l-12 -80 -38 -6 c-25 -4 -43
-15 -54 -31 -9 -14 -25 -25 -36 -25 -12 0 -23 -11 -29 -30 -6 -16 -14 -28 -18
-25 -4 2 -18 -3 -31 -12 -19 -13 -22 -22 -18 -57 7 -60 39 -121 63 -121 11 0
21 8 23 19 3 14 0 17 -13 13 -21 -9 -47 51 -43 96 5 54 31 45 46 -15 14 -58
33 -84 56 -75 17 7 22 37 6 37 -5 0 -10 -5 -10 -11 0 -5 -4 -8 -8 -5 -12 7
-35 107 -31 136 5 32 31 32 40 0 3 -14 23 -52 43 -84 20 -33 36 -65 36 -70 0
-6 5 -3 11 7 14 23 4 60 -27 106 -48 72 -23 82 42 17 51 -50 54 -71 23 -142
-12 -26 -24 -70 -28 -97 l-6 -48 -101 -2 c-118 -2 -134 -11 -134 -69 0 -22
-12 -119 -26 -216 -34 -227 -39 -508 -11 -612 25 -92 60 -146 109 -171 61 -31
188 -23 323 21 100 32 361 143 379 161 26 25 -49 3 -173 -50 -353 -154 -506
-166 -576 -47 -43 73 -58 185 -52 381 5 169 31 391 48 410 5 5 9 35 9 66 0 33
5 61 13 67 19 16 172 30 185 18 2 -3 -1 -44 -7 -93 -36 -292 -32 -615 7 -673
16 -24 17 -25 20 -3 3 17 17 25 85 43 120 32 262 78 342 110 39 16 118 47 177
70 94 36 130 61 113 78 -3 3 -35 -7 -73 -23 -237 -98 -580 -215 -635 -215 -32
0 -35 280 -6 578 12 118 13 122 36 122 29 0 30 16 2 25 -19 6 -21 12 -15 57 4
27 15 71 25 96 15 37 20 89 26 248 4 110 4 210 1 221 -10 32 -34 36 -51 9z
m27 -185 c-2 -61 -8 -111 -12 -111 -4 0 -15 9 -26 21 -10 12 -35 29 -54 40
l-35 18 41 1 42 0 7 48 c4 26 11 70 17 97 10 45 12 47 18 24 4 -15 5 -77 2
-138z"/>
<path d="M3672 3458 c-56 -60 -41 -125 26 -114 41 6 107 47 122 76 15 29 -1
25 -60 -15 -83 -56 -121 -43 -76 25 14 22 26 42 26 45 0 12 -18 4 -38 -17z"/>
<path d="M3381 3431 c-25 -25 -21 -52 11 -88 25 -27 75 -46 84 -32 7 12 7 12
-33 33 -36 18 -52 53 -32 68 8 5 37 7 65 4 50 -4 85 6 71 21 -5 4 -39 9 -76
11 -60 4 -72 1 -90 -17z"/>
<path d="M3815 2396 c-26 -11 -66 -46 -52 -46 2 0 21 7 40 15 51 21 94 19 153
-9 122 -57 165 -191 129 -406 -64 -390 -165 -660 -306 -814 -70 -76 -123 -117
-167 -127 -88 -20 -258 46 -465 180 -93 61 -107 74 -107 97 0 31 30 97 60 133
l20 24 129 -67 c120 -62 172 -78 185 -58 3 5 -60 40 -139 77 -105 49 -144 72
-143 84 2 11 -5 16 -27 17 -16 1 -51 11 -76 22 -165 77 -341 67 -485 -26 -96
-63 -150 -122 -111 -122 6 0 37 21 67 46 163 135 335 155 532 64 l27 -13 -25
-30 c-30 -35 -64 -100 -64 -121 0 -11 -24 -2 -89 31 -79 41 -98 47 -169 51
-107 6 -151 -10 -303 -110 -179 -117 -788 -508 -964 -618 -82 -52 -161 -102
-174 -112 -21 -16 -22 -18 -5 -18 11 0 25 -9 32 -21 7 -11 37 -31 65 -44 l52
-23 -40 -18 c-33 -14 -69 -17 -200 -17 -164 0 -321 15 -339 33 -7 7 -5 10 5
10 43 0 445 33 449 36 11 11 -29 24 -75 24 -90 0 -389 -28 -417 -39 -30 -11
-36 -32 -15 -50 39 -31 359 -69 492 -56 119 10 136 15 153 45 l15 27 56 -14
c31 -8 113 -17 183 -20 l128 -6 122 63 c257 133 583 328 654 392 21 19 22 19
144 -94 216 -200 362 -297 497 -332 75 -20 165 -20 218 -1 31 12 103 15 330
15 295 0 335 3 335 24 0 9 -67 11 -282 8 l-283 -4 58 59 c32 32 67 72 78 88
37 54 96 179 119 250 12 39 31 77 41 87 20 17 25 38 9 38 -5 0 -10 15 -10 33
0 17 -4 39 -10 47 -10 17 -11 15 -30 -58 l-11 -44 -42 7 c-82 13 -82 12 -16
72 182 169 311 484 374 917 23 159 5 265 -59 349 -55 72 -174 107 -251 73z"/>
<path d="M3420 2381 c0 -4 -23 -38 -50 -74 -60 -77 -72 -123 -41 -151 17 -15
30 -18 73 -13 70 8 198 73 215 108 7 15 24 34 38 43 24 16 34 36 17 36 -4 0
-39 -23 -77 -51 -112 -82 -189 -112 -239 -93 -26 10 -19 33 34 104 48 64 62
100 40 100 -5 0 -10 -4 -10 -9z"/>
<path d="M3272 2235 c-18 -39 -14 -83 8 -105 35 -35 166 -20 260 30 34 18 17
22 -23 5 -164 -68 -263 -44 -228 56 13 38 13 39 3 39 -5 0 -14 -11 -20 -25z"/>
<path d="M3157 1886 c3 -22 -6 -73 -26 -145 -33 -120 -38 -161 -18 -161 17 0
68 188 75 273 4 63 3 67 -16 67 -18 0 -20 -5 -15 -34z"/>
<path d="M3724 1783 c-10 -16 -27 -44 -40 -64 -65 -104 -164 -330 -164 -375 0
-44 24 -21 48 47 34 93 107 245 153 315 37 57 50 104 29 104 -5 0 -17 -12 -26
-27z"/>
<path d="M524 864 c-19 -75 19 -193 111 -346 l53 -88 -163 0 c-151 0 -192 -6
-172 -27 3 -3 102 -8 220 -11 189 -4 214 -3 220 11 4 11 -5 22 -28 36 -68 40
-215 305 -215 389 0 49 34 16 126 -125 54 -82 104 -154 112 -160 20 -16 244
-18 273 -3 41 22 15 30 -118 32 l-138 3 -93 140 c-50 77 -102 148 -113 158
-32 26 -67 22 -75 -9z"/>
<path d="M2514 762 c-184 -132 -449 -282 -499 -282 -20 0 -30 -21 -14 -31 8
-5 129 -9 269 -9 373 0 698 23 755 53 24 12 22 14 -68 74 -50 34 -142 109
-204 167 -61 58 -115 106 -120 106 -5 0 -59 -35 -119 -78z"/>
<path d="M1520 814 c-30 -8 -131 -16 -225 -19 -237 -8 -295 -14 -302 -31 -14
-36 124 -234 163 -234 39 0 364 190 442 258 48 42 21 51 -78 26z"/>
</g>
</svg>
