<?xml version="1.0" standalone="no"?>
<!DOCTYPE svg PUBLIC "-//W3C//DTD SVG 20010904//EN"
 "http://www.w3.org/TR/2001/REC-SVG-20010904/DTD/svg10.dtd">
<svg version="1.0" xmlns="http://www.w3.org/2000/svg"
 width="520.000000pt" height="520.000000pt" viewBox="0 0 520.000000 520.000000"
 preserveAspectRatio="xMidYMid meet">

<g transform="translate(0.000000,520.000000) scale(0.100000,-0.100000)"
fill="#F5F2EB" stroke="none">
<path d="M3753 4375 c-106 -33 -197 -115 -234 -214 -28 -75 -22 -185 14 -265
33 -71 113 -156 181 -192 l54 -28 4 -73 c3 -40 10 -78 16 -86 9 -10 8 -18 -3
-33 -24 -32 -19 -80 11 -103 42 -33 174 -26 174 9 0 6 -26 8 -67 4 -58 -5 -72
-3 -91 12 -20 16 -22 23 -13 45 5 15 30 43 55 64 25 21 46 44 46 51 0 20 -11
17 -50 -17 -34 -29 -35 -29 -42 -8 -14 36 -21 154 -14 213 l7 56 69 0 c68 0
179 19 233 39 15 6 27 7 27 2 0 -5 26 -11 58 -13 31 -2 80 -14 109 -26 29 -12
55 -18 57 -13 11 17 -46 60 -95 72 l-51 13 34 28 c41 34 49 34 87 2 44 -37 51
-53 62 -152 12 -106 45 -182 93 -211 44 -27 80 -28 71 -2 -4 13 2 25 21 40 47
37 98 23 117 -32 10 -28 -18 -84 -55 -107 -28 -18 -44 -21 -108 -16 -74 5 -75
4 -52 -14 12 -10 27 -20 33 -22 17 -6 0 -53 -42 -119 -40 -62 -48 -84 -26 -77
18 6 76 107 90 156 9 35 15 42 37 42 43 1 108 37 130 72 11 18 20 50 20 70 0
32 7 44 44 78 29 26 61 74 91 134 60 117 70 198 36 287 -38 101 -143 179 -241
179 -48 0 -122 -29 -155 -60 -21 -19 -22 -19 -150 61 -155 95 -229 132 -311
153 -74 19 -222 20 -281 1z m30 -33 c-97 -40 -174 -118 -210 -214 -8 -25 -16
-78 -17 -125 -1 -101 -18 -83 -24 27 -3 55 0 86 12 115 24 57 63 110 104 141
38 29 137 74 162 73 8 0 -4 -8 -27 -17z"/>
<path d="M1195 4365 c-5 -2 -22 -6 -36 -9 -14 -3 -39 -16 -55 -28 -26 -21 -37
-23 -114 -20 -105 4 -165 -16 -262 -87 -183 -136 -305 -383 -388 -786 -40
-194 -64 -298 -95 -414 -34 -127 -33 -179 2 -213 40 -37 123 -76 211 -100 93
-25 300 -27 400 -5 57 12 62 12 56 -2 -36 -84 -45 -160 -22 -178 7 -6 45 -20
83 -31 151 -45 352 -226 514 -461 28 -41 51 -79 51 -85 0 -6 -32 -24 -72 -41
-85 -36 -208 -115 -227 -146 l-13 -22 33 22 c74 48 166 96 300 157 145 66 218
107 325 181 34 24 68 43 76 43 22 0 75 -61 98 -113 34 -77 37 -146 9 -204 -22
-47 -103 -134 -203 -221 -27 -23 -46 -45 -43 -48 10 -10 109 70 185 150 80 85
132 191 132 273 1 43 5 53 41 88 22 22 54 60 71 85 17 25 50 57 74 72 29 18
51 43 68 76 21 41 29 49 46 45 14 -4 30 5 54 29 18 18 38 32 44 30 6 -2 33 8
61 23 69 35 69 75 -1 75 -19 0 -19 1 -4 25 21 33 20 68 -3 89 -23 21 -125 34
-135 17 -5 -7 5 -11 29 -11 44 0 105 -24 105 -42 -1 -34 -15 -38 -68 -18 -57
22 -82 25 -82 11 0 -5 15 -12 34 -15 19 -4 45 -15 57 -25 21 -17 22 -22 11
-46 l-12 -27 -31 26 c-17 14 -40 26 -52 25 -21 0 -21 -1 -3 -12 43 -28 66 -49
66 -61 0 -22 -40 -66 -61 -66 -18 0 -19 2 -4 30 20 39 19 62 -2 58 -12 -2 -26
-28 -44 -81 -30 -89 -56 -121 -118 -149 -28 -13 -39 -23 -31 -28 8 -5 -6 -28
-48 -76 -32 -38 -69 -77 -80 -88 -21 -19 -22 -19 -41 26 -10 25 -33 61 -50 80
l-30 35 63 52 c105 87 165 170 261 362 104 206 137 236 246 226 61 -5 103 -22
94 -38 -4 -5 -39 -9 -80 -9 -79 0 -92 -7 -121 -62 -23 -45 -10 -58 16 -15 28
47 49 56 121 50 57 -5 89 10 89 42 0 37 -132 66 -207 46 -23 -6 -55 -25 -71
-41 -16 -16 -67 -101 -113 -190 -46 -89 -107 -192 -136 -229 -58 -76 -190
-187 -332 -280 l-95 -62 -36 113 c-20 63 -50 139 -67 170 l-30 57 25 23 c33
30 62 95 62 138 0 56 -41 130 -104 188 -53 47 -99 72 -112 59 -3 -2 10 -14 29
-26 18 -11 42 -30 53 -42 15 -17 8 -14 -30 9 -26 17 -61 34 -77 37 -33 8 -41
17 -33 38 4 11 26 18 72 22 89 9 221 40 285 67 75 32 171 94 206 133 l30 34
-35 81 c-41 98 -103 300 -183 603 -71 265 -97 335 -162 432 -72 107 -149 161
-271 190 -57 13 -138 18 -163 10z m243 -534 l55 -6 -40 -17 c-91 -41 -90 -109
6 -299 39 -77 71 -148 71 -156 0 -12 -8 -14 -45 -9 -48 8 -61 -5 -26 -24 29
-15 77 -12 92 6 11 14 10 26 -9 78 -17 49 -19 63 -8 71 34 27 47 104 26 159
-18 48 -31 30 -24 -33 7 -63 -6 -104 -30 -95 -8 3 -27 31 -44 62 -71 135 -62
190 36 218 31 9 62 19 68 21 13 5 68 -179 84 -277 16 -107 12 -257 -9 -343
-35 -133 -73 -193 -186 -286 -55 -46 -73 -67 -72 -84 1 -12 -4 -64 -12 -114
-12 -80 -17 -93 -33 -93 -54 0 -132 57 -193 140 -35 48 -36 50 -20 74 22 34
13 84 -31 176 -34 73 -114 184 -136 193 -7 3 1 10 19 17 28 10 50 36 39 47 -2
3 -19 -3 -36 -12 -75 -39 -186 -5 -225 68 l-20 37 20 37 c37 70 97 77 167 18
16 -14 34 -25 38 -25 20 0 34 50 34 125 0 64 -5 93 -26 143 l-26 62 42 0 c22
0 59 5 81 10 l40 9 -35 -29 c-25 -21 -32 -32 -24 -40 8 -8 25 -1 63 25 51 34
70 39 119 35 18 -1 23 3 20 17 -3 14 -13 18 -49 17 l-46 0 53 49 c29 26 56 57
59 67 6 18 9 17 62 -7 31 -14 81 -29 111 -32z m-393 -1068 c-53 -27 -92 -77
-116 -146 -16 -44 -18 -47 -19 -22 0 40 41 124 76 156 42 39 87 60 96 46 5 -8
-9 -20 -37 -34z m1579 -293 c-13 -13 -87 -51 -91 -46 -10 10 50 56 74 56 18 0
24 -3 17 -10z"/>
<path d="M1303 3571 c3 -16 9 -40 12 -53 4 -16 0 -32 -13 -48 -17 -21 -23 -23
-45 -13 -15 7 -37 28 -49 48 -24 36 -48 46 -48 20 0 -24 84 -105 109 -105 68
0 99 85 59 163 -14 28 -31 20 -25 -12z"/>
<path d="M1469 3204 c-12 -14 -31 -14 -73 2 -23 9 -20 -23 3 -36 41 -21 111
-1 111 32 0 22 -23 24 -41 2z"/>
<path d="M2081 3813 c-6 -10 -11 -12 -11 -5 0 6 -9 12 -20 12 -32 0 -25 -36
10 -48 26 -9 32 -8 45 11 8 12 15 27 15 34 0 19 -27 16 -39 -4z"/>
<path d="M3964 3708 c-37 -69 -65 -72 -78 -10 -5 24 -14 42 -23 42 -10 0 -12
-10 -7 -42 11 -74 48 -96 96 -59 32 26 65 98 51 112 -8 8 -19 -5 -39 -43z"/>
<path d="M4087 3695 c-11 -80 33 -127 86 -92 34 22 75 103 60 118 -9 9 -16 2
-31 -27 -11 -22 -29 -47 -41 -58 -17 -16 -23 -17 -37 -6 -12 11 -14 24 -9 62
6 38 4 48 -8 48 -9 0 -16 -15 -20 -45z"/>
<path d="M3820 3332 c0 -32 59 -138 104 -189 24 -26 62 -59 85 -73 22 -14 43
-32 46 -40 2 -8 9 -68 15 -133 9 -102 8 -120 -5 -133 -20 -21 -20 -142 0 -191
8 -19 15 -52 15 -72 0 -76 49 -113 118 -90 18 6 82 46 142 90 115 82 160 108
222 128 46 15 121 80 142 125 19 40 21 85 5 120 -24 51 -143 106 -198 90 -24
-6 -22 -8 18 -15 106 -20 178 -82 166 -143 -12 -66 -67 -114 -177 -155 -43
-16 -126 -63 -201 -113 -172 -116 -206 -123 -207 -38 0 66 60 169 163 277 52
55 99 115 105 132 6 17 8 31 5 31 -3 0 -42 -39 -87 -86 -78 -84 -83 -87 -133
-92 -29 -2 -53 -2 -53 0 0 47 -23 265 -30 283 -5 13 -22 31 -39 39 -52 27
-125 109 -164 183 -40 77 -57 96 -57 65z"/>
<path d="M4090 3280 c-15 -21 -29 -30 -44 -28 -13 2 -21 -2 -21 -12 0 -9 11
-16 27 -18 44 -5 100 63 69 83 -5 3 -19 -9 -31 -25z"/>
<path d="M2750 3211 c-13 -25 -10 -116 5 -116 14 0 29 115 17 127 -7 7 -14 3
-22 -11z"/>
<path d="M4900 3163 c0 -31 24 -47 49 -33 27 14 27 40 0 40 -13 0 -18 -4 -13
-12 4 -7 -2 -4 -14 6 -22 19 -22 19 -22 -1z"/>
<path d="M2900 3113 c-30 -49 -37 -73 -21 -73 12 0 71 89 71 107 0 26 -21 12
-50 -34z"/>
<path d="M2605 3141 c-8 -13 29 -93 51 -112 27 -23 27 1 -1 53 -34 65 -41 73
-50 59z"/>
<path d="M3892 2859 c-91 -59 -95 -209 -11 -341 28 -44 85 -98 102 -98 16 0 4
23 -36 68 -87 98 -121 225 -81 300 24 46 83 74 128 61 17 -5 40 -9 51 -9 19 1
19 2 -4 20 -32 27 -105 27 -149 -1z"/>
<path d="M2867 2830 c-70 -12 -90 -34 -67 -70 6 -10 33 -17 87 -20 78 -5 78
-5 103 -44 29 -45 41 -26 16 23 -23 43 -47 53 -114 45 -46 -5 -61 -3 -71 9
-10 13 -9 17 9 27 33 18 111 23 158 11 52 -14 67 -37 197 -286 87 -166 92
-173 197 -277 60 -60 105 -108 100 -108 -4 0 -31 -20 -59 -45 l-51 -45 -35 47
c-20 27 -54 66 -76 88 -44 42 -50 55 -26 55 30 0 14 18 -22 25 -79 15 -113 45
-148 132 -17 42 -30 59 -45 61 -20 3 -21 0 -15 -28 9 -39 -8 -38 -38 3 -23 30
-15 47 37 74 18 9 26 18 18 21 -7 2 -31 -6 -54 -18 -33 -17 -43 -19 -49 -8
-24 36 -1 57 79 73 17 4 32 11 32 16 0 12 -77 0 -112 -17 -25 -13 -28 -12 -39
8 -18 34 18 58 90 59 48 0 52 2 31 10 -31 13 -114 6 -135 -11 -19 -16 -19 -60
0 -86 21 -27 19 -47 -4 -41 -29 7 -53 -11 -45 -36 9 -32 34 -56 77 -79 75 -38
55 2 -22 44 -19 11 -31 25 -31 38 0 24 3 24 41 5 16 -9 40 -33 54 -55 29 -45
57 -64 85 -55 14 4 22 1 27 -12 13 -39 56 -84 101 -107 43 -22 102 -82 161
-162 19 -26 21 -35 12 -52 -18 -33 -13 -135 8 -184 58 -136 216 -273 433 -378
162 -78 334 -112 384 -76 17 13 14 14 -36 9 -173 -17 -525 155 -673 330 -55
64 -97 141 -97 177 0 54 76 143 158 184 l32 17 98 -70 c53 -39 165 -104 247
-145 83 -41 190 -101 239 -135 50 -33 92 -58 95 -56 8 9 -80 94 -130 125 -25
16 -93 50 -152 75 -59 24 -138 62 -175 84 -170 100 -402 296 -460 389 -16 26
-67 119 -113 207 -91 174 -125 221 -167 229 -62 12 -100 14 -145 6z"/>
<path d="M4520 2785 c0 -28 4 -44 10 -40 6 3 10 21 10 40 0 19 -4 37 -10 40
-6 4 -10 -12 -10 -40z"/>
<path d="M4360 2695 c0 -14 5 -25 10 -25 6 0 10 11 10 25 0 14 -4 25 -10 25
-5 0 -10 -11 -10 -25z"/>
<path d="M3957 2703 c-11 -10 -8 -43 3 -43 6 0 10 11 10 25 0 26 -2 29 -13 18z"/>
<path d="M4749 2623 c17 -21 40 -60 53 -88 86 -192 -78 -619 -353 -919 -30
-33 -76 -77 -102 -98 -42 -33 -46 -38 -25 -38 73 0 297 268 407 489 140 279
161 537 52 651 -48 51 -72 52 -32 3z"/>
<path d="M838 2510 c-49 -15 -86 -50 -115 -108 -27 -54 -28 -64 -28 -197 0
-152 13 -227 67 -390 71 -213 209 -424 329 -504 64 -43 156 -69 185 -53 16 9
16 10 -2 15 -10 3 -38 9 -62 12 -179 28 -402 374 -476 737 -21 101 -21 258 0
329 16 53 63 111 124 151 27 18 20 21 -22 8z"/>
<path d="M3782 2433 c-52 -134 -79 -249 -73 -316 2 -34 21 -6 21 32 0 38 47
217 76 289 8 23 14 49 12 59 -2 11 -17 -16 -36 -64z"/>
<path d="M1720 2470 c0 -5 4 -10 9 -10 17 0 70 -63 101 -121 30 -56 43 -69 54
-51 7 11 -66 131 -100 165 -26 27 -64 37 -64 17z"/>
<path d="M3856 2229 c-10 -96 -7 -201 4 -197 14 4 25 258 12 258 -5 0 -12 -28
-16 -61z"/>
<path d="M4240 2049 c-14 -22 -53 -69 -87 -104 -35 -35 -63 -71 -63 -81 0 -13
18 -1 61 41 71 70 129 146 129 169 0 26 -13 18 -40 -25z"/>
<path d="M1182 1923 c27 -60 62 -113 74 -113 16 0 11 11 -44 98 -13 20 -38 32
-30 15z"/>
<path d="M2255 1812 c-10 -10 -5 -22 16 -32 22 -12 49 1 49 25 0 11 -55 17
-65 7z"/>
<path d="M4780 1726 c0 -36 23 -50 57 -34 38 18 43 48 8 48 -21 0 -26 -4 -21
-17 4 -12 0 -10 -10 5 -21 29 -34 28 -34 -2z"/>
<path d="M2060 1691 c0 -18 71 -245 101 -323 27 -70 49 -99 49 -65 0 7 -29 98
-65 202 -36 104 -65 190 -65 192 0 2 -4 3 -10 3 -5 0 -10 -4 -10 -9z"/>
<path d="M480 1651 c0 -11 7 -26 15 -35 21 -21 75 -2 75 26 0 17 -5 20 -30 15
-17 -4 -30 -2 -30 3 0 6 -7 10 -15 10 -8 0 -15 -9 -15 -19z"/>
<path d="M3145 1641 c-98 -45 -139 -151 -96 -247 29 -64 72 -89 153 -89 52 0
73 5 94 21 41 30 66 68 62 94 -3 21 -5 20 -28 -15 -14 -21 -30 -40 -36 -42
-11 -4 -64 110 -64 139 0 9 5 40 11 68 14 64 29 64 87 3 36 -39 43 -43 37 -23
-13 43 -35 68 -79 90 -52 25 -89 25 -141 1z m77 -42 c-10 -72 -23 -97 -81
-148 -35 -30 -62 -47 -66 -41 -12 19 -7 97 8 126 19 37 44 59 87 78 44 19 56
16 52 -15z m-49 -202 c-9 -31 -20 -57 -24 -57 -4 0 -17 9 -30 20 l-24 19 45
40 c25 21 46 38 47 37 1 -1 -6 -27 -14 -59z m87 -49 c0 -17 -22 -24 -60 -18
-21 3 -21 1 -3 64 l16 58 23 -43 c13 -24 23 -52 24 -61z"/>
<path d="M4614 1483 c7 -187 12 -233 26 -233 7 0 3 372 -5 398 -3 6 -9 12 -16
12 -8 0 -9 -48 -5 -177z"/>
<path d="M1676 1509 c-38 -30 -32 -44 8 -20 18 12 35 21 37 21 2 0 4 -21 4
-46 0 -33 5 -48 18 -55 27 -16 20 -38 -15 -47 -25 -6 -34 -15 -40 -40 -12 -45
-26 -48 -45 -8 l-16 35 -32 -19 c-18 -11 -35 -20 -39 -20 -14 0 -4 35 16 57
22 24 22 25 5 54 -23 41 -22 45 16 59 31 11 31 12 10 22 -12 6 -33 8 -47 4
-20 -5 -26 -13 -26 -34 0 -15 7 -38 16 -50 22 -31 7 -47 -84 -89 -40 -19 -70
-38 -67 -43 6 -10 33 -2 85 25 26 13 30 13 30 1 0 -8 7 -22 16 -30 14 -14 19
-14 51 -1 36 15 52 9 53 -17 0 -5 11 -8 23 -8 25 0 49 22 60 53 4 10 20 23 36
28 17 6 33 19 36 29 8 25 -10 57 -35 65 -16 5 -18 10 -10 31 6 14 10 34 10 45
0 26 -39 25 -74 -2z"/>
<path d="M3632 1412 c-6 -26 -17 -66 -24 -89 -8 -30 -9 -48 -1 -65 13 -27 14
-24 33 67 20 96 23 122 13 128 -5 3 -14 -16 -21 -41z"/>
<path d="M1631 1416 c-20 -24 -6 -48 26 -44 22 2 28 8 28 28 0 30 -35 40 -54
16z"/>
<path d="M1875 1375 c10 -81 29 -99 23 -22 -3 32 -10 63 -17 70 -10 10 -11 0
-6 -48z"/>
<path d="M3786 1363 c-9 -56 -7 -203 3 -203 10 0 21 97 21 181 0 66 -14 79
-24 22z"/>
<path d="M910 1296 c0 -74 7 -105 21 -92 8 9 -3 176 -12 176 -5 0 -9 -38 -9
-84z"/>
<path d="M4212 1248 c-15 -15 -16 -58 -2 -58 6 0 10 12 10 27 l0 28 25 -28
c37 -39 51 -33 19 8 -29 38 -34 41 -52 23z"/>
<path d="M4321 1201 c-11 -7 -9 -10 8 -16 27 -8 27 -41 0 -56 -18 -9 -20 -17
-14 -55 7 -47 -6 -59 -25 -24 -13 24 -28 25 -52 3 -19 -17 -22 -12 -18 34 1
14 -8 28 -25 39 l-27 18 24 18 23 18 -27 0 c-15 0 -30 -5 -33 -11 -11 -17 4
-57 24 -64 12 -4 17 -12 14 -24 -6 -24 13 -61 31 -61 8 0 19 7 26 15 11 13 15
11 32 -11 13 -16 28 -24 42 -22 18 3 21 9 20 53 0 41 4 53 23 68 29 23 29 51
1 71 -26 18 -28 19 -47 7z"/>
<path d="M4240 1144 c-11 -12 -11 -18 2 -30 14 -14 17 -14 32 1 13 13 14 20 5
31 -15 18 -24 18 -39 -2z"/>
<path d="M1005 1125 c-36 -19 -55 -42 -55 -67 0 -13 9 -9 35 20 29 31 36 34
45 22 21 -33 22 -94 1 -142 -11 -27 -24 -48 -28 -48 -4 0 -17 12 -30 28 -19
22 -22 24 -23 9 0 -31 56 -75 104 -82 80 -12 146 47 146 130 0 49 -27 91 -77
122 -44 27 -76 29 -118 8z m96 -31 c35 -18 71 -88 62 -122 -7 -28 -11 -28 -51
8 -32 30 -43 49 -56 103 -7 31 2 34 45 11z m-38 -202 c-35 -5 -37 1 -17 44
l17 39 12 -40 c12 -39 11 -40 -12 -43z m65 21 c-14 -17 -24 -7 -34 32 l-7 30
26 -24 c21 -19 24 -27 15 -38z"/>
<path d="M2426 1123 c-4 -5 -20 -8 -34 -8 -35 0 -35 -25 0 -44 22 -13 29 -13
42 -2 9 7 16 24 16 37 0 24 -10 31 -24 17z"/>
<path d="M2945 960 c-3 -5 -1 -18 4 -27 10 -17 10 -17 11 0 0 15 3 16 20 7 25
-13 26 -2 3 16 -22 16 -30 17 -38 4z"/>
<path d="M3020 950 c0 -5 9 -10 20 -10 23 0 26 -10 8 -28 -9 -9 -8 -17 2 -37
16 -29 7 -43 -15 -25 -12 10 -18 10 -30 0 -12 -10 -15 -10 -15 3 0 9 -9 21
-20 27 -11 6 -18 15 -15 21 4 5 -1 9 -9 9 -24 0 -20 -41 4 -47 11 -3 20 -12
20 -19 0 -19 27 -29 43 -16 7 6 18 7 26 2 32 -19 56 21 29 48 -8 8 -9 18 -1
34 5 13 8 29 6 36 -5 14 -53 17 -53 2z"/>
<path d="M2987 903 c-12 -11 -8 -23 8 -23 8 0 15 7 15 15 0 16 -12 20 -23 8z"/>
</g>
</svg>
